#N canvas 6 160 532 230 12;
#X obj 97 109 expr~ tanh($v1);
#X obj 97 130 hip~ 3;
#X obj 377 146 tgl 15 0 empty empty empty 17 7 0 10 -262144 -1 -1 0
1;
#X obj 377 166 s pdl;
#X obj 377 103 ctlin 64;
#X obj 377 124 == 127;
#X obj 197 109 expr~ tanh($v1);
#X obj 197 130 hip~ 3;
#X obj 97 46 catch~ \$0-L;
#X obj 197 46 catch~ \$0-R;
#X obj 439 109 loadbang;
#X msg 439 130 0;
#X obj 326 28 vsl 17 127 1 127 0 1 empty empty VELOCITY 0 -9 0 10 -262144
-1 -1 12600 1;
#X obj 327 165 nbx 3 17 1 127 0 0 empty empty empty 0 -8 0 10 -262144
-1 -1 127 256;
#X obj 327 187 v \$0-vel;
#X obj 8 155 pack f f f;
#X obj 8 176 s \$0-poly;
#X text 377 82 SUSTAIN PEDAL;
#X obj 97 88 hip~ 100;
#X obj 197 88 hip~ 100;
#X obj 8 134 poly 16 1;
#X obj 97 67 /~ 12;
#X obj 197 67 /~ 12;
#X obj 8 14 inlet;
#X obj 68 15 inlet;
#N canvas 398 96 463 931 piano_resonator 0;
#X obj 35 15 r \$0-poly;
#X obj 35 36 route 1;
#X obj 35 78 throw~ \$0-L;
#X obj 35 98 throw~ \$0-R;
#X obj 125 15 r \$0-poly;
#X obj 125 36 route 1;
#X obj 125 78 throw~ \$0-L;
#X obj 125 98 throw~ \$0-R;
#X obj 35 125 r \$0-poly;
#X obj 35 188 throw~ \$0-L;
#X obj 35 208 throw~ \$0-R;
#X obj 125 125 r \$0-poly;
#X obj 125 188 throw~ \$0-L;
#X obj 125 208 throw~ \$0-R;
#X obj 35 146 route 2;
#X obj 125 146 route 2;
#X obj 35 235 r \$0-poly;
#X obj 35 298 throw~ \$0-L;
#X obj 35 318 throw~ \$0-R;
#X obj 125 235 r \$0-poly;
#X obj 125 298 throw~ \$0-L;
#X obj 125 318 throw~ \$0-R;
#X obj 35 345 r \$0-poly;
#X obj 35 408 throw~ \$0-L;
#X obj 35 428 throw~ \$0-R;
#X obj 125 345 r \$0-poly;
#X obj 125 408 throw~ \$0-L;
#X obj 125 428 throw~ \$0-R;
#X obj 35 256 route 3;
#X obj 125 256 route 3;
#X obj 35 366 route 4;
#X obj 125 366 route 4;
#X obj 35 455 r \$0-poly;
#X obj 35 518 throw~ \$0-L;
#X obj 35 538 throw~ \$0-R;
#X obj 125 455 r \$0-poly;
#X obj 125 518 throw~ \$0-L;
#X obj 125 538 throw~ \$0-R;
#X obj 35 565 r \$0-poly;
#X obj 35 628 throw~ \$0-L;
#X obj 35 648 throw~ \$0-R;
#X obj 125 565 r \$0-poly;
#X obj 125 628 throw~ \$0-L;
#X obj 125 648 throw~ \$0-R;
#X obj 35 675 r \$0-poly;
#X obj 35 738 throw~ \$0-L;
#X obj 35 758 throw~ \$0-R;
#X obj 125 675 r \$0-poly;
#X obj 125 738 throw~ \$0-L;
#X obj 125 758 throw~ \$0-R;
#X obj 35 785 r \$0-poly;
#X obj 35 848 throw~ \$0-L;
#X obj 35 868 throw~ \$0-R;
#X obj 125 785 r \$0-poly;
#X obj 125 848 throw~ \$0-L;
#X obj 125 868 throw~ \$0-R;
#X obj 35 476 route 5;
#X obj 125 476 route 5;
#X obj 35 586 route 6;
#X obj 125 586 route 6;
#X obj 35 696 route 7;
#X obj 125 696 route 7;
#X obj 35 806 route 8;
#X obj 125 806 route 8;
#X obj 225 15 r \$0-poly;
#X obj 225 78 throw~ \$0-L;
#X obj 225 98 throw~ \$0-R;
#X obj 315 15 r \$0-poly;
#X obj 315 78 throw~ \$0-L;
#X obj 315 98 throw~ \$0-R;
#X obj 225 125 r \$0-poly;
#X obj 225 188 throw~ \$0-L;
#X obj 225 208 throw~ \$0-R;
#X obj 315 125 r \$0-poly;
#X obj 315 188 throw~ \$0-L;
#X obj 315 208 throw~ \$0-R;
#X obj 225 235 r \$0-poly;
#X obj 225 298 throw~ \$0-L;
#X obj 225 318 throw~ \$0-R;
#X obj 315 235 r \$0-poly;
#X obj 315 298 throw~ \$0-L;
#X obj 315 318 throw~ \$0-R;
#X obj 225 345 r \$0-poly;
#X obj 225 408 throw~ \$0-L;
#X obj 225 428 throw~ \$0-R;
#X obj 315 345 r \$0-poly;
#X obj 315 408 throw~ \$0-L;
#X obj 315 428 throw~ \$0-R;
#X obj 225 455 r \$0-poly;
#X obj 225 518 throw~ \$0-L;
#X obj 225 538 throw~ \$0-R;
#X obj 315 455 r \$0-poly;
#X obj 315 518 throw~ \$0-L;
#X obj 315 538 throw~ \$0-R;
#X obj 225 565 r \$0-poly;
#X obj 225 628 throw~ \$0-L;
#X obj 225 648 throw~ \$0-R;
#X obj 315 565 r \$0-poly;
#X obj 315 628 throw~ \$0-L;
#X obj 315 648 throw~ \$0-R;
#X obj 225 675 r \$0-poly;
#X obj 225 738 throw~ \$0-L;
#X obj 225 758 throw~ \$0-R;
#X obj 315 675 r \$0-poly;
#X obj 315 738 throw~ \$0-L;
#X obj 315 758 throw~ \$0-R;
#X obj 225 785 r \$0-poly;
#X obj 225 848 throw~ \$0-L;
#X obj 225 868 throw~ \$0-R;
#X obj 315 785 r \$0-poly;
#X obj 315 848 throw~ \$0-L;
#X obj 315 868 throw~ \$0-R;
#X obj 225 36 route 9;
#X obj 315 36 route 9;
#X obj 225 146 route 10;
#X obj 315 146 route 10;
#X obj 225 256 route 11;
#X obj 315 256 route 11;
#X obj 225 366 route 12;
#X obj 315 366 route 12;
#X obj 225 476 route 13;
#X obj 315 476 route 13;
#X obj 225 586 route 14;
#X obj 315 586 route 14;
#X obj 225 696 route 15;
#X obj 315 696 route 15;
#X obj 225 806 route 16;
#X obj 315 806 route 16;
#X obj 35 57 piano~ 1456 1;
#X obj 35 167 piano~ 1456 1;
#X obj 35 277 piano~ 1456 1;
#X obj 35 387 piano~ 1456 1;
#X obj 35 497 piano~ 1456 1;
#X obj 35 607 piano~ 1456 1;
#X obj 35 717 piano~ 1456 1;
#X obj 35 827 piano~ 1456 1;
#X obj 125 57 piano~ 420 2;
#X obj 125 167 piano~ 420 2;
#X obj 125 277 piano~ 420 2;
#X obj 125 387 piano~ 420 2;
#X obj 125 497 piano~ 420 2;
#X obj 125 607 piano~ 420 2;
#X obj 125 717 piano~ 420 2;
#X obj 125 827 piano~ 420 2;
#X obj 315 167 piano~ 420 2;
#X obj 315 277 piano~ 420 2;
#X obj 315 387 piano~ 420 2;
#X obj 315 497 piano~ 420 2;
#X obj 315 607 piano~ 420 2;
#X obj 315 717 piano~ 420 2;
#X obj 315 827 piano~ 420 2;
#X obj 225 57 piano~ 1456 1;
#X obj 225 167 piano~ 1456 1;
#X obj 225 277 piano~ 1456 1;
#X obj 225 387 piano~ 1456 1;
#X obj 225 497 piano~ 1456 1;
#X obj 225 607 piano~ 1456 1;
#X obj 225 717 piano~ 1456 1;
#X obj 225 827 piano~ 1456 1;
#X obj 315 57 piano~ 420 2;
#X connect 0 0 1 0;
#X connect 1 0 128 0;
#X connect 4 0 5 0;
#X connect 5 0 136 0;
#X connect 8 0 14 0;
#X connect 11 0 15 0;
#X connect 14 0 129 0;
#X connect 15 0 137 0;
#X connect 16 0 28 0;
#X connect 19 0 29 0;
#X connect 22 0 30 0;
#X connect 25 0 31 0;
#X connect 28 0 130 0;
#X connect 29 0 138 0;
#X connect 30 0 131 0;
#X connect 31 0 139 0;
#X connect 32 0 56 0;
#X connect 35 0 57 0;
#X connect 38 0 58 0;
#X connect 41 0 59 0;
#X connect 44 0 60 0;
#X connect 47 0 61 0;
#X connect 50 0 62 0;
#X connect 53 0 63 0;
#X connect 56 0 132 0;
#X connect 57 0 140 0;
#X connect 58 0 133 0;
#X connect 59 0 141 0;
#X connect 60 0 134 0;
#X connect 61 0 142 0;
#X connect 62 0 135 0;
#X connect 63 0 143 0;
#X connect 64 0 112 0;
#X connect 67 0 113 0;
#X connect 70 0 114 0;
#X connect 73 0 115 0;
#X connect 76 0 116 0;
#X connect 79 0 117 0;
#X connect 82 0 118 0;
#X connect 85 0 119 0;
#X connect 88 0 120 0;
#X connect 91 0 121 0;
#X connect 94 0 122 0;
#X connect 97 0 123 0;
#X connect 100 0 124 0;
#X connect 103 0 125 0;
#X connect 106 0 126 0;
#X connect 109 0 127 0;
#X connect 112 0 151 0;
#X connect 113 0 159 0;
#X connect 114 0 152 0;
#X connect 115 0 144 0;
#X connect 116 0 153 0;
#X connect 117 0 145 0;
#X connect 118 0 154 0;
#X connect 119 0 146 0;
#X connect 120 0 155 0;
#X connect 121 0 147 0;
#X connect 122 0 156 0;
#X connect 123 0 148 0;
#X connect 124 0 157 0;
#X connect 125 0 149 0;
#X connect 126 0 158 0;
#X connect 127 0 150 0;
#X connect 128 0 2 0;
#X connect 128 1 3 0;
#X connect 129 0 9 0;
#X connect 129 1 10 0;
#X connect 130 0 17 0;
#X connect 130 1 18 0;
#X connect 131 0 23 0;
#X connect 131 1 24 0;
#X connect 132 0 33 0;
#X connect 132 1 34 0;
#X connect 133 0 39 0;
#X connect 133 1 40 0;
#X connect 134 0 45 0;
#X connect 134 1 46 0;
#X connect 135 0 51 0;
#X connect 135 1 52 0;
#X connect 136 0 6 0;
#X connect 136 1 7 0;
#X connect 137 0 12 0;
#X connect 137 1 13 0;
#X connect 138 0 20 0;
#X connect 138 1 21 0;
#X connect 139 0 26 0;
#X connect 139 1 27 0;
#X connect 140 0 36 0;
#X connect 140 1 37 0;
#X connect 141 0 42 0;
#X connect 141 1 43 0;
#X connect 142 0 48 0;
#X connect 142 1 49 0;
#X connect 143 0 54 0;
#X connect 143 1 55 0;
#X connect 144 0 74 0;
#X connect 144 1 75 0;
#X connect 145 0 80 0;
#X connect 145 1 81 0;
#X connect 146 0 86 0;
#X connect 146 1 87 0;
#X connect 147 0 92 0;
#X connect 147 1 93 0;
#X connect 148 0 98 0;
#X connect 148 1 99 0;
#X connect 149 0 104 0;
#X connect 149 1 105 0;
#X connect 150 0 110 0;
#X connect 150 1 111 0;
#X connect 151 0 65 0;
#X connect 151 1 66 0;
#X connect 152 0 71 0;
#X connect 152 1 72 0;
#X connect 153 0 77 0;
#X connect 153 1 78 0;
#X connect 154 0 83 0;
#X connect 154 1 84 0;
#X connect 155 0 89 0;
#X connect 155 1 90 0;
#X connect 156 0 95 0;
#X connect 156 1 96 0;
#X connect 157 0 101 0;
#X connect 157 1 102 0;
#X connect 158 0 107 0;
#X connect 158 1 108 0;
#X connect 159 0 68 0;
#X connect 159 1 69 0;
#X restore 120 14 pd piano_resonator;
#X obj 97 152 outlet~;
#X obj 197 152 outlet~;
#X obj 274 16 inlet;
#X connect 0 0 1 0;
#X connect 1 0 26 0;
#X connect 2 0 3 0;
#X connect 4 0 5 0;
#X connect 5 0 2 0;
#X connect 6 0 7 0;
#X connect 7 0 27 0;
#X connect 8 0 21 0;
#X connect 9 0 22 0;
#X connect 10 0 11 0;
#X connect 11 0 2 0;
#X connect 12 0 13 0;
#X connect 13 0 14 0;
#X connect 15 0 16 0;
#X connect 18 0 0 0;
#X connect 19 0 6 0;
#X connect 20 0 15 0;
#X connect 20 1 15 1;
#X connect 20 2 15 2;
#X connect 21 0 18 0;
#X connect 22 0 19 0;
#X connect 23 0 20 0;
#X connect 24 0 20 1;
#X connect 28 0 2 0;
