#N canvas 32 615 579 383 10;
#X obj 95 108 ggee/shell;
#X obj 35 136 print;
#X msg 94 69 ls;
#X obj 145 146 bng 15 250 50 0 empty empty empty 17 7 0 10 -262144
-1 -1;
#X obj 127 195 + 1;
#X obj 93 197 i;
#X floatatom 78 224 5 0 0 0 - - -;
#X obj 93 152 b;
#X obj 193 106 ggee/shell;
#X obj 352 47 print;
#X msg 236 182 \$1/m-onzAV/;
#X msg 192 67 pwd;
#X obj 408 125 bng 17 250 50 0 empty empty empty 17 7 0 10 -228856
-1 -1;
#X obj 382 152 else/dir;
#X text 428 125 <= same as "n \, dir \, dump";
#X floatatom 461 177 5 0 0 0 - - -;
#X obj 322 242 else/display 50;
#X obj 311 333 print;
#X msg 289 286 \$1/sdfsdf;
#X connect 0 0 1 0;
#X connect 0 0 7 0;
#X connect 0 1 3 0;
#X connect 2 0 0 0;
#X connect 4 0 5 1;
#X connect 5 0 4 0;
#X connect 5 0 6 0;
#X connect 7 0 5 0;
#X connect 11 0 8 0;
#X connect 12 0 13 0;
#X connect 13 1 16 0;
#X connect 13 1 18 0;
#X connect 13 2 15 0;
#X connect 18 0 17 0;
