#N canvas 734 62 849 766 10;
#X declare -path visuals;
#X declare -path audio;
#X text 4 4 m-onz;
#X text 4 15 m-onz.net;
#X obj 145 125 m-vj, f 19;
#X obj 255 622 s m-vj-out;
#X obj 145 104 tgl 20 0 empty empty empty 17 7 0 10 -262144 -1 -1 0
1;
#X obj 157 343 separator;
#N canvas 324 168 512 579 newWave 0;
#X obj 40 24 inlet;
#X floatatom 143 479 5 0 0 2 size - -;
#X floatatom 144 508 5 0 0 2 height - -;
#X floatatom 80 75 5 0 0 0 - - -;
#X msg 74 205 draw line;
#X msg 74 225 draw fill;
#X msg 74 245 draw point;
#X obj 116 287 vradio 11 1 0 11 empty empty action -10 -6 0 8 -262144
-1 -1 4;
#X floatatom 177 191 5 0 100 0 - - -;
#X obj 177 209 / 100;
#X msg 177 228 K1 \$1;
#X obj 45 492 t a b;
#X floatatom 177 251 5 0 100 0 - - -;
#X obj 177 269 / 100;
#X floatatom 177 311 5 0 100 0 - - -;
#X obj 177 329 / 100;
#X floatatom 227 191 5 0 100 0 - - -;
#X obj 227 209 / 100;
#X floatatom 227 251 5 0 100 0 - - -;
#X obj 227 269 / 100;
#X floatatom 227 311 5 0 100 0 - - -;
#X obj 227 329 / 100;
#X msg 227 228 D1 \$1;
#X msg 227 288 D2 \$1;
#X msg 227 348 D3 \$1;
#X msg 177 348 K3 \$1;
#X msg 177 288 K2 \$1;
#X obj 146 305 t a;
#X obj 146 245 t a;
#X obj 146 365 t a;
#X msg 339 302 position 1 1 10;
#X msg 337 348 noise 1;
#X obj 44 527 newWave 30 10;
#X msg 53 179 texture 0;
#X msg 324 405 force 15 5 -0.5;
#X obj 48 94 rotateXYZ 135 0 0;
#X floatatom 110 71 5 0 0 0 - - -;
#X obj 46 53 translateXYZ;
#X floatatom 140 75 5 0 0 0 - - -;
#X floatatom 79 24 5 0 0 0 - - -;
#X floatatom 109 20 5 0 0 0 - - -;
#X floatatom 139 24 5 0 0 0 - - -;
#X obj 223 18 tgl 15 0 empty empty empty 17 7 0 10 -262144 -1 -1 1
1;
#X obj 223 67 i 0;
#X obj 251 66 + 1;
#X floatatom 223 87 5 0 0 0 - - -;
#X obj 252 119 / 2;
#X obj 253 140 % 100;
#X obj 223 41 metro 40;
#X obj 333 11 loadbang;
#X obj 97 -15 unpack 0 0 0 0 0 0 0;
#X obj 319 108 random 100;
#X obj 310 77 b;
#X obj 319 148 sel 1;
#X obj 321 174 bng 15 250 50 0 empty empty empty 17 7 0 10 -262144
-1 -1;
#X obj 319 128 > 98;
#X obj 303 252 random 9;
#X msg 335 33 -2 -2 -1 12 -23 3 14;
#X obj 404 204 inlet;
#X connect 0 0 37 0;
#X connect 1 0 32 1;
#X connect 2 0 32 2;
#X connect 3 0 35 1;
#X connect 4 0 32 0;
#X connect 5 0 32 0;
#X connect 6 0 32 0;
#X connect 7 0 32 3;
#X connect 8 0 9 0;
#X connect 9 0 10 0;
#X connect 10 0 28 0;
#X connect 11 0 32 0;
#X connect 11 1 32 0;
#X connect 12 0 13 0;
#X connect 13 0 26 0;
#X connect 14 0 15 0;
#X connect 15 0 25 0;
#X connect 16 0 17 0;
#X connect 17 0 22 0;
#X connect 18 0 19 0;
#X connect 19 0 23 0;
#X connect 20 0 21 0;
#X connect 21 0 24 0;
#X connect 22 0 28 0;
#X connect 23 0 27 0;
#X connect 24 0 29 0;
#X connect 25 0 29 0;
#X connect 26 0 27 0;
#X connect 27 0 29 0;
#X connect 28 0 27 0;
#X connect 29 0 32 0;
#X connect 30 0 32 0;
#X connect 31 0 32 0;
#X connect 33 0 32 0;
#X connect 34 0 32 0;
#X connect 35 0 11 0;
#X connect 36 0 35 2;
#X connect 37 0 35 0;
#X connect 38 0 35 3;
#X connect 39 0 37 1;
#X connect 40 0 37 2;
#X connect 41 0 37 3;
#X connect 42 0 48 0;
#X connect 43 0 44 0;
#X connect 43 0 45 0;
#X connect 44 0 43 1;
#X connect 45 0 46 0;
#X connect 45 0 52 0;
#X connect 46 0 47 0;
#X connect 47 0 38 0;
#X connect 48 0 43 0;
#X connect 49 0 42 0;
#X connect 49 0 57 0;
#X connect 49 0 4 0;
#X connect 50 0 39 0;
#X connect 50 1 40 0;
#X connect 50 2 41 0;
#X connect 50 3 3 0;
#X connect 50 4 36 0;
#X connect 50 5 1 0;
#X connect 50 6 2 0;
#X connect 51 0 55 0;
#X connect 52 0 51 0;
#X connect 53 0 54 0;
#X connect 54 0 56 0;
#X connect 55 0 53 0;
#X connect 57 0 50 0;
#X connect 58 0 31 0;
#X restore 156 368 pd newWave;
#X obj 256 148 pix-fx-m-onz-lines;
#X obj 291 101 tgl 15 0 empty empty empty 17 7 0 10 -262144 -1 -1 0
1;
#X obj 362 125 bng 15 250 50 0 empty empty empty 17 7 0 10 -262144
-1 -1;
#X obj 326 122 bng 15 250 50 0 empty empty empty 17 7 0 10 -262144
-1 -1;
#N canvas 127 344 454 304 gemwin 0;
#X obj 132 136 gemwin;
#X obj 67 89 outlet;
#X obj 67 10 inlet;
#X obj 67 41 route create;
#X msg 67 70 set destroy;
#X msg 182 68 set create;
#X msg 132 112 create \, 1;
#X msg 238 112 destroy;
#N canvas 87 154 247 179 Gem.init 0;
#X obj 59 26 loadbang;
#X msg 118 81 reset;
#X obj 118 113 outlet;
#X obj 59 45 t b b;
#X msg 51 75 lighting 1;
#X connect 0 0 3 0;
#X connect 1 0 2 0;
#X connect 3 0 4 0;
#X connect 3 1 1 0;
#X connect 4 0 2 0;
#X restore 289 80 pd Gem.init;
#X obj 209 185 r \$0-gemwin-in;
#N canvas 376 500 405 359 fullscreen 0;
#X text -88 -108 fullscreen 0/1: make fullscreen-window (if possible
with the dimensions passed via "dimen");
#X text -88 -64 on platform's that support it (currently: Mac OS X)
you can specify on which screen you want to go fullscreen (if you have
several screens): e.g. "fullscreen 2" will make a fullscreen-window
on Screen2;
#X text -86 -130 FULLSCREEN SUPPORT;
#X obj -85 -1 vradio 15 1 0 3 empty empty empty 0 -8 0 10 -262144 -1
-1 1;
#X floatatom -85 50 5 0 0 0 - - -;
#X msg -85 71 reset \, fullscreen \$1 \, create \, 1;
#X text -63 -4 deactivate fullscreen;
#X text -64 13 fullscreen on screen 1;
#X text -64 29 fullscreen on screen 2;
#X msg -72 126 0 \, destroy;
#X text -89 182 BE CAREFUL : when you are in fullscreen mode \, you
have no more access to the other windows of your system.;
#N canvas 107 50 450 300 esc 0;
#X obj 65 20 gemkeyboard;
#X obj 65 167 outlet;
#X obj 89 71 keyname;
#X obj 128 96 sel Escape;
#X obj 65 41 sel 53;
#X obj 189 47 sel Escape;
#X obj 150 22 gemkeyname;
#X connect 0 0 4 0;
#X connect 2 1 3 0;
#X connect 3 0 1 0;
#X connect 4 0 1 0;
#X connect 5 0 1 0;
#X connect 6 1 5 0;
#X restore -72 104 pd esc;
#X obj -85 155 s \$0-gemwin-in;
#X text 111 11 press ESC to quit;
#X connect 3 0 4 0;
#X connect 4 0 5 0;
#X connect 5 0 12 0;
#X connect 9 0 12 0;
#X connect 11 0 9 0;
#X restore 70 176 pd fullscreen;
#X connect 2 0 3 0;
#X connect 3 0 4 0;
#X connect 3 0 6 0;
#X connect 3 1 5 0;
#X connect 3 1 7 0;
#X connect 4 0 1 0;
#X connect 5 0 1 0;
#X connect 6 0 0 0;
#X connect 7 0 0 0;
#X connect 8 0 0 0;
#X connect 9 0 0 0;
#X restore 490 38 pd gemwin;
#X msg 490 14 create;
#X obj 413 15 gemhead;
#X obj 413 38 world_light;
#X obj 274 37 declare -path visuals;
#X obj 274 13 declare -path audio;
#X obj 246 886 pix-fx-movement2;
#X obj 285 865 tgl 15 0 empty empty empty 17 7 0 10 -262144 -1 -1 0
1;
#X floatatom 340 864 5 0 100 0 - - -;
#X floatatom 306 864 5 0 100 0 - - -;
#X obj 255 255 pix-fx-bank;
#X obj 271 217 tgl 15 0 empty empty empty 17 7 0 10 -262144 -1 -1 0
1;
#X obj 302 220 bng 15 250 50 0 empty empty empty 17 7 0 10 -262144
-1 -1;
#X obj 323 221 bng 15 250 50 0 empty empty empty 17 7 0 10 -262144
-1 -1;
#N canvas 650 96 960 984 scene 0;
#X obj 10 50 inlet;
#X obj 262 385 rotateXYZ;
#X floatatom 299 317 5 0 0 0 - - -;
#X floatatom 369 317 5 0 0 0 - - -;
#X floatatom 429 317 5 0 0 0 - - -;
#N canvas 570 428 450 300 move 0;
#X obj 60 230 outlet;
#X floatatom 60 200 5 0 0 0 - - -;
#X obj 70 86 f 0;
#X obj 130 90 + 1;
#X obj 70 119 % 199;
#X obj 70 20 inlet;
#X obj 70 53 metro 40;
#X connect 1 0 0 0;
#X connect 2 0 3 0;
#X connect 2 0 4 0;
#X connect 3 0 2 1;
#X connect 4 0 1 0;
#X connect 5 0 6 0;
#X connect 6 0 2 0;
#X restore 302 212 pd move;
#X obj 512 92 tgl 27 0 empty empty empty 17 7 0 10 -262144 -1 -1 1
1;
#N canvas 570 428 450 300 move 0;
#X obj 60 230 outlet;
#X floatatom 60 200 5 0 0 0 - - -;
#X obj 70 86 f 0;
#X obj 130 90 + 1;
#X obj 70 119 % 199;
#X obj 70 20 inlet;
#X obj 70 53 metro 40;
#X connect 1 0 0 0;
#X connect 2 0 3 0;
#X connect 2 0 4 0;
#X connect 3 0 2 1;
#X connect 4 0 1 0;
#X connect 5 0 6 0;
#X connect 6 0 2 0;
#X restore 432 222 pd move;
#N canvas 570 428 450 300 move 0;
#X obj 60 230 outlet;
#X floatatom 60 200 5 0 0 0 - - -;
#X obj 70 86 f 0;
#X obj 130 90 + 1;
#X obj 70 119 % 199;
#X obj 70 20 inlet;
#X obj 70 53 metro 40;
#X connect 1 0 0 0;
#X connect 2 0 3 0;
#X connect 2 0 4 0;
#X connect 3 0 2 1;
#X connect 4 0 1 0;
#X connect 5 0 6 0;
#X connect 6 0 2 0;
#X restore 372 182 pd move;
#X obj 262 352 scale 0.1;
#X floatatom 120 270 5 0 0 0 - - -;
#X obj 450 580 hradio 15 0 0 7 empty empty empty 0 -8 0 10 -262144
-1 -1 3;
#X floatatom 450 550 5 0 0 0 - - -;
#X obj 752 622 hradio 15 0 0 7 empty empty empty 0 -8 0 10 -262144
-1 -1 3;
#X floatatom 752 592 5 0 0 0 - - -;
#X obj 564 322 rotateXYZ;
#X floatatom 589 267 5 0 0 0 - - -;
#X floatatom 659 267 5 0 0 0 - - -;
#X floatatom 719 267 5 0 0 0 - - -;
#N canvas 570 428 450 300 move 0;
#X obj 60 230 outlet;
#X floatatom 60 200 5 0 0 0 - - -;
#X obj 70 86 f 0;
#X obj 130 90 + 1;
#X obj 70 119 % 199;
#X obj 70 20 inlet;
#X obj 32 51 metro 40;
#X connect 1 0 0 0;
#X connect 2 0 3 0;
#X connect 2 0 4 0;
#X connect 3 0 2 1;
#X connect 4 0 1 0;
#X connect 5 0 6 0;
#X connect 6 0 2 0;
#X restore 589 157 pd move;
#X obj 632 92 tgl 27 0 empty empty empty 17 7 0 10 -262144 -1 -1 1
1;
#N canvas 570 434 450 300 move 0;
#X obj 60 230 outlet;
#X floatatom 60 200 5 0 0 0 - - -;
#X obj 70 86 f 0;
#X obj 130 90 + 1;
#X obj 70 119 % 199;
#X obj 70 20 inlet;
#X obj 71 61 metro 400;
#X connect 1 0 0 0;
#X connect 2 0 3 0;
#X connect 2 0 4 0;
#X connect 3 0 2 1;
#X connect 4 0 1 0;
#X connect 5 0 6 0;
#X connect 6 0 2 0;
#X restore 799 167 pd move;
#N canvas 570 428 450 300 move 0;
#X obj 60 230 outlet;
#X floatatom 60 200 5 0 0 0 - - -;
#X obj 70 86 f 0;
#X obj 130 90 + 1;
#X obj 70 119 % 199;
#X obj 70 20 inlet;
#X obj 42 53 metro 40;
#X connect 1 0 0 0;
#X connect 2 0 3 0;
#X connect 2 0 4 0;
#X connect 3 0 2 1;
#X connect 4 0 1 0;
#X connect 5 0 6 0;
#X connect 6 0 2 0;
#X restore 679 147 pd move;
#N canvas 50 96 960 677 m-particle 0;
#X obj 237 302 part_head;
#X text 412 565 set the number per frame;
#X text 451 584 set the age to kill at;
#X text 366 331 the velocity domain;
#X text 365 346 a sphere at 0 \, 0.2 \, 0;
#X text 366 365 radius = 0.3;
#X msg 341 391 0 0.2 0 0.3;
#X msg 428 390 0.2 0 0 0.3;
#X obj 232 623 part_render;
#X obj 233 352 part_size 1;
#X msg 327 326 2;
#X msg 297 325 1;
#X text 570 390 <domain>: one of "point" \, "line" \, "triangle" \,
"plane" \, "box" \, "sphere" \, "cylinder" \, "cone" \, "blob" \, "disc"
\, "rectangle";
#X obj 232 524 part_velocity sphere 0 0.2 0 0.3;
#X obj 232 554 part_source 1;
#X msg 112 622 draw line;
#X obj 92 662 cube 0.4;
#X obj 100 60 inlet;
#X obj 250 240 loadbang;
#X obj 230 820 outlet;
#X msg 252 272 speed 0.1;
#X obj 232 585 part_killold 11;
#X connect 0 0 9 0;
#X connect 6 0 13 2;
#X connect 7 0 13 2;
#X connect 8 0 16 0;
#X connect 8 0 19 0;
#X connect 9 0 13 0;
#X connect 10 0 9 1;
#X connect 11 0 9 1;
#X connect 13 0 14 0;
#X connect 14 0 21 0;
#X connect 15 0 16 0;
#X connect 17 0 0 0;
#X connect 17 0 16 0;
#X connect 18 0 20 0;
#X connect 18 0 15 0;
#X connect 20 0 0 0;
#X connect 21 0 8 0;
#X restore 572 572 pd m-particle;
#X obj 472 22 loadbang;
#X msg 472 55 2;
#X msg 552 52 1;
#X msg 305 498 draw line;
#N canvas 176 356 450 375 texture 0;
#X obj 48 238 separator;
#X obj 29 44 gemframebuffer;
#X obj 29 22 gemhead 50;
#X obj 48 261 pix_texture;
#X obj 46 212 inlet;
#X obj 41 344 cube 1;
#X obj 40 130 cube 2;
#X msg 51 304 draw line;
#X obj 30 80 color 1 0 1;
#X connect 0 0 3 0;
#X connect 1 0 8 0;
#X connect 1 1 3 1;
#X connect 2 0 1 0;
#X connect 3 0 5 0;
#X connect 4 0 0 0;
#X connect 7 0 5 0;
#X connect 8 0 6 0;
#X restore 10 350 pd texture;
#X msg 80 410 draw fill;
#X obj 140 140 separator;
#X msg 571 628 draw line;
#X obj 52 492 cube 0.2;
#X obj 260 90 metro 5000;
#X obj 260 50 tgl 15 0 empty empty empty 17 7 0 10 -262144 -1 -1 1
1;
#X obj 290 30 loadbang;
#X obj 210 180 random 100;
#X obj 690 530 random 5;
#X obj 494 668 cube 0.1;
#X obj 120 240 / 70;
#X obj 650 680 m-model;
#X obj 327 652 m-model;
#X connect 0 0 30 0;
#X connect 1 0 15 0;
#X connect 1 0 32 0;
#X connect 1 0 41 0;
#X connect 2 0 1 1;
#X connect 3 0 1 2;
#X connect 4 0 1 3;
#X connect 5 0 2 0;
#X connect 6 0 5 0;
#X connect 6 0 8 0;
#X connect 6 0 7 0;
#X connect 7 0 4 0;
#X connect 8 0 3 0;
#X connect 9 0 1 0;
#X connect 10 0 9 1;
#X connect 11 0 41 1;
#X connect 12 0 11 0;
#X connect 13 0 40 1;
#X connect 14 0 13 0;
#X connect 15 0 23 0;
#X connect 16 0 15 1;
#X connect 17 0 15 2;
#X connect 18 0 15 3;
#X connect 19 0 16 0;
#X connect 20 0 19 0;
#X connect 20 0 22 0;
#X connect 20 0 21 0;
#X connect 21 0 18 0;
#X connect 22 0 17 0;
#X connect 23 0 38 0;
#X connect 23 0 40 0;
#X connect 24 0 25 0;
#X connect 24 0 26 0;
#X connect 25 0 14 0;
#X connect 25 0 12 0;
#X connect 25 0 10 0;
#X connect 26 0 20 0;
#X connect 26 0 6 0;
#X connect 27 0 32 0;
#X connect 27 0 38 0;
#X connect 29 0 32 0;
#X connect 30 0 9 0;
#X connect 31 0 38 0;
#X connect 33 0 36 0;
#X connect 33 0 37 0;
#X connect 34 0 33 0;
#X connect 35 0 34 0;
#X connect 35 0 27 0;
#X connect 35 0 31 0;
#X connect 36 0 12 0;
#X connect 36 0 39 0;
#X connect 37 0 14 0;
#X connect 39 0 10 0;
#X restore 124 224 pd scene;
#X obj 35 280 s film;
#X obj 35 260 bng 15 250 50 0 empty empty empty 17 7 0 10 -262144 -1
-1;
#X obj 35 220 tgl 15 0 empty empty empty 17 7 0 10 -262144 -1 -1 0
1;
#N canvas 237 572 602 586 film 0;
#X obj 68 46 separator;
#X obj 9 11 bng 16 250 50 0 empty empty empty 0 -6 0 8 -262144 -1 -1
;
#X obj 9 40 openpanel;
#X msg 9 60 open \$1;
#X obj 9 157 pix_film;
#X obj 9 422 pix_texture;
#X obj 9 444 rectangle 5.36 4.02;
#X obj 68 19 inlet;
#X obj 44 107 loadbang;
#X msg 44 128 auto 1;
#X obj 133 20 loadbang;
#X obj 40 204 bng 15 250 50 0 empty empty empty 17 7 0 10 -262144 -1
-1;
#X obj 69 177 r film;
#X msg 88 131 0;
#X obj 135 108 bng 26 250 50 0 empty empty empty 17 7 0 10 -262144
-1 -1;
#X obj 134 138 random 2000;
#X floatatom 158 199 5 0 0 3 length - -;
#X floatatom 206 199 5 0 0 3 width - -;
#X floatatom 257 199 5 0 0 3 height - -;
#X obj 159 177 unpack 0 0 0 0;
#X floatatom 242 153 5 0 0 3 fps - -;
#X obj 88 256 + 1;
#X obj 41 224 del 1;
#X obj 41 254 i 1;
#X floatatom 128 237 5 0 0 0 - - -;
#X obj 40 296 + 1;
#X obj 40 276 % 96;
#X msg 37 319 open /home/m-onz/m-onzAV/visuals/videos/L\$1.mp4;
#X msg 132 43 open /home/m-onz/m-onzAV/visuals/videos/L1.mp4;
#X obj 479 35 inlet;
#X connect 0 0 4 0;
#X connect 1 0 2 0;
#X connect 2 0 3 0;
#X connect 3 0 4 0;
#X connect 4 0 5 0;
#X connect 4 1 19 0;
#X connect 4 2 11 0;
#X connect 5 0 6 0;
#X connect 7 0 0 0;
#X connect 8 0 9 0;
#X connect 9 0 4 0;
#X connect 10 0 28 0;
#X connect 11 0 22 0;
#X connect 12 0 11 0;
#X connect 13 0 4 1;
#X connect 14 0 15 0;
#X connect 15 0 4 1;
#X connect 16 0 15 1;
#X connect 19 0 16 0;
#X connect 19 1 17 0;
#X connect 19 2 18 0;
#X connect 19 3 20 0;
#X connect 21 0 23 1;
#X connect 22 0 23 0;
#X connect 23 0 21 0;
#X connect 23 0 26 0;
#X connect 25 0 27 0;
#X connect 26 0 24 0;
#X connect 26 0 25 0;
#X connect 27 0 4 0;
#X connect 28 0 4 0;
#X connect 29 0 26 0;
#X restore 34 197 pd film;
#X obj 35 241 metro 15000;
#X obj 122 202 separator;
#X obj 295 571 tgl 15 0 empty empty empty 17 7 0 10 -262144 -1 -1 0
1;
#X floatatom 350 570 5 0 100 0 - - -;
#X floatatom 316 570 5 0 100 0 - - -;
#X obj 282 421 tgl 15 0 empty empty empty 17 7 0 10 -262144 -1 -1 0
1;
#X floatatom 310 414 5 0 0 0 - - -;
#X floatatom 330 433 5 0 0 0 - - -;
#X floatatom 370 402 5 0 0 0 - - -;
#N canvas 0 96 450 300 randref 0;
#X obj 43 238 outlet;
#X obj 90 239 outlet;
#X obj 137 236 outlet;
#X obj 123 27 inlet;
#X obj 206 29 inlet;
#X msg 206 60 0 0 0;
#X obj 206 83 unpack 0 0 0;
#X obj 35 116 random 10;
#X obj 94 141 random 50;
#X obj 150 169 random 50;
#X connect 3 0 7 0;
#X connect 3 0 8 0;
#X connect 3 0 9 0;
#X connect 4 0 5 0;
#X connect 5 0 6 0;
#X connect 6 0 0 0;
#X connect 6 1 1 0;
#X connect 6 2 2 0;
#X connect 7 0 0 0;
#X connect 8 0 1 0;
#X connect 9 0 2 0;
#X restore 313 366 pd randref;
#X obj 319 316 bng 15 250 50 0 empty empty empty 17 7 0 10 -262144
-1 -1;
#X obj 377 434 bng 15 250 50 0 empty empty empty 17 7 0 10 -262144
-1 -1;
#X obj 256 469 pix-fx-refraction;
#X obj 256 592 pix-fx-movement2;
#X obj 35 173 spigot 1;
#X obj 72 136 tgl 15 0 empty empty empty 17 7 0 10 -262144 -1 -1 0
1;
#X obj 157 312 spigot 1;
#X obj 194 275 tgl 15 0 empty empty empty 17 7 0 10 -262144 -1 -1 0
1;
#X obj 132 176 spigot 1;
#X obj 174 154 tgl 15 0 empty empty empty 17 7 0 10 -262144 -1 -1 0
1;
#X floatatom 499 151 5 0 0 0 - - -;
#X obj 496 175 moses 8;
#X floatatom 439 240 5 0 0 0 - - -;
#X floatatom 531 197 5 0 0 0 - - -;
#X obj 438 262 sel 0;
#X obj 439 302 key;
#X floatatom 439 327 5 0 0 0 - - -;
#X obj 479 347 sel 113 119 101 114 116 121 117 105 111 112;
#X obj 464 397 sel 97 115 100 102 103 104 106 107 108;
#X obj 410 463 sel 122 120 99 118 98 109;
#X msg 522 497 0;
#X obj 476 566 loadbang;
#X obj 473 619 unpack 0 0;
#X msg 476 592 5 99;
#X connect 2 0 44 0;
#X connect 2 0 46 0;
#X connect 2 0 48 0;
#X connect 2 1 7 0;
#X connect 4 0 2 0;
#X connect 5 0 6 0;
#X connect 7 0 21 0;
#X connect 8 0 7 1;
#X connect 9 0 7 3;
#X connect 10 0 7 2;
#X connect 11 0 12 0;
#X connect 12 0 11 0;
#X connect 13 0 14 0;
#X connect 18 0 17 1;
#X connect 19 0 17 3;
#X connect 20 0 17 2;
#X connect 21 0 42 0;
#X connect 22 0 21 1;
#X connect 23 0 21 2;
#X connect 24 0 21 3;
#X connect 27 0 26 0;
#X connect 28 0 30 0;
#X connect 30 0 27 0;
#X connect 31 0 25 0;
#X connect 32 0 43 1;
#X connect 33 0 43 3;
#X connect 34 0 43 2;
#X connect 35 0 42 1;
#X connect 36 0 42 2;
#X connect 37 0 42 3;
#X connect 38 0 42 4;
#X connect 39 0 36 0;
#X connect 39 1 37 0;
#X connect 39 2 38 0;
#X connect 40 0 39 0;
#X connect 41 0 39 1;
#X connect 42 0 43 0;
#X connect 43 0 3 0;
#X connect 44 0 29 0;
#X connect 45 0 44 1;
#X connect 46 0 5 0;
#X connect 47 0 46 1;
#X connect 48 0 31 0;
#X connect 49 0 48 1;
#X connect 50 0 51 0;
#X connect 51 0 52 0;
#X connect 51 1 53 0;
#X connect 52 0 54 0;
#X connect 54 0 27 0;
#X connect 55 0 56 0;
#X connect 56 0 57 0;
#X connect 56 0 58 0;
#X connect 56 0 59 0;
#X connect 57 0 10 0;
#X connect 57 1 23 0;
#X connect 57 2 40 0;
#X connect 58 0 8 0;
#X connect 58 1 22 0;
#X connect 58 2 35 0;
#X connect 58 3 32 0;
#X connect 59 0 27 0;
#X connect 59 1 49 0;
#X connect 59 2 47 0;
#X connect 59 3 45 0;
#X connect 59 4 6 1;
#X connect 59 5 41 0;
#X connect 59 5 9 0;
#X connect 59 5 24 0;
#X connect 59 5 60 0;
#X connect 60 0 32 0;
#X connect 60 0 35 0;
#X connect 60 0 22 0;
#X connect 60 0 8 0;
#X connect 61 0 63 0;
#X connect 62 0 34 0;
#X connect 62 1 33 0;
#X connect 63 0 62 0;
