#N canvas 629 129 698 456 12;
#X obj 11 9 loadbang;
#X obj 11 37 t b b, f 10;
#X msg 78 63 \; pd dsp 1;
#X obj 11 146 t f b, f 22;
#X obj 11 229 t b b;
#X msg 11 324 \; pd quit;
#X msg 43 255 stop;
#X msg 162 172 open test.wav \, start;
#X obj 162 387 writesf~ 2, f 14;
#X obj 205 329 *~ 0.2;
#X obj 257 329 *~ 0.2;
#X obj 224 263 osc~ 440;
#X obj 11 199 delay;
#X obj 320 244 hsl 128 15 10 44100 1 0 empty empty empty -2 -8 0 10
-228856 -1 -1 10214 1;
#X obj 317 268 nbx 8 14 -1e+37 1e+37 0 0 empty empty empty 0 -8 0 10
-228856 -1 -1 8533 256;
#X obj 224 292 else/downsample~;
#X obj 314 111 tgl 15 0 empty empty empty 17 7 0 10 -262144 -1 -1 1
1;
#X obj 314 134 metro 1000;
#X obj 314 162 random 11800;
#X obj 314 187 + 4;
#X text 99 33 pd -batch ./offline.pd;
#X msg 11 119 330000;
#X connect 0 0 1 0;
#X connect 0 0 16 0;
#X connect 1 0 21 0;
#X connect 1 1 2 0;
#X connect 3 0 12 0;
#X connect 3 1 7 0;
#X connect 4 0 5 0;
#X connect 4 1 6 0;
#X connect 6 0 8 0;
#X connect 7 0 8 0;
#X connect 9 0 8 0;
#X connect 10 0 8 1;
#X connect 11 0 15 0;
#X connect 12 0 4 0;
#X connect 13 0 14 0;
#X connect 14 0 15 1;
#X connect 15 0 9 0;
#X connect 15 0 10 0;
#X connect 16 0 17 0;
#X connect 17 0 18 0;
#X connect 18 0 19 0;
#X connect 19 0 13 0;
#X connect 21 0 3 0;
