#N canvas 795 104 644 612 10;
#X declare -lib Gem;
#X obj 12 263 gemhead 20;
#X obj 12 287 gemframebuffer;
#X obj 12 333 t a a b;
#X obj 12 310 translateXYZ 0 0 -4;
#X obj 93 242 loadbang;
#X obj 6 9 declare -lib Gem;
#X obj 12 542 pix_buffer \$0-framebuffer 2;
#X obj 12 357 t a b;
#X msg 44 378 snap;
#X obj 12 426 t a b;
#X msg 192 495 1;
#X obj 12 517 pix_buffer_write \$0-framebuffer;
#X obj 103 376 outlet;
#X obj 333 140 gemhead 30;
#X obj 333 165 t a b;
#X msg 510 166 1;
#X obj 333 187 pix_buffer_read \$0-framebuffer;
#X obj 333 211 outlet;
#X obj 260 50 inlet;
#X obj 236 300 pix_texture;
#X obj 236 274 r m-vj-out;
#X floatatom 419 451 5 0 0 0 - - -;
#X obj 419 477 / 100;
#X floatatom 419 504 5 0 0 0 - - -;
#X floatatom 470 451 5 0 0 0 - - -;
#X obj 470 477 / 100;
#X floatatom 470 504 5 0 0 0 - - -;
#X msg 93 262 dimen 1920 1080;
#X obj 12 402 pix_snap 0 0 1920 1080;
#X obj 386 257 key;
#X floatatom 386 284 5 0 0 0 - - -;
#X obj 392 309 sel 49 50 51 52;
#X obj 318 377 i 0;
#X obj 399 372 i 0;
#X obj 438 372 - 1;
#X obj 357 377 + 1;
#X obj 319 348 b;
#X obj 394 344 b;
#X obj 489 377 i 0;
#X obj 528 377 - 1;
#X obj 484 349 b;
#X obj 564 380 i 0;
#X obj 603 380 + 1;
#X obj 565 351 b;
#X obj 358 547 rectangle 7.12 4.07;
#X connect 0 0 1 0;
#X connect 1 0 3 0;
#X connect 2 0 7 0;
#X connect 2 1 12 0;
#X connect 3 0 2 0;
#X connect 4 0 27 0;
#X connect 7 0 28 0;
#X connect 7 1 8 0;
#X connect 8 0 28 0;
#X connect 9 0 11 0;
#X connect 9 1 10 0;
#X connect 10 0 11 1;
#X connect 13 0 14 0;
#X connect 14 0 16 0;
#X connect 14 1 15 0;
#X connect 15 0 16 1;
#X connect 16 0 17 0;
#X connect 18 0 13 0;
#X connect 18 0 0 0;
#X connect 19 0 44 0;
#X connect 20 0 19 0;
#X connect 21 0 22 0;
#X connect 22 0 23 0;
#X connect 24 0 25 0;
#X connect 25 0 26 0;
#X connect 27 0 1 0;
#X connect 28 0 9 0;
#X connect 29 0 30 0;
#X connect 30 0 31 0;
#X connect 31 0 37 0;
#X connect 31 1 36 0;
#X connect 31 2 40 0;
#X connect 31 3 43 0;
#X connect 32 0 35 0;
#X connect 32 0 21 0;
#X connect 33 0 34 0;
#X connect 33 0 21 0;
#X connect 34 0 33 1;
#X connect 35 0 32 1;
#X connect 36 0 32 0;
#X connect 37 0 33 0;
#X connect 38 0 39 0;
#X connect 38 0 24 0;
#X connect 39 0 38 1;
#X connect 40 0 38 0;
#X connect 41 0 42 0;
#X connect 41 0 24 0;
#X connect 42 0 41 1;
#X connect 43 0 41 0;
