#N canvas 0 96 608 568 10;
#X obj 30 50 inlet;
#X obj 30 476 outlet;
#X obj 30 310 spigot;
#X obj 160 310 spigot;
#X obj 200 80 sel 0 1;
#X obj 170 210 unpack 0 0;
#X obj 200 40 inlet;
#X msg 200 120 1 0;
#X msg 230 160 0 1;
#X obj 330 60 inlet;
#X obj 296 31 loadbang;
#X floatatom 390 370 5 0 100 1 low - -;
#X floatatom 400 400 5 0 100 1 high - -;
#X obj 261 296 tgl 15 0 empty empty empty 0 -6 0 8 -262144 -1 -1 0
1;
#X obj 321 259 tgl 15 0 empty empty empty 0 -6 0 8 -262144 -1 -1 0
1;
#X msg 321 277 inv \$1;
#X msg 262 344 0 1 0.5 0.6;
#X obj 252 384 pix_levels;
#X msg 337 335 0.5 0.6 0 1;
#X msg 261 314 uni \$1;
#X msg 337 312 0 0.1 1 0.5;
#X obj 400 60 inlet;
#X msg 238 258 auto 1;
#X connect 0 0 2 0;
#X connect 0 0 3 0;
#X connect 2 0 1 0;
#X connect 3 0 17 0;
#X connect 4 0 7 0;
#X connect 4 1 8 0;
#X connect 5 0 2 1;
#X connect 5 1 3 1;
#X connect 6 0 4 0;
#X connect 7 0 5 0;
#X connect 8 0 5 0;
#X connect 9 0 11 0;
#X connect 10 0 7 0;
#X connect 10 0 22 0;
#X connect 11 0 17 5;
#X connect 12 0 17 6;
#X connect 13 0 19 0;
#X connect 14 0 15 0;
#X connect 15 0 17 0;
#X connect 16 0 17 1;
#X connect 17 0 1 0;
#X connect 18 0 17 3;
#X connect 19 0 17 0;
#X connect 20 0 17 2;
#X connect 21 0 12 0;
#X connect 22 0 17 0;
