#N canvas 0 96 746 872 10;
#X obj 110 164 tgl 15 0 empty empty empty 17 7 0 10 -262144 -1 -1 1
1;
#N canvas 0 96 450 300 randcolors 0;
#X obj 72 27 inlet;
#X floatatom 96 130 3 -1 2 0 - - -;
#X floatatom 146 100 8 -1 2 0 - - -;
#X floatatom 194 161 6 -1 2 0 - - -;
#X floatatom 96 154 3 -1 2 0 - - -;
#X floatatom 146 130 6 -1 2 0 - - -;
#X floatatom 194 131 7 -1 2 0 - - -;
#X floatatom 96 178 3 -1 2 0 - - -;
#X floatatom 146 160 5 -1 2 0 - - -;
#X floatatom 194 101 6 -1 2 0 - - -;
#N canvas 4 57 450 300 pack 0;
#X obj 69 169 pack 0 0 0 0 0 0 0 0 0;
#X obj 69 139 t b f;
#X obj 106 139 t b f;
#X obj 143 139 t b f;
#X obj 180 139 t b f;
#X obj 217 139 t b f;
#X obj 254 139 t b f;
#X obj 291 139 t b f;
#X obj 328 139 t b f;
#X obj 32 111 inlet;
#X obj 69 111 inlet;
#X obj 106 111 inlet;
#X obj 143 111 inlet;
#X obj 180 111 inlet;
#X obj 217 111 inlet;
#X obj 254 111 inlet;
#X obj 291 111 inlet;
#X obj 328 111 inlet;
#X obj 69 196 outlet;
#X connect 0 0 18 0;
#X connect 1 0 0 0;
#X connect 1 1 0 1;
#X connect 2 0 0 0;
#X connect 2 1 0 2;
#X connect 3 0 0 0;
#X connect 3 1 0 3;
#X connect 4 0 0 0;
#X connect 4 1 0 4;
#X connect 5 0 0 0;
#X connect 5 1 0 5;
#X connect 6 0 0 0;
#X connect 6 1 0 6;
#X connect 7 0 0 0;
#X connect 7 1 0 7;
#X connect 8 0 0 0;
#X connect 8 1 0 8;
#X connect 9 0 0 0;
#X connect 10 0 1 0;
#X connect 11 0 2 0;
#X connect 12 0 3 0;
#X connect 13 0 4 0;
#X connect 14 0 5 0;
#X connect 15 0 6 0;
#X connect 16 0 7 0;
#X connect 17 0 8 0;
#X restore 37 219 pd pack 9 . . .;
#X msg 143 132 1, f 2;
#X obj 83 101 loadbang;
#N canvas 607 114 396 513 random 0;
#X floatatom 40 260 5 0 0 0 - - -;
#X obj 40 320 outlet;
#X obj 40 50 tgl 24 0 empty empty empty 17 7 0 10 -262144 -1 -1 1 1
;
#X obj 89 56 random 9000;
#X obj 40 160 random 100;
#X obj 40 193 / 100;
#X floatatom 160 264 5 0 0 0 - - -;
#X obj 160 324 outlet;
#X obj 160 164 random 100;
#X obj 160 197 / 100;
#X floatatom 280 264 5 0 0 0 - - -;
#X obj 280 324 outlet;
#X obj 280 164 random 100;
#X obj 280 197 / 100;
#X obj 280 230 - 1;
#X floatatom 400 268 5 0 0 0 - - -;
#X obj 400 328 outlet;
#X obj 400 168 random 100;
#X obj 400 201 / 100;
#X floatatom 530 274 5 0 0 0 - - -;
#X obj 530 334 outlet;
#X obj 530 174 random 100;
#X obj 530 207 / 100;
#X floatatom 650 278 5 0 0 0 - - -;
#X obj 650 338 outlet;
#X obj 650 178 random 100;
#X obj 650 211 / 100;
#X floatatom 770 278 5 0 0 0 - - -;
#X obj 770 338 outlet;
#X obj 770 178 random 100;
#X obj 770 211 / 100;
#X floatatom 890 282 5 0 0 0 - - -;
#X obj 890 342 outlet;
#X obj 890 182 random 100;
#X obj 890 215 / 100;
#X floatatom 1010 274 5 0 0 0 - - -;
#X obj 1010 334 outlet;
#X obj 1010 174 random 100;
#X obj 1010 207 / 100;
#X obj 40 226 - 0;
#X obj 160 230 - 0;
#X obj 890 248 - 0;
#X obj 1011 240 - 0;
#X obj 770 244 - 0;
#X obj 650 244 - 0;
#X obj 530 240 - 0;
#X obj 400 234 - 0;
#X obj 360 50 r randfx;
#X obj 40 80 metro 11000;
#X obj 48 22 inlet;
#X connect 0 0 1 0;
#X connect 2 0 48 0;
#X connect 3 0 48 1;
#X connect 4 0 5 0;
#X connect 5 0 39 0;
#X connect 6 0 7 0;
#X connect 8 0 9 0;
#X connect 9 0 40 0;
#X connect 10 0 11 0;
#X connect 12 0 13 0;
#X connect 13 0 14 0;
#X connect 14 0 10 0;
#X connect 15 0 16 0;
#X connect 17 0 18 0;
#X connect 18 0 46 0;
#X connect 19 0 20 0;
#X connect 21 0 22 0;
#X connect 22 0 45 0;
#X connect 23 0 24 0;
#X connect 25 0 26 0;
#X connect 26 0 44 0;
#X connect 27 0 28 0;
#X connect 29 0 30 0;
#X connect 30 0 43 0;
#X connect 31 0 32 0;
#X connect 33 0 34 0;
#X connect 34 0 41 0;
#X connect 35 0 36 0;
#X connect 37 0 38 0;
#X connect 38 0 42 0;
#X connect 39 0 0 0;
#X connect 40 0 6 0;
#X connect 41 0 31 0;
#X connect 42 0 35 0;
#X connect 43 0 27 0;
#X connect 44 0 23 0;
#X connect 45 0 19 0;
#X connect 46 0 15 0;
#X connect 47 0 4 0;
#X connect 47 0 8 0;
#X connect 47 0 12 0;
#X connect 47 0 17 0;
#X connect 47 0 21 0;
#X connect 47 0 25 0;
#X connect 47 0 29 0;
#X connect 47 0 33 0;
#X connect 47 0 37 0;
#X connect 48 0 3 0;
#X connect 48 0 4 0;
#X connect 48 0 8 0;
#X connect 48 0 12 0;
#X connect 48 0 17 0;
#X connect 48 0 21 0;
#X connect 48 0 25 0;
#X connect 48 0 29 0;
#X connect 48 0 33 0;
#X connect 48 0 37 0;
#X connect 48 0 38 0;
#X connect 48 0 36 0;
#X connect 48 0 35 0;
#X connect 48 0 42 0;
#X connect 49 0 2 0;
#X restore 72 77 pd random fx-colormatrix;
#X obj 36 255 outlet;
#X connect 0 0 13 0;
#X connect 1 0 10 0;
#X connect 2 0 10 1;
#X connect 3 0 10 2;
#X connect 4 0 10 3;
#X connect 5 0 10 4;
#X connect 6 0 10 5;
#X connect 7 0 10 6;
#X connect 8 0 10 7;
#X connect 9 0 10 8;
#X connect 10 0 14 0;
#X connect 11 0 1 0;
#X connect 11 0 5 0;
#X connect 11 0 9 0;
#X connect 12 0 11 0;
#X connect 13 0 1 0;
#X connect 13 1 4 0;
#X connect 13 2 7 0;
#X connect 13 3 2 0;
#X connect 13 4 5 0;
#X connect 13 5 8 0;
#X connect 13 6 9 0;
#X connect 13 7 6 0;
#X connect 13 8 3 0;
#X restore 166 162 pd randcolors;
#X obj 168 138 tgl 15 0 empty empty empty 17 7 0 10 -262144 -1 -1 1
1;
#X obj 88 293 tgl 15 0 empty empty empty 17 7 0 10 -262144 -1 -1 1
1;
#X obj 117 293 bng 15 250 50 0 empty empty empty 17 7 0 10 -262144
-1 -1;
#X floatatom 158 291 5 0 0 0 - - -;
#X obj 80 434 tgl 15 0 empty empty empty 17 7 0 10 -262144 -1 -1 1
1;
#X obj 111 436 tgl 15 0 empty empty empty 17 7 0 10 -262144 -1 -1 1
1;
#N canvas 0 96 450 300 randlo 0;
#X obj 59 241 outlet;
#X obj 112 241 outlet;
#X obj 164 242 outlet;
#X obj 92 24 inlet;
#X floatatom 90 192 5 0 0 0 - - -;
#X floatatom 137 196 5 0 0 0 - - -;
#X obj 90 115 bng 15 250 50 0 empty empty empty 17 7 0 10 -262144 -1
-1;
#X obj 165 112 bng 15 250 50 0 empty empty empty 17 7 0 10 -262144
-1 -1;
#X obj 58 123 bng 15 250 50 0 empty empty empty 17 7 0 10 -262144 -1
-1;
#X obj 89 54 bng 15 250 50 0 empty empty empty 17 7 0 10 -262144 -1
-1;
#X msg 222 86 0 0 0;
#X obj 222 109 unpack 0 0 0;
#X obj 222 48 bng 15 250 50 0 empty empty empty 17 7 0 10 -262144 -1
-1;
#X obj 221 24 inlet;
#X obj 92 143 random 10;
#X obj 135 171 random 20;
#X obj 92 166 - 0;
#X connect 3 0 9 0;
#X connect 4 0 1 0;
#X connect 5 0 2 0;
#X connect 6 0 14 0;
#X connect 7 0 15 0;
#X connect 8 0 0 0;
#X connect 9 0 8 0;
#X connect 9 0 6 0;
#X connect 9 0 7 0;
#X connect 10 0 11 0;
#X connect 11 0 0 0;
#X connect 11 1 4 0;
#X connect 11 2 5 0;
#X connect 12 0 10 0;
#X connect 13 0 12 0;
#X connect 14 0 16 0;
#X connect 15 0 5 0;
#X connect 16 0 4 0;
#X restore 111 403 pd randlo;
#X obj 108 376 bng 15 250 50 0 empty empty empty 17 7 0 10 -262144
-1 -1;
#X obj 165 381 bng 15 250 50 0 empty empty empty 17 7 0 10 -262144
-1 -1;
#X obj 80 568 tgl 15 0 empty empty empty 17 7 0 10 -262144 -1 -1 1
1;
#X obj 107 568 tgl 15 0 empty empty empty 17 7 0 10 -262144 -1 -1 1
1;
#X floatatom 140 569 5 0 0 0 - - -;
#N canvas 0 96 450 300 randsr 0;
#X obj 154 30 inlet;
#X obj 170 123 random 11;
#X obj 172 237 outlet;
#X obj 29 234 outlet;
#X obj 23 49 loadbang;
#X msg 25 108 1;
#X connect 0 0 1 0;
#X connect 1 0 2 0;
#X connect 4 0 5 0;
#X connect 5 0 3 0;
#X restore 114 540 pd randsr;
#X obj 126 513 bng 15 250 50 0 empty empty empty 17 7 0 10 -262144
-1 -1;
#N canvas 0 96 450 300 randpuzz 0;
#X obj 72 210 outlet;
#X obj 23 208 outlet;
#X obj 37 150 b;
#X obj 87 48 inlet;
#X obj 79 106 random 100;
#X connect 2 0 1 0;
#X connect 3 0 4 0;
#X connect 4 0 0 0;
#X connect 4 0 2 0;
#X restore 124 266 pd randpuzz;
#X obj 128 237 bng 15 250 50 0 empty empty empty 17 7 0 10 -262144
-1 -1;
#X obj 59 186 pix-fx-colormatrix;
#X obj 62 316 pix-fx-puzzle;
#X obj 55 458 pix-fx-lumaoffset;
#X obj 51 592 pix-fx-scanroll;
#X obj 54 12 inlet;
#X obj 98 12 inlet;
#X obj 141 11 inlet;
#X obj 50 816 outlet;
#X obj 182 11 inlet;
#X obj 236 67 loadbang;
#X msg 234 90 1;
#X connect 0 0 18 1;
#X connect 1 0 18 2;
#X connect 2 0 1 0;
#X connect 3 0 19 1;
#X connect 4 0 19 2;
#X connect 5 0 19 3;
#X connect 6 0 20 1;
#X connect 7 0 20 2;
#X connect 8 0 7 0;
#X connect 8 1 20 3;
#X connect 8 2 20 4;
#X connect 9 0 8 0;
#X connect 10 0 8 1;
#X connect 11 0 21 1;
#X connect 12 0 21 2;
#X connect 13 0 21 3;
#X connect 14 0 12 0;
#X connect 14 1 13 0;
#X connect 15 0 14 0;
#X connect 16 0 4 0;
#X connect 16 1 5 0;
#X connect 17 0 16 0;
#X connect 18 0 19 0;
#X connect 19 0 20 0;
#X connect 20 0 21 0;
#X connect 21 0 25 0;
#X connect 22 0 18 0;
#X connect 23 0 0 0;
#X connect 23 0 3 0;
#X connect 23 0 6 0;
#X connect 23 0 11 0;
#X connect 24 0 17 0;
#X connect 24 0 9 0;
#X connect 24 0 15 0;
#X connect 26 0 10 0;
#X connect 27 0 28 0;
#X connect 28 0 2 0;
