#N canvas 0 96 450 300 10;
#X obj 30 50 inlet;
#X obj 30 410 outlet;
#X obj 30 310 spigot;
#X obj 160 310 spigot;
#X obj 200 80 sel 0 1;
#X obj 170 210 unpack 0 0;
#X obj 200 40 inlet;
#X msg 200 120 1 0;
#X msg 230 160 0 1;
#X obj 330 60 inlet;
#X msg 330 90 bang;
#X obj 262 451 pix_puzzle;
#X msg 380 320 size 4 3;
#X obj 380 290 loadbang;
#X obj 400 60 inlet;
#X obj 380 150 int;
#X obj 430 150 - 1;
#X msg 360 220 size \$1 \$2;
#X obj 360 190 pack 0 0;
#X obj 100 50 loadbang;
#X connect 0 0 2 0;
#X connect 0 0 3 0;
#X connect 2 0 1 0;
#X connect 3 0 11 0;
#X connect 4 0 7 0;
#X connect 4 1 8 0;
#X connect 5 0 2 1;
#X connect 5 1 3 1;
#X connect 6 0 4 0;
#X connect 7 0 5 0;
#X connect 8 0 5 0;
#X connect 9 0 10 0;
#X connect 10 0 11 0;
#X connect 11 0 1 0;
#X connect 12 0 11 0;
#X connect 13 0 12 0;
#X connect 14 0 15 0;
#X connect 15 0 16 0;
#X connect 15 0 18 0;
#X connect 16 0 18 1;
#X connect 17 0 11 0;
#X connect 18 0 17 0;
#X connect 19 0 7 0;
