#N canvas 441 327 450 300 10;
#X obj 51 202 pix-fx-levels;
#X obj 76 181 tgl 15 0 empty empty empty 17 7 0 10 -262144 -1 -1 1
1;
#X floatatom 101 134 5 0 0 0 - - -;
#X floatatom 126 166 5 0 0 0 - - -;
#X obj 51 84 pix-fx-halftone;
#X obj 80 63 tgl 15 0 empty empty empty 17 7 0 10 -262144 -1 -1 1 1
;
#X floatatom 101 32 5 0 0 0 - - -;
#X floatatom 147 35 5 0 0 0 - - -;
#X obj 51 22 inlet;
#X obj 51 257 outlet;
#X obj 240 55 inlet;
#X msg 275 132 6 0 2 69;
#X obj 275 155 unpack 0 0 0 0;
#X obj 274 106 loadbang;
#X obj 327 31 inlet;
#N canvas 0 96 450 360 randomize 0;
#X obj 122 46 b;
#X obj 86 7 inlet;
#X obj 32 252 + 1;
#X obj 49 76 random 31;
#X obj 82 252 + 1;
#X obj 132 250 + 1;
#X obj 182 250 + 1;
#X obj 147 72 random 99;
#X obj 168 114 random 99;
#X obj 204 152 random 99;
#X obj 31 314 outlet;
#X obj 82 314 outlet;
#X obj 131 313 outlet;
#X obj 182 313 outlet;
#X connect 0 0 3 0;
#X connect 0 0 7 0;
#X connect 0 0 8 0;
#X connect 0 0 9 0;
#X connect 1 0 0 0;
#X connect 2 0 10 0;
#X connect 3 0 2 0;
#X connect 4 0 11 0;
#X connect 5 0 12 0;
#X connect 6 0 13 0;
#X connect 7 0 4 0;
#X connect 8 0 5 0;
#X connect 9 0 6 0;
#X restore 327 56 pd randomize;
#X obj 401 16 inlet;
#X connect 0 0 9 0;
#X connect 1 0 0 1;
#X connect 2 0 0 2;
#X connect 3 0 0 3;
#X connect 4 0 0 0;
#X connect 5 0 4 1;
#X connect 6 0 4 2;
#X connect 7 0 4 3;
#X connect 8 0 4 0;
#X connect 10 0 5 0;
#X connect 10 0 1 0;
#X connect 11 0 12 0;
#X connect 12 0 6 0;
#X connect 12 1 7 0;
#X connect 12 2 2 0;
#X connect 12 3 3 0;
#X connect 13 0 11 0;
#X connect 14 0 15 0;
#X connect 15 0 6 0;
#X connect 15 1 7 0;
#X connect 15 2 2 0;
#X connect 15 3 3 0;
#X connect 16 0 11 0;
