#N canvas 417 673 450 300 10;
#X obj 21 18 inlet;
#X obj 21 252 outlet;
#X obj 21 182 pix-fx-lumaoffset;
#X obj 21 108 pix-fx-levels;
#X obj 61 18 inlet;
#X obj 195 17 loadbang;
#X msg 198 38 30 73 242 2;
#X obj 197 58 unpack 0 0 0 0;
#X msg 67 153 1;
#X floatatom 184 135 5 0 0 0 - - -;
#X floatatom 231 139 5 0 0 0 - - -;
#X floatatom 68 58 5 0 0 0 - - -;
#X floatatom 110 55 5 0 0 0 - - -;
#X connect 0 0 3 0;
#X connect 2 0 1 0;
#X connect 3 0 2 0;
#X connect 4 0 3 1;
#X connect 4 0 2 1;
#X connect 5 0 6 0;
#X connect 5 0 8 0;
#X connect 6 0 7 0;
#X connect 7 0 3 2;
#X connect 7 1 3 3;
#X connect 7 2 2 3;
#X connect 7 3 2 4;
#X connect 8 0 2 2;
#X connect 9 0 2 3;
#X connect 10 0 2 4;
#X connect 11 0 3 2;
#X connect 12 0 3 3;
