#N canvas 118 482 450 300 10;
#X obj 30 50 inlet;
#X obj 30 410 outlet;
#X obj 30 310 spigot;
#X obj 160 310 spigot;
#X obj 200 80 sel 0 1;
#X obj 170 210 unpack 0 0;
#X obj 200 40 inlet;
#X msg 200 120 1 0;
#X msg 230 160 0 1;
#X obj 280 40 inlet;
#X obj 252 413 pix_halftone;
#X floatatom 270 280 5 1 32 2 size - -;
#X floatatom 318 280 5 0 0 2 angle - -;
#X floatatom 363 280 5 0 1 2 smooth - -;
#X obj 380 160 loadbang;
#X obj 350 40 inlet;
#X obj 90 50 loadbang;
#X msg 340 382 style 1;
#X connect 0 0 2 0;
#X connect 0 0 3 0;
#X connect 2 0 1 0;
#X connect 3 0 10 0;
#X connect 4 0 7 0;
#X connect 4 1 8 0;
#X connect 5 0 2 1;
#X connect 5 1 3 1;
#X connect 6 0 4 0;
#X connect 7 0 5 0;
#X connect 8 0 5 0;
#X connect 9 0 11 0;
#X connect 10 0 1 0;
#X connect 11 0 10 1;
#X connect 12 0 10 2;
#X connect 13 0 10 3;
#X connect 14 0 17 0;
#X connect 15 0 12 0;
#X connect 16 0 7 0;
#X connect 17 0 10 0;
