#N canvas 0 96 450 300 10;
#X obj 30 50 inlet;
#X obj 30 550 outlet;
#X obj 30 310 spigot;
#X obj 160 310 spigot;
#X obj 200 80 sel 0 1;
#X obj 170 210 unpack 0 0;
#X obj 200 40 inlet;
#X msg 200 120 1 0;
#X msg 230 160 0 1;
#X floatatom 163 461 3 0.01 16 1 - - -;
#X msg 163 479 refract \$1;
#X msg 243 479 mag \$1;
#X floatatom 165 383 3 0 0 1 - - -;
#X floatatom 245 383 3 0 0 1 - - -;
#X msg 165 401 width \$1;
#X msg 245 401 height \$1;
#X obj 150 510 pix_refraction;
#X obj 245 422 tgl 15 0 empty empty empty 0 -6 0 8 -262144 -1 -1 0
1;
#X obj 290 200 inlet;
#X obj 350 200 inlet;
#X obj 410 200 inlet;
#X obj 90 50 loadbang;
#X connect 0 0 2 0;
#X connect 0 0 3 0;
#X connect 2 0 1 0;
#X connect 3 0 16 0;
#X connect 4 0 7 0;
#X connect 4 1 8 0;
#X connect 5 0 2 1;
#X connect 5 1 3 1;
#X connect 6 0 4 0;
#X connect 7 0 5 0;
#X connect 8 0 5 0;
#X connect 9 0 10 0;
#X connect 10 0 16 0;
#X connect 11 0 16 0;
#X connect 12 0 14 0;
#X connect 13 0 15 0;
#X connect 14 0 16 0;
#X connect 15 0 16 0;
#X connect 16 0 1 0;
#X connect 17 0 11 0;
#X connect 18 0 12 0;
#X connect 19 0 13 0;
#X connect 20 0 9 0;
#X connect 21 0 7 0;
