#N canvas 0 96 450 300 10;
#X obj 30 50 inlet;
#X obj 30 456 outlet;
#X obj 30 244 spigot;
#X obj 160 244 spigot;
#X obj 200 80 sel 0 1;
#X obj 170 210 unpack 0 0;
#X obj 200 40 inlet;
#X msg 200 120 1 0;
#X msg 230 160 0 1;
#X obj 290 40 inlet;
#X floatatom 350 230 3 0 100 2 lo_threshold - -;
#X obj 351 260 / 100;
#X obj 290 400 pix_movement2;
#X floatatom 420 340 3 0 100 2 threshold - -;
#X obj 421 370 / 100;
#X obj 470 240 loadbang;
#X msg 470 273 100;
#X obj 370 40 inlet;
#X obj 90 80 loadbang;
#X connect 0 0 2 0;
#X connect 0 0 3 0;
#X connect 2 0 1 0;
#X connect 3 0 12 0;
#X connect 4 0 7 0;
#X connect 4 1 8 0;
#X connect 5 0 2 1;
#X connect 5 1 3 1;
#X connect 6 0 4 0;
#X connect 7 0 5 0;
#X connect 8 0 5 0;
#X connect 9 0 10 0;
#X connect 10 0 11 0;
#X connect 11 0 12 1;
#X connect 12 0 1 0;
#X connect 13 0 14 0;
#X connect 14 0 12 2;
#X connect 15 0 16 0;
#X connect 16 0 13 0;
#X connect 17 0 13 0;
#X connect 18 0 7 0;
