#N canvas 0 96 450 300 10;
#X obj 30 50 inlet;
#X obj 30 410 outlet;
#X obj 30 310 spigot;
#X obj 160 310 spigot;
#X obj 200 80 sel 0 1;
#X obj 170 210 unpack 0 0;
#X obj 200 40 inlet;
#X msg 200 120 1 0;
#X msg 230 160 0 1;
#X obj 310 40 inlet;
#X obj 100 40 loadbang;
#X obj 192 431 pix_lumaoffset;
#X floatatom 270 300 5 0 0 2 offset - -;
#X floatatom 390 340 5 0 0 2 gap - -;
#X obj 316 347 tgl 15 0 empty empty empty 0 -6 0 8 -262144 -1 -1 0
1;
#X msg 274 411 smooth \$1;
#X msg 206 410 fill \$1;
#X obj 210 380 tgl 15 0 empty empty empty 0 -6 0 8 -262144 -1 -1 0
6;
#X obj 380 40 inlet;
#X obj 450 40 inlet;
#X connect 0 0 2 0;
#X connect 0 0 3 0;
#X connect 2 0 1 0;
#X connect 3 0 11 0;
#X connect 4 0 7 0;
#X connect 4 1 8 0;
#X connect 5 0 2 1;
#X connect 5 1 3 1;
#X connect 6 0 4 0;
#X connect 7 0 5 0;
#X connect 8 0 5 0;
#X connect 9 0 17 0;
#X connect 10 0 7 0;
#X connect 11 0 1 0;
#X connect 12 0 11 1;
#X connect 13 0 11 2;
#X connect 14 0 15 0;
#X connect 15 0 11 0;
#X connect 16 0 11 0;
#X connect 17 0 16 0;
#X connect 18 0 12 0;
#X connect 19 0 13 0;
