#N canvas 0 96 462 487 10;
#X obj 30 50 inlet;
#X obj 30 410 outlet;
#X obj 30 310 spigot;
#X obj 160 310 spigot;
#X obj 200 80 sel 0 1;
#X obj 170 210 unpack 0 0;
#X obj 200 40 inlet;
#X msg 200 120 1 0;
#X msg 230 160 0 1;
#X obj 330 60 inlet;
#X obj 100 40 loadbang;
#X obj 302 393 pix_colormatrix;
#X connect 0 0 2 0;
#X connect 0 0 3 0;
#X connect 2 0 1 0;
#X connect 3 0 11 0;
#X connect 4 0 7 0;
#X connect 4 1 8 0;
#X connect 5 0 2 1;
#X connect 5 1 3 1;
#X connect 6 0 4 0;
#X connect 7 0 5 0;
#X connect 8 0 5 0;
#X connect 9 0 11 1;
#X connect 10 0 7 0;
#X connect 11 0 1 0;
