#N canvas 235 267 349 376 16;
#X obj 13 318 outlet;
#X obj 83 318 outlet;
#X obj 153 318 outlet;
#X obj 223 318 outlet;
#X obj 13 12 inlet;
#X obj 203 12 inlet;
#X obj 203 52 sel 1 2 3 4;
#X obj 12 286 spigot;
#X obj 83 286 spigot;
#X obj 153 286 spigot;
#X obj 224 286 spigot;
#X msg 203 92 1 0 0 0;
#X msg 213 122 0 1 0 0;
#X msg 223 152 0 0 1 0;
#X msg 233 182 0 0 0 1;
#X obj 73 242 unpack 0 0 0 0, f 23;
#X obj 103 52 loadbang;
#X connect 4 0 7 0;
#X connect 4 0 8 0;
#X connect 4 0 9 0;
#X connect 4 0 10 0;
#X connect 5 0 6 0;
#X connect 6 0 11 0;
#X connect 6 1 12 0;
#X connect 6 2 13 0;
#X connect 6 3 14 0;
#X connect 7 0 0 0;
#X connect 8 0 1 0;
#X connect 9 0 2 0;
#X connect 10 0 3 0;
#X connect 11 0 15 0;
#X connect 12 0 15 0;
#X connect 13 0 15 0;
#X connect 14 0 15 0;
#X connect 15 0 7 1;
#X connect 15 1 8 1;
#X connect 15 2 9 1;
#X connect 15 3 10 1;
#X connect 16 0 11 0;
