#N canvas 1 62 1012 714 12;
#X obj 49 88 poly 1 1;
#X obj 75 187 mtof;
#X obj 75 211 sig~;
#X obj 115 235 /~ 2;
#X obj 115 259 osc~;
#X obj 115 283 *~;
#X obj 75 426 +~;
#X obj 115 377 *~;
#X obj 75 450 osc~;
#X obj 75 587 *~;
#X obj 345 259 osc~;
#X obj 345 283 *~;
#X obj 345 317 *~;
#X obj 102 117 > 0;
#X obj 102 141 s \$0-gate;
#X obj 164 252 r \$0-gate;
#X obj 164 276 sel 0 1;
#X obj 164 324 line~;
#X msg 214 300 1 \, 0 1000;
#X obj 118 455 r \$0-gate;
#X obj 118 479 sel 0 1;
#X msg 118 503 0 100;
#X obj 75 661 /~ 4;
#X obj 118 527 vline~;
#X msg 168 503 1 1 \, 0 1000 1;
#X obj 115 401 lop~ 100;
#X obj 422 234 r \$0-gate;
#X obj 422 258 sel 0 1;
#X obj 422 306 line~;
#X msg 164 300 0 100;
#X msg 422 282 0 100;
#X obj 118 551 pow~ 2;
#X obj 164 348 pow~ 2;
#X obj 345 235 *~ 11;
#X obj 75 635 expr~ tanh($v1);
#X obj 75 611 *~ 1;
#X obj 345 365 /~ 5;
#X obj 345 341 lop~ 800;
#X msg 472 282 1 \, 0 200;
#X obj 422 330 pow~ 6;
#X obj 49 61 makenote 3.2 1500;
#X obj 49 31 inlet;
#X obj 164 38 inlet;
#X obj 76 691 outlet~;
#X text 222 44 thanks mike moreno! for this fm bass;
#X connect 0 1 1 0;
#X connect 0 2 13 0;
#X connect 1 0 2 0;
#X connect 2 0 3 0;
#X connect 2 0 5 1;
#X connect 2 0 6 0;
#X connect 2 0 11 1;
#X connect 2 0 33 0;
#X connect 3 0 4 0;
#X connect 4 0 5 0;
#X connect 5 0 7 0;
#X connect 6 0 8 0;
#X connect 7 0 25 0;
#X connect 8 0 9 0;
#X connect 9 0 35 0;
#X connect 10 0 11 0;
#X connect 11 0 12 0;
#X connect 12 0 37 0;
#X connect 13 0 14 0;
#X connect 15 0 16 0;
#X connect 16 0 29 0;
#X connect 16 1 18 0;
#X connect 17 0 32 0;
#X connect 18 0 17 0;
#X connect 19 0 20 0;
#X connect 20 0 21 0;
#X connect 20 1 24 0;
#X connect 21 0 23 0;
#X connect 22 0 43 0;
#X connect 23 0 31 0;
#X connect 24 0 23 0;
#X connect 25 0 6 1;
#X connect 26 0 27 0;
#X connect 27 0 30 0;
#X connect 27 1 38 0;
#X connect 28 0 39 0;
#X connect 29 0 17 0;
#X connect 30 0 28 0;
#X connect 31 0 9 1;
#X connect 32 0 7 1;
#X connect 33 0 10 0;
#X connect 34 0 22 0;
#X connect 35 0 34 0;
#X connect 36 0 6 1;
#X connect 37 0 36 0;
#X connect 38 0 28 0;
#X connect 39 0 12 1;
#X connect 40 0 0 0;
#X connect 40 1 0 1;
#X connect 41 0 40 0;
#X connect 42 0 40 2;
