#N canvas 147 161 750 548 10;
#X declare -path ./Yellotron;
#N canvas 237 67 1068 584 yellotron 1;
#N canvas 417 264 450 403 armoire 0;
#X obj 20 36 table tab_43;
#X obj 20 55 table tab_44;
#X obj 20 74 table tab_45;
#X obj 20 93 table tab_46;
#X obj 20 112 table tab_47;
#X obj 20 131 table tab_48;
#X obj 20 150 table tab_49;
#X obj 20 169 table tab_50;
#X obj 20 188 table tab_51;
#X obj 20 207 table tab_52;
#X obj 20 226 table tab_53;
#X obj 20 245 table tab_54;
#X obj 20 264 table tab_55;
#X obj 105 36 table tab_56;
#X obj 105 55 table tab_57;
#X obj 105 74 table tab_58;
#X obj 105 93 table tab_59;
#X obj 105 112 table tab_60;
#X obj 105 131 table tab_61;
#X obj 105 150 table tab_62;
#X obj 105 169 table tab_63;
#X obj 105 188 table tab_64;
#X obj 105 207 table tab_65;
#X obj 105 226 table tab_66;
#X obj 105 245 table tab_67;
#X obj 105 264 table tab_68;
#X obj 190 36 table tab_69;
#X obj 190 55 table tab_70;
#X obj 190 74 table tab_71;
#X obj 190 93 table tab_72;
#X obj 190 112 table tab_73;
#X obj 190 131 table tab_74;
#X obj 190 150 table tab_75;
#X obj 190 169 table tab_76;
#X obj 190 188 table tab_77;
#X restore 1057 493 pd armoire;
#N canvas 65 200 763 567 armement 0;
#X obj 198 507 soundfiler;
#X obj 244 339 until;
#X obj 245 413 textfile;
#X msg 311 389 rewind;
#X msg 244 362 bang;
#X obj 244 277 pipe 1;
#X msg 280 360 read notemap.txt cr;
#X obj 198 448 unpack s f;
#X obj 198 468 pack s s f;
#X obj 181 246 symbol;
#X obj 244 256 t s b;
#X obj 244 295 t b b;
#X msg 198 488 read -resize ./\$2/\$1 tab_\$3;
#X msg 244 319 35;
#X obj 181 18 inlet;
#X symbolatom 106 133 10 0 0 0 - - -;
#X obj 214 49 sel 0 1 2 3 4 5 6 7 8 9;
#X msg 271 200 Cello;
#X msg 207 86 MKIIFlute;
#X msg 295 243 CombinedChoir;
#X msg 248 155 MKIIViolin;
#X msg 283 222 StringSection;
#X msg 330 124 Woodwind;
#X msg 345 151 GC3Brass;
#X msg 220 109 M300A;
#X msg 232 133 M300B;
#X msg 260 178 MKIIBrass;
#X text 430 44 Here we load the choosen instrument into;
#X text 431 57 the bank of tables.;
#X text 431 73 The sound samples for each note have to;
#X text 430 87 be in folders located in the same folder;
#X text 431 102 as yellotron.pd.;
#X text 431 117 The samples (named C \, C# \, B...) are mapped;
#X text 431 130 to midi notes (60 \, 61 \, 62...) as per the information
;
#X text 431 144 contained in notemap.txt .;
#X text 104 115 Instrument;
#X connect 1 0 4 0;
#X connect 2 0 7 0;
#X connect 3 0 2 0;
#X connect 4 0 2 0;
#X connect 5 0 11 0;
#X connect 6 0 2 0;
#X connect 7 0 8 0;
#X connect 7 1 8 2;
#X connect 8 0 12 0;
#X connect 9 0 8 1;
#X connect 9 0 10 0;
#X connect 9 0 15 0;
#X connect 10 0 5 0;
#X connect 10 1 6 0;
#X connect 11 0 13 0;
#X connect 11 1 3 0;
#X connect 12 0 0 0;
#X connect 13 0 1 0;
#X connect 14 0 16 0;
#X connect 16 0 18 0;
#X connect 16 1 24 0;
#X connect 16 2 25 0;
#X connect 16 3 20 0;
#X connect 16 4 26 0;
#X connect 16 5 17 0;
#X connect 16 6 21 0;
#X connect 16 7 19 0;
#X connect 16 8 22 0;
#X connect 16 9 23 0;
#X connect 17 0 9 0;
#X connect 18 0 9 0;
#X connect 19 0 9 0;
#X connect 20 0 9 0;
#X connect 21 0 9 0;
#X connect 22 0 9 0;
#X connect 23 0 9 0;
#X connect 24 0 9 0;
#X connect 25 0 9 0;
#X connect 26 0 9 0;
#X coords 0 -1 1 1 85 60 2 100 100;
#X restore 110 234 pd armement;
#X obj 568 416 keyup;
#X obj 472 419 key;
#N canvas 319 350 450 345 convert 0;
#X obj 147 81 inlet;
#X obj 33 183 sel 113 122 115 101 100 102 116 103;
#X msg 18 229 0;
#X msg 32 262 1;
#X msg 55 232 2;
#X msg 72 264 3;
#X msg 96 232 4;
#X msg 117 261 5;
#X msg 140 231 6;
#X msg 163 259 7;
#X obj 176 134 sel 121 104 117 106 107 111 108 112 109;
#X msg 219 235 8;
#X msg 236 260 9;
#X msg 262 235 10;
#X msg 279 260 11;
#X msg 304 235 12;
#X msg 321 260 13;
#X msg 348 234 14;
#X msg 365 259 15;
#X msg 390 234 16;
#X obj 160 309 outlet;
#X text 27 15 This was desgined to play on an AZERTY keyboard \, with
the letter "q" mapped to the note C.;
#X text 27 42 For another keyboard layout you'll have to change the
numbers in the [sel] objects.;
#X connect 0 0 1 0;
#X connect 0 0 10 0;
#X connect 1 0 2 0;
#X connect 1 1 3 0;
#X connect 1 2 4 0;
#X connect 1 3 5 0;
#X connect 1 4 6 0;
#X connect 1 5 7 0;
#X connect 1 6 8 0;
#X connect 1 7 9 0;
#X connect 2 0 20 0;
#X connect 3 0 20 0;
#X connect 4 0 20 0;
#X connect 5 0 20 0;
#X connect 6 0 20 0;
#X connect 7 0 20 0;
#X connect 8 0 20 0;
#X connect 9 0 20 0;
#X connect 10 0 11 0;
#X connect 10 1 12 0;
#X connect 10 2 13 0;
#X connect 10 3 14 0;
#X connect 10 4 15 0;
#X connect 10 5 16 0;
#X connect 10 6 17 0;
#X connect 10 7 18 0;
#X connect 10 8 19 0;
#X connect 11 0 20 0;
#X connect 12 0 20 0;
#X connect 13 0 20 0;
#X connect 14 0 20 0;
#X connect 15 0 20 0;
#X connect 16 0 20 0;
#X connect 17 0 20 0;
#X connect 18 0 20 0;
#X connect 19 0 20 0;
#X restore 466 443 pd convert keys;
#N canvas 320 390 450 300 convert 0;
#X obj 147 21 inlet;
#X obj 33 123 sel 113 122 115 101 100 102 116 103;
#X msg 18 169 0;
#X msg 32 202 1;
#X msg 55 172 2;
#X msg 72 204 3;
#X msg 96 172 4;
#X msg 117 201 5;
#X msg 140 171 6;
#X msg 163 199 7;
#X obj 176 74 sel 121 104 117 106 107 111 108 112 109;
#X msg 219 175 8;
#X msg 236 200 9;
#X msg 262 175 10;
#X msg 279 200 11;
#X msg 304 175 12;
#X msg 321 200 13;
#X msg 348 174 14;
#X msg 365 199 15;
#X msg 390 174 16;
#X obj 160 249 outlet;
#X connect 0 0 1 0;
#X connect 0 0 10 0;
#X connect 1 0 2 0;
#X connect 1 1 3 0;
#X connect 1 2 4 0;
#X connect 1 3 5 0;
#X connect 1 4 6 0;
#X connect 1 5 7 0;
#X connect 1 6 8 0;
#X connect 1 7 9 0;
#X connect 2 0 20 0;
#X connect 3 0 20 0;
#X connect 4 0 20 0;
#X connect 5 0 20 0;
#X connect 6 0 20 0;
#X connect 7 0 20 0;
#X connect 8 0 20 0;
#X connect 9 0 20 0;
#X connect 10 0 11 0;
#X connect 10 1 12 0;
#X connect 10 2 13 0;
#X connect 10 3 14 0;
#X connect 10 4 15 0;
#X connect 10 5 16 0;
#X connect 10 6 17 0;
#X connect 10 7 18 0;
#X connect 10 8 19 0;
#X connect 11 0 20 0;
#X connect 12 0 20 0;
#X connect 13 0 20 0;
#X connect 14 0 20 0;
#X connect 15 0 20 0;
#X connect 16 0 20 0;
#X connect 17 0 20 0;
#X connect 18 0 20 0;
#X connect 19 0 20 0;
#X restore 562 443 pd convert keys;
#X obj 276 589 pack 0 0 0;
#X obj 466 507 t f b;
#X msg 493 528 50;
#X obj 514 507 t f b;
#X msg 541 528 0;
#X obj 274 611 route 1 2 3 4 5 6;
#X obj 868 447 s release;
#X obj 114 162 hsl 128 15 10 1000 0 0 empty empty empty -2 -8 0 10
-262144 -1 -1 2437 1;
#X floatatom 916 428 5 0 0 0 - - -;
#X obj 868 472 hradio 15 1 0 2 empty empty empty 0 -8 0 10 -262144
-1 -1 0;
#X obj 868 492 * 12;
#X obj 466 485 + 48;
#X obj 562 483 + 48;
#X obj 868 514 + 48;
#X obj 830 180 loadbang;
#X obj 868 534 s octave;
#X obj 583 462 r octave;
#X obj 271 143 vradio 15 1 0 10 empty empty empty 0 -8 0 10 -262144
-1 -1 2;
#X text 292 143 MkII Flute;
#X text 292 157 M300A;
#X text 292 172 M300B;
#X text 292 187 MkII Violin;
#X text 292 203 MkII Brass;
#X text 292 218 Cello;
#X text 292 232 String Section;
#X text 292 248 Combined Choir;
#X text 292 263 Woodwind;
#X text 292 278 GC3 Brass;
#X obj 114 200 hsl 128 15 0 0.125 0 0 empty empty empty -2 -8 0 10
-262144 -1 -1 6350 1;
#X obj 867 632 s pitch;
#X obj 867 607 - 0.0625;
#X obj 331 498 notein;
#X obj 466 589 pack 0 0 0;
#X obj 464 611 route 1 2 3 4 5 6;
#X obj 466 564 poly 6;
#X obj 278 499 poly 6;
#X obj 556 699 yelloscillator;
#X obj 811 531 bendin;
#X obj 811 551 / 16383;
#X obj 811 570 / 8;
#X obj 306 757 *~ 0.3;
#X text 1039 445 This is where all the notes;
#X text 1040 460 for the instrument are stored;
#X text 1040 474 in tables.;
#X text 656 698 The audio happens here (inidivual notes are played
;
#X text 655 713 and then summed together before being sent to the audio
output (dac).;
#X obj 868 382 r set-release;
#X obj 867 566 r set-pitch;
#X floatatom 807 658 5 0 0 0 - - -;
#X obj 266 699 yelloscillator;
#X obj 365 699 yelloscillator;
#X obj 316 725 yelloscillator;
#X obj 409 725 yelloscillator;
#X obj 463 699 yelloscillator;
#X text 961 819 Pierre Massat \, Guitar Extended \, 2014;
#X text 268 120 Choose an instrument.;
#X obj 935 87 loadbang;
#X msg 934 112 2;
#X obj 37 38 cnv 15 100 60 empty empty empty 20 12 0 14 -233017 -66577
0;
#X text 109 142 Release;
#X text 110 181 Pitch;
#X text 107 125 Yellotron..........................;
#X msg 830 201 \; set-release 200 \; set-pitch 0.0625;
#X obj 306 780 outlet~;
#X obj 276 8 inlet;
#X obj 310 33 inlet;
#X obj 355 58 declare -path ./Yellotron;
#X connect 4 0 17 0;
#X connect 5 0 18 0;
#X connect 6 0 11 0;
#X connect 7 0 40 0;
#X connect 7 1 8 0;
#X connect 8 0 40 1;
#X connect 9 0 40 0;
#X connect 9 1 10 0;
#X connect 10 0 40 1;
#X connect 11 0 55 0;
#X connect 11 1 56 0;
#X connect 11 2 57 0;
#X connect 11 3 58 0;
#X connect 11 4 59 0;
#X connect 11 5 42 0;
#X connect 13 0 14 0;
#X connect 13 0 12 0;
#X connect 15 0 16 0;
#X connect 16 0 19 0;
#X connect 17 0 7 0;
#X connect 18 0 9 0;
#X connect 19 0 21 0;
#X connect 20 0 68 0;
#X connect 22 0 18 1;
#X connect 22 0 17 1;
#X connect 23 0 1 0;
#X connect 34 0 36 0;
#X connect 36 0 35 0;
#X connect 36 0 54 0;
#X connect 38 0 39 0;
#X connect 39 0 55 1;
#X connect 39 1 56 1;
#X connect 39 2 59 1;
#X connect 39 3 42 1;
#X connect 39 4 57 1;
#X connect 39 5 58 1;
#X connect 40 0 38 0;
#X connect 40 1 38 1;
#X connect 40 2 38 2;
#X connect 41 0 6 0;
#X connect 41 1 6 1;
#X connect 41 2 6 2;
#X connect 42 0 46 0;
#X connect 43 0 44 0;
#X connect 44 0 45 0;
#X connect 45 0 34 0;
#X connect 46 0 69 0;
#X connect 52 0 13 0;
#X connect 53 0 34 0;
#X connect 55 0 46 0;
#X connect 56 0 46 0;
#X connect 57 0 46 0;
#X connect 58 0 46 0;
#X connect 59 0 46 0;
#X connect 62 0 63 0;
#X connect 63 0 23 0;
#X connect 70 0 41 0;
#X connect 71 0 41 1;
#X coords 0 -1 1 1 300 200 1 100 100;
#X restore 72 211 pd yellotron;
#X obj 69 442 dac~;
#N canvas 607 171 450 300 chord 0;
#X msg 10 86 60;
#X obj 9 109 makenote 127 500;
#X obj 112 108 makenote 127 500;
#X msg 215 85 70;
#X msg 113 85 65;
#X obj 10 61 t b b b, f 8;
#X obj 10 39 bng 15 250 50 0 empty empty empty 17 7 0 10 -262144 -1
-1;
#X obj 215 107 makenote 127 500;
#X obj 9 13 inlet;
#X obj 8 210 outlet;
#X obj 54 210 outlet;
#X connect 0 0 1 0;
#X connect 1 0 9 0;
#X connect 1 1 10 0;
#X connect 2 0 9 0;
#X connect 2 1 10 0;
#X connect 3 0 7 0;
#X connect 4 0 2 0;
#X connect 5 0 0 0;
#X connect 5 1 4 0;
#X connect 5 2 3 0;
#X connect 6 0 5 0;
#X connect 7 0 9 0;
#X connect 7 1 10 0;
#X connect 8 0 6 0;
#X restore 73 176 pd chord;
#X obj 70 144 bng 15 250 50 0 empty empty empty 17 7 0 10 -262144 -1
-1;
#X obj 110 48 tgl 15 0 empty empty empty 17 7 0 10 -262144 -1 -1 0
1;
#X obj 116 74 metro 700;
#X connect 0 0 1 1;
#X connect 0 0 1 0;
#X connect 2 0 0 0;
#X connect 2 1 0 1;
#X connect 3 0 2 0;
#X connect 4 0 5 0;
#X connect 5 0 3 0;
