#N canvas 100 651 629 395 10;
#X obj 28 185 drumhit~;
#X msg 73 41 0 1 2 3 4 5 6 7 8 9;
#X obj 73 18 loadbang;
#X obj 85 184 drumhit~;
#X obj 142 184 drumhit~;
#X obj 200 183 drumhit~;
#X obj 257 182 drumhit~;
#X obj 314 181 drumhit~;
#X obj 372 181 drumhit~;
#X obj 429 180 drumhit~;
#X obj 27 272 outlet~;
#X obj 29 159 inlet;
#X obj 85 159 inlet;
#X obj 144 160 inlet;
#X obj 200 160 inlet;
#X obj 259 156 inlet;
#X obj 315 156 inlet;
#X obj 373 154 inlet;
#X obj 429 154 inlet;
#X obj 73 65 unpack 0 0 0 0 0 0 0 0 0 0, f 77;
#X obj 488 179 drumhit~;
#X obj 488 153 inlet;
#X obj 27 249 *~ 0.63;
#X floatatom 196 94 5 0 0 0 - - -;
#X connect 0 0 22 0;
#X connect 1 0 19 0;
#X connect 2 0 1 0;
#X connect 3 0 22 0;
#X connect 4 0 22 0;
#X connect 5 0 22 0;
#X connect 6 0 22 0;
#X connect 7 0 22 0;
#X connect 8 0 22 0;
#X connect 9 0 22 0;
#X connect 11 0 0 0;
#X connect 12 0 3 0;
#X connect 13 0 4 0;
#X connect 14 0 5 0;
#X connect 15 0 6 0;
#X connect 16 0 7 0;
#X connect 17 0 8 0;
#X connect 18 0 9 0;
#X connect 19 0 0 1;
#X connect 19 1 3 1;
#X connect 19 2 4 1;
#X connect 19 3 5 1;
#X connect 19 4 6 1;
#X connect 19 5 7 1;
#X connect 19 6 8 1;
#X connect 19 7 9 1;
#X connect 19 8 20 1;
#X connect 20 0 22 0;
#X connect 21 0 20 0;
#X connect 22 0 10 0;
#X connect 23 0 5 0;
