#N canvas 628 96 397 211 10;
#N canvas 0 464 531 543 selector 1;
#X obj 9 14 inlet;
#X obj 19 500 outlet;
#X obj 13 77 b;
#X obj 59 76 b;
#X obj 105 77 b;
#X obj 152 78 b;
#X obj 195 80 b;
#X obj 241 79 b;
#X obj 287 80 b;
#X obj 334 81 b;
#X obj 381 78 b;
#X obj 14 53 sel 0 1 2 3 4 5 6 7 8, f 70;
#X msg 382 414 symbol crashes;
#X msg 334 380 symbol rides;
#X msg 286 345 symbol perc2;
#X msg 241 310 symbol /perc;
#X msg 193 277 symbol hats;
#X msg 152 236 symbol rimshots;
#X msg 104 208 symbol claps;
#X msg 51 169 symbol snares;
#X msg 13 131 symbol kicks;
#X connect 0 0 11 0;
#X connect 2 0 20 0;
#X connect 3 0 19 0;
#X connect 4 0 18 0;
#X connect 5 0 17 0;
#X connect 6 0 16 0;
#X connect 7 0 15 0;
#X connect 8 0 14 0;
#X connect 9 0 13 0;
#X connect 10 0 12 0;
#X connect 11 0 2 0;
#X connect 11 1 3 0;
#X connect 11 2 4 0;
#X connect 11 3 5 0;
#X connect 11 4 6 0;
#X connect 11 5 7 0;
#X connect 11 6 8 0;
#X connect 11 7 9 0;
#X connect 11 8 10 0;
#X connect 12 0 1 0;
#X connect 13 0 1 0;
#X connect 14 0 1 0;
#X connect 15 0 1 0;
#X connect 16 0 1 0;
#X connect 17 0 1 0;
#X connect 18 0 1 0;
#X connect 19 0 1 0;
#X connect 20 0 1 0;
#X restore 76 71 pd selector;
#X f 12;
#X obj 19 118 outlet~;
#X obj 20 66 inlet;
#X obj 76 25 inlet;
#X obj 20 94 playdir2~, f 19;
#X connect 0 0 4 1;
#X connect 2 0 4 0;
#X connect 3 0 0 0;
#X connect 4 0 1 0;
