#N canvas 313 219 1474 705 10;
#X obj 212 207 tapeloop~, f 19;
#X obj 245 184 bng 15 250 50 0 empty empty empty 17 7 0 10 -262144
-1 -1;
#X obj 284 186 bng 15 250 50 0 empty empty empty 17 7 0 10 -262144
-1 -1;
#X obj 322 185 bng 15 250 50 0 empty empty empty 17 7 0 10 -262144
-1 -1;
#X obj 267 236 tgl 15 0 empty empty empty 17 7 0 10 -262144 -1 -1 0
1;
#X obj 321 228 tgl 15 0 empty empty empty 17 7 0 10 -262144 -1 -1 0
1;
#X text 283 232 recording;
#X text 341 224 playing;
#X obj 134 93 inlet;
#X obj 132 121 sel 0 1 2 3 4 5 6 7, f 152;
#X obj 133 157 s stop;
#X obj 325 161 r stop;
#X obj 27 26 inlet~;
#X obj 36 613 outlet~;
#X obj 327 370 tapeloop~, f 19;
#X obj 360 347 bng 15 250 50 0 empty empty empty 17 7 0 10 -262144
-1 -1;
#X obj 399 349 bng 15 250 50 0 empty empty empty 17 7 0 10 -262144
-1 -1;
#X obj 437 348 bng 15 250 50 0 empty empty empty 17 7 0 10 -262144
-1 -1;
#X obj 382 399 tgl 15 0 empty empty empty 17 7 0 10 -262144 -1 -1 0
1;
#X obj 436 391 tgl 15 0 empty empty empty 17 7 0 10 -262144 -1 -1 0
1;
#X text 398 395 recording;
#X text 456 387 playing;
#X obj 440 324 r stop;
#X obj 437 544 tapeloop~, f 19;
#X obj 470 521 bng 15 250 50 0 empty empty empty 17 7 0 10 -262144
-1 -1;
#X obj 509 523 bng 15 250 50 0 empty empty empty 17 7 0 10 -262144
-1 -1;
#X obj 547 522 bng 15 250 50 0 empty empty empty 17 7 0 10 -262144
-1 -1;
#X obj 492 573 tgl 15 0 empty empty empty 17 7 0 10 -262144 -1 -1 0
1;
#X obj 546 565 tgl 15 0 empty empty empty 17 7 0 10 -262144 -1 -1 0
1;
#X text 508 569 recording;
#X text 566 561 playing;
#X obj 550 498 r stop;
#X obj 553 269 tapeloop~, f 19;
#X obj 586 246 bng 15 250 50 0 empty empty empty 17 7 0 10 -262144
-1 -1;
#X obj 625 248 bng 15 250 50 0 empty empty empty 17 7 0 10 -262144
-1 -1;
#X obj 663 247 bng 15 250 50 0 empty empty empty 17 7 0 10 -262144
-1 -1;
#X obj 608 298 tgl 15 0 empty empty empty 17 7 0 10 -262144 -1 -1 0
1;
#X obj 662 290 tgl 15 0 empty empty empty 17 7 0 10 -262144 -1 -1 0
1;
#X text 624 294 recording;
#X text 682 286 playing;
#X obj 666 223 r stop;
#X obj 668 464 tapeloop~, f 19;
#X obj 697 441 bng 15 250 50 0 empty empty empty 17 7 0 10 -262144
-1 -1;
#X obj 740 443 bng 15 250 50 0 empty empty empty 17 7 0 10 -262144
-1 -1;
#X obj 778 442 bng 15 250 50 0 empty empty empty 17 7 0 10 -262144
-1 -1;
#X obj 723 493 tgl 15 0 empty empty empty 17 7 0 10 -262144 -1 -1 0
1;
#X obj 777 485 tgl 15 0 empty empty empty 17 7 0 10 -262144 -1 -1 0
1;
#X text 739 489 recording;
#X text 797 481 playing;
#X obj 781 418 r stop;
#X obj 784 306 tapeloop~, f 19;
#X obj 813 283 bng 15 250 50 0 empty empty empty 17 7 0 10 -262144
-1 -1;
#X obj 856 285 bng 15 250 50 0 empty empty empty 17 7 0 10 -262144
-1 -1;
#X obj 894 284 bng 15 250 50 0 empty empty empty 17 7 0 10 -262144
-1 -1;
#X obj 839 335 tgl 15 0 empty empty empty 17 7 0 10 -262144 -1 -1 0
1;
#X obj 893 327 tgl 15 0 empty empty empty 17 7 0 10 -262144 -1 -1 0
1;
#X text 855 331 recording;
#X text 913 323 playing;
#X obj 897 260 r stop;
#X obj 898 513 tapeloop~, f 19;
#X obj 927 490 bng 15 250 50 0 empty empty empty 17 7 0 10 -262144
-1 -1;
#X obj 970 492 bng 15 250 50 0 empty empty empty 17 7 0 10 -262144
-1 -1;
#X obj 1008 491 bng 15 250 50 0 empty empty empty 17 7 0 10 -262144
-1 -1;
#X obj 953 542 tgl 15 0 empty empty empty 17 7 0 10 -262144 -1 -1 0
1;
#X obj 1007 534 tgl 15 0 empty empty empty 17 7 0 10 -262144 -1 -1
0 1;
#X text 969 538 recording;
#X text 1027 530 playing;
#X obj 1011 467 r stop;
#X obj 1012 334 tapeloop~, f 19;
#X obj 1041 311 bng 15 250 50 0 empty empty empty 17 7 0 10 -262144
-1 -1;
#X obj 1084 313 bng 15 250 50 0 empty empty empty 17 7 0 10 -262144
-1 -1;
#X obj 1122 312 bng 15 250 50 0 empty empty empty 17 7 0 10 -262144
-1 -1;
#X obj 1067 363 tgl 15 0 empty empty empty 17 7 0 10 -262144 -1 -1
0 1;
#X obj 1121 355 tgl 15 0 empty empty empty 17 7 0 10 -262144 -1 -1
0 1;
#X text 1083 359 recording;
#X text 1141 351 playing;
#X obj 1125 288 r stop;
#X connect 0 0 13 0;
#X connect 0 1 4 0;
#X connect 0 2 5 0;
#X connect 1 0 0 1;
#X connect 2 0 0 2;
#X connect 3 0 0 3;
#X connect 8 0 9 0;
#X connect 9 0 10 0;
#X connect 9 1 1 0;
#X connect 9 2 15 0;
#X connect 9 3 24 0;
#X connect 9 4 33 0;
#X connect 9 5 42 0;
#X connect 9 6 51 0;
#X connect 9 7 60 0;
#X connect 9 8 69 0;
#X connect 11 0 3 0;
#X connect 12 0 0 0;
#X connect 12 0 14 0;
#X connect 12 0 32 0;
#X connect 12 0 23 0;
#X connect 12 0 50 0;
#X connect 12 0 41 0;
#X connect 12 0 68 0;
#X connect 12 0 59 0;
#X connect 14 0 13 0;
#X connect 14 1 18 0;
#X connect 14 2 19 0;
#X connect 15 0 14 1;
#X connect 16 0 14 2;
#X connect 17 0 14 3;
#X connect 22 0 17 0;
#X connect 23 0 13 0;
#X connect 23 1 27 0;
#X connect 23 2 28 0;
#X connect 24 0 23 1;
#X connect 25 0 23 2;
#X connect 26 0 23 3;
#X connect 31 0 26 0;
#X connect 32 0 13 0;
#X connect 32 1 36 0;
#X connect 32 2 37 0;
#X connect 33 0 32 1;
#X connect 34 0 32 2;
#X connect 35 0 32 3;
#X connect 40 0 35 0;
#X connect 41 0 13 0;
#X connect 41 1 45 0;
#X connect 41 2 46 0;
#X connect 42 0 41 1;
#X connect 43 0 41 2;
#X connect 44 0 41 3;
#X connect 49 0 44 0;
#X connect 50 0 13 0;
#X connect 50 1 54 0;
#X connect 50 2 55 0;
#X connect 51 0 50 1;
#X connect 52 0 50 2;
#X connect 53 0 50 3;
#X connect 58 0 53 0;
#X connect 59 0 13 0;
#X connect 59 1 63 0;
#X connect 59 2 64 0;
#X connect 60 0 59 1;
#X connect 61 0 59 2;
#X connect 62 0 59 3;
#X connect 67 0 62 0;
#X connect 68 0 13 0;
#X connect 68 1 72 0;
#X connect 68 2 73 0;
#X connect 69 0 68 1;
#X connect 70 0 68 2;
#X connect 71 0 68 3;
#X connect 76 0 71 0;
