#N canvas 0 96 748 522 10;
#N canvas 1171 96 388 457 tempo 1;
#X obj 216 105 swap 60000;
#X obj 216 130 /;
#X floatatom 216 155 5 0 0 0 - - -;
#X obj 96 180 metro;
#X obj 96 148 tgl 15 0 empty empty empty 17 7 0 10 -262144 -1 -1 0
1;
#X obj 96 235 f 0;
#X obj 138 235 + 1;
#X obj 96 260 t f f;
#X msg 117 212 0;
#X obj 216 73 inlet;
#X obj 59 35 inlet;
#X obj 96 381 outlet;
#X obj 96 288 + 1;
#X obj 59 60 sel 0;
#X msg 141 96 1, f 1;
#X msg 121 96 0, f 1;
#X msg 46 121 0;
#X obj 96 121 spigot 1;
#X text 175 293 Count to 4 for 4/4 time;
#X obj 130 319 sel 4;
#X obj 218 180 / 2;
#X obj 186 204 metro;
#X obj 185 229 outlet;
#X obj 237 212 metro;
#X obj 236 237 outlet;
#X obj 269 188 / 4;
#X obj 305 71 inlet;
#X connect 0 0 1 0;
#X connect 0 1 1 1;
#X connect 1 0 2 0;
#X connect 2 0 3 1;
#X connect 2 0 20 0;
#X connect 2 0 25 0;
#X connect 3 0 5 0;
#X connect 4 0 3 0;
#X connect 4 0 21 0;
#X connect 4 0 23 0;
#X connect 5 0 7 0;
#X connect 6 0 5 1;
#X connect 7 0 12 0;
#X connect 7 1 6 0;
#X connect 8 0 5 1;
#X connect 9 0 0 0;
#X connect 10 0 13 0;
#X connect 12 0 11 0;
#X connect 12 0 19 0;
#X connect 13 0 8 0;
#X connect 13 0 14 0;
#X connect 13 0 16 0;
#X connect 13 1 17 0;
#X connect 14 0 17 1;
#X connect 15 0 17 1;
#X connect 16 0 4 0;
#X connect 17 0 4 0;
#X connect 17 0 15 0;
#X connect 19 0 8 0;
#X connect 20 0 21 1;
#X connect 21 0 22 0;
#X connect 23 0 24 0;
#X connect 25 0 23 1;
#X connect 26 0 21 1;
#X restore 107 199 pd tempo;
#X floatatom 107 224 5 0 0 0 - - -;
#X obj 107 313 sel 1;
#X obj 107 355 f;
#X obj 107 286 spigot;
#X msg 155 261 1, f 1;
#X msg 137 261 0, f 1;
#X obj 53 381 sel 0;
#X msg 53 405 0;
#X obj 70 117 > 0;
#X obj 70 142 sel 1;
#X msg 70 168 1;
#X obj 102 41 inlet;
#X obj 226 40 inlet bpm;
#X obj 108 417 outlet;
#X obj 107 380 t f f;
#X obj 102 79 t f f b;
#X obj 180 277 outlet;
#X obj 181 254 b;
#X obj 234 277 outlet;
#X obj 235 254 b;
#X obj 289 278 outlet;
#X obj 290 255 b;
#X obj 341 276 outlet;
#X text 182 197 thank you Megalon;
#X obj 292 39 inlet;
#X connect 0 0 1 0;
#X connect 0 0 18 0;
#X connect 0 1 20 0;
#X connect 0 2 22 0;
#X connect 1 0 4 0;
#X connect 1 0 23 0;
#X connect 2 0 3 0;
#X connect 2 0 6 0;
#X connect 3 0 15 0;
#X connect 4 0 2 0;
#X connect 5 0 4 1;
#X connect 6 0 4 1;
#X connect 7 0 8 0;
#X connect 8 0 0 0;
#X connect 9 0 10 0;
#X connect 10 0 11 0;
#X connect 11 0 0 0;
#X connect 12 0 16 0;
#X connect 13 0 0 1;
#X connect 15 0 7 0;
#X connect 15 1 14 0;
#X connect 16 0 9 0;
#X connect 16 1 3 1;
#X connect 16 2 5 0;
#X connect 18 0 17 0;
#X connect 20 0 19 0;
#X connect 22 0 21 0;
#X connect 25 0 0 2;
