#N canvas 1016 301 674 518 10;
#X floatatom 123 153 5 0 0 0 BPM - -;
#X obj 128 103 loadbang;
#X floatatom 38 257 5 0 0 0 - - -;
#X obj 54 199 bng 15 250 50 0 empty empty empty 17 7 0 10 -262144 -1
-1;
#X obj 75 199 bng 15 250 50 0 empty empty empty 17 7 0 10 -262144 -1
-1;
#X msg 127 128 130;
#X obj 95 199 bng 15 250 50 0 empty empty empty 17 7 0 10 -262144 -1
-1;
#X floatatom 118 200 5 0 0 0 - - -;
#X floatatom 35 150 5 0 0 0 - - -;
#X obj 38 175 m-metro;
#X text 29 119 set an index;
#X text 157 199 it will wait until beat 1 to select the index;
#X text 21 21 m-metro;
#X text 28 67 metro \, clock divider and will loop index selection
\, waits until beat 1 before changing loop index.;
#X obj 82 46 tgl 15 0 empty empty empty 17 7 0 10 -262144 -1 -1 0 1
;
#X text 105 44 sending 0 stops the metronome;
#X connect 0 0 9 1;
#X connect 1 0 5 0;
#X connect 5 0 0 0;
#X connect 8 0 9 0;
#X connect 9 0 2 0;
#X connect 9 1 3 0;
#X connect 9 2 4 0;
#X connect 9 3 6 0;
#X connect 9 4 7 0;
#X connect 14 0 9 0;
