#N canvas 0 96 450 300 10;
#X obj 62 145 tgl 15 0 empty empty empty 17 7 0 10 -262144 -1 -1 0
1;
#X obj 31 170 spigot;
#X obj 68 91 sel 1;
#X msg 94 117 0;
#X msg 66 117 1;
#X obj 31 29 inlet;
#X obj 31 258 outlet;
#X obj 68 29 inlet;
#X obj 68 62 route float;
#X connect 0 0 1 1;
#X connect 1 0 6 0;
#X connect 2 0 4 0;
#X connect 2 1 3 0;
#X connect 3 0 0 0;
#X connect 4 0 0 0;
#X connect 5 0 1 0;
#X connect 7 0 8 0;
#X connect 8 0 2 0;
#X connect 8 1 3 0;
