#N canvas 1123 101 551 590 10;
#X obj 62 463 outlet~;
#X obj 63 412 else/play.file~ 1;
#X obj 63 435 *~ 0.9;
#X msg 181 390 loop 0;
#X obj 181 364 loadbang;
#X floatatom 13 39 5 0 0 0 - - -;
#X obj 54 243 % 4, f 6;
#X obj 14 18 inlet;
#X obj 94 16 inlet;
#X obj 54 266 + 1;
#X obj 54 218 abs;
#X obj 33 383 b;
#X obj 184 158 else/dir;
#X obj 198 130 bng 15 250 50 0 empty empty empty 17 7 0 10 -262144
-1 -1;
#X msg 190 79 open /home/m-onz/m-onzAV/audio/sounds/\$1;
#X obj 55 295 pack f s;
#X msg 186 40 symbol perc;
#X msg 53 325 open \$2/\$1.wav;
#X connect 1 0 2 0;
#X connect 2 0 0 0;
#X connect 3 0 1 0;
#X connect 4 0 3 0;
#X connect 5 0 10 0;
#X connect 6 0 9 0;
#X connect 7 0 5 0;
#X connect 8 0 14 0;
#X connect 9 0 15 0;
#X connect 10 0 6 0;
#X connect 11 0 1 0;
#X connect 12 1 15 1;
#X connect 12 2 6 1;
#X connect 13 0 12 0;
#X connect 14 0 12 0;
#X connect 14 0 13 0;
#X connect 15 0 17 0;
#X connect 16 0 14 0;
#X connect 17 0 1 0;
#X connect 17 0 11 0;
