#N canvas 381 117 977 693 10;
#X declare -path else;
#X msg 622 154 ms \$1;
#X obj 395 237 else/tabplayer~ \$0-buf -loop;
#X obj 622 235 else/sample~ \$0-buf -ch 1;
#X obj 211 377 else/tabwriter~ \$0-buf 1;
#X obj 9 11 declare -path else;
#X msg 688 153 clear;
#X floatatom 622 132 5 0 0 0 - - -;
#X msg 210 353 rec;
#X msg 241 353 stop;
#X obj 163 51 inlet~;
#X obj 620 257 else/display;
#X obj 210 331 sel 1 0, f 11;
#X obj 210 52 inlet;
#X obj 395 53 inlet;
#X obj 395 632 outlet~;
#X obj 622 54 inlet;
#X obj 688 54 inlet;
#X connect 0 0 2 0;
#X connect 1 0 14 0;
#X connect 2 0 10 0;
#X connect 5 0 2 0;
#X connect 6 0 0 0;
#X connect 7 0 3 0;
#X connect 8 0 3 0;
#X connect 9 0 3 1;
#X connect 11 0 7 0;
#X connect 11 1 8 0;
#X connect 12 0 11 0;
#X connect 13 0 1 0;
#X connect 15 0 6 0;
#X connect 16 0 5 0;
