#N canvas 199 99 630 579 10;
#N canvas 1 67 1027 674 beatslicer 1;
#N canvas 1 67 450 250 (subpatch) 0;
#X array \$0-sample-L 211680 float 2;
#X coords 0 1 211680 -1 448 100 1 0 0;
#X restore 178 124 graph;
#N canvas 1 67 450 250 (subpatch) 0;
#X array \$0-sample-R 211680 float 2;
#X coords 0 1 211680 -1 448 100 1 0 0;
#X restore 178 224 graph;
#X obj 179 334 hradio 14 1 0 32 empty empty empty 0 -8 0 10 -262144
-1 -1 4;
#N canvas 605 396 441 345 read-file 0;
#X obj 35 51 openpanel;
#X obj 35 241 soundfiler;
#X text 116 241 Read sample into array;
#X obj 68 125 symbol \$0-sample-L;
#X obj 35 179 pack s s s;
#X obj 102 149 symbol \$0-sample-R;
#X obj 35 86 t a b b;
#X msg 35 210 read -resize \$1 \$2 \$3;
#X obj 35 265 outlet sample-size;
#X obj 35 25 inlet open;
#X connect 0 0 6 0;
#X connect 1 0 8 0;
#X connect 3 0 4 1;
#X connect 4 0 7 0;
#X connect 5 0 4 2;
#X connect 6 0 4 0;
#X connect 6 1 3 0;
#X connect 6 2 5 0;
#X connect 7 0 1 0;
#X connect 9 0 0 0;
#X restore 672 249 pd read-file;
#X obj 115 126 bng 30 250 50 0 empty empty Open_file 35 7 0 10 -262144
-1 -1;
#X floatatom 672 295 10 0 0 0 - - -;
#X obj 761 266 f 0;
#X obj 793 266 + 1;
#X floatatom 761 314 5 0 0 0 - - -;
#X obj 114 170 tgl 30 0 empty empty Play 35 7 0 10 -262144 -1 -1 0
1;
#X obj 761 242 metro 200;
#X obj 825 236 expr ($f1 / 32) / 44.1;
#N canvas 339 338 487 403 send-message-to-step 0;
#X obj 88 329 send;
#X obj 113 232 pack f \$0;
#X msg 113 261 symbol \$2-step-\$1;
#X obj 31 264 pack s f;
#X obj 84 233 f;
#X obj 30 165 t b b f;
#X obj 31 234 symbol;
#X obj 31 288 list trim;
#X obj 30 39 r \$0-step-to-message;
#X obj 339 39 r \$0-message-value;
#X obj 190 39 r \$0-message-type;
#X connect 1 0 2 0;
#X connect 2 0 0 1;
#X connect 3 0 7 0;
#X connect 4 0 3 1;
#X connect 5 0 6 0;
#X connect 5 1 4 0;
#X connect 5 2 1 0;
#X connect 6 0 3 0;
#X connect 7 0 0 0;
#X connect 8 0 5 0;
#X connect 9 0 4 1;
#X connect 10 0 6 1;
#X restore 672 410 pd send-message-to-step;
#X obj 694 69 t f b b;
#X msg 717 98 symbol step;
#X obj 761 290 mod 32;
#N canvas 172 67 538 674 sample-player 0;
#X obj 85 489 tabread4~ \$0-sample-L;
#X obj 153 508 tabread4~ \$0-sample-R;
#X obj 84 437 line~;
#X obj 84 461 *~ 1;
#X obj 151 240 f;
#X obj 84 30 bng 15 250 50 0 empty \$0-trigger Trigger 17 7 0 10 -262144
-1 -1;
#X msg 84 358 \$1 \, \$2 \$3;
#X obj 84 323 pack f f f;
#X obj 84 50 t b b;
#X obj 84 83 t b b;
#X obj 84 263 f;
#X obj 117 263 f;
#X obj 102 133 t f f;
#X obj 102 160 expr $f1;
#X obj 135 191 expr (float(1) / 32) + $f1;
#X obj 162 69 r \$0-start-pos;
#X obj 151 269 expr ($f1 / 32) / 44.1 * $f2;
#X obj 344 240 r \$0-pitch;
#X msg 174 358 \$2 \, \$1 \$3;
#X obj 84 397 spigot 1;
#X obj 154 397 spigot 0;
#X obj 282 335 r \$0-reverse;
#X obj 282 359 == 0;
#X obj 171 530 r \$0-on-off;
#X obj 154 603 *~;
#X obj 84 604 *~;
#X obj 171 576 line~;
#X obj 167 427 r \$0-file-size;
#X obj 178 216 r \$0-file-size;
#X obj 84 628 outlet~;
#X obj 154 628 outlet~;
#X msg 171 552 \$1;
#X obj 162 93 expr int($f1 * 32) / 32;
#X connect 0 0 25 0;
#X connect 1 0 24 0;
#X connect 2 0 3 0;
#X connect 3 0 0 0;
#X connect 3 0 1 0;
#X connect 4 0 16 0;
#X connect 5 0 8 0;
#X connect 6 0 19 0;
#X connect 7 0 6 0;
#X connect 7 0 18 0;
#X connect 8 0 9 0;
#X connect 8 1 4 0;
#X connect 9 0 10 0;
#X connect 9 1 11 0;
#X connect 10 0 7 0;
#X connect 11 0 7 1;
#X connect 12 0 13 0;
#X connect 12 1 14 0;
#X connect 13 0 10 1;
#X connect 14 0 11 1;
#X connect 15 0 32 0;
#X connect 16 0 7 2;
#X connect 17 0 16 1;
#X connect 18 0 20 0;
#X connect 19 0 2 0;
#X connect 20 0 2 0;
#X connect 21 0 22 0;
#X connect 21 0 20 1;
#X connect 22 0 19 1;
#X connect 23 0 31 0;
#X connect 24 0 30 0;
#X connect 25 0 29 0;
#X connect 26 0 24 1;
#X connect 26 0 25 1;
#X connect 27 0 3 1;
#X connect 28 0 4 1;
#X connect 31 0 26 0;
#X connect 32 0 12 0;
#X restore 745 463 pd sample-player;
#X obj 704 345 s \$0-file-size;
#X obj 825 208 r \$0-file-size;
#X msg 740 128 0;
#N canvas 416 367 460 592 control-all 0;
#X obj 137 443 until;
#X msg 137 386 32;
#X obj 137 497 f 0;
#X obj 172 497 + 1;
#X msg 155 468 0;
#X obj 137 410 t f b;
#X msg 223 351 symbol pitch;
#X obj 100 36 vsl 14 80 0.1 1 0 0 empty empty empty -56 30 0 10 -262144
-1 -1 0 1;
#X obj 197 238 t b b f;
#X obj 100 119 tgl 14 0 empty empty empty -68 7 0 10 -262144 -1 -1
0 1;
#X obj 263 237 t b b f;
#X msg 240 390 symbol on-off;
#X msg 230 370 symbol reverse;
#X msg 213 331 symbol start-pos;
#X obj 216 438 t a;
#X obj 295 290 t f;
#X obj 100 20 tgl 14 0 empty empty empty -62 7 0 10 -262144 -1 -1 0
1;
#X obj 323 237 t b b f;
#X obj 137 292 t b;
#X obj 100 135 vsl 14 80 0 1 0 0 empty empty empty -80 30 0 10 -262144
-1 -1 0 1;
#X obj 137 238 t b b f;
#X obj 137 551 s \$0-step-to-message;
#X obj 216 521 s \$0-message-type;
#X obj 295 491 s \$0-message-value;
#X connect 0 0 2 0;
#X connect 1 0 5 0;
#X connect 2 0 3 0;
#X connect 2 0 21 0;
#X connect 3 0 2 1;
#X connect 4 0 2 1;
#X connect 5 0 0 0;
#X connect 5 1 4 0;
#X connect 6 0 14 0;
#X connect 7 0 8 0;
#X connect 8 0 18 0;
#X connect 8 1 6 0;
#X connect 8 2 15 0;
#X connect 9 0 10 0;
#X connect 10 0 18 0;
#X connect 10 1 12 0;
#X connect 10 2 15 0;
#X connect 11 0 14 0;
#X connect 12 0 14 0;
#X connect 13 0 14 0;
#X connect 14 0 22 0;
#X connect 15 0 23 0;
#X connect 16 0 17 0;
#X connect 17 0 18 0;
#X connect 17 1 11 0;
#X connect 17 2 15 0;
#X connect 18 0 1 0;
#X connect 19 0 20 0;
#X connect 20 0 18 0;
#X connect 20 1 13 0;
#X connect 20 2 15 0;
#X coords 0 -1 1 1 14 200 2 100 20;
#X restore 155 358 pd control-all;
#X obj 694 211 s \$0-step-to-message;
#X obj 717 181 s \$0-message-type;
#X obj 740 155 s \$0-message-value;
#X obj 131 358 bng 14 250 50 0 \$0-randomize-on-off empty empty 17
7 0 10 -262144 -1 -1;
#X obj 131 382 bng 14 250 50 0 \$0-randomize-pitch empty empty 17 7
0 10 -262144 -1 -1;
#X obj 131 457 bng 14 250 50 0 \$0-randomize-reverse empty empty 17
7 0 10 -262144 -1 -1;
#X obj 131 481 bng 14 250 50 0 \$0-randomize-start-pos empty empty
17 7 0 10 -262144 -1 -1;
#N canvas 356 93 827 648 randomize 0;
#X obj 66 23 r \$0-randomize-start-pos;
#X obj 66 345 until;
#X msg 66 288 32;
#X obj 66 399 f 0;
#X obj 101 399 + 1;
#X msg 84 370 0;
#X obj 66 312 t f b;
#X msg 464 234 symbol pitch;
#X msg 624 234 symbol on-off;
#X msg 294 234 symbol reverse;
#X msg 112 234 symbol start-pos;
#X obj 66 542 s \$0-step-to-message;
#X obj 225 489 s \$0-message-type;
#X obj 155 516 s \$0-message-value;
#X msg 89 171 80;
#X obj 66 423 t f b;
#X obj 155 463 random;
#X obj 155 487 /;
#X obj 89 209 t f;
#X obj 248 23 r \$0-randomize-reverse;
#X obj 66 47 t b b b;
#X obj 225 461 t a;
#X obj 66 111 t b;
#X obj 248 47 t b b b;
#X obj 418 47 t b b b;
#X obj 418 23 r \$0-randomize-pitch;
#X obj 578 47 t b b b;
#X obj 578 23 r \$0-randomize-on-off;
#X obj 138 430 bng 15 250 50 0 empty empty empty 17 7 0 10 -262144
-1 -1;
#X obj 190 336 t b b;
#X msg 222 359 2;
#X msg 190 360 1;
#X obj 271 169 t b;
#X connect 0 0 20 0;
#X connect 1 0 3 0;
#X connect 2 0 6 0;
#X connect 3 0 4 0;
#X connect 3 0 15 0;
#X connect 4 0 3 1;
#X connect 5 0 3 1;
#X connect 6 0 1 0;
#X connect 6 1 5 0;
#X connect 7 0 21 0;
#X connect 8 0 21 0;
#X connect 9 0 21 0;
#X connect 10 0 21 0;
#X connect 14 0 18 0;
#X connect 15 0 11 0;
#X connect 15 1 16 0;
#X connect 16 0 17 0;
#X connect 17 0 13 0;
#X connect 18 0 17 1;
#X connect 18 0 16 1;
#X connect 19 0 23 0;
#X connect 20 0 22 0;
#X connect 20 1 14 0;
#X connect 20 2 10 0;
#X connect 21 0 12 0;
#X connect 22 0 2 0;
#X connect 23 0 22 0;
#X connect 23 1 32 0;
#X connect 23 2 9 0;
#X connect 24 0 22 0;
#X connect 24 1 14 0;
#X connect 24 2 7 0;
#X connect 25 0 24 0;
#X connect 26 0 22 0;
#X connect 26 1 32 0;
#X connect 26 2 8 0;
#X connect 27 0 26 0;
#X connect 28 0 16 0;
#X connect 29 0 31 0;
#X connect 29 1 30 0;
#X connect 30 0 16 1;
#X connect 31 0 17 1;
#X connect 32 0 29 0;
#X restore 672 429 pd randomize;
#N canvas 266 144 937 597 init 0;
#X obj 66 345 until;
#X msg 66 288 32;
#X obj 66 399 f 0;
#X obj 101 399 + 1;
#X msg 84 370 0;
#X obj 66 312 t f b;
#X msg 464 234 symbol pitch;
#X msg 624 234 symbol on-off;
#X msg 294 234 symbol reverse;
#X msg 112 234 symbol start-pos;
#X obj 66 542 s \$0-step-to-message;
#X obj 225 489 s \$0-message-type;
#X obj 155 516 s \$0-message-value;
#X obj 89 209 t f;
#X obj 66 47 t b b b;
#X obj 225 391 t a;
#X obj 66 111 t b;
#X obj 248 47 t b b b;
#X obj 418 47 t b b b;
#X obj 578 47 t b b b;
#X obj 66 23 r \$0-init-start-pos;
#X obj 248 23 r \$0-init-reverse;
#X obj 418 23 r \$0-init-pitch;
#X obj 578 23 r \$0-init-on-off;
#X msg 271 138 0;
#X msg 441 138 1;
#X msg 601 138 1;
#X obj 203 420 sel start-pos;
#X obj 155 479 spigot;
#X msg 203 444 1;
#X msg 291 446 0;
#X obj 66 423 t f f;
#X text 306 421 <-- Special case for start-pos;
#X obj 98 448 expr $f1 / 32;
#X connect 0 0 2 0;
#X connect 1 0 5 0;
#X connect 2 0 3 0;
#X connect 2 0 31 0;
#X connect 3 0 2 1;
#X connect 4 0 2 1;
#X connect 5 0 0 0;
#X connect 5 1 4 0;
#X connect 6 0 15 0;
#X connect 7 0 15 0;
#X connect 8 0 15 0;
#X connect 9 0 15 0;
#X connect 13 0 12 0;
#X connect 14 0 16 0;
#X connect 14 2 9 0;
#X connect 15 0 11 0;
#X connect 15 0 27 0;
#X connect 16 0 1 0;
#X connect 17 0 16 0;
#X connect 17 1 24 0;
#X connect 17 2 8 0;
#X connect 18 0 16 0;
#X connect 18 1 25 0;
#X connect 18 2 6 0;
#X connect 19 0 16 0;
#X connect 19 1 26 0;
#X connect 19 2 7 0;
#X connect 20 0 14 0;
#X connect 21 0 17 0;
#X connect 22 0 18 0;
#X connect 23 0 19 0;
#X connect 24 0 13 0;
#X connect 25 0 13 0;
#X connect 26 0 13 0;
#X connect 27 0 29 0;
#X connect 27 1 30 0;
#X connect 28 0 12 0;
#X connect 29 0 28 1;
#X connect 30 0 28 1;
#X connect 31 0 10 0;
#X connect 31 1 33 0;
#X connect 33 0 28 0;
#X restore 672 448 pd init;
#X obj 111 358 bng 14 250 50 0 \$0-init-on-off empty empty 17 7 0 10
-262144 -1 -1;
#X obj 111 382 bng 14 250 50 0 \$0-init-pitch empty empty 17 7 0 10
-262144 -1 -1;
#X obj 111 457 bng 14 250 50 0 \$0-init-reverse empty empty 17 7 0
10 -262144 -1 -1;
#X obj 111 481 bng 14 250 50 0 \$0-init-start-pos empty empty 17 7
0 10 -262144 -1 -1;
#X obj 662 19 t f f;
#X obj 662 43 s \$0-trigger;
#X obj 672 366 s \$0-init;
#X obj 672 323 t b f;
#X obj 672 273 f;
#X obj 184 68 loadbang;
#X obj 745 546 outlet~;
#X obj 108 69 inlet;
#X obj 146 69 inlet;
#X obj 892 118 cnv 15 100 60 empty empty empty 20 12 0 14 -233017 -66577
0;
#X obj 907 545 outlet;
#X obj 746 513 +~, f 16;
#X obj 239 68 inlet;
#X obj 854 544 outlet;
#N canvas 158 371 1009 370 controls 0;
#X obj 100 100 step \$0 0;
#X obj 114 100 step \$0 1;
#X obj 128 100 step \$0 2;
#X obj 142 100 step \$0 3;
#X obj 156 100 step \$0 4;
#X obj 170 100 step \$0 5;
#X obj 184 100 step \$0 6;
#X obj 198 100 step \$0 7;
#X obj 212 100 step \$0 8;
#X obj 226 100 step \$0 9;
#X obj 240 100 step \$0 10;
#X obj 254 100 step \$0 11;
#X obj 268 100 step \$0 12;
#X obj 282 100 step \$0 13;
#X obj 296 100 step \$0 14;
#X obj 310 100 step \$0 15;
#X obj 324 100 step \$0 16;
#X obj 338 100 step \$0 17;
#X obj 352 100 step \$0 18;
#X obj 366 100 step \$0 19;
#X obj 380 100 step \$0 20;
#X obj 394 100 step \$0 21;
#X obj 408 100 step \$0 22;
#X obj 422 100 step \$0 23;
#X obj 436 100 step \$0 24;
#X obj 450 100 step \$0 25;
#X obj 464 100 step \$0 26;
#X obj 478 100 step \$0 27;
#X obj 492 100 step \$0 28;
#X obj 506 100 step \$0 29;
#X obj 520 100 step \$0 30;
#X obj 534 100 step \$0 31;
#X coords 0 -1 1 1 448 200 2 100 100;
#X restore 179 358 pd controls;
#X connect 2 0 34 0;
#X connect 3 0 38 0;
#X connect 4 0 3 0;
#X connect 5 0 37 0;
#X connect 6 0 7 0;
#X connect 6 0 15 0;
#X connect 7 0 6 1;
#X connect 8 0 2 0;
#X connect 9 0 10 0;
#X connect 10 0 6 0;
#X connect 10 0 44 0;
#X connect 11 0 10 1;
#X connect 11 0 47 0;
#X connect 13 0 21 0;
#X connect 13 1 14 0;
#X connect 13 2 19 0;
#X connect 14 0 22 0;
#X connect 15 0 8 0;
#X connect 16 0 45 0;
#X connect 16 1 45 1;
#X connect 18 0 11 0;
#X connect 19 0 23 0;
#X connect 34 0 35 0;
#X connect 34 1 13 0;
#X connect 37 0 36 0;
#X connect 37 1 17 0;
#X connect 38 0 5 0;
#X connect 39 0 30 0;
#X connect 39 0 31 0;
#X connect 39 0 32 0;
#X connect 39 0 33 0;
#X connect 41 0 4 0;
#X connect 42 0 9 0;
#X connect 45 0 40 0;
#X connect 46 0 2 0;
#X coords 0 -1 1 1 540 470 1 100 100;
#X restore -2 29 pd beatslicer;
#X obj -1 503 *~ 0.5;
#X obj -2 530 dac~, f 5;
#X obj 531 504 bng 15 250 50 0 empty empty empty 17 7 0 10 -262144
-1 -1;
#X msg 530 9 6;
#X connect 0 0 1 0;
#X connect 0 2 3 0;
#X connect 1 0 2 0;
#X connect 1 0 2 1;
#X connect 4 0 0 2;
