#N canvas 0 96 598 438 10;
#X obj 13 74 vline~;
#X obj 196 48 bng 15 250 50 0 empty empty empty 17 7 0 10 -262144 -1
-1;
#X obj 101 122 vline~;
#X obj 101 174 osc~;
#X obj 101 222 *~;
#X obj 206 122 vline~;
#X obj 205 156 pow~ 1.5;
#X obj 377 154 vline~;
#X obj 322 186 noise~;
#X obj 322 216 lop~ 300;
#X obj 331 257 *~;
#X obj 196 9 inlet, f 6;
#X obj 40 383 outlet~;
#X msg 377 97 0.05 4 \, 0 80 4;
#X msg 101 100 50 0 \, 50 10 0;
#X msg 206 100 1 4 \, 0.9 65 4 \, 0 150 30;
#X msg 13 52 0.4 0 \, 0 1 0;
#X obj 41 315 *~ 0.99;
#X connect 0 0 17 0;
#X connect 1 0 16 0;
#X connect 1 0 14 0;
#X connect 1 0 15 0;
#X connect 1 0 13 0;
#X connect 2 0 3 0;
#X connect 3 0 4 0;
#X connect 4 0 17 0;
#X connect 5 0 6 0;
#X connect 6 0 4 1;
#X connect 7 0 10 1;
#X connect 8 0 9 0;
#X connect 9 0 10 0;
#X connect 10 0 17 0;
#X connect 11 0 1 0;
#X connect 13 0 7 0;
#X connect 14 0 2 0;
#X connect 15 0 5 0;
#X connect 16 0 0 0;
#X connect 17 0 12 0;
