#N canvas 67 94 450 300 10;
#X obj 16 33 bng 15 250 50 0 empty empty empty 17 7 0 10 -262144 -1
-1;
#X obj 15 102 vline~;
#X obj 118 102 vline~;
#X obj 203 102 vline~;
#X obj 15 140 osc~;
#X obj 117 139 pow~ 4;
#X obj 202 141 pow~ 1.6;
#X obj 122 192 noise~;
#X obj 19 10 inlet, f 7;
#X msg 116 78 1 4 \, 0 200 4;
#X msg 15 78 400 4 \, 200 20 4;
#X msg 202 78 0.4 4 \, 0 100 5;
#X obj 121 214 *~;
#X obj 15 205 *~;
#X obj 16 285 outlet~;
#X obj 16 262 *~ 0.7;
#X connect 0 0 10 0;
#X connect 0 0 9 0;
#X connect 0 0 11 0;
#X connect 1 0 4 0;
#X connect 2 0 5 0;
#X connect 3 0 6 0;
#X connect 4 0 13 0;
#X connect 5 0 13 1;
#X connect 6 0 12 1;
#X connect 7 0 12 0;
#X connect 8 0 0 0;
#X connect 9 0 2 0;
#X connect 10 0 1 0;
#X connect 11 0 3 0;
#X connect 12 0 15 0;
#X connect 13 0 15 0;
#X connect 15 0 14 0;
