#N canvas 1 62 1438 837 12;
#X declare -path ./sounds;
#X declare -path ./library;
#X declare -path pdjs;
#X declare -path else;
#X declare -path ./instruments/beatslicer;
#X declare -path ./instruments/fm;
#X declare -path ./instruments/sub;
#X declare -path ./instruments/poly;
#X declare -path ./instruments/acid;
#X declare -path ./instruments/dx7;
#X declare -path ./instruments/fmbass;
#X declare -path ./instruments/yellotron;
#X declare -path ./instruments/piano;
#X obj 341 450 else/compress~ -30 5 5 5 12 256;
#X obj 898 97 else/play.file~ 1 kantele.wav 1 1;
#X obj 471 1689 hsl 160 15 500 5000 0 0 empty empty empty -2 -8 0 10
-228856 -1 -1 0 1;
#X obj 536 1711 hsl 128 15 0 1 0 0 empty empty empty -2 -8 0 10 -228856
-1 -1 0 1;
#X text 548 1711 Q/resonance (0-1);
#X text 478 1688 cutoff/center frequency;
#X obj 533 1732 nbx 5 14 -1e+37 1e+37 0 0 empty empty empty 0 -8 0
10 -228856 -1 -1 0 256;
#X obj 468 1712 nbx 5 14 -1e+37 1e+37 0 0 empty empty empty 0 -8 0
10 -228856 -1 -1 0 256;
#N canvas 1 62 1011 551 effects 0;
#X obj 168 105 nbx 5 14 -1e+37 1e+37 0 0 empty empty empty 0 -8 0 10
-228856 -1 -1 0 256;
#X obj 103 83 nbx 3 14 0 100 0 0 empty empty empty 0 -8 0 10 -228856
-1 -1 0 256;
#X text 146 82 Delay time (ms);
#X obj 39 128 else/fbdelay~ 100 2000;
#X obj 385 78 hsl 128 15 -1 1 0 0 empty empty empty -2 -8 0 10 -228856
-1 -1 0 1;
#X obj 406 101 hsl 128 15 -1 1 0 0 empty empty empty -2 -8 0 10 -228856
-1 -1 0 1;
#X obj 361 51 else/player~ numbers.wav 1 1;
#X obj 340 126 else/morph~;
#X text 345 52 B;
#X text 368 77 A;
#X text 518 79 B;
#X text 388 101 A;
#X text 539 101 B;
#X obj 416 206 nbx 5 14 -1e+37 1e+37 0 0 empty empty empty 0 -8 0 10
-228856 -1 -1 0 256;
#X text 477 204 transposition;
#X obj 358 238 else/pitch.shift~;
#X obj 440 401 nbx 5 14 -1e+37 1e+37 0 0 empty empty empty 0 -8 0 10
-228856 -1 -1 0 256;
#X obj 519 404 nbx 5 14 -1e+37 1e+37 0 0 empty empty empty 0 -8 0 10
-228856 -1 -1 0 256;
#X obj 361 439 else/ping.pong~ 200 0.7;
#X text 443 376 time;
#X text 517 380 feedback;
#X obj 685 126 nbx 5 14 -1e+37 1e+37 0 0 empty empty empty 0 -8 0 10
-228856 -1 -1 0 256;
#X obj 740 173 else/play.file~ voice.wav 1 1;
#X obj 685 218 else/vocoder~ 16 75;
#X obj 685 148 else/bl.saw~ 60;
#X obj 796 197 nbx 5 14 -1e+37 1e+37 0 0 empty empty empty 0 -8 0 10
-228856 -1 -1 0 256;
#X obj 639 58 nbx 5 14 -1e+37 1e+37 0 0 empty empty empty 0 -8 0 10
-228856 -1 -1 0 256;
#X obj 639 80 else/bl.saw~ 60;
#X connect 0 0 3 2;
#X connect 1 0 3 1;
#X connect 4 0 7 2;
#X connect 5 0 7 3;
#X connect 13 0 15 1;
#X connect 16 0 18 1;
#X connect 17 0 18 2;
#X connect 21 0 24 0;
#X connect 22 0 23 1;
#X connect 24 0 23 0;
#X connect 25 0 23 2;
#X connect 26 0 27 0;
#X connect 27 0 23 0;
#X restore 894 65 pd effects;
#X obj 334 417 message;
#X obj 325 394 bng 15 250 50 0 empty empty empty 17 7 0 10 -262144
-1 -1;
#X obj 666 205 bng 18 250 50 0 empty empty empty 17 7 0 10 -228856
-1 -1;
#X text 661 227 stop;
#X obj 752 272 bng 18 250 50 0 empty empty empty 17 7 0 10 -228856
-1 -1;
#X text 778 268 start of pattern, f 8;
#X text 809 228 Bar number and total number of tempos, f 20;
#X obj 666 174 route stop start bar dur;
#X text 861 197 duration (also negative);
#X obj 791 197 else/display 8;
#X obj 768 231 else/display 4;
#X msg 612 18 stop;
#X obj 575 173 else/pattern;
#X obj 681 284 bng 15 250 50 0 empty empty empty 17 7 0 10 -262144
-1 -1;
#X floatatom 865 292 5 0 0 0 - - -;
#X floatatom 1015 292 5 0 0 0 - - -;
#X obj 626 691 tgl 15 0 empty empty empty 17 7 0 10 -262144 -1 -1 0
1;
#X msg 649 115 1/4 1/4 1/4 1/4;
#X obj 572 216 bng 15 250 50 0 empty empty empty 17 7 0 10 -262144
-1 -1;
#X msg 24 363 60 \, 65 \, 70 \, 80 \, 84;
#X obj 22 388 + 12;
#X msg 12 304 55 \, 58 \, 62;
#X floatatom 107 306 5 0 0 0 - - -;
#X obj 20 276 sequencer;
#X obj 45 245 r pulse3;
#X msg 52 71 - - 1 - - - 1 - - - 1 - - - 1 - - - 5 - - - 5 - - - 5
- - - 5 -, f 64;
#X msg 52 43 - - 7 - - - 7 - 7 - 7 - - - 7 - - - 9 - - - 9 - - - 9
- - - 9 -, f 64;
#N canvas 62 461 484 388 imports 0;
#X obj 3 240 declare -path ./sounds;
#X obj 4 217 declare -path ./library;
#X obj 6 286 declare -path pdjs;
#X obj 6 262 declare -path else;
#X obj 5 9 declare -path ./instruments/beatslicer;
#X obj 4 195 declare -path ./instruments/fm;
#X obj 5 149 declare -path ./instruments/sub;
#X obj 5 127 declare -path ./instruments/poly;
#X obj 5 62 declare -path ./instruments/acid;
#X obj 5 173 declare -path ./instruments/dx7;
#X obj 4 106 declare -path ./instruments/fmbass;
#X obj 4 35 declare -path ./instruments/yellotron;
#X obj 2 84 declare -path ./instruments/piano;
#X restore 1055 57 pd imports;
#X obj 22 463 m-poly~;
#X obj 832 89 s decay;
#X floatatom 832 64 5 0 0 0 - - -;
#X msg 304 243 7 7 7 7;
#X msg 376 245 5 5 5 5;
#X msg 659 143 1/4 1/4 1/4 1/4 1/4 1/4 1/4 1/4 1/4 1/4 1/4 1/4 1/4
1/4 1/4 1/4, f 66;
#X obj 511 922 tgl 15 0 empty empty empty 17 7 0 10 -262144 -1 -1 0
1;
#X obj 1288 1329 m-piano~, f 33;
#X floatatom 1398 1265 0 0 0 0 - - -;
#X floatatom 1344 1265 0 0 0 0 - - -;
#X obj 1290 1288 makenote 3.2 500;
#X msg 1286 1214 41 \, 55 \, 60 \, 63 \, 68;
#X obj 1287 1256 + 4;
#X msg 1281 1178 0;
#X msg 1312 1179 4;
#X msg 1367 1177 6;
#X msg 1403 1177 8;
#X msg 1409 1139 \$1;
#X obj 1407 1097 random 24;
#X obj 1414 1074 bng 15 250 50 0 empty empty empty 17 7 0 10 -262144
-1 -1;
#X obj 1380 1118 i;
#X obj 1376 1152 bng 15 250 50 0 empty empty empty 17 7 0 10 -262144
-1 -1;
#X obj 1162 926 sequencer;
#X obj 1162 903 r pulse3;
#X floatatom 1163 953 5 0 0 0 - - -;
#X msg 428 948 1;
#X msg 1249 846 - -3 -3 - -1 - -1 - - -;
#X obj 1516 1309 tgl 15 0 empty empty empty 17 7 0 10 -262144 -1 -1
0 1;
#X msg 1261 874 - 7 7 - - 8 - - 8 -, f 24;
#X msg 1442 872 - 7 8 -, f 24;
#X msg 1440 846 - 7 - 7 - 6 - 6 - 5 4 3 2 1 0;
#X obj 83 2052 *~ 0.7;
#X msg 1235 817 - - - -;
#X msg 649 81 swing 0;
#X obj 1287 1356 *~ 0.37;
#X msg 1327 933 0 - - -;
#X floatatom 1406 960 5 0 0 0 - - -;
#X floatatom 1438 1011 5 0 0 0 - - -;
#X obj 1350 985 pipe 306;
#X obj 1382 1036 pipe 306;
#X obj 71 2092 dac~;
#X text 38 2092 fake;
#X msg 119 260 41 \, 55 \, 60 \, 63 \, 68;
#X msg 26 204 46 \, 52 \, 57 \, 62 \, 55;
#X msg 27 168 60 \, 63 \, 67 \, 72;
#X msg 248 138 40 \, 53 \, 60 \, 63 \, 68;
#X msg 251 203 51 \, 58 \, 60 \, 62 \, 65;
#X obj 219 542 message;
#X obj 222 572 print;
#X obj 218 517 bng 15 250 50 0 empty empty empty 17 7 0 10 -262144
-1 -1;
#X obj 210 597 else/display;
#X msg 273 512 51 58 60 62 65;
#X obj 158 1242 tgl 15 0 empty empty empty 17 7 0 10 -262144 -1 -1
0 1;
#X obj 117 1016 tgl 15 0 empty empty empty 17 7 0 10 -262144 -1 -1
0 1;
#X obj 657 1076 tgl 15 0 empty empty empty 17 7 0 10 -262144 -1 -1
0 1;
#X obj 134 1125 tgl 15 0 empty empty empty 17 7 0 10 -262144 -1 -1
0 1;
#X obj 61 1354 tgl 15 0 empty empty empty 17 7 0 10 -262144 -1 -1 0
1;
#X obj 404 1753 else/svfilter~ 5000 0;
#X obj 554 1819 else/rescale~ 100 1000;
#X obj 554 1795 osc~ 0.33;
#X obj 403 1846 else/phaser~ 6 2 0.7, f 22;
#X floatatom 634 1745 5 0 0 0 - - -;
#X obj 634 1769 / 100;
#X obj 482 1927 nbx 5 14 -1e+37 1e+37 0 0 empty empty empty 0 -8 0
10 -228856 -1 -1 0 256;
#X obj 561 1930 nbx 5 14 -1e+37 1e+37 0 0 empty empty empty 0 -8 0
10 -228856 -1 -1 0 256;
#X text 485 1902 time;
#X text 559 1906 feedback;
#X obj 403 1965 else/ping.pong~ 99 0.1;
#X obj 37 494 else/fbdelay~;
#X obj 66 525 ffdelay~;
#X obj 183 1680 hsl 160 15 500 5000 0 0 empty empty empty -2 -8 0 10
-228856 -1 -1 0 1;
#X obj 248 1702 hsl 128 15 0 1 0 0 empty empty empty -2 -8 0 10 -228856
-1 -1 0 1;
#X text 260 1702 Q/resonance (0-1);
#X text 190 1679 cutoff/center frequency;
#X obj 245 1723 nbx 5 14 -1e+37 1e+37 0 0 empty empty empty 0 -8 0
10 -228856 -1 -1 0 256;
#X obj 180 1703 nbx 5 14 -1e+37 1e+37 0 0 empty empty empty 0 -8 0
10 -228856 -1 -1 0 256;
#X obj 116 1744 else/svfilter~ 5000 0;
#X obj 266 1810 else/rescale~ 100 1000;
#X obj 266 1786 osc~ 0.33;
#X obj 115 1837 else/phaser~ 6 2 0.7, f 22;
#X floatatom 346 1736 5 0 0 0 - - -;
#X obj 346 1760 / 100;
#X obj 194 1918 nbx 5 14 -1e+37 1e+37 0 0 empty empty empty 0 -8 0
10 -228856 -1 -1 0 256;
#X obj 273 1921 nbx 5 14 -1e+37 1e+37 0 0 empty empty empty 0 -8 0
10 -228856 -1 -1 0 256;
#X text 197 1893 time;
#X text 271 1897 feedback;
#X obj 115 1956 else/ping.pong~ 99 0.1;
#X obj 103 1404 tgl 15 0 empty empty empty 17 7 0 10 -262144 -1 -1
0 1;
#X obj 1283 1383 throw~ main;
#X obj 13 1880 catch~ main;
#X msg 1165 741 - 9 7 - - - 7 - 9 - 9 9;
#X msg 1127 707 - 19 17 - - - 17 11 11 11 19 - 19 19;
#X msg 1042 647 20 19 18 17 - - - - 11 10 9 8 7 - - - - - 6 5 4 3 2
- - - -2 -3 -4 -5 -6;
#N canvas 1 477 334 374 bass 0;
#X obj 32 29 inlet;
#X obj 32 184 m-sub~;
#X floatatom 32 155 5 0 0 0 - - -;
#X obj 32 215 outlet~;
#X obj 65 56 inlet;
#X connect 0 0 2 0;
#X connect 1 0 3 0;
#X connect 2 0 1 0;
#X connect 4 0 1 1;
#X restore 1188 604 pd bass;
#X floatatom 1234 576 5 0 0 0 - - -;
#X obj 1269 553 print;
#X obj 1249 439 bng 15 250 50 0 empty empty empty 17 7 0 10 -262144
-1 -1;
#X obj 1269 531 js ./library/constrainedseq.js;
#X floatatom 1401 480 5 0 0 0 - - -;
#X floatatom 1444 507 5 0 0 0 - - -;
#X obj 1203 554 sequencer;
#X obj 1203 531 r pulse3;
#X msg 1244 411 - -;
#X obj 1278 605 else/display;
#X msg 1319 441 41 55 60 63 68;
#X obj 882 805 throw~ main;
#X obj 1409 753 + 4;
#X obj 815 581 print;
#X obj 813 537 bng 15 250 50 0 empty empty empty 17 7 0 10 -262144
-1 -1;
#X obj 836 559 js ./library/constrainedseq.js;
#X floatatom 951 504 5 0 0 0 - - -;
#X floatatom 1007 501 5 0 0 0 - - -;
#X obj 746 692 fmbass~;
#X obj 749 582 sequencer;
#X obj 749 559 r pulse3;
#X obj 748 630 + 12;
#X obj 749 654 - 12;
#X msg 808 509 - -;
#X obj 736 727 drive~;
#X obj 812 688 nbx 5 14 -1e+37 1e+37 0 0 empty empty empty 0 -8 0 10
-228856 -1 -1 0 256;
#X obj 815 666 hsl 128 15 0 5 0 0 empty empty empty -2 -8 0 10 -228856
-1 -1 0 1;
#X obj 812 709 else/float2sig~ 50;
#X obj 818 614 else/display;
#X obj 530 347 metronome;
#X obj 518 244 bng 15 250 50 0 empty empty empty 17 7 0 10 -262144
-1 -1;
#X obj 665 375 else/bangdiv 4;
#X obj 662 402 bng 15 250 50 0 empty empty empty 17 7 0 10 -262144
-1 -1;
#X obj 647 462 bng 15 250 50 0 empty empty empty 17 7 0 10 -262144
-1 -1;
#X obj 650 435 else/bangdiv 8;
#X obj 629 517 bng 15 250 50 0 empty empty empty 17 7 0 10 -262144
-1 -1;
#X obj 632 490 else/bangdiv 16;
#X msg 793 348 reset;
#X obj 521 316 else/bangdiv 2;
#X obj 770 433 s pulse3;
#X obj 531 259 s pulse2;
#N canvas 66 360 651 406 drums 0;
#X obj 52 272 drumkit~, f 43;
#X floatatom 52 251 5 0 0 0 - - -;
#X floatatom 88 251 5 0 0 0 - - -;
#X floatatom 124 250 5 0 0 0 - - -;
#X floatatom 160 250 5 0 0 0 - - -;
#X floatatom 196 250 5 0 0 0 - - -;
#X floatatom 232 250 5 0 0 0 - - -;
#X floatatom 270 250 5 0 0 0 - - -;
#X floatatom 306 250 5 0 0 0 - - -;
#X obj 67 39 r kick;
#X obj 115 39 r snare;
#X obj 279 40 r hat;
#X obj 168 39 r clap;
#X obj 427 39 r ride;
#X obj 320 39 r perc1;
#X obj 374 40 r perc2;
#X obj 474 38 r crash;
#X obj 213 40 r rimshot;
#N canvas 1 96 829 296 drumseq 0;
#X obj 32 124 sequencer;
#X obj 98 125 sequencer;
#X obj 186 127 sequencer;
#X obj 185 104 r pulse3;
#X obj 278 129 sequencer;
#X obj 31 101 r pulse3;
#X obj 97 102 r pulse3;
#X obj 278 106 r pulse3;
#X obj 31 195 s kick;
#X obj 97 195 s rimshot;
#X obj 185 201 s hat;
#X obj 281 201 s snare;
#X obj 370 196 s clap;
#X obj 434 197 s ride;
#X obj 521 201 s perc1;
#X obj 617 206 s perc2;
#X obj 683 199 s crash;
#X obj 370 125 sequencer;
#X obj 436 126 sequencer;
#X obj 524 128 sequencer;
#X obj 523 105 r pulse3;
#X obj 616 130 sequencer;
#X obj 369 102 r pulse3;
#X obj 435 103 r pulse3;
#X obj 616 107 r pulse3;
#X obj 681 127 sequencer;
#X obj 681 104 r pulse3;
#X obj 79 58 r kick-seq;
#X obj 154 56 r rimshot-seq;
#X obj 197 79 r hat-seq;
#X obj 301 71 r snare-seq;
#X obj 371 42 r clap-seq;
#X obj 457 61 r ride-seq;
#X obj 543 61 r perc1-seq;
#X obj 620 33 r perc2-seq;
#X obj 724 76 r crash-seq;
#X connect 0 0 8 0;
#X connect 1 0 9 0;
#X connect 2 0 10 0;
#X connect 3 0 2 0;
#X connect 4 0 11 0;
#X connect 5 0 0 0;
#X connect 6 0 1 0;
#X connect 7 0 4 0;
#X connect 17 0 12 0;
#X connect 18 0 13 0;
#X connect 19 0 14 0;
#X connect 20 0 19 0;
#X connect 21 0 15 0;
#X connect 22 0 17 0;
#X connect 23 0 18 0;
#X connect 24 0 21 0;
#X connect 25 0 16 0;
#X connect 26 0 25 0;
#X connect 27 0 0 1;
#X connect 28 0 1 1;
#X connect 29 0 2 1;
#X connect 30 0 4 1;
#X connect 31 0 17 1;
#X connect 32 0 18 1;
#X connect 33 0 19 1;
#X connect 34 0 21 1;
#X connect 35 0 25 1;
#X restore 104 334 pd drumseq;
#X floatatom 347 250 5 0 0 0 - - -;
#X obj 126 225 i;
#X obj 125 200 b;
#X floatatom 126 135 5 0 0 0 - - -;
#X obj 161 220 i;
#X obj 160 195 b;
#X floatatom 168 135 5 0 0 0 - - -;
#X obj 89 220 i;
#X obj 88 195 b;
#X floatatom 72 138 5 0 0 0 - - -;
#X obj 54 222 i;
#X obj 53 197 b;
#X floatatom 22 134 5 0 0 0 - - -;
#X obj 233 221 i;
#X obj 232 196 b;
#X floatatom 274 133 5 0 0 0 - - -;
#X obj 272 223 i;
#X obj 271 198 b;
#X floatatom 319 132 5 0 0 0 - - -;
#X obj 309 222 i;
#X obj 308 197 b;
#X floatatom 370 131 5 0 0 0 - - -;
#X obj 348 223 i;
#X obj 347 198 b;
#X floatatom 415 133 5 0 0 0 - - -;
#N canvas 1 96 629 300 random-kit 0;
#X obj 57 20 inlet;
#X obj 55 43 b;
#X obj 15 215 outlet;
#X obj 63 214 outlet;
#X obj 111 215 outlet;
#X obj 159 214 outlet;
#X obj 203 212 outlet;
#X obj 251 211 outlet;
#X obj 299 212 outlet;
#X obj 347 211 outlet;
#X obj 405 214 outlet;
#X obj 19 143 random 1000;
#X obj 86 143 random 1000;
#X obj 155 141 random 1000;
#X obj 222 141 random 1000;
#X obj 289 139 random 1000;
#X obj 356 139 random 1000;
#X obj 425 137 random 1000;
#X obj 492 137 random 1000;
#X obj 560 136 random 1000;
#X connect 0 0 1 0;
#X connect 1 0 11 0;
#X connect 1 0 12 0;
#X connect 1 0 13 0;
#X connect 1 0 14 0;
#X connect 1 0 15 0;
#X connect 1 0 16 0;
#X connect 1 0 17 0;
#X connect 1 0 18 0;
#X connect 1 0 19 0;
#X connect 11 0 2 0;
#X connect 12 0 3 0;
#X connect 13 0 4 0;
#X connect 14 0 5 0;
#X connect 15 0 6 0;
#X connect 16 0 7 0;
#X connect 17 0 8 0;
#X connect 18 0 9 0;
#X connect 19 0 10 0;
#X restore 25 109 pd random-kit;
#X f 66;
#X obj 196 224 i;
#X obj 195 199 b;
#X floatatom 222 136 5 0 0 0 - - -;
#X obj 10 16 inlet;
#X obj 52 334 outlet~;
#X obj 53 297 *~ 1;
#X connect 0 0 50 0;
#X connect 1 0 0 0;
#X connect 2 0 0 1;
#X connect 3 0 0 2;
#X connect 4 0 0 3;
#X connect 5 0 0 4;
#X connect 6 0 0 5;
#X connect 7 0 0 6;
#X connect 8 0 0 7;
#X connect 9 0 30 0;
#X connect 10 0 27 0;
#X connect 11 0 46 0;
#X connect 12 0 21 0;
#X connect 13 0 39 0;
#X connect 14 0 33 0;
#X connect 15 0 36 0;
#X connect 16 0 42 0;
#X connect 17 0 24 0;
#X connect 19 0 0 8;
#X connect 20 0 3 0;
#X connect 21 0 20 0;
#X connect 22 0 20 1;
#X connect 23 0 4 0;
#X connect 24 0 23 0;
#X connect 25 0 23 1;
#X connect 26 0 2 0;
#X connect 27 0 26 0;
#X connect 28 0 26 1;
#X connect 29 0 1 0;
#X connect 30 0 29 0;
#X connect 31 0 29 1;
#X connect 32 0 6 0;
#X connect 33 0 32 0;
#X connect 34 0 32 1;
#X connect 35 0 7 0;
#X connect 36 0 35 0;
#X connect 37 0 35 1;
#X connect 38 0 8 0;
#X connect 39 0 38 0;
#X connect 40 0 38 1;
#X connect 41 0 19 0;
#X connect 42 0 41 0;
#X connect 43 0 41 1;
#X connect 44 0 31 0;
#X connect 44 1 28 0;
#X connect 44 2 22 0;
#X connect 44 3 25 0;
#X connect 44 4 47 0;
#X connect 44 5 34 0;
#X connect 44 6 37 0;
#X connect 44 7 40 0;
#X connect 44 8 43 0;
#X connect 45 0 5 0;
#X connect 46 0 45 0;
#X connect 47 0 45 1;
#X connect 48 0 44 0;
#X connect 50 0 49 0;
#X restore 115 705 pd drums;
#X obj 116 685 bng 15 250 50 0 empty empty empty 17 7 0 10 -262144
-1 -1;
#N canvas 670 290 450 300 drum_patterns 0;
#N canvas 160 290 957 480 dnb-patterns 0;
#X obj 127 354 s kick-seq;
#X obj 198 354 s rimshot-seq;
#X obj 285 354 s hat-seq;
#X obj 348 356 s snare-seq;
#X obj 421 357 s clap-seq;
#X obj 490 357 s ride-seq;
#X obj 560 356 s perc1-seq;
#X obj 636 353 s perc2-seq;
#X obj 711 352 s crash-seq;
#X obj 190 57 bng 15 250 50 0 empty empty empty 17 7 0 10 -262144 -1
-1;
#X msg 133 109 1 - - - - - - - - - 1 - - - - -;
#X msg 463 106 1 - - - 1 - - - 1 - - - 1 - - -;
#X msg 686 149 1 - - - - - - - - - - - - - - -;
#X msg 488 71 2 - 2 - 2 - 2 - 2 - 2 - 2 - 2 -;
#X obj 191 19 inlet;
#X obj 239 17 inlet;
#X msg 236 293 - - - -;
#X msg 343 108 - - - - 2 - - -;
#X msg 561 197 - - - - 1 - 5 -;
#X msg 631 246 - - - - 1 - 1 12 - - - - 2 - - -;
#X obj 239 37 b;
#X obj 128 50 b;
#X obj 282 18 inlet;
#X obj 280 247 b;
#X msg 303 268 - - - -;
#X msg 380 145 - - - - 1 - - - - - - - 4 - - -;
#X connect 9 0 10 0;
#X connect 9 0 17 0;
#X connect 9 0 11 0;
#X connect 9 0 25 0;
#X connect 9 0 13 0;
#X connect 9 0 18 0;
#X connect 9 0 19 0;
#X connect 9 0 12 0;
#X connect 10 0 0 0;
#X connect 11 0 2 0;
#X connect 12 0 8 0;
#X connect 13 0 5 0;
#X connect 14 0 21 0;
#X connect 15 0 20 0;
#X connect 16 0 5 0;
#X connect 16 0 6 0;
#X connect 16 0 7 0;
#X connect 16 0 8 0;
#X connect 16 0 3 0;
#X connect 16 0 2 0;
#X connect 16 0 1 0;
#X connect 16 0 0 0;
#X connect 16 0 4 0;
#X connect 17 0 1 0;
#X connect 17 0 3 0;
#X connect 18 0 6 0;
#X connect 19 0 7 0;
#X connect 20 0 16 0;
#X connect 21 0 9 0;
#X connect 22 0 23 0;
#X connect 23 0 24 0;
#X connect 24 0 5 0;
#X connect 24 0 6 0;
#X connect 24 0 7 0;
#X connect 24 0 8 0;
#X connect 25 0 4 0;
#X restore 27 48 pd dnb-patterns;
#X obj 72 27 bng 15 250 50 0 empty empty empty 17 7 0 10 -262144 -1
-1;
#X obj 26 29 bng 15 250 50 0 empty empty empty 17 7 0 10 -262144 -1
-1;
#X obj 113 28 bng 15 250 50 0 empty empty empty 17 7 0 10 -262144 -1
-1;
#X obj 68 127 bng 15 250 50 0 empty empty empty 17 7 0 10 -262144 -1
-1;
#X obj 14 131 bng 15 250 50 0 empty empty empty 17 7 0 10 -262144 -1
-1;
#X obj 109 128 bng 15 250 50 0 empty empty empty 17 7 0 10 -262144
-1 -1;
#N canvas 0 96 957 480 dubstep-patterns 0;
#X obj 127 354 s kick-seq;
#X obj 198 354 s rimshot-seq;
#X obj 285 354 s hat-seq;
#X obj 348 356 s snare-seq;
#X obj 421 357 s clap-seq;
#X obj 490 357 s ride-seq;
#X obj 560 356 s perc1-seq;
#X obj 636 353 s perc2-seq;
#X obj 711 352 s crash-seq;
#X obj 190 57 bng 15 250 50 0 empty empty empty 17 7 0 10 -262144 -1
-1;
#X msg 707 152 1 - - - - - - - - - - - - - - -;
#X obj 191 19 inlet;
#X obj 239 17 inlet;
#X msg 257 303 - - - -;
#X obj 239 37 b;
#X obj 165 43 b;
#X obj 282 18 inlet;
#X obj 280 247 b;
#X msg 335 274 - - - -;
#X msg 630 23 - - - - - - - - 1 - - - - - - -;
#X msg 389 25 140;
#X msg 424 24 1 - - - - - - - - - - - - - - -;
#X msg 133 109 4 - - - - - - - - - - - - - - -;
#X msg 561 197 - - - - 9;
#X msg 499 66 2 - 2 - 2 - 2 - 2 - 2 - 2 - 2 -;
#X msg 350 116 - - - 9 - 11 - - 7 - - -12- - - -;
#X msg 321 145 - - - - - - - - 3 - - - - - - -;
#X msg 364 196 - - - - - - - - 1 - - - - - - -;
#X msg 467 138 2 - 2 - 2 - 2 - 2 - 2 - 2 - 2 -;
#X msg 631 246 - - - - - 9;
#X connect 9 0 22 0;
#X connect 9 0 28 0;
#X connect 9 0 27 0;
#X connect 9 0 23 0;
#X connect 9 0 29 0;
#X connect 9 0 10 0;
#X connect 9 0 24 0;
#X connect 9 0 26 0;
#X connect 10 0 8 0;
#X connect 11 0 15 0;
#X connect 12 0 14 0;
#X connect 13 0 5 0;
#X connect 13 0 6 0;
#X connect 13 0 7 0;
#X connect 13 0 8 0;
#X connect 13 0 3 0;
#X connect 13 0 2 0;
#X connect 13 0 1 0;
#X connect 13 0 0 0;
#X connect 13 0 4 0;
#X connect 14 0 13 0;
#X connect 15 0 9 0;
#X connect 16 0 17 0;
#X connect 17 0 18 0;
#X connect 18 0 5 0;
#X connect 18 0 6 0;
#X connect 18 0 7 0;
#X connect 18 0 8 0;
#X connect 22 0 0 0;
#X connect 23 0 6 0;
#X connect 24 0 5 0;
#X connect 25 0 1 0;
#X connect 25 0 3 0;
#X connect 26 0 1 0;
#X connect 26 0 3 0;
#X connect 27 0 4 0;
#X connect 28 0 2 0;
#X connect 29 0 7 0;
#X restore 15 150 pd dubstep-patterns;
#X obj 71 187 bng 15 250 50 0 empty empty empty 17 7 0 10 -262144 -1
-1;
#X obj 23 189 bng 15 250 50 0 empty empty empty 17 7 0 10 -262144 -1
-1;
#X obj 118 186 bng 15 250 50 0 empty empty empty 17 7 0 10 -262144
-1 -1;
#N canvas 1 96 957 480 house-patterns 0;
#X obj 127 354 s kick-seq;
#X obj 198 354 s rimshot-seq;
#X obj 285 354 s hat-seq;
#X obj 348 356 s snare-seq;
#X obj 421 357 s clap-seq;
#X obj 490 357 s ride-seq;
#X obj 560 356 s perc1-seq;
#X obj 636 353 s perc2-seq;
#X obj 711 352 s crash-seq;
#X obj 190 57 bng 15 250 50 0 empty empty empty 17 7 0 10 -262144 -1
-1;
#X obj 191 19 inlet;
#X obj 239 17 inlet;
#X msg 213 289 - - - -;
#X obj 239 37 b;
#X obj 165 43 b;
#X obj 282 18 inlet;
#X obj 280 247 b;
#X msg 431 264 - - - -;
#X msg 630 23 - - - - - - - - 1 - - - - - - -;
#X msg 389 25 140;
#X msg 424 24 1 - - - - - - - - - - - - - - -;
#X msg 716 213 - - - - 9;
#X msg 133 109 1 - - - 1 - - - 1 - - - 1 - - -;
#X msg 344 103 - - - - 1 - - -;
#X msg 662 146 8 - - - - - - - - - - - - - - -;
#X msg 562 257 2 - - -;
#X msg 631 246 - - 5 -;
#X msg 515 67 2 - - - 2 - - -;
#X msg 364 196 - - - - - - - - 3 - - - - - - -;
#X msg 347 163 - - - - - - - - 1 - - - - - - -;
#X msg 542 103 - - 3 -;
#X connect 9 0 22 0;
#X connect 9 0 30 0;
#X connect 9 0 21 0;
#X connect 9 0 26 0;
#X connect 9 0 24 0;
#X connect 9 0 25 0;
#X connect 9 0 23 0;
#X connect 10 0 14 0;
#X connect 11 0 13 0;
#X connect 12 0 5 0;
#X connect 12 0 6 0;
#X connect 12 0 7 0;
#X connect 12 0 8 0;
#X connect 12 0 3 0;
#X connect 12 0 2 0;
#X connect 12 0 1 0;
#X connect 12 0 0 0;
#X connect 12 0 4 0;
#X connect 13 0 12 0;
#X connect 14 0 9 0;
#X connect 15 0 16 0;
#X connect 16 0 17 0;
#X connect 17 0 5 0;
#X connect 17 0 6 0;
#X connect 17 0 7 0;
#X connect 17 0 8 0;
#X connect 22 0 0 0;
#X connect 23 0 1 0;
#X connect 23 0 3 0;
#X connect 25 0 6 0;
#X connect 26 0 7 0;
#X connect 27 0 5 0;
#X connect 28 0 4 0;
#X connect 29 0 1 0;
#X connect 29 0 3 0;
#X connect 30 0 2 0;
#X restore 24 208 pd house-patterns;
#X obj 68 79 bng 15 250 50 0 empty empty empty 17 7 0 10 -262144 -1
-1;
#X obj 20 81 bng 15 250 50 0 empty empty empty 17 7 0 10 -262144 -1
-1;
#X obj 115 78 bng 15 250 50 0 empty empty empty 17 7 0 10 -262144 -1
-1;
#N canvas 0 96 957 480 138Trek-patterns 0;
#X obj 127 354 s kick-seq;
#X obj 198 354 s rimshot-seq;
#X obj 285 354 s hat-seq;
#X obj 348 356 s snare-seq;
#X obj 421 357 s clap-seq;
#X obj 490 357 s ride-seq;
#X obj 560 356 s perc1-seq;
#X obj 636 353 s perc2-seq;
#X obj 711 352 s crash-seq;
#X obj 190 57 bng 15 250 50 0 empty empty empty 17 7 0 10 -262144 -1
-1;
#X obj 191 19 inlet;
#X obj 239 17 inlet;
#X msg 213 289 - - - -;
#X obj 239 37 b;
#X obj 165 43 b;
#X obj 282 18 inlet;
#X obj 280 247 b;
#X msg 431 264 - - - -;
#X msg 630 23 - - - - - - - - 1 - - - - - - -;
#X msg 389 25 140;
#X msg 424 24 1 - - - - - - - - - - - - - - -;
#X msg 716 213 - - - - 9;
#X msg 344 103 - - - - 1 - - -;
#X msg 662 146 8 - - - - - - - - - - - - - - -;
#X msg 562 257 2 - - -;
#X msg 631 246 - - 5 -;
#X msg 515 67 2 - - - 2 - - -;
#X msg 364 196 - - - - - - - - 3 - - - - - - -;
#X msg 347 163 - - - - - - - - 1 - - - - - - -;
#X msg 54 147 1 - - - 1 - - - - 1 - 1 - - - -;
#X msg 542 103 - - 3 -;
#X connect 9 0 29 0;
#X connect 9 0 30 0;
#X connect 9 0 21 0;
#X connect 9 0 25 0;
#X connect 9 0 23 0;
#X connect 9 0 24 0;
#X connect 9 0 22 0;
#X connect 10 0 14 0;
#X connect 11 0 13 0;
#X connect 12 0 5 0;
#X connect 12 0 6 0;
#X connect 12 0 7 0;
#X connect 12 0 8 0;
#X connect 12 0 3 0;
#X connect 12 0 2 0;
#X connect 12 0 1 0;
#X connect 12 0 0 0;
#X connect 12 0 4 0;
#X connect 13 0 12 0;
#X connect 14 0 9 0;
#X connect 15 0 16 0;
#X connect 16 0 17 0;
#X connect 17 0 5 0;
#X connect 17 0 6 0;
#X connect 17 0 7 0;
#X connect 17 0 8 0;
#X connect 22 0 1 0;
#X connect 22 0 3 0;
#X connect 24 0 6 0;
#X connect 25 0 7 0;
#X connect 26 0 5 0;
#X connect 27 0 4 0;
#X connect 28 0 1 0;
#X connect 28 0 3 0;
#X connect 29 0 0 0;
#X connect 30 0 2 0;
#X restore 21 100 pd 138Trek-patterns;
#X connect 1 0 0 1;
#X connect 2 0 0 0;
#X connect 3 0 0 2;
#X connect 4 0 7 1;
#X connect 5 0 7 0;
#X connect 6 0 7 2;
#X connect 8 0 11 1;
#X connect 9 0 11 0;
#X connect 10 0 11 2;
#X connect 12 0 15 1;
#X connect 13 0 15 0;
#X connect 14 0 15 2;
#X restore 136 646 pd drum_patterns;
#X obj 150 680 r randomizeDrumsounds;
#X obj 114 766 throw~ main;
#X floatatom 489 146 5 0 0 0 - - -;
#X obj 539 60 bpm;
#X floatatom 532 90 5 0 0 0 - - -;
#X floatatom 538 34 5 0 0 0 - - -;
#X obj 478 232 bng 15 250 50 0 empty empty empty 17 7 0 10 -262144
-1 -1;
#X obj 461 196 pipe 100;
#X obj 413 109 / 2;
#X obj 510 974 throw~ main;
#X obj 1113 1770 bng 15 250 50 0 empty empty empty 17 7 0 10 -262144
-1 -1;
#X obj 979 1770 bng 15 250 50 0 empty empty empty 17 7 0 10 -262144
-1 -1;
#X obj 1247 1772 bng 15 250 50 0 empty empty empty 17 7 0 10 -262144
-1 -1;
#N canvas 1 96 1211 674 beatslicere 0;
#N canvas 1 67 450 250 (subpatch) 0;
#X array \$0-sample-L 313600 float 2;
#X coords 0 1 313600 -1 448 100 1 0 0;
#X restore 178 124 graph;
#N canvas 1 67 450 250 (subpatch) 0;
#X array \$0-sample-R 313600 float 2;
#X coords 0 1 313600 -1 448 100 1 0 0;
#X restore 178 224 graph;
#X obj 179 334 hradio 14 1 0 32 empty empty empty 0 -8 0 10 -262144
-1 -1 24;
#N canvas 605 396 441 345 read-file 0;
#X obj 35 51 openpanel;
#X obj 35 241 soundfiler;
#X text 116 241 Read sample into array;
#X obj 68 125 symbol \$0-sample-L;
#X obj 35 179 pack s s s;
#X obj 102 149 symbol \$0-sample-R;
#X obj 35 86 t a b b;
#X msg 35 210 read -resize \$1 \$2 \$3;
#X obj 35 265 outlet sample-size;
#X obj 35 25 inlet open;
#X connect 0 0 6 0;
#X connect 1 0 8 0;
#X connect 3 0 4 1;
#X connect 4 0 7 0;
#X connect 5 0 4 2;
#X connect 6 0 4 0;
#X connect 6 1 3 0;
#X connect 6 2 5 0;
#X connect 7 0 1 0;
#X connect 9 0 0 0;
#X restore 672 249 pd read-file;
#X obj 115 126 bng 30 250 50 0 empty empty Open_file 35 7 0 10 -262144
-1 -1;
#X floatatom 681 458 10 0 0 0 - - -;
#X obj 760 438 f 0;
#X obj 792 438 + 1;
#X floatatom 760 486 5 0 0 0 - - -;
#X obj 114 170 tgl 30 0 empty empty Play 35 7 0 10 -262144 -1 -1 0
1;
#X obj 761 248 metro 200;
#X obj 843 239 expr ($f1 / 32) / 44.1;
#N canvas 339 338 487 403 send-message-to-step 0;
#X obj 88 329 send;
#X obj 113 232 pack f \$0;
#X msg 113 261 symbol \$2-step-\$1;
#X obj 31 264 pack s f;
#X obj 84 233 f;
#X obj 30 165 t b b f;
#X obj 31 234 symbol;
#X obj 31 288 list trim;
#X obj 30 39 r \$0-step-to-message;
#X obj 339 39 r \$0-message-value;
#X obj 190 39 r \$0-message-type;
#X connect 1 0 2 0;
#X connect 2 0 0 1;
#X connect 3 0 7 0;
#X connect 4 0 3 1;
#X connect 5 0 6 0;
#X connect 5 1 4 0;
#X connect 5 2 1 0;
#X connect 6 0 3 0;
#X connect 7 0 0 0;
#X connect 8 0 5 0;
#X connect 9 0 4 1;
#X connect 10 0 6 1;
#X restore 681 573 pd send-message-to-step;
#X obj 694 69 t f b b;
#X msg 717 98 symbol step;
#X obj 760 462 mod 32;
#N canvas 162 96 538 674 sample-player 0;
#X obj 85 489 tabread4~ \$0-sample-L;
#X obj 153 508 tabread4~ \$0-sample-R;
#X obj 84 437 line~;
#X obj 84 461 *~ 1;
#X obj 151 240 f;
#X obj 84 30 bng 15 250 50 0 empty \$0-trigger Trigger 17 7 0 10 -262144
-1 -1;
#X msg 84 358 \$1 \, \$2 \$3;
#X obj 84 323 pack f f f;
#X obj 84 50 t b b;
#X obj 84 83 t b b;
#X obj 84 263 f;
#X obj 117 263 f;
#X obj 102 133 t f f;
#X obj 102 160 expr $f1;
#X obj 135 191 expr (float(1) / 32) + $f1;
#X obj 162 69 r \$0-start-pos;
#X obj 151 269 expr ($f1 / 32) / 44.1 * $f2;
#X obj 344 240 r \$0-pitch;
#X msg 174 358 \$2 \, \$1 \$3;
#X obj 84 397 spigot 1;
#X obj 154 397 spigot 0;
#X obj 282 335 r \$0-reverse;
#X obj 282 359 == 0;
#X obj 171 530 r \$0-on-off;
#X obj 154 603 *~;
#X obj 84 604 *~;
#X obj 171 576 line~;
#X obj 167 427 r \$0-file-size;
#X obj 178 216 r \$0-file-size;
#X obj 84 628 outlet~;
#X obj 154 628 outlet~;
#X msg 171 552 \$1;
#X obj 162 93 expr int($f1 * 32) / 32;
#X connect 0 0 25 0;
#X connect 1 0 24 0;
#X connect 2 0 3 0;
#X connect 3 0 0 0;
#X connect 3 0 1 0;
#X connect 4 0 16 0;
#X connect 5 0 8 0;
#X connect 6 0 19 0;
#X connect 7 0 6 0;
#X connect 7 0 18 0;
#X connect 8 0 9 0;
#X connect 8 1 4 0;
#X connect 9 0 10 0;
#X connect 9 1 11 0;
#X connect 10 0 7 0;
#X connect 11 0 7 1;
#X connect 12 0 13 0;
#X connect 12 1 14 0;
#X connect 13 0 10 1;
#X connect 14 0 11 1;
#X connect 15 0 32 0;
#X connect 16 0 7 2;
#X connect 17 0 16 1;
#X connect 18 0 20 0;
#X connect 19 0 2 0;
#X connect 20 0 2 0;
#X connect 21 0 22 0;
#X connect 21 0 20 1;
#X connect 22 0 19 1;
#X connect 23 0 31 0;
#X connect 24 0 30 0;
#X connect 25 0 29 0;
#X connect 26 0 24 1;
#X connect 26 0 25 1;
#X connect 27 0 3 1;
#X connect 28 0 4 1;
#X connect 31 0 26 0;
#X connect 32 0 12 0;
#X restore 754 626 pd sample-player;
#X obj 713 508 s \$0-file-size;
#X obj 825 208 r \$0-file-size;
#X msg 740 128 0;
#N canvas 416 367 460 592 control-all 0;
#X obj 137 443 until;
#X msg 137 386 32;
#X obj 137 497 f 0;
#X obj 172 497 + 1;
#X msg 155 468 0;
#X obj 137 410 t f b;
#X msg 223 351 symbol pitch;
#X obj 100 36 vsl 14 80 0.1 1 0 0 empty empty empty -56 30 0 10 -262144
-1 -1 0 1;
#X obj 197 238 t b b f;
#X obj 100 119 tgl 14 0 empty empty empty -68 7 0 10 -262144 -1 -1
0 1;
#X obj 263 237 t b b f;
#X msg 240 390 symbol on-off;
#X msg 230 370 symbol reverse;
#X msg 213 331 symbol start-pos;
#X obj 216 438 t a;
#X obj 295 290 t f;
#X obj 100 20 tgl 14 0 empty empty empty -62 7 0 10 -262144 -1 -1 0
1;
#X obj 323 237 t b b f;
#X obj 137 292 t b;
#X obj 100 135 vsl 14 80 0 1 0 0 empty empty empty -80 30 0 10 -262144
-1 -1 0 1;
#X obj 137 238 t b b f;
#X obj 137 551 s \$0-step-to-message;
#X obj 216 521 s \$0-message-type;
#X obj 295 491 s \$0-message-value;
#X connect 0 0 2 0;
#X connect 1 0 5 0;
#X connect 2 0 3 0;
#X connect 2 0 21 0;
#X connect 3 0 2 1;
#X connect 4 0 2 1;
#X connect 5 0 0 0;
#X connect 5 1 4 0;
#X connect 6 0 14 0;
#X connect 7 0 8 0;
#X connect 8 0 18 0;
#X connect 8 1 6 0;
#X connect 8 2 15 0;
#X connect 9 0 10 0;
#X connect 10 0 18 0;
#X connect 10 1 12 0;
#X connect 10 2 15 0;
#X connect 11 0 14 0;
#X connect 12 0 14 0;
#X connect 13 0 14 0;
#X connect 14 0 22 0;
#X connect 15 0 23 0;
#X connect 16 0 17 0;
#X connect 17 0 18 0;
#X connect 17 1 11 0;
#X connect 17 2 15 0;
#X connect 18 0 1 0;
#X connect 19 0 20 0;
#X connect 20 0 18 0;
#X connect 20 1 13 0;
#X connect 20 2 15 0;
#X coords 0 -1 1 1 14 200 2 100 20;
#X restore 155 358 pd control-all;
#X obj 694 211 s \$0-step-to-message;
#X obj 717 181 s \$0-message-type;
#X obj 740 155 s \$0-message-value;
#X obj 131 358 bng 14 250 50 0 \$0-randomize-on-off empty empty 17
7 0 10 -262144 -1 -1;
#X obj 131 382 bng 14 250 50 0 \$0-randomize-pitch empty empty 17 7
0 10 -262144 -1 -1;
#X obj 131 457 bng 14 250 50 0 \$0-randomize-reverse empty empty 17
7 0 10 -262144 -1 -1;
#X obj 131 481 bng 14 250 50 0 \$0-randomize-start-pos empty empty
17 7 0 10 -262144 -1 -1;
#N canvas 356 93 827 648 randomize 0;
#X obj 66 23 r \$0-randomize-start-pos;
#X obj 66 345 until;
#X msg 66 288 32;
#X obj 66 399 f 0;
#X obj 101 399 + 1;
#X msg 84 370 0;
#X obj 66 312 t f b;
#X msg 464 234 symbol pitch;
#X msg 624 234 symbol on-off;
#X msg 294 234 symbol reverse;
#X msg 112 234 symbol start-pos;
#X obj 66 542 s \$0-step-to-message;
#X obj 225 489 s \$0-message-type;
#X obj 155 516 s \$0-message-value;
#X msg 89 171 80;
#X obj 66 423 t f b;
#X obj 155 463 random;
#X obj 155 487 /;
#X obj 89 209 t f;
#X obj 248 23 r \$0-randomize-reverse;
#X obj 66 47 t b b b;
#X obj 225 461 t a;
#X obj 66 111 t b;
#X obj 248 47 t b b b;
#X obj 418 47 t b b b;
#X obj 418 23 r \$0-randomize-pitch;
#X obj 578 47 t b b b;
#X obj 578 23 r \$0-randomize-on-off;
#X obj 138 430 bng 15 250 50 0 empty empty empty 17 7 0 10 -262144
-1 -1;
#X obj 190 336 t b b;
#X msg 222 359 2;
#X msg 190 360 1;
#X obj 271 169 t b;
#X connect 0 0 20 0;
#X connect 1 0 3 0;
#X connect 2 0 6 0;
#X connect 3 0 4 0;
#X connect 3 0 15 0;
#X connect 4 0 3 1;
#X connect 5 0 3 1;
#X connect 6 0 1 0;
#X connect 6 1 5 0;
#X connect 7 0 21 0;
#X connect 8 0 21 0;
#X connect 9 0 21 0;
#X connect 10 0 21 0;
#X connect 14 0 18 0;
#X connect 15 0 11 0;
#X connect 15 1 16 0;
#X connect 16 0 17 0;
#X connect 17 0 13 0;
#X connect 18 0 17 1;
#X connect 18 0 16 1;
#X connect 19 0 23 0;
#X connect 20 0 22 0;
#X connect 20 1 14 0;
#X connect 20 2 10 0;
#X connect 21 0 12 0;
#X connect 22 0 2 0;
#X connect 23 0 22 0;
#X connect 23 1 32 0;
#X connect 23 2 9 0;
#X connect 24 0 22 0;
#X connect 24 1 14 0;
#X connect 24 2 7 0;
#X connect 25 0 24 0;
#X connect 26 0 22 0;
#X connect 26 1 32 0;
#X connect 26 2 8 0;
#X connect 27 0 26 0;
#X connect 28 0 16 0;
#X connect 29 0 31 0;
#X connect 29 1 30 0;
#X connect 30 0 16 1;
#X connect 31 0 17 1;
#X connect 32 0 29 0;
#X restore 681 592 pd randomize;
#N canvas 266 144 937 597 init 0;
#X obj 66 345 until;
#X msg 66 288 32;
#X obj 66 399 f 0;
#X obj 101 399 + 1;
#X msg 84 370 0;
#X obj 66 312 t f b;
#X msg 464 234 symbol pitch;
#X msg 624 234 symbol on-off;
#X msg 294 234 symbol reverse;
#X msg 112 234 symbol start-pos;
#X obj 66 542 s \$0-step-to-message;
#X obj 225 489 s \$0-message-type;
#X obj 155 516 s \$0-message-value;
#X obj 89 209 t f;
#X obj 66 47 t b b b;
#X obj 225 391 t a;
#X obj 66 111 t b;
#X obj 248 47 t b b b;
#X obj 418 47 t b b b;
#X obj 578 47 t b b b;
#X obj 66 23 r \$0-init-start-pos;
#X obj 248 23 r \$0-init-reverse;
#X obj 418 23 r \$0-init-pitch;
#X obj 578 23 r \$0-init-on-off;
#X msg 271 138 0;
#X msg 441 138 1;
#X msg 601 138 1;
#X obj 203 420 sel start-pos;
#X obj 155 479 spigot;
#X msg 203 444 1;
#X msg 291 446 0;
#X obj 66 423 t f f;
#X text 306 421 <-- Special case for start-pos;
#X obj 98 448 expr $f1 / 32;
#X connect 0 0 2 0;
#X connect 1 0 5 0;
#X connect 2 0 3 0;
#X connect 2 0 31 0;
#X connect 3 0 2 1;
#X connect 4 0 2 1;
#X connect 5 0 0 0;
#X connect 5 1 4 0;
#X connect 6 0 15 0;
#X connect 7 0 15 0;
#X connect 8 0 15 0;
#X connect 9 0 15 0;
#X connect 13 0 12 0;
#X connect 14 0 16 0;
#X connect 14 2 9 0;
#X connect 15 0 11 0;
#X connect 15 0 27 0;
#X connect 16 0 1 0;
#X connect 17 0 16 0;
#X connect 17 1 24 0;
#X connect 17 2 8 0;
#X connect 18 0 16 0;
#X connect 18 1 25 0;
#X connect 18 2 6 0;
#X connect 19 0 16 0;
#X connect 19 1 26 0;
#X connect 19 2 7 0;
#X connect 20 0 14 0;
#X connect 21 0 17 0;
#X connect 22 0 18 0;
#X connect 23 0 19 0;
#X connect 24 0 13 0;
#X connect 25 0 13 0;
#X connect 26 0 13 0;
#X connect 27 0 29 0;
#X connect 27 1 30 0;
#X connect 28 0 12 0;
#X connect 29 0 28 1;
#X connect 30 0 28 1;
#X connect 31 0 10 0;
#X connect 31 1 33 0;
#X connect 33 0 28 0;
#X restore 681 611 pd init;
#X obj 111 358 bng 14 250 50 0 \$0-init-on-off empty empty 17 7 0 10
-262144 -1 -1;
#X obj 111 382 bng 14 250 50 0 \$0-init-pitch empty empty 17 7 0 10
-262144 -1 -1;
#X obj 111 457 bng 14 250 50 0 \$0-init-reverse empty empty 17 7 0
10 -262144 -1 -1;
#X obj 111 481 bng 14 250 50 0 \$0-init-start-pos empty empty 17 7
0 10 -262144 -1 -1;
#X obj 662 19 t f f;
#X obj 662 43 s \$0-trigger;
#X obj 681 529 s \$0-init;
#X obj 681 486 t b f;
#X obj 681 436 f;
#X obj 184 68 loadbang;
#X obj 754 709 outlet~;
#X obj 108 69 inlet;
#X obj 146 69 inlet;
#X obj 892 118 cnv 15 100 60 empty empty empty 20 12 0 14 -233017 -66577
0;
#X obj 994 549 outlet;
#X obj 754 653 +~, f 16;
#X obj 239 68 inlet;
#N canvas 158 371 1009 370 controls 0;
#X obj 100 100 step \$0 0;
#X obj 114 100 step \$0 1;
#X obj 128 100 step \$0 2;
#X obj 142 100 step \$0 3;
#X obj 156 100 step \$0 4;
#X obj 170 100 step \$0 5;
#X obj 184 100 step \$0 6;
#X obj 198 100 step \$0 7;
#X obj 212 100 step \$0 8;
#X obj 226 100 step \$0 9;
#X obj 240 100 step \$0 10;
#X obj 254 100 step \$0 11;
#X obj 268 100 step \$0 12;
#X obj 282 100 step \$0 13;
#X obj 296 100 step \$0 14;
#X obj 310 100 step \$0 15;
#X obj 324 100 step \$0 16;
#X obj 338 100 step \$0 17;
#X obj 352 100 step \$0 18;
#X obj 366 100 step \$0 19;
#X obj 380 100 step \$0 20;
#X obj 394 100 step \$0 21;
#X obj 408 100 step \$0 22;
#X obj 422 100 step \$0 23;
#X obj 436 100 step \$0 24;
#X obj 450 100 step \$0 25;
#X obj 464 100 step \$0 26;
#X obj 478 100 step \$0 27;
#X obj 492 100 step \$0 28;
#X obj 506 100 step \$0 29;
#X obj 520 100 step \$0 30;
#X obj 534 100 step \$0 31;
#X coords 0 -1 1 1 448 200 2 100 100;
#X restore 179 358 pd controls;
#X obj 843 262 / 2;
#X obj 755 280 f 0;
#X obj 787 280 + 1;
#X obj 928 495 sel 1;
#X obj 928 518 b;
#X obj 933 549 outlet;
#X obj 754 309 mod 2;
#X obj 754 332 sel 1;
#X obj 754 355 b;
#X obj 1043 552 outlet;
#X obj 1100 419 mod 2;
#X obj 1100 442 sel 1;
#X obj 1100 465 b;
#X obj 1096 549 outlet;
#X obj 754 676 *~ 0.77;
#X connect 2 0 34 0;
#X connect 3 0 38 0;
#X connect 4 0 3 0;
#X connect 5 0 37 0;
#X connect 6 0 7 0;
#X connect 6 0 15 0;
#X connect 7 0 6 1;
#X connect 8 0 2 0;
#X connect 9 0 10 0;
#X connect 9 0 51 0;
#X connect 10 0 44 0;
#X connect 10 0 49 0;
#X connect 11 0 48 0;
#X connect 13 0 21 0;
#X connect 13 1 14 0;
#X connect 13 2 19 0;
#X connect 14 0 22 0;
#X connect 15 0 8 0;
#X connect 15 0 58 0;
#X connect 16 0 45 0;
#X connect 16 1 45 1;
#X connect 18 0 11 0;
#X connect 19 0 23 0;
#X connect 34 0 35 0;
#X connect 34 1 13 0;
#X connect 37 0 36 0;
#X connect 37 1 17 0;
#X connect 38 0 5 0;
#X connect 39 0 30 0;
#X connect 39 0 31 0;
#X connect 39 0 32 0;
#X connect 39 0 33 0;
#X connect 41 0 4 0;
#X connect 42 0 9 0;
#X connect 45 0 62 0;
#X connect 46 0 2 0;
#X connect 48 0 10 1;
#X connect 49 0 50 0;
#X connect 49 0 54 0;
#X connect 50 0 49 1;
#X connect 51 0 52 0;
#X connect 52 0 53 0;
#X connect 54 0 55 0;
#X connect 55 0 56 0;
#X connect 56 0 6 0;
#X connect 56 0 57 0;
#X connect 58 0 59 0;
#X connect 59 0 60 0;
#X connect 60 0 61 0;
#X connect 62 0 40 0;
#X coords 0 -1 1 1 540 470 1 100 100;
#X restore 714 1296 pd beatslicere;
#X obj 704 1774 *~ 0.5;
#X obj 510 944 else/play.file~ 1 ./sounds/hellocatfood135/1.wav 1 1
, f 74;
#X obj 128 1532 tgl 15 0 empty empty empty 17 7 0 10 -262144 -1 -1
0 1;
#N canvas 594 158 715 508 OSC_out 1;
#X obj 148 178 oscformat /test;
#X obj 148 202 list prepend send;
#X floatatom 148 156 5 0 0 0 - - -;
#X obj 148 225 list trim;
#X obj 148 256 netsend -u -b;
#X obj 148 26 inlet;
#X obj 68 98 loadbang;
#X obj 262 208 list prepend send;
#X floatatom 262 162 5 0 0 0 - - -;
#X obj 262 231 list trim;
#X obj 262 184 oscformat /demo;
#X obj 273 34 inlet;
#X msg 55 120 connect 127.0.0.1 9999;
#X obj 409 277 netreceive -u -b 9999;
#X obj 409 304 oscparse;
#X obj 409 331 route list;
#X obj 409 357 route test demo;
#X floatatom 409 381 5 0 0 0 - - -;
#X floatatom 460 381 5 0 0 0 - - -;
#X connect 0 0 1 0;
#X connect 1 0 3 0;
#X connect 2 0 0 0;
#X connect 3 0 4 0;
#X connect 5 0 2 0;
#X connect 6 0 12 0;
#X connect 7 0 9 0;
#X connect 8 0 10 0;
#X connect 9 0 4 0;
#X connect 10 0 7 0;
#X connect 11 0 8 0;
#X connect 12 0 4 0;
#X connect 13 0 14 0;
#X connect 14 0 15 0;
#X connect 15 0 16 0;
#X connect 16 0 17 0;
#X connect 16 1 18 0;
#X restore 1203 54 pd OSC_out;
#X floatatom 1204 32 5 0 0 0 - - -;
#X floatatom 163 928 5 0 0 0 - - -;
#X floatatom 369 930 5 0 0 0 - - -;
#X text 162 946 pitch;
#X text 346 949 envelope;
#X obj 163 902 sigmund~ -hop 4096 pitch env;
#X obj 219 934 mtof;
#X floatatom 228 963 5 0 0 0 - - -;
#X obj 290 982 changed;
#X msg 724 49 tempo \$1;
#X floatatom 728 16 5 0 0 0 - - -;
#X msg 645 54 tempo 270;
#X obj 865 268 e, f 22;
#X obj 657 1097 else/play.file~ 1 ./sounds/disco_edits135/3.wav 0 1
, f 74;
#X obj 117 1037 else/play.file~ 1 ./sounds/disco_edits135/1.wav 0 1
, f 74;
#X obj 134 1146 else/play.file~ 1 ./sounds/disco_edits135/4.wav 0 1
, f 74;
#X obj 150 1264 else/play.file~ 1 ./sounds/disco_edits135/5.wav 0 1
, f 74;
#X obj 61 1375 else/play.file~ 1 ./sounds/disco_edits135/6.wav 0 1
, f 77;
#X obj 103 1425 else/play.file~ 1 ./sounds/disco_edits135/2.wav 0 1
, f 74;
#X obj 120 1554 else/play.file~ 1 ./sounds/disco_edits135/7.wav 0 1
, f 74;
#X connect 2 0 7 0;
#X connect 3 0 6 0;
#X connect 6 0 94 2;
#X connect 7 0 94 1;
#X connect 9 0 32 1;
#X connect 10 0 9 0;
#X connect 16 0 11 0;
#X connect 16 1 13 0;
#X connect 16 1 22 0;
#X connect 16 2 19 0;
#X connect 16 2 205 0;
#X connect 16 3 18 0;
#X connect 20 0 21 0;
#X connect 21 0 27 0;
#X connect 21 0 161 0;
#X connect 21 1 16 0;
#X connect 22 0 62 0;
#X connect 22 0 162 0;
#X connect 22 0 165 0;
#X connect 22 0 167 0;
#X connect 25 0 21 0;
#X connect 25 0 188 1;
#X connect 26 0 21 1;
#X connect 27 0 182 0;
#X connect 27 0 170 0;
#X connect 28 0 29 0;
#X connect 29 0 37 0;
#X connect 30 0 29 0;
#X connect 31 0 29 1;
#X connect 32 0 31 0;
#X connect 32 0 30 0;
#X connect 34 0 9 1;
#X connect 35 0 9 1;
#X connect 39 0 38 0;
#X connect 40 0 9 1;
#X connect 41 0 9 1;
#X connect 42 0 21 1;
#X connect 43 0 190 0;
#X connect 44 0 71 0;
#X connect 44 1 71 0;
#X connect 45 0 47 2;
#X connect 46 0 47 1;
#X connect 47 0 44 0;
#X connect 47 1 44 1;
#X connect 48 0 49 0;
#X connect 49 0 47 0;
#X connect 49 0 130 0;
#X connect 50 0 49 1;
#X connect 50 0 48 0;
#X connect 51 0 49 1;
#X connect 51 0 48 0;
#X connect 52 0 48 0;
#X connect 52 0 49 1;
#X connect 53 0 49 1;
#X connect 53 0 48 0;
#X connect 54 0 49 1;
#X connect 54 0 48 0;
#X connect 54 0 143 1;
#X connect 54 0 152 1;
#X connect 55 0 57 0;
#X connect 56 0 55 0;
#X connect 57 0 54 0;
#X connect 58 0 57 0;
#X connect 59 0 61 0;
#X connect 60 0 59 0;
#X connect 61 0 57 0;
#X connect 63 0 59 1;
#X connect 64 0 44 2;
#X connect 65 0 59 1;
#X connect 66 0 59 1;
#X connect 67 0 59 1;
#X connect 68 0 77 0;
#X connect 68 0 77 1;
#X connect 69 0 59 1;
#X connect 70 0 21 0;
#X connect 71 0 125 0;
#X connect 72 0 59 1;
#X connect 73 0 75 1;
#X connect 74 0 76 1;
#X connect 75 0 57 0;
#X connect 75 0 76 0;
#X connect 76 0 57 0;
#X connect 79 0 29 0;
#X connect 80 0 29 0;
#X connect 81 0 29 0;
#X connect 83 0 84 1;
#X connect 84 0 85 0;
#X connect 84 0 87 0;
#X connect 86 0 84 0;
#X connect 88 0 84 1;
#X connect 89 0 209 0;
#X connect 90 0 207 0;
#X connect 91 0 206 0;
#X connect 92 0 208 0;
#X connect 93 0 210 0;
#X connect 94 0 97 0;
#X connect 95 0 97 1;
#X connect 96 0 95 0;
#X connect 97 0 104 0;
#X connect 98 0 99 0;
#X connect 99 0 96 0;
#X connect 100 0 104 1;
#X connect 101 0 104 2;
#X connect 104 0 68 0;
#X connect 107 0 112 0;
#X connect 108 0 111 0;
#X connect 111 0 113 2;
#X connect 112 0 113 1;
#X connect 113 0 116 0;
#X connect 114 0 116 1;
#X connect 115 0 114 0;
#X connect 116 0 123 0;
#X connect 117 0 118 0;
#X connect 118 0 115 0;
#X connect 119 0 123 1;
#X connect 120 0 123 2;
#X connect 123 0 68 0;
#X connect 124 0 211 0;
#X connect 126 0 113 0;
#X connect 127 0 59 1;
#X connect 128 0 59 1;
#X connect 129 0 59 1;
#X connect 130 0 142 0;
#X connect 131 0 130 1;
#X connect 133 0 134 0;
#X connect 134 0 132 0;
#X connect 134 0 137 1;
#X connect 134 0 140 0;
#X connect 135 0 134 2;
#X connect 137 0 143 0;
#X connect 137 0 130 0;
#X connect 138 0 137 0;
#X connect 139 0 137 1;
#X connect 141 0 134 1;
#X connect 141 0 146 1;
#X connect 145 0 146 0;
#X connect 146 0 144 0;
#X connect 146 0 150 1;
#X connect 146 0 159 0;
#X connect 147 0 146 2;
#X connect 148 0 146 3;
#X connect 149 0 155 0;
#X connect 150 0 152 0;
#X connect 151 0 150 0;
#X connect 152 0 153 0;
#X connect 153 0 149 0;
#X connect 154 0 150 1;
#X connect 155 0 142 0;
#X connect 156 0 158 0;
#X connect 157 0 156 0;
#X connect 158 0 155 1;
#X connect 162 0 163 0;
#X connect 165 0 164 0;
#X connect 167 0 166 0;
#X connect 168 0 162 0;
#X connect 168 0 165 0;
#X connect 168 0 167 0;
#X connect 168 0 169 0;
#X connect 172 0 176 0;
#X connect 173 0 172 0;
#X connect 175 0 173 0;
#X connect 177 0 182 1;
#X connect 178 0 179 0;
#X connect 179 0 183 0;
#X connect 180 0 178 0;
#X connect 182 0 181 0;
#X connect 183 0 177 0;
#X connect 188 0 189 0;
#X connect 188 2 186 0;
#X connect 188 3 185 0;
#X connect 188 4 187 0;
#X connect 189 0 94 0;
#X connect 190 0 184 0;
#X connect 190 0 198 0;
#X connect 191 0 212 0;
#X connect 193 0 192 0;
#X connect 194 0 199 0;
#X connect 198 0 194 0;
#X connect 198 1 195 0;
#X connect 199 0 200 0;
#X connect 200 0 201 0;
#X connect 202 0 21 0;
#X connect 203 0 202 0;
#X connect 204 0 21 0;
#X connect 205 0 23 0;
#X connect 206 0 94 0;
#X connect 207 0 113 0;
#X connect 208 0 113 0;
#X connect 209 0 113 0;
#X connect 210 0 94 0;
#X connect 211 0 94 0;
#X connect 212 0 94 0;
