#N canvas 38 189 1471 871 10;
#X declare -path ./Yellotron;
#X declare -path ./sounds;
#X declare -path ./library;
#X declare -path pdjs;
#X declare -path else;
#X declare -path ./instruments/beatslicer;
#X declare -path ./instruments/fm;
#X declare -path ./instruments/sub;
#X declare -path ./instruments/poly;
#X declare -path ./instruments/acid;
#X declare -path ./instruments/dx7;
#X declare -path ./instruments/yellotron;
#X declare -path ./instruments/fx;
#X declare -path ./instruments/hoover;
#X declare -path ./instruments/plucked;
#X declare -path ./instruments/wavetable;
#X obj 141 454 dac~;
#X text 113 454 fake;
#X obj 141 360 *~ 0.8;
#N canvas 281 187 630 372 spectrolog 0;
#N canvas 556 61 872 789 FFT_Analyse 0;
#X obj 101 102 inlet~;
#X obj 101 332 *~;
#X obj 132 331 *~;
#X obj 101 356 +~;
#X obj 102 377 powtodb~;
#N canvas 0 22 346 535 init_input_window 0;
#X obj 73 217 / 10;
#X obj 55 278 line 0 0.1;
#X msg 119 246 0;
#X obj 54 176 t f f b;
#X obj 54 239 pack;
#X obj 55 301 t f f;
#X obj 54 152 - 1;
#X obj 74 114 t f f;
#X obj 55 359 * 3.14159;
#X obj 55 381 sin;
#X msg 55 401 \$1 \$1;
#X obj 55 423 *;
#X text 119 334 0...0.99;
#X text 128 359 0...pi;
#X text 79 423 hanning;
#X msg 55 88 4096;
#X obj 100 88 f 4096;
#X obj 99 60 bng 15 250 50 0 empty empty empty 0 -6 0 8 -262144 -1
-1;
#X obj 99 39 loadbang;
#X obj 74 333 / 4096;
#X obj 55 448 tabwrite \$0-window;
#X text 86 381 half-sine;
#X connect 0 0 4 1;
#X connect 1 0 5 0;
#X connect 2 0 1 0;
#X connect 3 0 4 0;
#X connect 3 1 0 0;
#X connect 3 2 2 0;
#X connect 4 0 1 0;
#X connect 5 0 19 0;
#X connect 5 1 20 1;
#X connect 6 0 3 0;
#X connect 7 0 6 0;
#X connect 7 1 19 1;
#X connect 8 0 9 0;
#X connect 9 0 10 0;
#X connect 10 0 11 0;
#X connect 11 0 20 0;
#X connect 15 0 7 0;
#X connect 16 0 7 0;
#X connect 17 0 16 0;
#X connect 18 0 17 0;
#X connect 19 0 8 0;
#X restore 161 276 pd init_input_window;
#N canvas 0 22 450 300 (subpatch) 0;
#X array \$0-lin_scope 2048 float 0;
#X coords 0 100 2047 0 200 140 1;
#X restore 110 621 graph;
#N canvas 0 22 822 328 init_norm 0;
#X obj 43 230 outlet;
#X obj 43 187 - 100;
#X floatatom 43 208 9 0 0 0 - - -;
#X text 108 169 leistung - techn. dB;
#X msg 43 69 4096;
#X obj 80 68 f 4096;
#X obj 80 47 bng 15 250 50 0 empty empty empty 0 -6 0 8 -262144 -1
-1;
#X obj 80 26 loadbang;
#X obj 43 167 rmstodb;
#X obj 43 110 / 4;
#X text 74 103 faktor 2 wegen hanning;
#X text 74 114 weiterer faktor 2 \, weil wir nur die;
#X text 73 124 erste haelfte des konjungiert komplexen spektrum sehen
;
#X text 108 135 bzw. bearbeiten \, somit nur die haelfte der spektralen
energie;
#X connect 1 0 2 0;
#X connect 2 0 0 0;
#X connect 4 0 9 0;
#X connect 5 0 9 0;
#X connect 6 0 5 0;
#X connect 7 0 6 0;
#X connect 8 0 1 0;
#X connect 9 0 8 0;
#X restore 153 421 pd init_norm;
#X obj 100 231 *~;
#X obj 102 443 -~ 60.206;
#X obj 113 517 *~ 0.98;
#X obj 100 539 +~;
#X obj 101 471 *~ 0.02;
#X msg 314 481 1 \$1;
#X obj 314 502 -;
#X obj 314 458 clip 0 1;
#X obj 314 437 / 100;
#X floatatom 314 413 5 0.5 100 0 - - -;
#X obj 333 366 loadbang;
#X obj 100 277 fft~;
#X obj 463 557 line 0 0.1;
#X obj 463 602 / 2;
#X obj 463 622 mtof;
#X msg 463 536 6 \, 273 26.7;
#X obj 463 580 t f f;
#X obj 494 602 - 6;
#X obj 463 642 / 44100;
#X obj 463 663 * 4096;
#X msg 656 633 6;
#X obj 656 653 / 2;
#X obj 656 673 mtof;
#X floatatom 656 693 9 0 0 0 - - -;
#X text 723 694 Hz;
#X obj 754 654 / 2;
#X obj 754 673 mtof;
#X floatatom 754 693 9 0 0 0 - - -;
#X text 822 693 Hz;
#X msg 754 634 273;
#X obj 656 612 t b b;
#X obj 463 498 tgl 15 0 empty empty empty 0 -6 0 8 -262144 -1 -1 1
1;
#X obj 463 458 loadbang;
#X msg 463 478 1;
#X obj 656 592 loadbang;
#X obj 468 245 loadbang;
#X obj 703 102 inlet;
#X obj 130 253 table \$0-window 4096;
#X obj 137 214 tabreceive~ \$0-window;
#X text 353 403 temporal lowpass;
#X text 355 415 parameter between 0 .. 100 %;
#X text 23 23 spectrum~;
#X text 120 23 draws the power of a spectrum in a logarithmic scale
;
#X text 118 36 (by Thomas Musil);
#X obj 113 496 tabreceive~ \$0-lin_scope;
#X obj 100 564 tabsend~ \$0-lin_scope;
#X obj 463 685 tabread4 \$0-lin_scope;
#X obj 468 267 f \$0;
#X text 553 536 transformation to log scale;
#X msg 333 385 100;
#X obj 314 341 max 0.5;
#X obj 314 319 min 100;
#X obj 440 107 inlet;
#X text 96 81 audio sig;
#X text 700 81 ON/OFF;
#X text 427 86 (0 .. 100);
#X text 408 72 temporal lowpass;
#X obj 533 244 bng 15 250 50 0 empty empty empty 0 -6 0 8 -262144 -1
-1;
#X obj 463 735 tabwrite \$0-s;
#X msg 468 296 \; \$1-s xticks 0 12 2;
#X msg 491 330 \; \$1-s yticks 0 5 2;
#X obj 462 516 metro 100;
#X obj 704 166 switch~ 4096 2;
#X obj 463 711 clip 0 100;
#X obj 773 101 loadbang;
#X msg 773 123 1;
#X connect 0 0 8 0;
#X connect 1 0 3 0;
#X connect 2 0 3 1;
#X connect 3 0 4 0;
#X connect 4 0 9 0;
#X connect 7 0 9 1;
#X connect 8 0 19 0;
#X connect 9 0 12 0;
#X connect 10 0 11 1;
#X connect 11 0 53 0;
#X connect 12 0 11 0;
#X connect 13 0 14 0;
#X connect 14 0 10 1;
#X connect 15 0 13 0;
#X connect 15 0 12 1;
#X connect 16 0 15 0;
#X connect 17 0 16 0;
#X connect 18 0 57 0;
#X connect 19 0 1 0;
#X connect 19 0 1 1;
#X connect 19 1 2 0;
#X connect 19 1 2 1;
#X connect 20 0 24 0;
#X connect 21 0 22 0;
#X connect 22 0 26 0;
#X connect 23 0 20 0;
#X connect 24 0 21 0;
#X connect 24 1 25 0;
#X connect 25 0 66 1;
#X connect 26 0 27 0;
#X connect 27 0 54 0;
#X connect 28 0 29 0;
#X connect 29 0 30 0;
#X connect 30 0 31 0;
#X connect 33 0 34 0;
#X connect 34 0 35 0;
#X connect 37 0 33 0;
#X connect 38 0 28 0;
#X connect 38 1 37 0;
#X connect 39 0 69 0;
#X connect 40 0 41 0;
#X connect 41 0 39 0;
#X connect 42 0 38 0;
#X connect 43 0 55 0;
#X connect 44 0 70 0;
#X connect 46 0 8 1;
#X connect 52 0 10 0;
#X connect 54 0 71 0;
#X connect 55 0 67 0;
#X connect 55 0 68 0;
#X connect 57 0 17 0;
#X connect 58 0 17 0;
#X connect 59 0 58 0;
#X connect 60 0 59 0;
#X connect 65 0 55 0;
#X connect 69 0 23 0;
#X connect 71 0 66 0;
#X connect 72 0 73 0;
#X connect 73 0 70 0;
#X restore 17 320 pd FFT_Analyse;
#X obj 63 299 inlet;
#X obj 17 299 inlet~;
#X obj 110 299 inlet;
#N canvas 0 22 450 300 (subpatch) 0;
#X array \$0-s 268 float 0;
#X coords 0 100 267 0 267 140 1;
#X restore 23 27 graph;
#X obj 297 42 cnv 15 1 1 empty empty -10 0 0 0 10 -262144 -1 0;
#X obj 297 154 cnv 15 1 1 empty empty -90 0 0 0 10 -262144 -1 0;
#X obj 297 98 cnv 15 1 1 empty empty -50 0 0 0 10 -262144 -1 0;
#X obj 297 70 cnv 15 1 1 empty empty -30 0 0 0 10 -262144 -1 0;
#X obj 297 126 cnv 15 1 1 empty empty -70 0 0 0 10 -262144 -1 0;
#X obj 18 171 cnv 15 1 1 empty empty 10 0 5 0 10 -262144 -1 0;
#X obj 66 171 cnv 15 1 1 empty empty 40 0 5 0 10 -262144 -1 0;
#X obj 115 171 cnv 15 1 1 empty empty 160 0 5 0 10 -262144 -1 0;
#X obj 162 171 cnv 15 1 1 empty empty 640 0 5 0 10 -262144 -1 0;
#X obj 210 171 cnv 15 1 1 empty empty 2k56 0 5 0 10 -262144 -1 0;
#X obj 258 171 cnv 15 1 1 empty empty 10k2 0 5 0 10 -262144 -1 0;
#X obj 138 184 cnv 15 1 1 empty empty 320 0 5 0 10 -262144 -1 0;
#X obj 282 184 cnv 15 1 1 empty empty 20k5 0 5 0 10 -262144 -1 0;
#X obj 42 181 cnv 15 1 1 empty empty 20 0 9 0 10 -262144 -1 0;
#X obj 90 184 cnv 15 1 1 empty empty 80 0 5 0 10 -262144 -1 0;
#X obj 186 184 cnv 15 1 1 empty empty 1k28 0 5 0 10 -262144 -1 0;
#X obj 234 184 cnv 15 1 1 empty empty 5k12 0 5 0 10 -262144 -1 0;
#X obj 46 168 cnv 15 1 1 empty empty | 0 7 0 10 -262144 -1 0;
#X obj 94 168 cnv 15 1 1 empty empty | 0 7 0 10 -262144 -1 0;
#X obj 142 168 cnv 15 1 1 empty empty | 0 7 0 10 -262144 -1 0;
#X obj 190 168 cnv 15 1 1 empty empty | 0 7 0 10 -262144 -1 0;
#X obj 238 168 cnv 15 1 1 empty empty | 0 7 0 10 -262144 -1 0;
#X obj 286 168 cnv 15 1 1 empty empty | 0 7 0 10 -262144 -1 0;
#X connect 1 0 0 1;
#X connect 2 0 0 0;
#X connect 3 0 0 2;
#X coords 0 -1 1 1 330 210 1 0 0;
#X restore 289 422 pd spectrolog;
#X obj 1090 927 bng 15 250 50 0 empty empty empty 17 7 0 10 -262144
-1 -1;
#X obj 985 928 bng 15 250 50 0 empty empty empty 17 7 0 10 -262144
-1 -1;
#X obj 1197 929 bng 15 250 50 0 empty empty empty 17 7 0 10 -262144
-1 -1;
#X obj 1090 946 s pulse3;
#X obj 1198 949 s pulse2;
#N canvas 16 637 635 406 drums 0;
#X obj 52 272 drumkit~, f 43;
#X floatatom 52 251 5 0 0 0 - - -;
#X floatatom 88 251 5 0 0 0 - - -;
#X floatatom 124 250 5 0 0 0 - - -;
#X floatatom 160 250 5 0 0 0 - - -;
#X floatatom 196 250 5 0 0 0 - - -;
#X floatatom 232 250 5 0 0 0 - - -;
#X floatatom 270 250 5 0 0 0 - - -;
#X floatatom 306 250 5 0 0 0 - - -;
#X obj 67 39 r kick;
#X obj 115 39 r snare;
#X obj 279 40 r hat;
#X obj 168 39 r clap;
#X obj 427 39 r ride;
#X obj 320 39 r perc1;
#X obj 374 40 r perc2;
#X obj 474 38 r crash;
#X obj 213 40 r rimshot;
#N canvas 0 96 829 296 drumseq 0;
#X obj 32 124 sequencer;
#X obj 98 125 sequencer;
#X obj 186 127 sequencer;
#X obj 185 104 r pulse3;
#X obj 278 129 sequencer;
#X obj 31 101 r pulse3;
#X obj 97 102 r pulse3;
#X obj 278 106 r pulse3;
#X obj 31 195 s kick;
#X obj 97 195 s rimshot;
#X obj 185 201 s hat;
#X obj 281 201 s snare;
#X obj 370 196 s clap;
#X obj 434 197 s ride;
#X obj 521 201 s perc1;
#X obj 617 206 s perc2;
#X obj 683 199 s crash;
#X obj 370 125 sequencer;
#X obj 436 126 sequencer;
#X obj 524 128 sequencer;
#X obj 523 105 r pulse3;
#X obj 616 130 sequencer;
#X obj 369 102 r pulse3;
#X obj 435 103 r pulse3;
#X obj 616 107 r pulse3;
#X obj 681 127 sequencer;
#X obj 681 104 r pulse3;
#X obj 79 58 r kick-seq;
#X obj 154 56 r rimshot-seq;
#X obj 197 79 r hat-seq;
#X obj 301 71 r snare-seq;
#X obj 371 42 r clap-seq;
#X obj 457 61 r ride-seq;
#X obj 543 61 r perc1-seq;
#X obj 620 33 r perc2-seq;
#X obj 724 76 r crash-seq;
#X connect 0 0 8 0;
#X connect 1 0 9 0;
#X connect 2 0 10 0;
#X connect 3 0 2 0;
#X connect 4 0 11 0;
#X connect 5 0 0 0;
#X connect 6 0 1 0;
#X connect 7 0 4 0;
#X connect 17 0 12 0;
#X connect 18 0 13 0;
#X connect 19 0 14 0;
#X connect 20 0 19 0;
#X connect 21 0 15 0;
#X connect 22 0 17 0;
#X connect 23 0 18 0;
#X connect 24 0 21 0;
#X connect 25 0 16 0;
#X connect 26 0 25 0;
#X connect 27 0 0 1;
#X connect 28 0 1 1;
#X connect 29 0 2 1;
#X connect 30 0 4 1;
#X connect 31 0 17 1;
#X connect 32 0 18 1;
#X connect 33 0 19 1;
#X connect 34 0 21 1;
#X connect 35 0 25 1;
#X restore 104 334 pd drumseq;
#X floatatom 347 250 5 0 0 0 - - -;
#X obj 126 225 i;
#X obj 125 200 b;
#X floatatom 126 135 5 0 0 0 - - -;
#X obj 161 220 i;
#X obj 160 195 b;
#X floatatom 168 135 5 0 0 0 - - -;
#X obj 89 220 i;
#X obj 88 195 b;
#X floatatom 72 138 5 0 0 0 - - -;
#X obj 54 222 i;
#X obj 53 197 b;
#X floatatom 22 134 5 0 0 0 - - -;
#X obj 233 221 i;
#X obj 232 196 b;
#X floatatom 274 133 5 0 0 0 - - -;
#X obj 272 223 i;
#X obj 271 198 b;
#X floatatom 319 132 5 0 0 0 - - -;
#X obj 309 222 i;
#X obj 308 197 b;
#X floatatom 370 131 5 0 0 0 - - -;
#X obj 348 223 i;
#X obj 347 198 b;
#X floatatom 415 133 5 0 0 0 - - -;
#N canvas 0 96 629 300 random-kit 0;
#X obj 57 20 inlet;
#X obj 19 143 random 100;
#X obj 86 143 random 100;
#X obj 155 141 random 100;
#X obj 222 141 random 100;
#X obj 289 139 random 100;
#X obj 356 139 random 100;
#X obj 425 137 random 100;
#X obj 492 137 random 100;
#X obj 55 43 b;
#X obj 560 136 random 100;
#X obj 15 215 outlet;
#X obj 63 214 outlet;
#X obj 111 215 outlet;
#X obj 159 214 outlet;
#X obj 203 212 outlet;
#X obj 251 211 outlet;
#X obj 299 212 outlet;
#X obj 347 211 outlet;
#X obj 405 214 outlet;
#X connect 0 0 9 0;
#X connect 1 0 11 0;
#X connect 2 0 12 0;
#X connect 3 0 13 0;
#X connect 4 0 14 0;
#X connect 5 0 15 0;
#X connect 6 0 16 0;
#X connect 7 0 17 0;
#X connect 8 0 18 0;
#X connect 9 0 1 0;
#X connect 9 0 2 0;
#X connect 9 0 3 0;
#X connect 9 0 4 0;
#X connect 9 0 5 0;
#X connect 9 0 6 0;
#X connect 9 0 7 0;
#X connect 9 0 8 0;
#X connect 9 0 10 0;
#X connect 10 0 19 0;
#X restore 25 109 pd random-kit;
#X f 66;
#X obj 196 224 i;
#X obj 195 199 b;
#X floatatom 222 136 5 0 0 0 - - -;
#X obj 10 16 inlet;
#X obj 52 334 outlet~;
#X connect 0 0 49 0;
#X connect 1 0 0 0;
#X connect 2 0 0 1;
#X connect 3 0 0 2;
#X connect 4 0 0 3;
#X connect 5 0 0 4;
#X connect 6 0 0 5;
#X connect 7 0 0 6;
#X connect 8 0 0 7;
#X connect 9 0 30 0;
#X connect 10 0 27 0;
#X connect 11 0 46 0;
#X connect 12 0 21 0;
#X connect 13 0 39 0;
#X connect 14 0 33 0;
#X connect 15 0 36 0;
#X connect 16 0 42 0;
#X connect 17 0 24 0;
#X connect 19 0 0 8;
#X connect 20 0 3 0;
#X connect 21 0 20 0;
#X connect 22 0 20 1;
#X connect 23 0 4 0;
#X connect 24 0 23 0;
#X connect 25 0 23 1;
#X connect 26 0 2 0;
#X connect 27 0 26 0;
#X connect 28 0 26 1;
#X connect 29 0 1 0;
#X connect 30 0 29 0;
#X connect 31 0 29 1;
#X connect 32 0 6 0;
#X connect 33 0 32 0;
#X connect 34 0 32 1;
#X connect 35 0 7 0;
#X connect 36 0 35 0;
#X connect 37 0 35 1;
#X connect 38 0 8 0;
#X connect 39 0 38 0;
#X connect 40 0 38 1;
#X connect 41 0 19 0;
#X connect 42 0 41 0;
#X connect 43 0 41 1;
#X connect 44 0 31 0;
#X connect 44 1 28 0;
#X connect 44 2 22 0;
#X connect 44 3 25 0;
#X connect 44 4 47 0;
#X connect 44 5 34 0;
#X connect 44 6 37 0;
#X connect 44 7 40 0;
#X connect 44 8 43 0;
#X connect 45 0 5 0;
#X connect 46 0 45 0;
#X connect 47 0 45 1;
#X connect 48 0 44 0;
#X restore 142 334 pd drums;
#X obj 143 314 bng 15 250 50 0 empty empty empty 17 7 0 10 -262144
-1 -1;
#N canvas 0 72 1211 674 beatslicere 0;
#N canvas 1 67 450 250 (subpatch) 0;
#X array \$0-sample-L 132300 float 2;
#X coords 0 1 132300 -1 448 100 1 0 0;
#X restore 178 124 graph;
#N canvas 1 67 450 250 (subpatch) 0;
#X array \$0-sample-R 132300 float 2;
#X coords 0 1 132300 -1 448 100 1 0 0;
#X restore 178 224 graph;
#X obj 179 334 hradio 14 1 0 32 empty empty empty 0 -8 0 10 -262144
-1 -1 0;
#N canvas 605 396 441 345 read-file 0;
#X obj 35 51 openpanel;
#X obj 35 241 soundfiler;
#X text 116 241 Read sample into array;
#X obj 68 125 symbol \$0-sample-L;
#X obj 35 179 pack s s s;
#X obj 102 149 symbol \$0-sample-R;
#X obj 35 86 t a b b;
#X msg 35 210 read -resize \$1 \$2 \$3;
#X obj 35 265 outlet sample-size;
#X obj 35 25 inlet open;
#X connect 0 0 6 0;
#X connect 1 0 8 0;
#X connect 3 0 4 1;
#X connect 4 0 7 0;
#X connect 5 0 4 2;
#X connect 6 0 4 0;
#X connect 6 1 3 0;
#X connect 6 2 5 0;
#X connect 7 0 1 0;
#X connect 9 0 0 0;
#X restore 672 249 pd read-file;
#X obj 115 126 bng 30 250 50 0 empty empty Open_file 35 7 0 10 -262144
-1 -1;
#X floatatom 681 458 10 0 0 0 - - -;
#X obj 760 438 f 0;
#X obj 792 438 + 1;
#X floatatom 760 486 5 0 0 0 - - -;
#X obj 114 170 tgl 30 0 empty empty Play 35 7 0 10 -262144 -1 -1 0
1;
#X obj 761 248 metro 200;
#X obj 843 239 expr ($f1 / 32) / 44.1;
#N canvas 339 338 487 403 send-message-to-step 0;
#X obj 88 329 send;
#X obj 113 232 pack f \$0;
#X msg 113 261 symbol \$2-step-\$1;
#X obj 31 264 pack s f;
#X obj 84 233 f;
#X obj 30 165 t b b f;
#X obj 31 234 symbol;
#X obj 31 288 list trim;
#X obj 30 39 r \$0-step-to-message;
#X obj 339 39 r \$0-message-value;
#X obj 190 39 r \$0-message-type;
#X connect 1 0 2 0;
#X connect 2 0 0 1;
#X connect 3 0 7 0;
#X connect 4 0 3 1;
#X connect 5 0 6 0;
#X connect 5 1 4 0;
#X connect 5 2 1 0;
#X connect 6 0 3 0;
#X connect 7 0 0 0;
#X connect 8 0 5 0;
#X connect 9 0 4 1;
#X connect 10 0 6 1;
#X restore 681 573 pd send-message-to-step;
#X obj 694 69 t f b b;
#X msg 717 98 symbol step;
#X obj 760 462 mod 32;
#N canvas 162 96 538 674 sample-player 0;
#X obj 85 489 tabread4~ \$0-sample-L;
#X obj 153 508 tabread4~ \$0-sample-R;
#X obj 84 437 line~;
#X obj 84 461 *~ 1;
#X obj 151 240 f;
#X obj 84 30 bng 15 250 50 0 empty \$0-trigger Trigger 17 7 0 10 -262144
-1 -1;
#X msg 84 358 \$1 \, \$2 \$3;
#X obj 84 323 pack f f f;
#X obj 84 50 t b b;
#X obj 84 83 t b b;
#X obj 84 263 f;
#X obj 117 263 f;
#X obj 102 133 t f f;
#X obj 102 160 expr $f1;
#X obj 135 191 expr (float(1) / 32) + $f1;
#X obj 162 69 r \$0-start-pos;
#X obj 151 269 expr ($f1 / 32) / 44.1 * $f2;
#X obj 344 240 r \$0-pitch;
#X msg 174 358 \$2 \, \$1 \$3;
#X obj 84 397 spigot 1;
#X obj 154 397 spigot 0;
#X obj 282 335 r \$0-reverse;
#X obj 282 359 == 0;
#X obj 171 530 r \$0-on-off;
#X obj 154 603 *~;
#X obj 84 604 *~;
#X obj 171 576 line~;
#X obj 167 427 r \$0-file-size;
#X obj 178 216 r \$0-file-size;
#X obj 84 628 outlet~;
#X obj 154 628 outlet~;
#X msg 171 552 \$1;
#X obj 162 93 expr int($f1 * 32) / 32;
#X connect 0 0 25 0;
#X connect 1 0 24 0;
#X connect 2 0 3 0;
#X connect 3 0 0 0;
#X connect 3 0 1 0;
#X connect 4 0 16 0;
#X connect 5 0 8 0;
#X connect 6 0 19 0;
#X connect 7 0 6 0;
#X connect 7 0 18 0;
#X connect 8 0 9 0;
#X connect 8 1 4 0;
#X connect 9 0 10 0;
#X connect 9 1 11 0;
#X connect 10 0 7 0;
#X connect 11 0 7 1;
#X connect 12 0 13 0;
#X connect 12 1 14 0;
#X connect 13 0 10 1;
#X connect 14 0 11 1;
#X connect 15 0 32 0;
#X connect 16 0 7 2;
#X connect 17 0 16 1;
#X connect 18 0 20 0;
#X connect 19 0 2 0;
#X connect 20 0 2 0;
#X connect 21 0 22 0;
#X connect 21 0 20 1;
#X connect 22 0 19 1;
#X connect 23 0 31 0;
#X connect 24 0 30 0;
#X connect 25 0 29 0;
#X connect 26 0 24 1;
#X connect 26 0 25 1;
#X connect 27 0 3 1;
#X connect 28 0 4 1;
#X connect 31 0 26 0;
#X connect 32 0 12 0;
#X restore 754 626 pd sample-player;
#X obj 713 508 s \$0-file-size;
#X obj 825 208 r \$0-file-size;
#X msg 740 128 0;
#N canvas 416 367 460 592 control-all 0;
#X obj 137 443 until;
#X msg 137 386 32;
#X obj 137 497 f 0;
#X obj 172 497 + 1;
#X msg 155 468 0;
#X obj 137 410 t f b;
#X msg 223 351 symbol pitch;
#X obj 100 36 vsl 14 80 0.1 1 0 0 empty empty empty -56 30 0 10 -262144
-1 -1 0 1;
#X obj 197 238 t b b f;
#X obj 100 119 tgl 14 0 empty empty empty -68 7 0 10 -262144 -1 -1
0 1;
#X obj 263 237 t b b f;
#X msg 240 390 symbol on-off;
#X msg 230 370 symbol reverse;
#X msg 213 331 symbol start-pos;
#X obj 216 438 t a;
#X obj 295 290 t f;
#X obj 100 20 tgl 14 0 empty empty empty -62 7 0 10 -262144 -1 -1 0
1;
#X obj 323 237 t b b f;
#X obj 137 292 t b;
#X obj 100 135 vsl 14 80 0 1 0 0 empty empty empty -80 30 0 10 -262144
-1 -1 0 1;
#X obj 137 238 t b b f;
#X obj 137 551 s \$0-step-to-message;
#X obj 216 521 s \$0-message-type;
#X obj 295 491 s \$0-message-value;
#X connect 0 0 2 0;
#X connect 1 0 5 0;
#X connect 2 0 3 0;
#X connect 2 0 21 0;
#X connect 3 0 2 1;
#X connect 4 0 2 1;
#X connect 5 0 0 0;
#X connect 5 1 4 0;
#X connect 6 0 14 0;
#X connect 7 0 8 0;
#X connect 8 0 18 0;
#X connect 8 1 6 0;
#X connect 8 2 15 0;
#X connect 9 0 10 0;
#X connect 10 0 18 0;
#X connect 10 1 12 0;
#X connect 10 2 15 0;
#X connect 11 0 14 0;
#X connect 12 0 14 0;
#X connect 13 0 14 0;
#X connect 14 0 22 0;
#X connect 15 0 23 0;
#X connect 16 0 17 0;
#X connect 17 0 18 0;
#X connect 17 1 11 0;
#X connect 17 2 15 0;
#X connect 18 0 1 0;
#X connect 19 0 20 0;
#X connect 20 0 18 0;
#X connect 20 1 13 0;
#X connect 20 2 15 0;
#X coords 0 -1 1 1 14 200 2 100 20;
#X restore 155 358 pd control-all;
#X obj 694 211 s \$0-step-to-message;
#X obj 717 181 s \$0-message-type;
#X obj 740 155 s \$0-message-value;
#X obj 131 358 bng 14 250 50 0 \$0-randomize-on-off empty empty 17
7 0 10 -262144 -1 -1;
#X obj 131 382 bng 14 250 50 0 \$0-randomize-pitch empty empty 17 7
0 10 -262144 -1 -1;
#X obj 131 457 bng 14 250 50 0 \$0-randomize-reverse empty empty 17
7 0 10 -262144 -1 -1;
#X obj 131 481 bng 14 250 50 0 \$0-randomize-start-pos empty empty
17 7 0 10 -262144 -1 -1;
#N canvas 356 93 827 648 randomize 0;
#X obj 66 23 r \$0-randomize-start-pos;
#X obj 66 345 until;
#X msg 66 288 32;
#X obj 66 399 f 0;
#X obj 101 399 + 1;
#X msg 84 370 0;
#X obj 66 312 t f b;
#X msg 464 234 symbol pitch;
#X msg 624 234 symbol on-off;
#X msg 294 234 symbol reverse;
#X msg 112 234 symbol start-pos;
#X obj 66 542 s \$0-step-to-message;
#X obj 225 489 s \$0-message-type;
#X obj 155 516 s \$0-message-value;
#X msg 89 171 80;
#X obj 66 423 t f b;
#X obj 155 463 random;
#X obj 155 487 /;
#X obj 89 209 t f;
#X obj 248 23 r \$0-randomize-reverse;
#X obj 66 47 t b b b;
#X obj 225 461 t a;
#X obj 66 111 t b;
#X obj 248 47 t b b b;
#X obj 418 47 t b b b;
#X obj 418 23 r \$0-randomize-pitch;
#X obj 578 47 t b b b;
#X obj 578 23 r \$0-randomize-on-off;
#X obj 138 430 bng 15 250 50 0 empty empty empty 17 7 0 10 -262144
-1 -1;
#X obj 190 336 t b b;
#X msg 222 359 2;
#X msg 190 360 1;
#X obj 271 169 t b;
#X connect 0 0 20 0;
#X connect 1 0 3 0;
#X connect 2 0 6 0;
#X connect 3 0 4 0;
#X connect 3 0 15 0;
#X connect 4 0 3 1;
#X connect 5 0 3 1;
#X connect 6 0 1 0;
#X connect 6 1 5 0;
#X connect 7 0 21 0;
#X connect 8 0 21 0;
#X connect 9 0 21 0;
#X connect 10 0 21 0;
#X connect 14 0 18 0;
#X connect 15 0 11 0;
#X connect 15 1 16 0;
#X connect 16 0 17 0;
#X connect 17 0 13 0;
#X connect 18 0 17 1;
#X connect 18 0 16 1;
#X connect 19 0 23 0;
#X connect 20 0 22 0;
#X connect 20 1 14 0;
#X connect 20 2 10 0;
#X connect 21 0 12 0;
#X connect 22 0 2 0;
#X connect 23 0 22 0;
#X connect 23 1 32 0;
#X connect 23 2 9 0;
#X connect 24 0 22 0;
#X connect 24 1 14 0;
#X connect 24 2 7 0;
#X connect 25 0 24 0;
#X connect 26 0 22 0;
#X connect 26 1 32 0;
#X connect 26 2 8 0;
#X connect 27 0 26 0;
#X connect 28 0 16 0;
#X connect 29 0 31 0;
#X connect 29 1 30 0;
#X connect 30 0 16 1;
#X connect 31 0 17 1;
#X connect 32 0 29 0;
#X restore 681 592 pd randomize;
#N canvas 266 144 937 597 init 0;
#X obj 66 345 until;
#X msg 66 288 32;
#X obj 66 399 f 0;
#X obj 101 399 + 1;
#X msg 84 370 0;
#X obj 66 312 t f b;
#X msg 464 234 symbol pitch;
#X msg 624 234 symbol on-off;
#X msg 294 234 symbol reverse;
#X msg 112 234 symbol start-pos;
#X obj 66 542 s \$0-step-to-message;
#X obj 225 489 s \$0-message-type;
#X obj 155 516 s \$0-message-value;
#X obj 89 209 t f;
#X obj 66 47 t b b b;
#X obj 225 391 t a;
#X obj 66 111 t b;
#X obj 248 47 t b b b;
#X obj 418 47 t b b b;
#X obj 578 47 t b b b;
#X obj 66 23 r \$0-init-start-pos;
#X obj 248 23 r \$0-init-reverse;
#X obj 418 23 r \$0-init-pitch;
#X obj 578 23 r \$0-init-on-off;
#X msg 271 138 0;
#X msg 441 138 1;
#X msg 601 138 1;
#X obj 203 420 sel start-pos;
#X obj 155 479 spigot;
#X msg 203 444 1;
#X msg 291 446 0;
#X obj 66 423 t f f;
#X text 306 421 <-- Special case for start-pos;
#X obj 98 448 expr $f1 / 32;
#X connect 0 0 2 0;
#X connect 1 0 5 0;
#X connect 2 0 3 0;
#X connect 2 0 31 0;
#X connect 3 0 2 1;
#X connect 4 0 2 1;
#X connect 5 0 0 0;
#X connect 5 1 4 0;
#X connect 6 0 15 0;
#X connect 7 0 15 0;
#X connect 8 0 15 0;
#X connect 9 0 15 0;
#X connect 13 0 12 0;
#X connect 14 0 16 0;
#X connect 14 2 9 0;
#X connect 15 0 11 0;
#X connect 15 0 27 0;
#X connect 16 0 1 0;
#X connect 17 0 16 0;
#X connect 17 1 24 0;
#X connect 17 2 8 0;
#X connect 18 0 16 0;
#X connect 18 1 25 0;
#X connect 18 2 6 0;
#X connect 19 0 16 0;
#X connect 19 1 26 0;
#X connect 19 2 7 0;
#X connect 20 0 14 0;
#X connect 21 0 17 0;
#X connect 22 0 18 0;
#X connect 23 0 19 0;
#X connect 24 0 13 0;
#X connect 25 0 13 0;
#X connect 26 0 13 0;
#X connect 27 0 29 0;
#X connect 27 1 30 0;
#X connect 28 0 12 0;
#X connect 29 0 28 1;
#X connect 30 0 28 1;
#X connect 31 0 10 0;
#X connect 31 1 33 0;
#X connect 33 0 28 0;
#X restore 681 611 pd init;
#X obj 111 358 bng 14 250 50 0 \$0-init-on-off empty empty 17 7 0 10
-262144 -1 -1;
#X obj 111 382 bng 14 250 50 0 \$0-init-pitch empty empty 17 7 0 10
-262144 -1 -1;
#X obj 111 457 bng 14 250 50 0 \$0-init-reverse empty empty 17 7 0
10 -262144 -1 -1;
#X obj 111 481 bng 14 250 50 0 \$0-init-start-pos empty empty 17 7
0 10 -262144 -1 -1;
#X obj 662 19 t f f;
#X obj 662 43 s \$0-trigger;
#X obj 681 529 s \$0-init;
#X obj 681 486 t b f;
#X obj 681 436 f;
#X obj 184 68 loadbang;
#X obj 754 709 outlet~;
#X obj 108 69 inlet;
#X obj 146 69 inlet;
#X obj 892 118 cnv 15 100 60 empty empty empty 20 12 0 14 -233017 -66577
0;
#X obj 994 549 outlet;
#X obj 754 653 +~, f 16;
#X obj 239 68 inlet;
#N canvas 158 371 1009 370 controls 0;
#X obj 100 100 step \$0 0;
#X obj 114 100 step \$0 1;
#X obj 128 100 step \$0 2;
#X obj 142 100 step \$0 3;
#X obj 156 100 step \$0 4;
#X obj 170 100 step \$0 5;
#X obj 184 100 step \$0 6;
#X obj 198 100 step \$0 7;
#X obj 212 100 step \$0 8;
#X obj 226 100 step \$0 9;
#X obj 240 100 step \$0 10;
#X obj 254 100 step \$0 11;
#X obj 268 100 step \$0 12;
#X obj 282 100 step \$0 13;
#X obj 296 100 step \$0 14;
#X obj 310 100 step \$0 15;
#X obj 324 100 step \$0 16;
#X obj 338 100 step \$0 17;
#X obj 352 100 step \$0 18;
#X obj 366 100 step \$0 19;
#X obj 380 100 step \$0 20;
#X obj 394 100 step \$0 21;
#X obj 408 100 step \$0 22;
#X obj 422 100 step \$0 23;
#X obj 436 100 step \$0 24;
#X obj 450 100 step \$0 25;
#X obj 464 100 step \$0 26;
#X obj 478 100 step \$0 27;
#X obj 492 100 step \$0 28;
#X obj 506 100 step \$0 29;
#X obj 520 100 step \$0 30;
#X obj 534 100 step \$0 31;
#X coords 0 -1 1 1 448 200 2 100 100;
#X restore 179 358 pd controls;
#X obj 843 262 / 2;
#X obj 755 280 f 0;
#X obj 787 280 + 1;
#X obj 928 495 sel 1;
#X obj 928 518 b;
#X obj 933 549 outlet;
#X obj 754 309 mod 2;
#X obj 754 332 sel 1;
#X obj 754 355 b;
#X obj 1043 552 outlet;
#X obj 1100 419 mod 2;
#X obj 1100 442 sel 1;
#X obj 1100 465 b;
#X obj 1096 549 outlet;
#X obj 754 676 *~ 0.77;
#X obj 1151 546 outlet;
#X connect 2 0 34 0;
#X connect 3 0 38 0;
#X connect 4 0 3 0;
#X connect 5 0 37 0;
#X connect 6 0 7 0;
#X connect 6 0 15 0;
#X connect 7 0 6 1;
#X connect 8 0 2 0;
#X connect 9 0 10 0;
#X connect 9 0 51 0;
#X connect 10 0 44 0;
#X connect 10 0 49 0;
#X connect 11 0 48 0;
#X connect 11 0 63 0;
#X connect 13 0 21 0;
#X connect 13 1 14 0;
#X connect 13 2 19 0;
#X connect 14 0 22 0;
#X connect 15 0 8 0;
#X connect 15 0 58 0;
#X connect 16 0 45 0;
#X connect 16 1 45 1;
#X connect 18 0 11 0;
#X connect 19 0 23 0;
#X connect 34 0 35 0;
#X connect 34 1 13 0;
#X connect 37 0 36 0;
#X connect 37 1 17 0;
#X connect 38 0 5 0;
#X connect 39 0 30 0;
#X connect 39 0 31 0;
#X connect 39 0 32 0;
#X connect 39 0 33 0;
#X connect 41 0 4 0;
#X connect 42 0 9 0;
#X connect 45 0 62 0;
#X connect 46 0 2 0;
#X connect 48 0 10 1;
#X connect 49 0 50 0;
#X connect 49 0 54 0;
#X connect 50 0 49 1;
#X connect 51 0 52 0;
#X connect 52 0 53 0;
#X connect 54 0 55 0;
#X connect 55 0 56 0;
#X connect 56 0 6 0;
#X connect 56 0 57 0;
#X connect 58 0 59 0;
#X connect 59 0 60 0;
#X connect 60 0 61 0;
#X connect 62 0 40 0;
#X coords 0 -1 1 1 540 470 1 100 100;
#X restore 774 446 pd beatslicere;
#N canvas 0 558 715 508 OSC_out 0;
#X obj 148 178 oscformat /test;
#X obj 148 202 list prepend send;
#X floatatom 148 156 5 0 0 0 - - -;
#X obj 148 225 list trim;
#X obj 148 256 netsend -u -b;
#X msg 55 120 connect 192.168.1.246 9999;
#X obj 148 26 inlet;
#X obj 68 98 loadbang;
#X obj 262 208 list prepend send;
#X floatatom 262 162 5 0 0 0 - - -;
#X obj 262 231 list trim;
#X obj 262 184 oscformat /demo;
#X obj 273 34 inlet;
#X connect 0 0 1 0;
#X connect 1 0 3 0;
#X connect 2 0 0 0;
#X connect 3 0 4 0;
#X connect 5 0 4 0;
#X connect 6 0 2 0;
#X connect 7 0 5 0;
#X connect 8 0 10 0;
#X connect 9 0 11 0;
#X connect 10 0 4 0;
#X connect 11 0 8 0;
#X connect 12 0 9 0;
#X restore 814 381 pd OSC_out;
#X floatatom 815 359 5 0 0 0 - - -;
#X obj 374 385 r snare;
#X obj 538 386 r hat;
#X obj 427 385 r clap;
#X obj 686 385 r ride;
#X obj 579 385 r perc1;
#X obj 633 386 r perc2;
#X obj 733 384 r crash;
#X obj 472 386 r rimshot;
#X obj 214 360 tapeloop2~, f 16;
#X obj 237 210 tgl 15 0 empty empty empty 17 7 0 10 -262144 -1 -1 0
1;
#X floatatom 283 295 5 0 0 0 - - -;
#X obj 307 337 bng 15 250 50 0 empty empty empty 17 7 0 10 -262144
-1 -1;
#X text 325 335 clear;
#X obj 260 248 tgl 15 0 empty empty empty 17 7 0 10 -262144 -1 -1 0
1;
#X text 257 208 record;
#X text 282 245 play;
#X text 322 295 buffer length;
#N canvas 0 69 450 300 autostop_record 0;
#X obj 71 74 sel 1;
#X msg 95 189 0;
#X msg 49 187 1;
#X obj 68 102 bng 15 250 50 0 empty empty empty 17 7 0 10 -262144 -1
-1;
#X obj 46 145 bng 15 250 50 0 empty empty empty 17 7 0 10 -262144 -1
-1;
#X obj 67 123 delay 100;
#X obj 68 148 t b b;
#X obj 17 15 inlet;
#X obj 182 30 inlet;
#X obj 95 215 outlet;
#X obj 67 248 outlet;
#X connect 0 0 3 0;
#X connect 1 0 9 0;
#X connect 2 0 10 0;
#X connect 3 0 5 0;
#X connect 5 0 4 0;
#X connect 5 0 6 0;
#X connect 6 0 2 0;
#X connect 6 1 1 0;
#X connect 7 0 0 0;
#X connect 8 0 5 1;
#X restore 533 256 pd autostop_record;
#X obj 636 231 * 32;
#X text 675 228 record length;
#X obj 880 221 print;
#X obj 812 70 bng 15 250 50 0 empty empty empty 17 7 0 10 -262144 -1
-1;
#X obj 874 183 js ./library/constrainedseq.js;
#X floatatom 992 154 5 0 0 0 - - -;
#X floatatom 1053 158 5 0 0 0 - - -;
#X obj 947 309 m-poly~;
#X obj 1237 91 s decay;
#X floatatom 1203 67 5 0 0 0 - - -;
#X msg 964 61 60 \, 65 \, 70 \, 80 \, 84;
#X obj 973 268 + 12;
#X floatatom 986 238 5 0 0 0 - - -;
#X obj 537 43 m-acid;
#X msg 539 16 40;
#N canvas 217 69 1068 584 yellotron 0;
#N canvas 417 264 450 403 armoire 0;
#X obj 20 36 table tab_43;
#X obj 20 55 table tab_44;
#X obj 20 74 table tab_45;
#X obj 20 93 table tab_46;
#X obj 20 112 table tab_47;
#X obj 20 131 table tab_48;
#X obj 20 150 table tab_49;
#X obj 20 169 table tab_50;
#X obj 20 188 table tab_51;
#X obj 20 207 table tab_52;
#X obj 20 226 table tab_53;
#X obj 20 245 table tab_54;
#X obj 20 264 table tab_55;
#X obj 105 36 table tab_56;
#X obj 105 55 table tab_57;
#X obj 105 74 table tab_58;
#X obj 105 93 table tab_59;
#X obj 105 112 table tab_60;
#X obj 105 131 table tab_61;
#X obj 105 150 table tab_62;
#X obj 105 169 table tab_63;
#X obj 105 188 table tab_64;
#X obj 105 207 table tab_65;
#X obj 105 226 table tab_66;
#X obj 105 245 table tab_67;
#X obj 105 264 table tab_68;
#X obj 190 36 table tab_69;
#X obj 190 55 table tab_70;
#X obj 190 74 table tab_71;
#X obj 190 93 table tab_72;
#X obj 190 112 table tab_73;
#X obj 190 131 table tab_74;
#X obj 190 150 table tab_75;
#X obj 190 169 table tab_76;
#X obj 190 188 table tab_77;
#X restore 1057 493 pd armoire;
#N canvas 65 200 763 567 armement 0;
#X obj 198 507 soundfiler;
#X obj 244 339 until;
#X obj 245 413 textfile;
#X msg 311 389 rewind;
#X msg 244 362 bang;
#X obj 244 277 pipe 1;
#X msg 280 360 read notemap.txt cr;
#X obj 198 448 unpack s f;
#X obj 198 468 pack s s f;
#X obj 181 246 symbol;
#X obj 244 256 t s b;
#X obj 244 295 t b b;
#X msg 198 488 read -resize ./\$2/\$1 tab_\$3;
#X msg 244 319 35;
#X obj 181 18 inlet;
#X symbolatom 106 133 10 0 0 0 - - -;
#X obj 214 49 sel 0 1 2 3 4 5 6 7 8 9;
#X msg 271 200 Cello;
#X msg 207 86 MKIIFlute;
#X msg 295 243 CombinedChoir;
#X msg 248 155 MKIIViolin;
#X msg 283 222 StringSection;
#X msg 330 124 Woodwind;
#X msg 345 151 GC3Brass;
#X msg 220 109 M300A;
#X msg 232 133 M300B;
#X msg 260 178 MKIIBrass;
#X text 430 44 Here we load the choosen instrument into;
#X text 431 57 the bank of tables.;
#X text 431 73 The sound samples for each note have to;
#X text 430 87 be in folders located in the same folder;
#X text 431 102 as yellotron.pd.;
#X text 431 117 The samples (named C \, C# \, B...) are mapped;
#X text 431 130 to midi notes (60 \, 61 \, 62...) as per the information
;
#X text 431 144 contained in notemap.txt .;
#X text 104 115 Instrument;
#X connect 1 0 4 0;
#X connect 2 0 7 0;
#X connect 3 0 2 0;
#X connect 4 0 2 0;
#X connect 5 0 11 0;
#X connect 6 0 2 0;
#X connect 7 0 8 0;
#X connect 7 1 8 2;
#X connect 8 0 12 0;
#X connect 9 0 8 1;
#X connect 9 0 10 0;
#X connect 9 0 15 0;
#X connect 10 0 5 0;
#X connect 10 1 6 0;
#X connect 11 0 13 0;
#X connect 11 1 3 0;
#X connect 12 0 0 0;
#X connect 13 0 1 0;
#X connect 14 0 16 0;
#X connect 16 0 18 0;
#X connect 16 1 24 0;
#X connect 16 2 25 0;
#X connect 16 3 20 0;
#X connect 16 4 26 0;
#X connect 16 5 17 0;
#X connect 16 6 21 0;
#X connect 16 7 19 0;
#X connect 16 8 22 0;
#X connect 16 9 23 0;
#X connect 17 0 9 0;
#X connect 18 0 9 0;
#X connect 19 0 9 0;
#X connect 20 0 9 0;
#X connect 21 0 9 0;
#X connect 22 0 9 0;
#X connect 23 0 9 0;
#X connect 24 0 9 0;
#X connect 25 0 9 0;
#X connect 26 0 9 0;
#X coords 0 -1 1 1 85 60 2 100 100;
#X restore 110 234 pd armement;
#X obj 568 416 keyup;
#X obj 472 419 key;
#N canvas 319 350 450 345 convert 0;
#X obj 147 81 inlet;
#X obj 33 183 sel 113 122 115 101 100 102 116 103;
#X msg 18 229 0;
#X msg 32 262 1;
#X msg 55 232 2;
#X msg 72 264 3;
#X msg 96 232 4;
#X msg 117 261 5;
#X msg 140 231 6;
#X msg 163 259 7;
#X obj 176 134 sel 121 104 117 106 107 111 108 112 109;
#X msg 219 235 8;
#X msg 236 260 9;
#X msg 262 235 10;
#X msg 279 260 11;
#X msg 304 235 12;
#X msg 321 260 13;
#X msg 348 234 14;
#X msg 365 259 15;
#X msg 390 234 16;
#X obj 160 309 outlet;
#X text 27 15 This was desgined to play on an AZERTY keyboard \, with
the letter "q" mapped to the note C.;
#X text 27 42 For another keyboard layout you'll have to change the
numbers in the [sel] objects.;
#X connect 0 0 1 0;
#X connect 0 0 10 0;
#X connect 1 0 2 0;
#X connect 1 1 3 0;
#X connect 1 2 4 0;
#X connect 1 3 5 0;
#X connect 1 4 6 0;
#X connect 1 5 7 0;
#X connect 1 6 8 0;
#X connect 1 7 9 0;
#X connect 2 0 20 0;
#X connect 3 0 20 0;
#X connect 4 0 20 0;
#X connect 5 0 20 0;
#X connect 6 0 20 0;
#X connect 7 0 20 0;
#X connect 8 0 20 0;
#X connect 9 0 20 0;
#X connect 10 0 11 0;
#X connect 10 1 12 0;
#X connect 10 2 13 0;
#X connect 10 3 14 0;
#X connect 10 4 15 0;
#X connect 10 5 16 0;
#X connect 10 6 17 0;
#X connect 10 7 18 0;
#X connect 10 8 19 0;
#X connect 11 0 20 0;
#X connect 12 0 20 0;
#X connect 13 0 20 0;
#X connect 14 0 20 0;
#X connect 15 0 20 0;
#X connect 16 0 20 0;
#X connect 17 0 20 0;
#X connect 18 0 20 0;
#X connect 19 0 20 0;
#X restore 466 443 pd convert keys;
#N canvas 320 390 450 300 convert 0;
#X obj 147 21 inlet;
#X obj 33 123 sel 113 122 115 101 100 102 116 103;
#X msg 18 169 0;
#X msg 32 202 1;
#X msg 55 172 2;
#X msg 72 204 3;
#X msg 96 172 4;
#X msg 117 201 5;
#X msg 140 171 6;
#X msg 163 199 7;
#X obj 176 74 sel 121 104 117 106 107 111 108 112 109;
#X msg 219 175 8;
#X msg 236 200 9;
#X msg 262 175 10;
#X msg 279 200 11;
#X msg 304 175 12;
#X msg 321 200 13;
#X msg 348 174 14;
#X msg 365 199 15;
#X msg 390 174 16;
#X obj 160 249 outlet;
#X connect 0 0 1 0;
#X connect 0 0 10 0;
#X connect 1 0 2 0;
#X connect 1 1 3 0;
#X connect 1 2 4 0;
#X connect 1 3 5 0;
#X connect 1 4 6 0;
#X connect 1 5 7 0;
#X connect 1 6 8 0;
#X connect 1 7 9 0;
#X connect 2 0 20 0;
#X connect 3 0 20 0;
#X connect 4 0 20 0;
#X connect 5 0 20 0;
#X connect 6 0 20 0;
#X connect 7 0 20 0;
#X connect 8 0 20 0;
#X connect 9 0 20 0;
#X connect 10 0 11 0;
#X connect 10 1 12 0;
#X connect 10 2 13 0;
#X connect 10 3 14 0;
#X connect 10 4 15 0;
#X connect 10 5 16 0;
#X connect 10 6 17 0;
#X connect 10 7 18 0;
#X connect 10 8 19 0;
#X connect 11 0 20 0;
#X connect 12 0 20 0;
#X connect 13 0 20 0;
#X connect 14 0 20 0;
#X connect 15 0 20 0;
#X connect 16 0 20 0;
#X connect 17 0 20 0;
#X connect 18 0 20 0;
#X connect 19 0 20 0;
#X restore 562 443 pd convert keys;
#X obj 276 589 pack 0 0 0;
#X obj 466 507 t f b;
#X msg 493 528 50;
#X obj 514 507 t f b;
#X msg 541 528 0;
#X obj 274 611 route 1 2 3 4 5 6;
#X obj 868 447 s release;
#X obj 114 162 hsl 128 15 10 1000 0 0 empty empty empty -2 -8 0 10
-262144 -1 -1 12700 1;
#X floatatom 916 428 5 0 0 0 - - -;
#X obj 868 472 hradio 15 1 0 2 empty empty empty 0 -8 0 10 -262144
-1 -1 0;
#X obj 868 492 * 12;
#X obj 466 485 + 48;
#X obj 562 483 + 48;
#X obj 868 514 + 48;
#X obj 830 180 loadbang;
#X obj 868 534 s octave;
#X obj 583 462 r octave;
#X obj 271 143 vradio 15 1 0 10 empty empty empty 0 -8 0 10 -262144
-1 -1 8;
#X text 292 143 MkII Flute;
#X text 292 157 M300A;
#X text 292 172 M300B;
#X text 292 187 MkII Violin;
#X text 292 203 MkII Brass;
#X text 292 218 Cello;
#X text 292 232 String Section;
#X text 292 248 Combined Choir;
#X text 292 263 Woodwind;
#X text 292 278 GC3 Brass;
#X obj 114 200 hsl 128 15 0 0.125 0 0 empty empty empty -2 -8 0 10
-262144 -1 -1 6500 1;
#X obj 867 632 s pitch;
#X obj 867 607 - 0.0625;
#X obj 331 498 notein;
#X obj 466 589 pack 0 0 0;
#X obj 464 611 route 1 2 3 4 5 6;
#X obj 466 564 poly 6;
#X obj 278 499 poly 6;
#X obj 556 699 yelloscillator;
#X obj 811 531 bendin;
#X obj 811 551 / 16383;
#X obj 811 570 / 8;
#X obj 306 757 *~ 0.3;
#X text 1039 445 This is where all the notes;
#X text 1040 460 for the instrument are stored;
#X text 1040 474 in tables.;
#X text 656 698 The audio happens here (inidivual notes are played
;
#X text 655 713 and then summed together before being sent to the audio
output (dac).;
#X obj 868 382 r set-release;
#X obj 867 566 r set-pitch;
#X floatatom 807 658 5 0 0 0 - - -;
#X obj 266 699 yelloscillator;
#X obj 365 699 yelloscillator;
#X obj 316 725 yelloscillator;
#X obj 409 725 yelloscillator;
#X obj 463 699 yelloscillator;
#X text 961 819 Pierre Massat \, Guitar Extended \, 2014;
#X text 268 120 Choose an instrument.;
#X obj 935 87 loadbang;
#X msg 934 112 2;
#X obj 37 38 cnv 15 100 60 empty empty empty 20 12 0 14 -233017 -66577
0;
#X text 109 142 Release;
#X text 110 181 Pitch;
#X text 107 125 Yellotron..........................;
#X msg 830 201 \; set-release 200 \; set-pitch 0.0625;
#X obj 306 780 outlet~;
#X obj 276 8 inlet;
#X obj 310 33 inlet;
#X obj 355 58 declare -path ./Yellotron;
#X connect 4 0 17 0;
#X connect 5 0 18 0;
#X connect 6 0 11 0;
#X connect 7 0 40 0;
#X connect 7 1 8 0;
#X connect 8 0 40 1;
#X connect 9 0 40 0;
#X connect 9 1 10 0;
#X connect 10 0 40 1;
#X connect 11 0 55 0;
#X connect 11 1 56 0;
#X connect 11 2 57 0;
#X connect 11 3 58 0;
#X connect 11 4 59 0;
#X connect 11 5 42 0;
#X connect 13 0 14 0;
#X connect 13 0 12 0;
#X connect 15 0 16 0;
#X connect 16 0 19 0;
#X connect 17 0 7 0;
#X connect 18 0 9 0;
#X connect 19 0 21 0;
#X connect 20 0 68 0;
#X connect 22 0 18 1;
#X connect 22 0 17 1;
#X connect 23 0 1 0;
#X connect 34 0 36 0;
#X connect 36 0 35 0;
#X connect 36 0 54 0;
#X connect 38 0 39 0;
#X connect 39 0 55 1;
#X connect 39 1 56 1;
#X connect 39 2 59 1;
#X connect 39 3 42 1;
#X connect 39 4 57 1;
#X connect 39 5 58 1;
#X connect 40 0 38 0;
#X connect 40 1 38 1;
#X connect 40 2 38 2;
#X connect 41 0 6 0;
#X connect 41 1 6 1;
#X connect 41 2 6 2;
#X connect 42 0 46 0;
#X connect 43 0 44 0;
#X connect 44 0 45 0;
#X connect 45 0 34 0;
#X connect 46 0 69 0;
#X connect 52 0 13 0;
#X connect 53 0 34 0;
#X connect 55 0 46 0;
#X connect 56 0 46 0;
#X connect 57 0 46 0;
#X connect 58 0 46 0;
#X connect 59 0 46 0;
#X connect 62 0 63 0;
#X connect 63 0 23 0;
#X connect 70 0 41 0;
#X connect 71 0 41 1;
#X coords 0 -1 1 1 300 200 1 100 100;
#X restore 97 682 pd yellotron;
#X obj 42 633 makenote 127 500;
#X floatatom 37 578 5 0 0 0 - - -;
#X msg 931 14 60 65 70 80 84;
#X obj 1134 305 sequencer;
#X floatatom 1132 330 5 0 0 0 - - -;
#X msg 1187 267 4 - 0 - 6 5 0 5 4 4 3 5 0 - - 1;
#X obj 1060 248 metro 1999;
#X obj 1062 230 tgl 15 0 empty empty empty 17 7 0 10 -262144 -1 -1
0 1;
#X obj 930 259 + 12;
#X obj 1142 209 pipe;
#X obj 1187 226 pipe;
#X obj 1222 154 / 2;
#X obj 1220 375 m-blip~;
#X obj 1224 346 bng 15 250 50 0 empty empty empty 17 7 0 10 -262144
-1 -1;
#X obj 1283 343 bng 15 250 50 0 empty empty empty 17 7 0 10 -262144
-1 -1;
#X obj 1279 372 m-murky~;
#X obj 1351 340 bng 15 250 50 0 empty empty empty 17 7 0 10 -262144
-1 -1;
#X obj 1347 369 m-noiseburst~;
#X obj 622 142 m-hoover~;
#X floatatom 622 85 5 0 0 0 - - -;
#X floatatom 669 106 5 0 0 0 - - -;
#X obj 727 156 m-plucked~;
#X floatatom 728 135 5 0 0 0 - - -;
#X obj 786 114 / 100;
#X floatatom 787 137 5 0 1 0 - - -;
#X floatatom 741 42 5 0 100 0 - - -;
#N canvas 0 96 516 377 _imports 1;
#X obj 14 38 declare -path ./sounds;
#X obj 14 14 declare -path ./library;
#X obj 14 148 declare -path pdjs;
#X obj 14 124 declare -path else;
#X obj 10 85 declare -path ./instruments/beatslicer;
#X obj 11 63 declare -path ./instruments/fm;
#X obj 170 30 declare -path ./instruments/sub;
#X obj 134 107 declare -path ./instruments/poly;
#X obj 12 178 declare -path ./instruments/acid;
#X obj 12 201 declare -path ./instruments/dx7;
#X obj 154 135 declare -path ./instruments/yellotron;
#X obj 17 225 declare -path ./instruments/fx;
#X obj 12 257 declare -path ./instruments/hoover;
#X obj 220 163 declare -path ./instruments/plucked;
#X obj 220 194 declare -path ./instruments/wavetable;
#X restore 10 13 pd _imports;
#X floatatom 123 153 5 0 0 0 BPM - -;
#X obj 128 103 loadbang;
#X floatatom 38 257 5 0 0 0 - - -;
#X obj 54 199 bng 15 250 50 0 empty empty empty 17 7 0 10 -262144 -1
-1;
#X obj 75 199 bng 15 250 50 0 empty empty empty 17 7 0 10 -262144 -1
-1;
#X msg 127 128 130;
#X obj 95 199 bng 15 250 50 0 empty empty empty 17 7 0 10 -262144 -1
-1;
#X floatatom 118 200 5 0 0 0 - - -;
#X floatatom 35 150 5 0 0 0 - - -;
#X obj 38 175 m-metro;
#X text 29 119 set an index;
#X text 153 172 it will wait until beat 1 to select the index;
#X connect 2 0 3 0;
#X connect 2 0 0 0;
#X connect 2 0 0 1;
#X connect 2 0 22 0;
#X connect 4 0 7 0;
#X connect 6 0 8 0;
#X connect 9 0 2 0;
#X connect 10 0 9 0;
#X connect 11 0 2 0;
#X connect 11 2 5 0;
#X connect 11 3 4 0;
#X connect 11 4 6 0;
#X connect 11 5 32 0;
#X connect 13 0 12 0;
#X connect 22 0 0 0;
#X connect 22 0 0 1;
#X connect 23 0 22 1;
#X connect 23 0 31 0;
#X connect 24 0 22 3;
#X connect 25 0 22 4;
#X connect 27 0 22 2;
#X connect 31 0 27 0;
#X connect 31 1 23 0;
#X connect 32 0 31 1;
#X connect 32 0 24 0;
#X connect 35 0 36 0;
#X connect 36 0 34 0;
#X connect 36 0 51 1;
#X connect 37 0 36 2;
#X connect 38 0 36 3;
#X connect 39 0 2 0;
#X connect 41 0 40 0;
#X connect 41 0 57 1;
#X connect 41 0 59 0;
#X connect 42 0 56 0;
#X connect 43 0 49 0;
#X connect 44 0 43 1;
#X connect 44 0 56 1;
#X connect 45 0 2 0;
#X connect 46 0 45 0;
#X connect 47 0 2 0;
#X connect 48 0 47 0;
#X connect 48 1 47 1;
#X connect 49 0 48 0;
#X connect 50 0 36 1;
#X connect 51 0 52 0;
#X connect 52 0 43 0;
#X connect 53 0 51 1;
#X connect 54 0 51 0;
#X connect 54 0 42 0;
#X connect 55 0 54 0;
#X connect 56 0 39 0;
#X connect 56 0 57 0;
#X connect 57 0 39 0;
#X connect 57 0 58 0;
#X connect 58 0 39 0;
#X connect 59 0 58 1;
#X connect 60 0 2 0;
#X connect 61 0 60 0;
#X connect 62 0 63 0;
#X connect 63 0 2 0;
#X connect 64 0 65 0;
#X connect 65 0 2 0;
#X connect 66 0 2 0;
#X connect 67 0 66 0;
#X connect 68 0 66 1;
#X connect 69 0 2 0;
#X connect 70 0 69 0;
#X connect 71 0 72 0;
#X connect 72 0 69 1;
#X connect 73 0 71 0;
#X connect 75 0 84 1;
#X connect 76 0 80 0;
#X connect 80 0 75 0;
#X connect 83 0 84 0;
#X connect 84 0 77 0;
#X connect 84 1 78 0;
#X connect 84 2 79 0;
#X connect 84 3 81 0;
#X connect 84 4 82 0;
