#N canvas 1 62 1438 837 10;
#X declare -path ./sounds;
#X declare -path ./library;
#X declare -path pdjs;
#X declare -path else;
#X declare -path ./instruments/beatslicer;
#X declare -path ./instruments/fm;
#X declare -path ./instruments/sub;
#X declare -path ./instruments/poly;
#X declare -path ./instruments/acid;
#X declare -path ./instruments/dx7;
#X declare -path ./instruments/fmbass;
#X declare -path ./instruments/yellotron;
#X declare -path ./Yellotron;
#X obj 63 1027 dac~;
#X text 34 1027 fake;
#X obj 86 878 *~ 0.8;
#N canvas 281 187 630 372 spectrolog 0;
#N canvas 556 61 872 789 FFT_Analyse 0;
#X obj 101 102 inlet~;
#X obj 101 332 *~;
#X obj 132 331 *~;
#X obj 101 356 +~;
#X obj 102 377 powtodb~;
#N canvas 0 22 346 535 init_input_window 0;
#X obj 73 217 / 10;
#X obj 55 278 line 0 0.1;
#X msg 119 246 0;
#X obj 54 176 t f f b;
#X obj 54 239 pack;
#X obj 55 301 t f f;
#X obj 54 152 - 1;
#X obj 74 114 t f f;
#X obj 55 359 * 3.14159;
#X obj 55 381 sin;
#X msg 55 401 \$1 \$1;
#X obj 55 423 *;
#X text 119 334 0...0.99;
#X text 128 359 0...pi;
#X text 79 423 hanning;
#X msg 55 88 4096;
#X obj 100 88 f 4096;
#X obj 99 60 bng 15 250 50 0 empty empty empty 0 -6 0 8 -262144 -1
-1;
#X obj 99 39 loadbang;
#X obj 74 333 / 4096;
#X obj 55 448 tabwrite \$0-window;
#X text 86 381 half-sine;
#X connect 0 0 4 1;
#X connect 1 0 5 0;
#X connect 2 0 1 0;
#X connect 3 0 4 0;
#X connect 3 1 0 0;
#X connect 3 2 2 0;
#X connect 4 0 1 0;
#X connect 5 0 19 0;
#X connect 5 1 20 1;
#X connect 6 0 3 0;
#X connect 7 0 6 0;
#X connect 7 1 19 1;
#X connect 8 0 9 0;
#X connect 9 0 10 0;
#X connect 10 0 11 0;
#X connect 11 0 20 0;
#X connect 15 0 7 0;
#X connect 16 0 7 0;
#X connect 17 0 16 0;
#X connect 18 0 17 0;
#X connect 19 0 8 0;
#X restore 161 276 pd init_input_window;
#N canvas 0 22 450 300 (subpatch) 0;
#X array \$0-lin_scope 2048 float 0;
#X coords 0 100 2047 0 200 140 1;
#X restore 110 621 graph;
#N canvas 0 22 822 328 init_norm 0;
#X obj 43 230 outlet;
#X obj 43 187 - 100;
#X floatatom 43 208 9 0 0 0 - - -;
#X text 108 169 leistung - techn. dB;
#X msg 43 69 4096;
#X obj 80 68 f 4096;
#X obj 80 47 bng 15 250 50 0 empty empty empty 0 -6 0 8 -262144 -1
-1;
#X obj 80 26 loadbang;
#X obj 43 167 rmstodb;
#X obj 43 110 / 4;
#X text 74 103 faktor 2 wegen hanning;
#X text 74 114 weiterer faktor 2 \, weil wir nur die;
#X text 73 124 erste haelfte des konjungiert komplexen spektrum sehen
;
#X text 108 135 bzw. bearbeiten \, somit nur die haelfte der spektralen
energie;
#X connect 1 0 2 0;
#X connect 2 0 0 0;
#X connect 4 0 9 0;
#X connect 5 0 9 0;
#X connect 6 0 5 0;
#X connect 7 0 6 0;
#X connect 8 0 1 0;
#X connect 9 0 8 0;
#X restore 153 421 pd init_norm;
#X obj 100 231 *~;
#X obj 102 443 -~ 60.206;
#X obj 113 517 *~ 0.98;
#X obj 100 539 +~;
#X obj 101 471 *~ 0.02;
#X msg 314 481 1 \$1;
#X obj 314 502 -;
#X obj 314 458 clip 0 1;
#X obj 314 437 / 100;
#X floatatom 314 413 5 0.5 100 0 - - -;
#X obj 333 366 loadbang;
#X obj 100 277 fft~;
#X obj 463 557 line 0 0.1;
#X obj 463 602 / 2;
#X obj 463 622 mtof;
#X msg 463 536 6 \, 273 26.7;
#X obj 463 580 t f f;
#X obj 494 602 - 6;
#X obj 463 642 / 44100;
#X obj 463 663 * 4096;
#X msg 656 633 6;
#X obj 656 653 / 2;
#X obj 656 673 mtof;
#X floatatom 656 693 9 0 0 0 - - -;
#X text 723 694 Hz;
#X obj 754 654 / 2;
#X obj 754 673 mtof;
#X floatatom 754 693 9 0 0 0 - - -;
#X text 822 693 Hz;
#X msg 754 634 273;
#X obj 656 612 t b b;
#X obj 463 498 tgl 15 0 empty empty empty 0 -6 0 8 -262144 -1 -1 1
1;
#X obj 463 458 loadbang;
#X msg 463 478 1;
#X obj 656 592 loadbang;
#X obj 468 245 loadbang;
#X obj 703 102 inlet;
#X obj 130 253 table \$0-window 4096;
#X obj 137 214 tabreceive~ \$0-window;
#X text 353 403 temporal lowpass;
#X text 355 415 parameter between 0 .. 100 %;
#X text 23 23 spectrum~;
#X text 120 23 draws the power of a spectrum in a logarithmic scale
;
#X text 118 36 (by Thomas Musil);
#X obj 113 496 tabreceive~ \$0-lin_scope;
#X obj 100 564 tabsend~ \$0-lin_scope;
#X obj 463 685 tabread4 \$0-lin_scope;
#X obj 468 267 f \$0;
#X text 553 536 transformation to log scale;
#X msg 333 385 100;
#X obj 314 341 max 0.5;
#X obj 314 319 min 100;
#X obj 440 107 inlet;
#X text 96 81 audio sig;
#X text 700 81 ON/OFF;
#X text 427 86 (0 .. 100);
#X text 408 72 temporal lowpass;
#X obj 533 244 bng 15 250 50 0 empty empty empty 0 -6 0 8 -262144 -1
-1;
#X obj 463 735 tabwrite \$0-s;
#X msg 468 296 \; \$1-s xticks 0 12 2;
#X msg 491 330 \; \$1-s yticks 0 5 2;
#X obj 462 516 metro 100;
#X obj 704 166 switch~ 4096 2;
#X obj 463 711 clip 0 100;
#X obj 773 101 loadbang;
#X msg 773 123 1;
#X connect 0 0 8 0;
#X connect 1 0 3 0;
#X connect 2 0 3 1;
#X connect 3 0 4 0;
#X connect 4 0 9 0;
#X connect 7 0 9 1;
#X connect 8 0 19 0;
#X connect 9 0 12 0;
#X connect 10 0 11 1;
#X connect 11 0 53 0;
#X connect 12 0 11 0;
#X connect 13 0 14 0;
#X connect 14 0 10 1;
#X connect 15 0 13 0;
#X connect 15 0 12 1;
#X connect 16 0 15 0;
#X connect 17 0 16 0;
#X connect 18 0 57 0;
#X connect 19 0 1 0;
#X connect 19 0 1 1;
#X connect 19 1 2 0;
#X connect 19 1 2 1;
#X connect 20 0 24 0;
#X connect 21 0 22 0;
#X connect 22 0 26 0;
#X connect 23 0 20 0;
#X connect 24 0 21 0;
#X connect 24 1 25 0;
#X connect 25 0 66 1;
#X connect 26 0 27 0;
#X connect 27 0 54 0;
#X connect 28 0 29 0;
#X connect 29 0 30 0;
#X connect 30 0 31 0;
#X connect 33 0 34 0;
#X connect 34 0 35 0;
#X connect 37 0 33 0;
#X connect 38 0 28 0;
#X connect 38 1 37 0;
#X connect 39 0 69 0;
#X connect 40 0 41 0;
#X connect 41 0 39 0;
#X connect 42 0 38 0;
#X connect 43 0 55 0;
#X connect 44 0 70 0;
#X connect 46 0 8 1;
#X connect 52 0 10 0;
#X connect 54 0 71 0;
#X connect 55 0 67 0;
#X connect 55 0 68 0;
#X connect 57 0 17 0;
#X connect 58 0 17 0;
#X connect 59 0 58 0;
#X connect 60 0 59 0;
#X connect 65 0 55 0;
#X connect 69 0 23 0;
#X connect 71 0 66 0;
#X connect 72 0 73 0;
#X connect 73 0 70 0;
#X restore 17 320 pd FFT_Analyse;
#X obj 63 299 inlet;
#X obj 17 299 inlet~;
#X obj 110 299 inlet;
#N canvas 0 22 450 300 (subpatch) 0;
#X array \$0-s 268 float 0;
#X coords 0 100 267 0 267 140 1;
#X restore 23 27 graph;
#X obj 297 42 cnv 15 1 1 empty empty -10 0 0 0 10 -262144 -1 0;
#X obj 297 154 cnv 15 1 1 empty empty -90 0 0 0 10 -262144 -1 0;
#X obj 297 98 cnv 15 1 1 empty empty -50 0 0 0 10 -262144 -1 0;
#X obj 297 70 cnv 15 1 1 empty empty -30 0 0 0 10 -262144 -1 0;
#X obj 297 126 cnv 15 1 1 empty empty -70 0 0 0 10 -262144 -1 0;
#X obj 18 171 cnv 15 1 1 empty empty 10 0 5 0 10 -262144 -1 0;
#X obj 66 171 cnv 15 1 1 empty empty 40 0 5 0 10 -262144 -1 0;
#X obj 115 171 cnv 15 1 1 empty empty 160 0 5 0 10 -262144 -1 0;
#X obj 162 171 cnv 15 1 1 empty empty 640 0 5 0 10 -262144 -1 0;
#X obj 210 171 cnv 15 1 1 empty empty 2k56 0 5 0 10 -262144 -1 0;
#X obj 258 171 cnv 15 1 1 empty empty 10k2 0 5 0 10 -262144 -1 0;
#X obj 138 184 cnv 15 1 1 empty empty 320 0 5 0 10 -262144 -1 0;
#X obj 282 184 cnv 15 1 1 empty empty 20k5 0 5 0 10 -262144 -1 0;
#X obj 42 181 cnv 15 1 1 empty empty 20 0 9 0 10 -262144 -1 0;
#X obj 90 184 cnv 15 1 1 empty empty 80 0 5 0 10 -262144 -1 0;
#X obj 186 184 cnv 15 1 1 empty empty 1k28 0 5 0 10 -262144 -1 0;
#X obj 234 184 cnv 15 1 1 empty empty 5k12 0 5 0 10 -262144 -1 0;
#X obj 46 168 cnv 15 1 1 empty empty | 0 7 0 10 -262144 -1 0;
#X obj 94 168 cnv 15 1 1 empty empty | 0 7 0 10 -262144 -1 0;
#X obj 142 168 cnv 15 1 1 empty empty | 0 7 0 10 -262144 -1 0;
#X obj 190 168 cnv 15 1 1 empty empty | 0 7 0 10 -262144 -1 0;
#X obj 238 168 cnv 15 1 1 empty empty | 0 7 0 10 -262144 -1 0;
#X obj 286 168 cnv 15 1 1 empty empty | 0 7 0 10 -262144 -1 0;
#X connect 1 0 0 1;
#X connect 2 0 0 0;
#X connect 3 0 0 2;
#X coords 0 -1 1 1 330 210 1 0 0;
#X restore 120 657 pd spectrolog;
#X obj 860 1131 bng 15 250 50 0 empty empty empty 17 7 0 10 -262144
-1 -1;
#X obj 726 1131 bng 15 250 50 0 empty empty empty 17 7 0 10 -262144
-1 -1;
#X obj 994 1133 bng 15 250 50 0 empty empty empty 17 7 0 10 -262144
-1 -1;
#X obj 1517 209 sequencer;
#X floatatom 1515 234 5 0 0 0 - - -;
#N canvas 1 485 334 374 bass 0;
#X obj 32 29 inlet;
#X obj 32 184 m-sub~;
#X floatatom 32 155 5 0 0 0 - - -;
#X obj 32 215 outlet~;
#X obj 65 56 inlet;
#X connect 0 0 2 0;
#X connect 1 0 3 0;
#X connect 2 0 1 0;
#X connect 4 0 1 1;
#X restore 1458 362 pd bass;
#X obj 1510 274 +;
#X floatatom 1586 105 5 0 0 0 - - -;
#X floatatom 1654 105 5 0 0 0 - - -;
#X obj 1473 79 bng 15 250 50 0 empty empty empty 17 7 0 10 -262144
-1 -1;
#X floatatom 1718 104 5 0 0 0 - - -;
#X obj 1511 176 else/display 0 7;
#X obj 1588 31 loadbang;
#X obj 1509 148 js ./library/randseq.js, f 33;
#X floatatom 1546 271 5 0 0 0 - - -;
#X floatatom 1497 342 5 0 0 0 - - -;
#X obj 759 1166 s pulse3;
#X obj 993 1154 s pulse2;
#X obj 1589 79 unpack 0 0 0 0 0 0;
#X msg 1807 159 2 - - - 6 - - - - 2 - 4 - - - -;
#X msg 1807 186 - - - - - 0 - - 0 - - - - 0 - 3;
#X obj 1606 222 print;
#X msg 1799 212 4 - 0 - 6 5 0 5 4 4 3 5 0 - - 1;
#X msg 1819 120 - - - -;
#N canvas 66 360 651 406 drums 1;
#X obj 52 272 drumkit~, f 43;
#X floatatom 52 251 5 0 0 0 - - -;
#X floatatom 88 251 5 0 0 0 - - -;
#X floatatom 124 250 5 0 0 0 - - -;
#X floatatom 160 250 5 0 0 0 - - -;
#X floatatom 196 250 5 0 0 0 - - -;
#X floatatom 232 250 5 0 0 0 - - -;
#X floatatom 270 250 5 0 0 0 - - -;
#X floatatom 306 250 5 0 0 0 - - -;
#X obj 67 39 r kick;
#X obj 115 39 r snare;
#X obj 279 40 r hat;
#X obj 168 39 r clap;
#X obj 427 39 r ride;
#X obj 320 39 r perc1;
#X obj 374 40 r perc2;
#X obj 474 38 r crash;
#X obj 213 40 r rimshot;
#N canvas 1 96 829 296 drumseq 0;
#X obj 32 124 sequencer;
#X obj 98 125 sequencer;
#X obj 186 127 sequencer;
#X obj 185 104 r pulse3;
#X obj 278 129 sequencer;
#X obj 31 101 r pulse3;
#X obj 97 102 r pulse3;
#X obj 278 106 r pulse3;
#X obj 31 195 s kick;
#X obj 97 195 s rimshot;
#X obj 185 201 s hat;
#X obj 281 201 s snare;
#X obj 370 196 s clap;
#X obj 434 197 s ride;
#X obj 521 201 s perc1;
#X obj 617 206 s perc2;
#X obj 683 199 s crash;
#X obj 370 125 sequencer;
#X obj 436 126 sequencer;
#X obj 524 128 sequencer;
#X obj 523 105 r pulse3;
#X obj 616 130 sequencer;
#X obj 369 102 r pulse3;
#X obj 435 103 r pulse3;
#X obj 616 107 r pulse3;
#X obj 681 127 sequencer;
#X obj 681 104 r pulse3;
#X obj 79 58 r kick-seq;
#X obj 154 56 r rimshot-seq;
#X obj 197 79 r hat-seq;
#X obj 301 71 r snare-seq;
#X obj 371 42 r clap-seq;
#X obj 457 61 r ride-seq;
#X obj 543 61 r perc1-seq;
#X obj 620 33 r perc2-seq;
#X obj 724 76 r crash-seq;
#X connect 0 0 8 0;
#X connect 1 0 9 0;
#X connect 2 0 10 0;
#X connect 3 0 2 0;
#X connect 4 0 11 0;
#X connect 5 0 0 0;
#X connect 6 0 1 0;
#X connect 7 0 4 0;
#X connect 17 0 12 0;
#X connect 18 0 13 0;
#X connect 19 0 14 0;
#X connect 20 0 19 0;
#X connect 21 0 15 0;
#X connect 22 0 17 0;
#X connect 23 0 18 0;
#X connect 24 0 21 0;
#X connect 25 0 16 0;
#X connect 26 0 25 0;
#X connect 27 0 0 1;
#X connect 28 0 1 1;
#X connect 29 0 2 1;
#X connect 30 0 4 1;
#X connect 31 0 17 1;
#X connect 32 0 18 1;
#X connect 33 0 19 1;
#X connect 34 0 21 1;
#X connect 35 0 25 1;
#X restore 104 334 pd drumseq;
#X floatatom 347 250 5 0 0 0 - - -;
#X obj 126 225 i;
#X obj 125 200 b;
#X floatatom 126 135 5 0 0 0 - - -;
#X obj 161 220 i;
#X obj 160 195 b;
#X floatatom 168 135 5 0 0 0 - - -;
#X obj 89 220 i;
#X obj 88 195 b;
#X floatatom 72 138 5 0 0 0 - - -;
#X obj 54 222 i;
#X obj 53 197 b;
#X floatatom 22 134 5 0 0 0 - - -;
#X obj 233 221 i;
#X obj 232 196 b;
#X floatatom 274 133 5 0 0 0 - - -;
#X obj 272 223 i;
#X obj 271 198 b;
#X floatatom 319 132 5 0 0 0 - - -;
#X obj 309 222 i;
#X obj 308 197 b;
#X floatatom 370 131 5 0 0 0 - - -;
#X obj 348 223 i;
#X obj 347 198 b;
#X floatatom 415 133 5 0 0 0 - - -;
#N canvas 1 96 629 300 random-kit 0;
#X obj 57 20 inlet;
#X obj 55 43 b;
#X obj 15 215 outlet;
#X obj 63 214 outlet;
#X obj 111 215 outlet;
#X obj 159 214 outlet;
#X obj 203 212 outlet;
#X obj 251 211 outlet;
#X obj 299 212 outlet;
#X obj 347 211 outlet;
#X obj 405 214 outlet;
#X obj 19 143 random 1000;
#X obj 86 143 random 1000;
#X obj 155 141 random 1000;
#X obj 222 141 random 1000;
#X obj 289 139 random 1000;
#X obj 356 139 random 1000;
#X obj 425 137 random 1000;
#X obj 492 137 random 1000;
#X obj 560 136 random 1000;
#X connect 0 0 1 0;
#X connect 1 0 11 0;
#X connect 1 0 12 0;
#X connect 1 0 13 0;
#X connect 1 0 14 0;
#X connect 1 0 15 0;
#X connect 1 0 16 0;
#X connect 1 0 17 0;
#X connect 1 0 18 0;
#X connect 1 0 19 0;
#X connect 11 0 2 0;
#X connect 12 0 3 0;
#X connect 13 0 4 0;
#X connect 14 0 5 0;
#X connect 15 0 6 0;
#X connect 16 0 7 0;
#X connect 17 0 8 0;
#X connect 18 0 9 0;
#X connect 19 0 10 0;
#X restore 25 109 pd random-kit;
#X f 66;
#X obj 196 224 i;
#X obj 195 199 b;
#X floatatom 222 136 5 0 0 0 - - -;
#X obj 10 16 inlet;
#X obj 52 334 outlet~;
#X obj 53 297 *~ 1;
#X connect 0 0 50 0;
#X connect 1 0 0 0;
#X connect 2 0 0 1;
#X connect 3 0 0 2;
#X connect 4 0 0 3;
#X connect 5 0 0 4;
#X connect 6 0 0 5;
#X connect 7 0 0 6;
#X connect 8 0 0 7;
#X connect 9 0 30 0;
#X connect 10 0 27 0;
#X connect 11 0 46 0;
#X connect 12 0 21 0;
#X connect 13 0 39 0;
#X connect 14 0 33 0;
#X connect 15 0 36 0;
#X connect 16 0 42 0;
#X connect 17 0 24 0;
#X connect 19 0 0 8;
#X connect 20 0 3 0;
#X connect 21 0 20 0;
#X connect 22 0 20 1;
#X connect 23 0 4 0;
#X connect 24 0 23 0;
#X connect 25 0 23 1;
#X connect 26 0 2 0;
#X connect 27 0 26 0;
#X connect 28 0 26 1;
#X connect 29 0 1 0;
#X connect 30 0 29 0;
#X connect 31 0 29 1;
#X connect 32 0 6 0;
#X connect 33 0 32 0;
#X connect 34 0 32 1;
#X connect 35 0 7 0;
#X connect 36 0 35 0;
#X connect 37 0 35 1;
#X connect 38 0 8 0;
#X connect 39 0 38 0;
#X connect 40 0 38 1;
#X connect 41 0 19 0;
#X connect 42 0 41 0;
#X connect 43 0 41 1;
#X connect 44 0 31 0;
#X connect 44 1 28 0;
#X connect 44 2 22 0;
#X connect 44 3 25 0;
#X connect 44 4 47 0;
#X connect 44 5 34 0;
#X connect 44 6 37 0;
#X connect 44 7 40 0;
#X connect 44 8 43 0;
#X connect 45 0 5 0;
#X connect 46 0 45 0;
#X connect 47 0 45 1;
#X connect 48 0 44 0;
#X connect 50 0 49 0;
#X restore 126 970 pd drums;
#X obj 127 950 bng 15 250 50 0 empty empty empty 17 7 0 10 -262144
-1 -1;
#N canvas 64 234 1020 625 chords 0;
#X obj 88 424 makenote 100 200;
#X floatatom 85 398 5 0 0 0 - - -;
#X obj 100 355 makenote 100 200;
#X floatatom 97 329 5 0 0 0 - - -;
#X msg 383 62 50 53 57;
#X msg 380 31 38 50 53 57;
#X msg 673 335 41 44 48;
#X msg 803 336 44 47 51;
#X msg 738 334 49 52 56;
#X msg 479 41 47 48 52;
#X msg 482 69 45 48 52 55 59 62;
#X msg 493 94 47 48 52 59;
#X msg 509 196 37 42 45 52 59;
#X msg 501 146 40 45 48 55 59 62;
#X obj 93 201 unpack 0 0 0 0 0 0 0 0 0 0, f 45;
#X obj 165 324 makenote 100 200;
#X floatatom 162 298 5 0 0 0 - - -;
#X obj 258 381 makenote 100 200;
#X floatatom 255 355 5 0 0 0 - - -;
#X obj 322 351 makenote 100 200;
#X floatatom 319 325 5 0 0 0 - - -;
#N canvas 0 96 450 300 dbsp 0;
#X obj 54 91 inlet;
#X obj 181 99 inlet;
#X obj 54 210 outlet;
#X obj 181 218 outlet;
#X obj 54 147 spigot 1;
#X obj 167 151 spigot 1;
#X connect 0 0 4 0;
#X connect 1 0 5 0;
#X connect 4 0 2 0;
#X connect 5 0 3 0;
#X restore 112 456 pd dbsp;
#X obj 92 520 outlet;
#X obj 146 517 outlet;
#X obj 673 258 sequencer;
#X obj 673 286 sel 0 1 2;
#X msg 715 134 0 - - 0 - 0 - 0 - 1 - 2 - 2 - 2;
#X msg 754 223 - - - -;
#X obj 813 597 outlet;
#X obj 603 415 unpack 0 0 0;
#X floatatom 599 495 5 0 0 0 - - -;
#X floatatom 634 492 5 0 0 0 - - -;
#X floatatom 675 490 5 0 0 0 - - -;
#X obj 605 549 i;
#X obj 640 545 i;
#X obj 682 545 i;
#X obj 502 449 random 3;
#X obj 504 425 b;
#X obj 465 494 sel 0 1 2;
#X obj 600 584 + 24;
#X obj 639 580 + 24;
#X obj 677 578 + 24;
#X floatatom 740 532 5 0 0 0 - - -;
#X obj 50 276 +;
#X obj 95 276 +;
#X obj 166 260 +;
#X obj 211 260 +;
#X obj 273 272 +;
#X floatatom 78 128 5 0 0 0 - - -;
#X obj 661 222 r pulse3;
#X connect 0 0 21 0;
#X connect 0 1 21 1;
#X connect 1 0 0 0;
#X connect 2 0 21 0;
#X connect 2 1 21 1;
#X connect 3 0 2 0;
#X connect 4 0 14 0;
#X connect 5 0 14 0;
#X connect 6 0 14 0;
#X connect 6 0 29 0;
#X connect 7 0 14 0;
#X connect 7 0 29 0;
#X connect 8 0 14 0;
#X connect 8 0 29 0;
#X connect 9 0 14 0;
#X connect 10 0 14 0;
#X connect 11 0 14 0;
#X connect 12 0 14 0;
#X connect 13 0 14 0;
#X connect 14 0 43 0;
#X connect 14 1 44 0;
#X connect 14 2 45 0;
#X connect 14 3 46 0;
#X connect 14 4 47 0;
#X connect 15 0 21 0;
#X connect 15 1 21 1;
#X connect 16 0 15 0;
#X connect 17 0 21 0;
#X connect 17 1 21 1;
#X connect 18 0 17 0;
#X connect 19 0 21 0;
#X connect 19 1 21 1;
#X connect 20 0 19 0;
#X connect 21 0 22 0;
#X connect 21 1 23 0;
#X connect 24 0 25 0;
#X connect 24 0 48 0;
#X connect 26 0 24 1;
#X connect 27 0 24 1;
#X connect 29 0 30 0;
#X connect 29 0 37 0;
#X connect 29 1 31 0;
#X connect 29 2 32 0;
#X connect 30 0 33 1;
#X connect 31 0 34 1;
#X connect 32 0 35 1;
#X connect 33 0 39 0;
#X connect 34 0 40 0;
#X connect 35 0 41 0;
#X connect 36 0 38 0;
#X connect 37 0 36 0;
#X connect 38 0 33 0;
#X connect 38 1 34 0;
#X connect 38 2 35 0;
#X connect 39 0 28 0;
#X connect 40 0 28 0;
#X connect 41 0 28 0;
#X connect 42 0 41 1;
#X connect 42 0 40 1;
#X connect 42 0 39 1;
#X connect 43 0 1 0;
#X connect 44 0 3 0;
#X connect 45 0 16 0;
#X connect 46 0 18 0;
#X connect 47 0 20 0;
#X connect 48 0 43 1;
#X connect 48 0 44 1;
#X connect 48 0 45 1;
#X connect 48 0 46 1;
#X connect 48 0 47 1;
#X connect 49 0 24 0;
#X restore 141 883 pd chords;
#X f 12;
#X obj 10 78 s decay;
#X floatatom 10 56 5 0 0 0 - - -;
#N canvas 1462 96 409 934 dx7 0;
#X obj 170 48 makenote 100 200;
#X obj 9 146 m-dx7;
#X obj 13 121 pack f f;
#N canvas 607 171 450 300 chord 0;
#X msg 10 86 60;
#X obj 9 109 makenote 127 500;
#X obj 112 108 makenote 127 500;
#X msg 215 85 70;
#X msg 113 85 65;
#X obj 10 61 t b b b, f 8;
#X obj 10 39 bng 15 250 50 0 empty empty empty 17 7 0 10 -262144 -1
-1;
#X obj 215 107 makenote 127 500;
#X obj 9 13 inlet;
#X obj 8 210 outlet;
#X obj 54 210 outlet;
#X connect 0 0 1 0;
#X connect 1 0 9 0;
#X connect 1 1 10 0;
#X connect 2 0 9 0;
#X connect 2 1 10 0;
#X connect 3 0 7 0;
#X connect 4 0 2 0;
#X connect 5 0 0 0;
#X connect 5 1 4 0;
#X connect 5 2 3 0;
#X connect 6 0 5 0;
#X connect 7 0 9 0;
#X connect 7 1 10 0;
#X connect 8 0 6 0;
#X restore 172 105 pd chord;
#X obj 172 83 bng 15 250 50 0 empty empty empty 17 7 0 10 -262144 -1
-1;
#X obj 13 13 inlet;
#X obj 58 13 inlet;
#X obj 8 853 outlet~;
#X obj 8 830 *~ 0.93;
#X connect 0 0 2 0;
#X connect 0 1 2 1;
#X connect 1 0 8 0;
#X connect 2 0 1 0;
#X connect 3 0 2 0;
#X connect 3 1 2 1;
#X connect 4 0 3 0;
#X connect 5 0 2 0;
#X connect 6 0 2 1;
#X connect 8 0 7 0;
#X restore 141 909 pd dx7;
#N canvas 0 96 1211 674 beatslicere 0;
#N canvas 1 67 450 250 (subpatch) 0;
#X array \$0-sample-L 246140 float 2;
#X coords 0 1 246140 -1 448 100 1 0 0;
#X restore 178 124 graph;
#N canvas 1 67 450 250 (subpatch) 0;
#X array \$0-sample-R 246140 float 2;
#X coords 0 1 246140 -1 448 100 1 0 0;
#X restore 178 224 graph;
#X obj 179 334 hradio 14 1 0 32 empty empty empty 0 -8 0 10 -262144
-1 -1 12;
#N canvas 605 396 441 345 read-file 0;
#X obj 35 51 openpanel;
#X obj 35 241 soundfiler;
#X text 116 241 Read sample into array;
#X obj 68 125 symbol \$0-sample-L;
#X obj 35 179 pack s s s;
#X obj 102 149 symbol \$0-sample-R;
#X obj 35 86 t a b b;
#X msg 35 210 read -resize \$1 \$2 \$3;
#X obj 35 265 outlet sample-size;
#X obj 35 25 inlet open;
#X connect 0 0 6 0;
#X connect 1 0 8 0;
#X connect 3 0 4 1;
#X connect 4 0 7 0;
#X connect 5 0 4 2;
#X connect 6 0 4 0;
#X connect 6 1 3 0;
#X connect 6 2 5 0;
#X connect 7 0 1 0;
#X connect 9 0 0 0;
#X restore 672 249 pd read-file;
#X obj 115 126 bng 30 250 50 0 empty empty Open_file 35 7 0 10 -262144
-1 -1;
#X floatatom 681 458 10 0 0 0 - - -;
#X obj 760 438 f 0;
#X obj 792 438 + 1;
#X floatatom 760 486 5 0 0 0 - - -;
#X obj 114 170 tgl 30 0 empty empty Play 35 7 0 10 -262144 -1 -1 0
1;
#X obj 761 248 metro 200;
#X obj 843 239 expr ($f1 / 32) / 44.1;
#N canvas 339 338 487 403 send-message-to-step 0;
#X obj 88 329 send;
#X obj 113 232 pack f \$0;
#X msg 113 261 symbol \$2-step-\$1;
#X obj 31 264 pack s f;
#X obj 84 233 f;
#X obj 30 165 t b b f;
#X obj 31 234 symbol;
#X obj 31 288 list trim;
#X obj 30 39 r \$0-step-to-message;
#X obj 339 39 r \$0-message-value;
#X obj 190 39 r \$0-message-type;
#X connect 1 0 2 0;
#X connect 2 0 0 1;
#X connect 3 0 7 0;
#X connect 4 0 3 1;
#X connect 5 0 6 0;
#X connect 5 1 4 0;
#X connect 5 2 1 0;
#X connect 6 0 3 0;
#X connect 7 0 0 0;
#X connect 8 0 5 0;
#X connect 9 0 4 1;
#X connect 10 0 6 1;
#X restore 681 573 pd send-message-to-step;
#X obj 694 69 t f b b;
#X msg 717 98 symbol step;
#X obj 760 462 mod 32;
#N canvas 162 96 538 674 sample-player 0;
#X obj 85 489 tabread4~ \$0-sample-L;
#X obj 153 508 tabread4~ \$0-sample-R;
#X obj 84 437 line~;
#X obj 84 461 *~ 1;
#X obj 151 240 f;
#X obj 84 30 bng 15 250 50 0 empty \$0-trigger Trigger 17 7 0 10 -262144
-1 -1;
#X msg 84 358 \$1 \, \$2 \$3;
#X obj 84 323 pack f f f;
#X obj 84 50 t b b;
#X obj 84 83 t b b;
#X obj 84 263 f;
#X obj 117 263 f;
#X obj 102 133 t f f;
#X obj 102 160 expr $f1;
#X obj 135 191 expr (float(1) / 32) + $f1;
#X obj 162 69 r \$0-start-pos;
#X obj 151 269 expr ($f1 / 32) / 44.1 * $f2;
#X obj 344 240 r \$0-pitch;
#X msg 174 358 \$2 \, \$1 \$3;
#X obj 84 397 spigot 1;
#X obj 154 397 spigot 0;
#X obj 282 335 r \$0-reverse;
#X obj 282 359 == 0;
#X obj 171 530 r \$0-on-off;
#X obj 154 603 *~;
#X obj 84 604 *~;
#X obj 171 576 line~;
#X obj 167 427 r \$0-file-size;
#X obj 178 216 r \$0-file-size;
#X obj 84 628 outlet~;
#X obj 154 628 outlet~;
#X msg 171 552 \$1;
#X obj 162 93 expr int($f1 * 32) / 32;
#X connect 0 0 25 0;
#X connect 1 0 24 0;
#X connect 2 0 3 0;
#X connect 3 0 0 0;
#X connect 3 0 1 0;
#X connect 4 0 16 0;
#X connect 5 0 8 0;
#X connect 6 0 19 0;
#X connect 7 0 6 0;
#X connect 7 0 18 0;
#X connect 8 0 9 0;
#X connect 8 1 4 0;
#X connect 9 0 10 0;
#X connect 9 1 11 0;
#X connect 10 0 7 0;
#X connect 11 0 7 1;
#X connect 12 0 13 0;
#X connect 12 1 14 0;
#X connect 13 0 10 1;
#X connect 14 0 11 1;
#X connect 15 0 32 0;
#X connect 16 0 7 2;
#X connect 17 0 16 1;
#X connect 18 0 20 0;
#X connect 19 0 2 0;
#X connect 20 0 2 0;
#X connect 21 0 22 0;
#X connect 21 0 20 1;
#X connect 22 0 19 1;
#X connect 23 0 31 0;
#X connect 24 0 30 0;
#X connect 25 0 29 0;
#X connect 26 0 24 1;
#X connect 26 0 25 1;
#X connect 27 0 3 1;
#X connect 28 0 4 1;
#X connect 31 0 26 0;
#X connect 32 0 12 0;
#X restore 754 626 pd sample-player;
#X obj 713 508 s \$0-file-size;
#X obj 825 208 r \$0-file-size;
#X msg 740 128 0;
#N canvas 416 367 460 592 control-all 0;
#X obj 137 443 until;
#X msg 137 386 32;
#X obj 137 497 f 0;
#X obj 172 497 + 1;
#X msg 155 468 0;
#X obj 137 410 t f b;
#X msg 223 351 symbol pitch;
#X obj 100 36 vsl 14 80 0.1 1 0 0 empty empty empty -56 30 0 10 -262144
-1 -1 0 1;
#X obj 197 238 t b b f;
#X obj 100 119 tgl 14 0 empty empty empty -68 7 0 10 -262144 -1 -1
0 1;
#X obj 263 237 t b b f;
#X msg 240 390 symbol on-off;
#X msg 230 370 symbol reverse;
#X msg 213 331 symbol start-pos;
#X obj 216 438 t a;
#X obj 295 290 t f;
#X obj 100 20 tgl 14 0 empty empty empty -62 7 0 10 -262144 -1 -1 0
1;
#X obj 323 237 t b b f;
#X obj 137 292 t b;
#X obj 100 135 vsl 14 80 0 1 0 0 empty empty empty -80 30 0 10 -262144
-1 -1 0 1;
#X obj 137 238 t b b f;
#X obj 137 551 s \$0-step-to-message;
#X obj 216 521 s \$0-message-type;
#X obj 295 491 s \$0-message-value;
#X connect 0 0 2 0;
#X connect 1 0 5 0;
#X connect 2 0 3 0;
#X connect 2 0 21 0;
#X connect 3 0 2 1;
#X connect 4 0 2 1;
#X connect 5 0 0 0;
#X connect 5 1 4 0;
#X connect 6 0 14 0;
#X connect 7 0 8 0;
#X connect 8 0 18 0;
#X connect 8 1 6 0;
#X connect 8 2 15 0;
#X connect 9 0 10 0;
#X connect 10 0 18 0;
#X connect 10 1 12 0;
#X connect 10 2 15 0;
#X connect 11 0 14 0;
#X connect 12 0 14 0;
#X connect 13 0 14 0;
#X connect 14 0 22 0;
#X connect 15 0 23 0;
#X connect 16 0 17 0;
#X connect 17 0 18 0;
#X connect 17 1 11 0;
#X connect 17 2 15 0;
#X connect 18 0 1 0;
#X connect 19 0 20 0;
#X connect 20 0 18 0;
#X connect 20 1 13 0;
#X connect 20 2 15 0;
#X coords 0 -1 1 1 14 200 2 100 20;
#X restore 155 358 pd control-all;
#X obj 694 211 s \$0-step-to-message;
#X obj 717 181 s \$0-message-type;
#X obj 740 155 s \$0-message-value;
#X obj 131 358 bng 14 250 50 0 \$0-randomize-on-off empty empty 17
7 0 10 -262144 -1 -1;
#X obj 131 382 bng 14 250 50 0 \$0-randomize-pitch empty empty 17 7
0 10 -262144 -1 -1;
#X obj 131 457 bng 14 250 50 0 \$0-randomize-reverse empty empty 17
7 0 10 -262144 -1 -1;
#X obj 131 481 bng 14 250 50 0 \$0-randomize-start-pos empty empty
17 7 0 10 -262144 -1 -1;
#N canvas 356 93 827 648 randomize 0;
#X obj 66 23 r \$0-randomize-start-pos;
#X obj 66 345 until;
#X msg 66 288 32;
#X obj 66 399 f 0;
#X obj 101 399 + 1;
#X msg 84 370 0;
#X obj 66 312 t f b;
#X msg 464 234 symbol pitch;
#X msg 624 234 symbol on-off;
#X msg 294 234 symbol reverse;
#X msg 112 234 symbol start-pos;
#X obj 66 542 s \$0-step-to-message;
#X obj 225 489 s \$0-message-type;
#X obj 155 516 s \$0-message-value;
#X msg 89 171 80;
#X obj 66 423 t f b;
#X obj 155 463 random;
#X obj 155 487 /;
#X obj 89 209 t f;
#X obj 248 23 r \$0-randomize-reverse;
#X obj 66 47 t b b b;
#X obj 225 461 t a;
#X obj 66 111 t b;
#X obj 248 47 t b b b;
#X obj 418 47 t b b b;
#X obj 418 23 r \$0-randomize-pitch;
#X obj 578 47 t b b b;
#X obj 578 23 r \$0-randomize-on-off;
#X obj 138 430 bng 15 250 50 0 empty empty empty 17 7 0 10 -262144
-1 -1;
#X obj 190 336 t b b;
#X msg 222 359 2;
#X msg 190 360 1;
#X obj 271 169 t b;
#X connect 0 0 20 0;
#X connect 1 0 3 0;
#X connect 2 0 6 0;
#X connect 3 0 4 0;
#X connect 3 0 15 0;
#X connect 4 0 3 1;
#X connect 5 0 3 1;
#X connect 6 0 1 0;
#X connect 6 1 5 0;
#X connect 7 0 21 0;
#X connect 8 0 21 0;
#X connect 9 0 21 0;
#X connect 10 0 21 0;
#X connect 14 0 18 0;
#X connect 15 0 11 0;
#X connect 15 1 16 0;
#X connect 16 0 17 0;
#X connect 17 0 13 0;
#X connect 18 0 17 1;
#X connect 18 0 16 1;
#X connect 19 0 23 0;
#X connect 20 0 22 0;
#X connect 20 1 14 0;
#X connect 20 2 10 0;
#X connect 21 0 12 0;
#X connect 22 0 2 0;
#X connect 23 0 22 0;
#X connect 23 1 32 0;
#X connect 23 2 9 0;
#X connect 24 0 22 0;
#X connect 24 1 14 0;
#X connect 24 2 7 0;
#X connect 25 0 24 0;
#X connect 26 0 22 0;
#X connect 26 1 32 0;
#X connect 26 2 8 0;
#X connect 27 0 26 0;
#X connect 28 0 16 0;
#X connect 29 0 31 0;
#X connect 29 1 30 0;
#X connect 30 0 16 1;
#X connect 31 0 17 1;
#X connect 32 0 29 0;
#X restore 681 592 pd randomize;
#N canvas 266 144 937 597 init 0;
#X obj 66 345 until;
#X msg 66 288 32;
#X obj 66 399 f 0;
#X obj 101 399 + 1;
#X msg 84 370 0;
#X obj 66 312 t f b;
#X msg 464 234 symbol pitch;
#X msg 624 234 symbol on-off;
#X msg 294 234 symbol reverse;
#X msg 112 234 symbol start-pos;
#X obj 66 542 s \$0-step-to-message;
#X obj 225 489 s \$0-message-type;
#X obj 155 516 s \$0-message-value;
#X obj 89 209 t f;
#X obj 66 47 t b b b;
#X obj 225 391 t a;
#X obj 66 111 t b;
#X obj 248 47 t b b b;
#X obj 418 47 t b b b;
#X obj 578 47 t b b b;
#X obj 66 23 r \$0-init-start-pos;
#X obj 248 23 r \$0-init-reverse;
#X obj 418 23 r \$0-init-pitch;
#X obj 578 23 r \$0-init-on-off;
#X msg 271 138 0;
#X msg 441 138 1;
#X msg 601 138 1;
#X obj 203 420 sel start-pos;
#X obj 155 479 spigot;
#X msg 203 444 1;
#X msg 291 446 0;
#X obj 66 423 t f f;
#X text 306 421 <-- Special case for start-pos;
#X obj 98 448 expr $f1 / 32;
#X connect 0 0 2 0;
#X connect 1 0 5 0;
#X connect 2 0 3 0;
#X connect 2 0 31 0;
#X connect 3 0 2 1;
#X connect 4 0 2 1;
#X connect 5 0 0 0;
#X connect 5 1 4 0;
#X connect 6 0 15 0;
#X connect 7 0 15 0;
#X connect 8 0 15 0;
#X connect 9 0 15 0;
#X connect 13 0 12 0;
#X connect 14 0 16 0;
#X connect 14 2 9 0;
#X connect 15 0 11 0;
#X connect 15 0 27 0;
#X connect 16 0 1 0;
#X connect 17 0 16 0;
#X connect 17 1 24 0;
#X connect 17 2 8 0;
#X connect 18 0 16 0;
#X connect 18 1 25 0;
#X connect 18 2 6 0;
#X connect 19 0 16 0;
#X connect 19 1 26 0;
#X connect 19 2 7 0;
#X connect 20 0 14 0;
#X connect 21 0 17 0;
#X connect 22 0 18 0;
#X connect 23 0 19 0;
#X connect 24 0 13 0;
#X connect 25 0 13 0;
#X connect 26 0 13 0;
#X connect 27 0 29 0;
#X connect 27 1 30 0;
#X connect 28 0 12 0;
#X connect 29 0 28 1;
#X connect 30 0 28 1;
#X connect 31 0 10 0;
#X connect 31 1 33 0;
#X connect 33 0 28 0;
#X restore 681 611 pd init;
#X obj 111 358 bng 14 250 50 0 \$0-init-on-off empty empty 17 7 0 10
-262144 -1 -1;
#X obj 111 382 bng 14 250 50 0 \$0-init-pitch empty empty 17 7 0 10
-262144 -1 -1;
#X obj 111 457 bng 14 250 50 0 \$0-init-reverse empty empty 17 7 0
10 -262144 -1 -1;
#X obj 111 481 bng 14 250 50 0 \$0-init-start-pos empty empty 17 7
0 10 -262144 -1 -1;
#X obj 662 19 t f f;
#X obj 662 43 s \$0-trigger;
#X obj 681 529 s \$0-init;
#X obj 681 486 t b f;
#X obj 681 436 f;
#X obj 184 68 loadbang;
#X obj 754 709 outlet~;
#X obj 108 69 inlet;
#X obj 146 69 inlet;
#X obj 892 118 cnv 15 100 60 empty empty empty 20 12 0 14 -233017 -66577
0;
#X obj 994 549 outlet;
#X obj 754 653 +~, f 16;
#X obj 239 68 inlet;
#N canvas 158 371 1009 370 controls 0;
#X obj 100 100 step \$0 0;
#X obj 114 100 step \$0 1;
#X obj 128 100 step \$0 2;
#X obj 142 100 step \$0 3;
#X obj 156 100 step \$0 4;
#X obj 170 100 step \$0 5;
#X obj 184 100 step \$0 6;
#X obj 198 100 step \$0 7;
#X obj 212 100 step \$0 8;
#X obj 226 100 step \$0 9;
#X obj 240 100 step \$0 10;
#X obj 254 100 step \$0 11;
#X obj 268 100 step \$0 12;
#X obj 282 100 step \$0 13;
#X obj 296 100 step \$0 14;
#X obj 310 100 step \$0 15;
#X obj 324 100 step \$0 16;
#X obj 338 100 step \$0 17;
#X obj 352 100 step \$0 18;
#X obj 366 100 step \$0 19;
#X obj 380 100 step \$0 20;
#X obj 394 100 step \$0 21;
#X obj 408 100 step \$0 22;
#X obj 422 100 step \$0 23;
#X obj 436 100 step \$0 24;
#X obj 450 100 step \$0 25;
#X obj 464 100 step \$0 26;
#X obj 478 100 step \$0 27;
#X obj 492 100 step \$0 28;
#X obj 506 100 step \$0 29;
#X obj 520 100 step \$0 30;
#X obj 534 100 step \$0 31;
#X coords 0 -1 1 1 448 200 2 100 100;
#X restore 179 358 pd controls;
#X obj 843 262 / 2;
#X obj 755 280 f 0;
#X obj 787 280 + 1;
#X obj 928 495 sel 1;
#X obj 928 518 b;
#X obj 933 549 outlet;
#X obj 754 309 mod 2;
#X obj 754 332 sel 1;
#X obj 754 355 b;
#X obj 1043 552 outlet;
#X obj 1100 419 mod 2;
#X obj 1100 442 sel 1;
#X obj 1100 465 b;
#X obj 1096 549 outlet;
#X obj 754 676 *~ 0.77;
#X connect 2 0 34 0;
#X connect 3 0 38 0;
#X connect 4 0 3 0;
#X connect 5 0 37 0;
#X connect 6 0 7 0;
#X connect 6 0 15 0;
#X connect 7 0 6 1;
#X connect 8 0 2 0;
#X connect 9 0 10 0;
#X connect 9 0 51 0;
#X connect 10 0 44 0;
#X connect 10 0 49 0;
#X connect 11 0 48 0;
#X connect 13 0 21 0;
#X connect 13 1 14 0;
#X connect 13 2 19 0;
#X connect 14 0 22 0;
#X connect 15 0 8 0;
#X connect 15 0 58 0;
#X connect 16 0 45 0;
#X connect 16 1 45 1;
#X connect 18 0 11 0;
#X connect 19 0 23 0;
#X connect 34 0 35 0;
#X connect 34 1 13 0;
#X connect 37 0 36 0;
#X connect 37 1 17 0;
#X connect 38 0 5 0;
#X connect 39 0 30 0;
#X connect 39 0 31 0;
#X connect 39 0 32 0;
#X connect 39 0 33 0;
#X connect 41 0 4 0;
#X connect 42 0 9 0;
#X connect 45 0 62 0;
#X connect 46 0 2 0;
#X connect 48 0 10 1;
#X connect 49 0 50 0;
#X connect 49 0 54 0;
#X connect 50 0 49 1;
#X connect 51 0 52 0;
#X connect 52 0 53 0;
#X connect 54 0 55 0;
#X connect 55 0 56 0;
#X connect 56 0 6 0;
#X connect 56 0 57 0;
#X connect 58 0 59 0;
#X connect 59 0 60 0;
#X connect 60 0 61 0;
#X connect 62 0 40 0;
#X coords 0 -1 1 1 540 470 1 100 100;
#X restore 461 657 pd beatslicere;
#X msg 1588 57 7 71 16 7 76 726;
#N canvas 670 290 450 300 drum_patterns 0;
#N canvas 160 290 957 480 dnb-patterns 0;
#X obj 127 354 s kick-seq;
#X obj 198 354 s rimshot-seq;
#X obj 285 354 s hat-seq;
#X obj 348 356 s snare-seq;
#X obj 421 357 s clap-seq;
#X obj 490 357 s ride-seq;
#X obj 560 356 s perc1-seq;
#X obj 636 353 s perc2-seq;
#X obj 711 352 s crash-seq;
#X obj 190 57 bng 15 250 50 0 empty empty empty 17 7 0 10 -262144 -1
-1;
#X msg 133 109 1 - - - - - - - - - 1 - - - - -;
#X msg 463 106 1 - - - 1 - - - 1 - - - 1 - - -;
#X msg 686 149 1 - - - - - - - - - - - - - - -;
#X msg 488 71 2 - 2 - 2 - 2 - 2 - 2 - 2 - 2 -;
#X obj 191 19 inlet;
#X obj 239 17 inlet;
#X msg 236 293 - - - -;
#X msg 343 108 - - - - 2 - - -;
#X msg 561 197 - - - - 1 - 5 -;
#X msg 631 246 - - - - 1 - 1 12 - - - - 2 - - -;
#X obj 239 37 b;
#X obj 128 50 b;
#X obj 282 18 inlet;
#X obj 280 247 b;
#X msg 303 268 - - - -;
#X msg 380 145 - - - - 1 - - - - - - - 4 - - -;
#X connect 9 0 10 0;
#X connect 9 0 17 0;
#X connect 9 0 11 0;
#X connect 9 0 25 0;
#X connect 9 0 13 0;
#X connect 9 0 18 0;
#X connect 9 0 19 0;
#X connect 9 0 12 0;
#X connect 10 0 0 0;
#X connect 11 0 2 0;
#X connect 12 0 8 0;
#X connect 13 0 5 0;
#X connect 14 0 21 0;
#X connect 15 0 20 0;
#X connect 16 0 5 0;
#X connect 16 0 6 0;
#X connect 16 0 7 0;
#X connect 16 0 8 0;
#X connect 16 0 3 0;
#X connect 16 0 2 0;
#X connect 16 0 1 0;
#X connect 16 0 0 0;
#X connect 16 0 4 0;
#X connect 17 0 1 0;
#X connect 17 0 3 0;
#X connect 18 0 6 0;
#X connect 19 0 7 0;
#X connect 20 0 16 0;
#X connect 21 0 9 0;
#X connect 22 0 23 0;
#X connect 23 0 24 0;
#X connect 24 0 5 0;
#X connect 24 0 6 0;
#X connect 24 0 7 0;
#X connect 24 0 8 0;
#X connect 25 0 4 0;
#X restore 27 48 pd dnb-patterns;
#X obj 72 27 bng 15 250 50 0 empty empty empty 17 7 0 10 -262144 -1
-1;
#X obj 26 29 bng 15 250 50 0 empty empty empty 17 7 0 10 -262144 -1
-1;
#X obj 113 28 bng 15 250 50 0 empty empty empty 17 7 0 10 -262144 -1
-1;
#X obj 68 127 bng 15 250 50 0 empty empty empty 17 7 0 10 -262144 -1
-1;
#X obj 14 131 bng 15 250 50 0 empty empty empty 17 7 0 10 -262144 -1
-1;
#X obj 109 128 bng 15 250 50 0 empty empty empty 17 7 0 10 -262144
-1 -1;
#N canvas 0 96 957 480 dubstep-patterns 0;
#X obj 127 354 s kick-seq;
#X obj 198 354 s rimshot-seq;
#X obj 285 354 s hat-seq;
#X obj 348 356 s snare-seq;
#X obj 421 357 s clap-seq;
#X obj 490 357 s ride-seq;
#X obj 560 356 s perc1-seq;
#X obj 636 353 s perc2-seq;
#X obj 711 352 s crash-seq;
#X obj 190 57 bng 15 250 50 0 empty empty empty 17 7 0 10 -262144 -1
-1;
#X msg 707 152 1 - - - - - - - - - - - - - - -;
#X obj 191 19 inlet;
#X obj 239 17 inlet;
#X msg 257 303 - - - -;
#X obj 239 37 b;
#X obj 165 43 b;
#X obj 282 18 inlet;
#X obj 280 247 b;
#X msg 335 274 - - - -;
#X msg 630 23 - - - - - - - - 1 - - - - - - -;
#X msg 389 25 140;
#X msg 424 24 1 - - - - - - - - - - - - - - -;
#X msg 133 109 4 - - - - - - - - - - - - - - -;
#X msg 561 197 - - - - 9;
#X msg 499 66 2 - 2 - 2 - 2 - 2 - 2 - 2 - 2 -;
#X msg 350 116 - - - 9 - 11 - - 7 - - -12- - - -;
#X msg 321 145 - - - - - - - - 3 - - - - - - -;
#X msg 364 196 - - - - - - - - 1 - - - - - - -;
#X msg 467 138 2 - 2 - 2 - 2 - 2 - 2 - 2 - 2 -;
#X msg 631 246 - - - - - 9;
#X connect 9 0 22 0;
#X connect 9 0 28 0;
#X connect 9 0 27 0;
#X connect 9 0 23 0;
#X connect 9 0 29 0;
#X connect 9 0 10 0;
#X connect 9 0 24 0;
#X connect 9 0 26 0;
#X connect 10 0 8 0;
#X connect 11 0 15 0;
#X connect 12 0 14 0;
#X connect 13 0 5 0;
#X connect 13 0 6 0;
#X connect 13 0 7 0;
#X connect 13 0 8 0;
#X connect 13 0 3 0;
#X connect 13 0 2 0;
#X connect 13 0 1 0;
#X connect 13 0 0 0;
#X connect 13 0 4 0;
#X connect 14 0 13 0;
#X connect 15 0 9 0;
#X connect 16 0 17 0;
#X connect 17 0 18 0;
#X connect 18 0 5 0;
#X connect 18 0 6 0;
#X connect 18 0 7 0;
#X connect 18 0 8 0;
#X connect 22 0 0 0;
#X connect 23 0 6 0;
#X connect 24 0 5 0;
#X connect 25 0 1 0;
#X connect 25 0 3 0;
#X connect 26 0 1 0;
#X connect 26 0 3 0;
#X connect 27 0 4 0;
#X connect 28 0 2 0;
#X connect 29 0 7 0;
#X restore 15 150 pd dubstep-patterns;
#X obj 71 187 bng 15 250 50 0 empty empty empty 17 7 0 10 -262144 -1
-1;
#X obj 23 189 bng 15 250 50 0 empty empty empty 17 7 0 10 -262144 -1
-1;
#X obj 118 186 bng 15 250 50 0 empty empty empty 17 7 0 10 -262144
-1 -1;
#N canvas 0 96 957 480 house-patterns 0;
#X obj 127 354 s kick-seq;
#X obj 198 354 s rimshot-seq;
#X obj 285 354 s hat-seq;
#X obj 348 356 s snare-seq;
#X obj 421 357 s clap-seq;
#X obj 490 357 s ride-seq;
#X obj 560 356 s perc1-seq;
#X obj 636 353 s perc2-seq;
#X obj 711 352 s crash-seq;
#X obj 190 57 bng 15 250 50 0 empty empty empty 17 7 0 10 -262144 -1
-1;
#X obj 191 19 inlet;
#X obj 239 17 inlet;
#X msg 213 289 - - - -;
#X obj 239 37 b;
#X obj 165 43 b;
#X obj 282 18 inlet;
#X obj 280 247 b;
#X msg 431 264 - - - -;
#X msg 630 23 - - - - - - - - 1 - - - - - - -;
#X msg 389 25 140;
#X msg 424 24 1 - - - - - - - - - - - - - - -;
#X msg 716 213 - - - - 9;
#X msg 133 109 1 - - - 1 - - - 1 - - - 1 - - -;
#X msg 344 103 - - - - 1 - - -;
#X msg 662 146 8 - - - - - - - - - - - - - - -;
#X msg 562 257 2 - - -;
#X msg 631 246 - - 5 -;
#X msg 515 67 2 - - - 2 - - -;
#X msg 364 196 - - - - - - - - 3 - - - - - - -;
#X msg 347 163 - - - - - - - - 1 - - - - - - -;
#X msg 542 103 - - 3 -;
#X connect 9 0 22 0;
#X connect 9 0 30 0;
#X connect 9 0 21 0;
#X connect 9 0 26 0;
#X connect 9 0 24 0;
#X connect 9 0 25 0;
#X connect 9 0 23 0;
#X connect 10 0 14 0;
#X connect 11 0 13 0;
#X connect 12 0 5 0;
#X connect 12 0 6 0;
#X connect 12 0 7 0;
#X connect 12 0 8 0;
#X connect 12 0 3 0;
#X connect 12 0 2 0;
#X connect 12 0 1 0;
#X connect 12 0 0 0;
#X connect 12 0 4 0;
#X connect 13 0 12 0;
#X connect 14 0 9 0;
#X connect 15 0 16 0;
#X connect 16 0 17 0;
#X connect 17 0 5 0;
#X connect 17 0 6 0;
#X connect 17 0 7 0;
#X connect 17 0 8 0;
#X connect 22 0 0 0;
#X connect 23 0 1 0;
#X connect 23 0 3 0;
#X connect 25 0 6 0;
#X connect 26 0 7 0;
#X connect 27 0 5 0;
#X connect 28 0 4 0;
#X connect 29 0 1 0;
#X connect 29 0 3 0;
#X connect 30 0 2 0;
#X restore 24 208 pd house-patterns;
#X obj 68 79 bng 15 250 50 0 empty empty empty 17 7 0 10 -262144 -1
-1;
#X obj 20 81 bng 15 250 50 0 empty empty empty 17 7 0 10 -262144 -1
-1;
#X obj 115 78 bng 15 250 50 0 empty empty empty 17 7 0 10 -262144 -1
-1;
#N canvas 0 96 957 480 138Trek-patterns 0;
#X obj 127 354 s kick-seq;
#X obj 198 354 s rimshot-seq;
#X obj 285 354 s hat-seq;
#X obj 348 356 s snare-seq;
#X obj 421 357 s clap-seq;
#X obj 490 357 s ride-seq;
#X obj 560 356 s perc1-seq;
#X obj 636 353 s perc2-seq;
#X obj 711 352 s crash-seq;
#X obj 190 57 bng 15 250 50 0 empty empty empty 17 7 0 10 -262144 -1
-1;
#X obj 191 19 inlet;
#X obj 239 17 inlet;
#X msg 213 289 - - - -;
#X obj 239 37 b;
#X obj 165 43 b;
#X obj 282 18 inlet;
#X obj 280 247 b;
#X msg 431 264 - - - -;
#X msg 630 23 - - - - - - - - 1 - - - - - - -;
#X msg 389 25 140;
#X msg 424 24 1 - - - - - - - - - - - - - - -;
#X msg 716 213 - - - - 9;
#X msg 344 103 - - - - 1 - - -;
#X msg 662 146 8 - - - - - - - - - - - - - - -;
#X msg 562 257 2 - - -;
#X msg 631 246 - - 5 -;
#X msg 515 67 2 - - - 2 - - -;
#X msg 364 196 - - - - - - - - 3 - - - - - - -;
#X msg 347 163 - - - - - - - - 1 - - - - - - -;
#X msg 54 147 1 - - - 1 - - - - 1 - 1 - - - -;
#X msg 542 103 - - 3 -;
#X connect 9 0 29 0;
#X connect 9 0 30 0;
#X connect 9 0 21 0;
#X connect 9 0 25 0;
#X connect 9 0 23 0;
#X connect 9 0 24 0;
#X connect 9 0 22 0;
#X connect 10 0 14 0;
#X connect 11 0 13 0;
#X connect 12 0 5 0;
#X connect 12 0 6 0;
#X connect 12 0 7 0;
#X connect 12 0 8 0;
#X connect 12 0 3 0;
#X connect 12 0 2 0;
#X connect 12 0 1 0;
#X connect 12 0 0 0;
#X connect 12 0 4 0;
#X connect 13 0 12 0;
#X connect 14 0 9 0;
#X connect 15 0 16 0;
#X connect 16 0 17 0;
#X connect 17 0 5 0;
#X connect 17 0 6 0;
#X connect 17 0 7 0;
#X connect 17 0 8 0;
#X connect 22 0 1 0;
#X connect 22 0 3 0;
#X connect 24 0 6 0;
#X connect 25 0 7 0;
#X connect 26 0 5 0;
#X connect 27 0 4 0;
#X connect 28 0 1 0;
#X connect 28 0 3 0;
#X connect 29 0 0 0;
#X connect 30 0 2 0;
#X restore 21 100 pd 138Trek-patterns;
#X connect 1 0 0 1;
#X connect 2 0 0 0;
#X connect 3 0 0 2;
#X connect 4 0 7 1;
#X connect 5 0 7 0;
#X connect 6 0 7 2;
#X connect 8 0 11 1;
#X connect 9 0 11 0;
#X connect 10 0 11 2;
#X connect 12 0 15 1;
#X connect 13 0 15 0;
#X connect 14 0 15 2;
#X restore 350 908 pd drum_patterns;
#N canvas 23 559 450 300 imports 0;
#X obj 3 218 declare -path ./sounds;
#X obj 4 195 declare -path ./library;
#X obj 6 264 declare -path pdjs;
#X obj 6 240 declare -path else;
#X obj 5 9 declare -path ./instruments/beatslicer;
#X obj 4 173 declare -path ./instruments/fm;
#X obj 5 127 declare -path ./instruments/sub;
#X obj 5 105 declare -path ./instruments/poly;
#X obj 5 62 declare -path ./instruments/acid;
#X obj 5 151 declare -path ./instruments/dx7;
#X obj 4 84 declare -path ./instruments/fmbass;
#X obj 4 35 declare -path ./instruments/yellotron;
#X restore 351 882 pd imports;
#N canvas 1 88 734 653 fx 0;
#X obj 215 146 hsl 128 15 10 44100 1 0 empty empty empty -2 -8 0 10
-228856 -1 -1 0 1;
#X obj 212 170 nbx 8 14 -1e+37 1e+37 0 0 empty empty empty 0 -8 0 10
-228856 -1 -1 0 256;
#X obj 119 194 else/downsample~;
#X obj 120 90 else/tremolo~ 5 0.75;
#X floatatom 178 38 5 0 0 0 - - -;
#X floatatom 237 66 5 0 0 0 - - -;
#X obj 178 64 / 100;
#X obj 175 262 nbx 5 14 -1e+37 1e+37 0 0 empty empty empty 0 -8 0 10
-228856 -1 -1 0 256;
#X obj 234 263 nbx 5 14 -1e+37 1e+37 0 0 empty empty empty 0 -8 0 10
-228856 -1 -1 0 256;
#X obj 293 263 nbx 5 14 -1e+37 1e+37 0 0 empty empty empty 0 -8 0 10
-228856 -1 -1 0 256;
#X obj 116 296 else/flanger~ 0.1 20 -0.6 -tri;
#X text 180 242 rate;
#X text 236 242 depth;
#X text 296 242 coefficient;
#X obj 204 354 hsl 160 15 500 5000 0 0 empty empty empty -2 -8 0 10
-228856 -1 -1 0 1;
#X obj 97 352 vradio 15 1 0 4 empty empty empty 0 -8 0 10 -228856 -1
-1 3;
#X text 47 351 lowpass;
#X text 41 367 highpass;
#X text 41 382 bandpass;
#X obj 269 376 hsl 128 15 0 1 0 0 empty empty empty -2 -8 0 10 -228856
-1 -1 0 1;
#X text 281 376 Q/resonance (0-1);
#X text 211 353 cutoff/center frequency;
#X obj 97 418 + 1;
#X obj 137 445 else/xselect~ 4 1000 1;
#X obj 137 418 else/svfilter~ 800 0.5;
#X obj 266 397 nbx 5 14 -1e+37 1e+37 0 0 empty empty empty 0 -8 0 10
-228856 -1 -1 0 256;
#X obj 201 377 nbx 5 14 -1e+37 1e+37 0 0 empty empty empty 0 -8 0 10
-228856 -1 -1 0 256;
#X text 41 397 bandstop;
#X connect 0 0 1 0;
#X connect 1 0 2 1;
#X connect 4 0 6 0;
#X connect 5 0 3 2;
#X connect 6 0 3 1;
#X connect 7 0 10 1;
#X connect 8 0 10 2;
#X connect 9 0 10 3;
#X connect 14 0 26 0;
#X connect 15 0 22 0;
#X connect 19 0 25 0;
#X connect 22 0 23 0;
#X connect 24 0 23 0;
#X connect 24 1 23 1;
#X connect 24 2 23 2;
#X connect 24 3 23 3;
#X connect 25 0 24 2;
#X connect 26 0 24 1;
#X restore 351 932 pd fx;
#N canvas 1 96 543 547 misc~ 0;
#X msg 146 157 symbol misc;
#X floatatom 95 177 5 0 0 0 - - -;
#X msg 152 130 symbol more;
#X msg 184 185 symbol misc2;
#X obj 273 335 nbx 6 14 -1e+37 1e+37 0 0 empty empty empty 0 -8 0 10
-228856 -1 -1 100 256;
#X obj 356 335 nbx 6 14 -1e+37 1e+37 0 0 empty empty empty 0 -8 0 10
-228856 -1 -1 0 256;
#X text 275 317 speed (%);
#X text 355 316 transposition;
#X obj 218 336 nbx 4 14 -1e+37 1e+37 0 0 empty empty empty 0 -8 0 10
-228856 -1 -1 0 256;
#X text 205 317 size (ms);
#X msg 89 245 39;
#X obj 215 289 unpack 0 0 0, f 21;
#X msg 216 265 0 100 0;
#X obj 215 240 loadbang;
#X obj 37 26 inlet;
#X obj 255 28 inlet;
#X obj 244 68 sel 0 1 2;
#X obj 175 488 outlet~;
#X obj 435 444 playdir3~, f 19;
#X obj 545 422 nbx 6 14 -1e+37 1e+37 0 0 empty empty empty 0 -8 0 10
-228856 -1 -1 100 256;
#X obj 628 422 nbx 6 14 -1e+37 1e+37 0 0 empty empty empty 0 -8 0 10
-228856 -1 -1 0 256;
#X text 547 404 speed (%);
#X text 627 403 transposition;
#X obj 490 423 nbx 4 14 -1e+37 1e+37 0 0 empty empty empty 0 -8 0 10
-228856 -1 -1 0 256;
#X text 477 404 size (ms);
#X obj 487 376 unpack 0 0 0, f 21;
#X msg 488 352 0 100 0;
#X obj 487 327 loadbang;
#X obj 163 357 playdir2~, f 19;
#X obj 174 415 *~ 0.7;
#X connect 0 0 28 1;
#X connect 1 0 28 0;
#X connect 2 0 28 1;
#X connect 3 0 28 1;
#X connect 10 0 28 0;
#X connect 11 0 8 0;
#X connect 11 1 4 0;
#X connect 11 2 5 0;
#X connect 12 0 11 0;
#X connect 13 0 12 0;
#X connect 14 0 1 0;
#X connect 15 0 16 0;
#X connect 16 0 2 0;
#X connect 16 1 0 0;
#X connect 16 2 3 0;
#X connect 19 0 18 3;
#X connect 20 0 18 4;
#X connect 23 0 18 2;
#X connect 25 0 23 0;
#X connect 25 1 19 0;
#X connect 25 2 20 0;
#X connect 26 0 25 0;
#X connect 27 0 26 0;
#X connect 28 0 29 0;
#X connect 29 0 17 0;
#X restore 149 1064 pd misc~;
#X floatatom 194 1041 5 0 0 0 - - -;
#X floatatom 149 1002 5 0 0 0 - - -;
#X obj 194 1020 hradio 15 1 0 3 empty empty empty 0 -8 0 10 -262144
-1 -1 1;
#X obj 296 244 print;
#X obj 294 200 bng 15 250 50 0 empty empty empty 17 7 0 10 -262144
-1 -1;
#X obj 296 222 js ./library/constrainedseq.js;
#X floatatom 415 201 5 0 0 0 - - -;
#X floatatom 471 198 5 0 0 0 - - -;
#X obj 74 219 m-poly~;
#X msg 75 165 60 \, 65 \, 70 \, 80 \, 84;
#X floatatom 1438 302 5 0 0 0 - - -;
#X msg 331 148 60 65 70 80 84;
#X obj 73 190 + 12;
#X obj 1440 257 random 22;
#X obj 1440 280 - 11;
#N canvas 1 96 646 445 reverb 0;
#X obj 30 270 else/plate.rev~;
#X obj 30 270 else/plate.rev~;
#X obj 29 36 inlet~;
#X obj 30 397 outlet~;
#X obj 29 298 +~, f 15;
#X connect 0 0 4 0;
#X connect 0 1 4 1;
#X connect 2 0 0 0;
#X connect 4 0 3 0;
#X restore 1090 1150 pd reverb;
#N canvas 1 96 646 445 reverb 0;
#X obj 30 270 else/plate.rev~;
#X obj 30 270 else/plate.rev~;
#X obj 168 78 hsl 128 15 0 1000 0 0 empty \$0-predelayms empty -2 -8
0 10 -228856 -1 -1 0 1;
#X floatatom 165 102 5 0 0 0 - - -;
#X obj 228 105 hsl 128 15 0 1 0 0 empty \$0-cutoff empty -2 -8 0 10
-228856 -1 -1 0 1;
#X floatatom 225 131 5 0 0 0 - - -;
#X obj 302 131 hsl 128 15 0 1 0 0 empty \$0-damping empty -2 -8 0 10
-228856 -1 -1 0 1;
#X floatatom 299 156 5 0 0 0 - - -;
#X obj 367 163 hsl 128 15 0 1 0 0 empty \$0-fbgain empty -2 -8 0 10
-228856 -1 -1 0 1;
#X floatatom 364 186 5 0 0 0 - - -;
#X obj 445 192 hsl 128 15 0 1 0 0 empty \$0-drywet empty -2 -8 0 10
-228856 -1 -1 0 1;
#X floatatom 442 219 5 0 0 0 - - -;
#X text 411 191 dry;
#X text 411 191 dry;
#X text 411 191 dry;
#X text 335 130 damping;
#X text 411 191 dry;
#X text 191 77 pre delay;
#X text 265 104 cutoff;
#X msg 165 126 pre \$1;
#X msg 225 154 cutoff \$1;
#X msg 299 178 damp \$1;
#X text 404 163 room-size;
#X msg 364 212 size \$1;
#X msg 442 242 wet \$1;
#X msg 441 275 clear;
#X obj 241 300 s \$0-set;
#X obj 52 242 r \$0-set;
#X obj 29 36 inlet~;
#X obj 30 397 outlet~;
#X obj 29 298 +~, f 15;
#X connect 0 0 30 0;
#X connect 0 1 30 1;
#X connect 2 0 3 0;
#X connect 3 0 19 0;
#X connect 4 0 5 0;
#X connect 5 0 20 0;
#X connect 6 0 7 0;
#X connect 7 0 21 0;
#X connect 8 0 9 0;
#X connect 9 0 23 0;
#X connect 10 0 11 0;
#X connect 11 0 24 0;
#X connect 19 0 26 0;
#X connect 20 0 26 0;
#X connect 21 0 26 0;
#X connect 23 0 26 0;
#X connect 24 0 26 0;
#X connect 25 0 26 0;
#X connect 27 0 1 0;
#X connect 28 0 0 0;
#X connect 30 0 29 0;
#X restore 148 1088 pd reverb;
#X obj 1519 366 fmbass~;
#X msg 1418 206 41;
#X msg 1451 213 42;
#X obj 10 10 loadbang;
#X msg 74 129 55 \, 58 \, 62;
#X floatatom 36 131 5 0 0 0 - - -;
#X obj 514 115 bng 15 250 50 0 empty empty empty 17 7 0 10 -262144
-1 -1;
#X obj 468 117 bng 15 250 50 0 empty empty empty 17 7 0 10 -262144
-1 -1;
#X obj 555 116 bng 15 250 50 0 empty empty empty 17 7 0 10 -262144
-1 -1;
#N canvas 1 96 957 480 dub-patterns 0;
#X obj 127 354 s kick-seq;
#X obj 198 354 s rimshot-seq;
#X obj 285 354 s hat-seq;
#X obj 348 356 s snare-seq;
#X obj 421 357 s clap-seq;
#X obj 490 357 s ride-seq;
#X obj 560 356 s perc1-seq;
#X obj 636 353 s perc2-seq;
#X obj 711 352 s crash-seq;
#X obj 190 57 bng 15 250 50 0 empty empty empty 17 7 0 10 -262144 -1
-1;
#X msg 463 106 1 - - - 1 - - - 1 - - - 1 - - -;
#X msg 686 149 1 - - - - - - - - - - - - - - -;
#X msg 488 71 2 - 2 - 2 - 2 - 2 - 2 - 2 - 2 -;
#X obj 191 19 inlet;
#X obj 239 17 inlet;
#X msg 236 293 - - - -;
#X msg 343 108 - - - - 2 - - -;
#X obj 239 37 b;
#X obj 128 50 b;
#X obj 282 18 inlet;
#X obj 280 247 b;
#X msg 303 268 - - - -;
#X msg 133 109 1 - - - - - - - - - - - - - - -;
#X msg 517 36 2 1 2 - 2 1 2 1 2 1 2 - 2 - 2 1;
#X msg 561 197 1 - 5 -;
#X msg 631 246 - - - - 1 - 1 12 - - - - 2;
#X msg 380 145 - - - - 1 - 1 - - - - - 4;
#X connect 9 0 22 0;
#X connect 9 0 16 0;
#X connect 9 0 10 0;
#X connect 9 0 26 0;
#X connect 9 0 12 0;
#X connect 9 0 24 0;
#X connect 9 0 25 0;
#X connect 9 0 11 0;
#X connect 9 0 23 0;
#X connect 11 0 8 0;
#X connect 12 0 2 0;
#X connect 13 0 18 0;
#X connect 14 0 17 0;
#X connect 15 0 5 0;
#X connect 15 0 6 0;
#X connect 15 0 7 0;
#X connect 15 0 8 0;
#X connect 15 0 3 0;
#X connect 15 0 2 0;
#X connect 15 0 1 0;
#X connect 15 0 0 0;
#X connect 15 0 4 0;
#X connect 16 0 1 0;
#X connect 16 0 3 0;
#X connect 17 0 15 0;
#X connect 18 0 9 0;
#X connect 19 0 20 0;
#X connect 20 0 21 0;
#X connect 21 0 5 0;
#X connect 21 0 6 0;
#X connect 21 0 7 0;
#X connect 21 0 8 0;
#X connect 22 0 0 0;
#X connect 23 0 5 0;
#X connect 24 0 6 0;
#X connect 25 0 7 0;
#X connect 26 0 4 0;
#X restore 469 136 pd dub-patterns;
#X obj 601 119 s pulse3;
#X obj 600 95 metro 111;
#X obj 599 71 tgl 15 0 empty empty empty 17 7 0 10 -262144 -1 -1 0
1;
#X obj 161 945 r randomizeDrumsounds;
#X obj 580 147 bng 15 250 50 0 empty empty empty 17 7 0 10 -262144
-1 -1;
#X obj 581 171 s randomizeDrumsounds;
#X floatatom 647 71 5 0 0 0 - - -;
#X obj 82 101 sequencer;
#X obj 82 78 r pulse3;
#X msg 10 34 300;
#X msg 144 77 - - 1 - - - 1 - - - 1 - - - 1 - - - 5 - - - 5 - - - 5
- - - 5 -, f 68;
#X msg 352 166 55 58 62;
#X obj 227 355 fmbass~;
#X obj 230 245 sequencer;
#X obj 230 222 r pulse3;
#X obj 229 293 + 12;
#X obj 230 317 - 12;
#X obj 1137 668 print;
#X obj 1117 620 bng 15 250 50 0 empty empty empty 17 7 0 10 -262144
-1 -1;
#X obj 1119 639 js ./library/constrainedseq.js;
#X floatatom 1237 617 5 0 0 0 - - -;
#X floatatom 1296 617 5 0 0 0 - - -;
#X msg 1178 616 55 58 62;
#X obj 1060 664 sequencer;
#X obj 1060 641 r pulse3;
#X obj 1060 727 + 12;
#X msg 150 53 - - 7 - - - 7 - 7 - 7 - - - 7 - - - 9 - - - 9 - - - 9
- - - 9 -, f 68;
#X obj 647 28 loadbang;
#X msg 647 49 150;
#N canvas 237 67 1068 584 yellotron 0;
#N canvas 417 264 450 403 armoire 0;
#X obj 20 36 table tab_43;
#X obj 20 55 table tab_44;
#X obj 20 74 table tab_45;
#X obj 20 93 table tab_46;
#X obj 20 112 table tab_47;
#X obj 20 131 table tab_48;
#X obj 20 150 table tab_49;
#X obj 20 169 table tab_50;
#X obj 20 188 table tab_51;
#X obj 20 207 table tab_52;
#X obj 20 226 table tab_53;
#X obj 20 245 table tab_54;
#X obj 20 264 table tab_55;
#X obj 105 36 table tab_56;
#X obj 105 55 table tab_57;
#X obj 105 74 table tab_58;
#X obj 105 93 table tab_59;
#X obj 105 112 table tab_60;
#X obj 105 131 table tab_61;
#X obj 105 150 table tab_62;
#X obj 105 169 table tab_63;
#X obj 105 188 table tab_64;
#X obj 105 207 table tab_65;
#X obj 105 226 table tab_66;
#X obj 105 245 table tab_67;
#X obj 105 264 table tab_68;
#X obj 190 36 table tab_69;
#X obj 190 55 table tab_70;
#X obj 190 74 table tab_71;
#X obj 190 93 table tab_72;
#X obj 190 112 table tab_73;
#X obj 190 131 table tab_74;
#X obj 190 150 table tab_75;
#X obj 190 169 table tab_76;
#X obj 190 188 table tab_77;
#X restore 1057 493 pd armoire;
#N canvas 65 200 763 567 armement 0;
#X obj 198 507 soundfiler;
#X obj 244 339 until;
#X obj 245 413 textfile;
#X msg 311 389 rewind;
#X msg 244 362 bang;
#X obj 244 277 pipe 1;
#X msg 280 360 read notemap.txt cr;
#X obj 198 448 unpack s f;
#X obj 198 468 pack s s f;
#X obj 181 246 symbol;
#X obj 244 256 t s b;
#X obj 244 295 t b b;
#X msg 198 488 read -resize ./\$2/\$1 tab_\$3;
#X msg 244 319 35;
#X obj 181 18 inlet;
#X symbolatom 106 133 10 0 0 0 - - -;
#X obj 214 49 sel 0 1 2 3 4 5 6 7 8 9;
#X msg 271 200 Cello;
#X msg 207 86 MKIIFlute;
#X msg 295 243 CombinedChoir;
#X msg 248 155 MKIIViolin;
#X msg 283 222 StringSection;
#X msg 330 124 Woodwind;
#X msg 345 151 GC3Brass;
#X msg 220 109 M300A;
#X msg 232 133 M300B;
#X msg 260 178 MKIIBrass;
#X text 430 44 Here we load the choosen instrument into;
#X text 431 57 the bank of tables.;
#X text 431 73 The sound samples for each note have to;
#X text 430 87 be in folders located in the same folder;
#X text 431 102 as yellotron.pd.;
#X text 431 117 The samples (named C \, C# \, B...) are mapped;
#X text 431 130 to midi notes (60 \, 61 \, 62...) as per the information
;
#X text 431 144 contained in notemap.txt .;
#X text 104 115 Instrument;
#X connect 1 0 4 0;
#X connect 2 0 7 0;
#X connect 3 0 2 0;
#X connect 4 0 2 0;
#X connect 5 0 11 0;
#X connect 6 0 2 0;
#X connect 7 0 8 0;
#X connect 7 1 8 2;
#X connect 8 0 12 0;
#X connect 9 0 8 1;
#X connect 9 0 10 0;
#X connect 9 0 15 0;
#X connect 10 0 5 0;
#X connect 10 1 6 0;
#X connect 11 0 13 0;
#X connect 11 1 3 0;
#X connect 12 0 0 0;
#X connect 13 0 1 0;
#X connect 14 0 16 0;
#X connect 16 0 18 0;
#X connect 16 1 24 0;
#X connect 16 2 25 0;
#X connect 16 3 20 0;
#X connect 16 4 26 0;
#X connect 16 5 17 0;
#X connect 16 6 21 0;
#X connect 16 7 19 0;
#X connect 16 8 22 0;
#X connect 16 9 23 0;
#X connect 17 0 9 0;
#X connect 18 0 9 0;
#X connect 19 0 9 0;
#X connect 20 0 9 0;
#X connect 21 0 9 0;
#X connect 22 0 9 0;
#X connect 23 0 9 0;
#X connect 24 0 9 0;
#X connect 25 0 9 0;
#X connect 26 0 9 0;
#X coords 0 -1 1 1 85 60 2 100 100;
#X restore 110 234 pd armement;
#X obj 568 416 keyup;
#X obj 472 419 key;
#N canvas 319 350 450 345 convert 0;
#X obj 147 81 inlet;
#X obj 33 183 sel 113 122 115 101 100 102 116 103;
#X msg 18 229 0;
#X msg 32 262 1;
#X msg 55 232 2;
#X msg 72 264 3;
#X msg 96 232 4;
#X msg 117 261 5;
#X msg 140 231 6;
#X msg 163 259 7;
#X obj 176 134 sel 121 104 117 106 107 111 108 112 109;
#X msg 219 235 8;
#X msg 236 260 9;
#X msg 262 235 10;
#X msg 279 260 11;
#X msg 304 235 12;
#X msg 321 260 13;
#X msg 348 234 14;
#X msg 365 259 15;
#X msg 390 234 16;
#X obj 160 309 outlet;
#X text 27 15 This was desgined to play on an AZERTY keyboard \, with
the letter "q" mapped to the note C.;
#X text 27 42 For another keyboard layout you'll have to change the
numbers in the [sel] objects.;
#X connect 0 0 1 0;
#X connect 0 0 10 0;
#X connect 1 0 2 0;
#X connect 1 1 3 0;
#X connect 1 2 4 0;
#X connect 1 3 5 0;
#X connect 1 4 6 0;
#X connect 1 5 7 0;
#X connect 1 6 8 0;
#X connect 1 7 9 0;
#X connect 2 0 20 0;
#X connect 3 0 20 0;
#X connect 4 0 20 0;
#X connect 5 0 20 0;
#X connect 6 0 20 0;
#X connect 7 0 20 0;
#X connect 8 0 20 0;
#X connect 9 0 20 0;
#X connect 10 0 11 0;
#X connect 10 1 12 0;
#X connect 10 2 13 0;
#X connect 10 3 14 0;
#X connect 10 4 15 0;
#X connect 10 5 16 0;
#X connect 10 6 17 0;
#X connect 10 7 18 0;
#X connect 10 8 19 0;
#X connect 11 0 20 0;
#X connect 12 0 20 0;
#X connect 13 0 20 0;
#X connect 14 0 20 0;
#X connect 15 0 20 0;
#X connect 16 0 20 0;
#X connect 17 0 20 0;
#X connect 18 0 20 0;
#X connect 19 0 20 0;
#X restore 466 443 pd convert keys;
#N canvas 320 390 450 300 convert 0;
#X obj 147 21 inlet;
#X obj 33 123 sel 113 122 115 101 100 102 116 103;
#X msg 18 169 0;
#X msg 32 202 1;
#X msg 55 172 2;
#X msg 72 204 3;
#X msg 96 172 4;
#X msg 117 201 5;
#X msg 140 171 6;
#X msg 163 199 7;
#X obj 176 74 sel 121 104 117 106 107 111 108 112 109;
#X msg 219 175 8;
#X msg 236 200 9;
#X msg 262 175 10;
#X msg 279 200 11;
#X msg 304 175 12;
#X msg 321 200 13;
#X msg 348 174 14;
#X msg 365 199 15;
#X msg 390 174 16;
#X obj 160 249 outlet;
#X connect 0 0 1 0;
#X connect 0 0 10 0;
#X connect 1 0 2 0;
#X connect 1 1 3 0;
#X connect 1 2 4 0;
#X connect 1 3 5 0;
#X connect 1 4 6 0;
#X connect 1 5 7 0;
#X connect 1 6 8 0;
#X connect 1 7 9 0;
#X connect 2 0 20 0;
#X connect 3 0 20 0;
#X connect 4 0 20 0;
#X connect 5 0 20 0;
#X connect 6 0 20 0;
#X connect 7 0 20 0;
#X connect 8 0 20 0;
#X connect 9 0 20 0;
#X connect 10 0 11 0;
#X connect 10 1 12 0;
#X connect 10 2 13 0;
#X connect 10 3 14 0;
#X connect 10 4 15 0;
#X connect 10 5 16 0;
#X connect 10 6 17 0;
#X connect 10 7 18 0;
#X connect 10 8 19 0;
#X connect 11 0 20 0;
#X connect 12 0 20 0;
#X connect 13 0 20 0;
#X connect 14 0 20 0;
#X connect 15 0 20 0;
#X connect 16 0 20 0;
#X connect 17 0 20 0;
#X connect 18 0 20 0;
#X connect 19 0 20 0;
#X restore 562 443 pd convert keys;
#X obj 276 589 pack 0 0 0;
#X obj 466 507 t f b;
#X msg 493 528 50;
#X obj 514 507 t f b;
#X msg 541 528 0;
#X obj 274 611 route 1 2 3 4 5 6;
#X obj 868 447 s release;
#X obj 114 162 hsl 128 15 10 1000 0 0 empty empty empty -2 -8 0 10
-262144 -1 -1 2437 1;
#X floatatom 916 428 5 0 0 0 - - -;
#X obj 868 472 hradio 15 1 0 2 empty empty empty 0 -8 0 10 -262144
-1 -1 0;
#X obj 868 492 * 12;
#X obj 466 485 + 48;
#X obj 562 483 + 48;
#X obj 868 514 + 48;
#X obj 830 180 loadbang;
#X obj 868 534 s octave;
#X obj 583 462 r octave;
#X obj 271 143 vradio 15 1 0 10 empty empty empty 0 -8 0 10 -262144
-1 -1 2;
#X text 292 143 MkII Flute;
#X text 292 157 M300A;
#X text 292 172 M300B;
#X text 292 187 MkII Violin;
#X text 292 203 MkII Brass;
#X text 292 218 Cello;
#X text 292 232 String Section;
#X text 292 248 Combined Choir;
#X text 292 263 Woodwind;
#X text 292 278 GC3 Brass;
#X obj 114 200 hsl 128 15 0 0.125 0 0 empty empty empty -2 -8 0 10
-262144 -1 -1 6350 1;
#X obj 867 632 s pitch;
#X obj 867 607 - 0.0625;
#X obj 331 498 notein;
#X obj 466 589 pack 0 0 0;
#X obj 464 611 route 1 2 3 4 5 6;
#X obj 466 564 poly 6;
#X obj 278 499 poly 6;
#X obj 556 699 yelloscillator;
#X obj 811 531 bendin;
#X obj 811 551 / 16383;
#X obj 811 570 / 8;
#X obj 306 757 *~ 0.3;
#X text 1039 445 This is where all the notes;
#X text 1040 460 for the instrument are stored;
#X text 1040 474 in tables.;
#X text 656 698 The audio happens here (inidivual notes are played
;
#X text 655 713 and then summed together before being sent to the audio
output (dac).;
#X obj 868 382 r set-release;
#X obj 867 566 r set-pitch;
#X floatatom 807 658 5 0 0 0 - - -;
#X obj 266 699 yelloscillator;
#X obj 365 699 yelloscillator;
#X obj 316 725 yelloscillator;
#X obj 409 725 yelloscillator;
#X obj 463 699 yelloscillator;
#X text 961 819 Pierre Massat \, Guitar Extended \, 2014;
#X text 268 120 Choose an instrument.;
#X obj 935 87 loadbang;
#X msg 934 112 2;
#X obj 37 38 cnv 15 100 60 empty empty empty 20 12 0 14 -233017 -66577
0;
#X text 109 142 Release;
#X text 110 181 Pitch;
#X text 107 125 Yellotron..........................;
#X msg 830 201 \; set-release 200 \; set-pitch 0.0625;
#X obj 306 780 outlet~;
#X obj 276 8 inlet;
#X obj 310 33 inlet;
#X obj 355 58 declare -path ./Yellotron;
#X connect 4 0 17 0;
#X connect 5 0 18 0;
#X connect 6 0 11 0;
#X connect 7 0 40 0;
#X connect 7 1 8 0;
#X connect 8 0 40 1;
#X connect 9 0 40 0;
#X connect 9 1 10 0;
#X connect 10 0 40 1;
#X connect 11 0 55 0;
#X connect 11 1 56 0;
#X connect 11 2 57 0;
#X connect 11 3 58 0;
#X connect 11 4 59 0;
#X connect 11 5 42 0;
#X connect 13 0 14 0;
#X connect 13 0 12 0;
#X connect 15 0 16 0;
#X connect 16 0 19 0;
#X connect 17 0 7 0;
#X connect 18 0 9 0;
#X connect 19 0 21 0;
#X connect 20 0 68 0;
#X connect 22 0 18 1;
#X connect 22 0 17 1;
#X connect 23 0 1 0;
#X connect 34 0 36 0;
#X connect 36 0 35 0;
#X connect 36 0 54 0;
#X connect 38 0 39 0;
#X connect 39 0 55 1;
#X connect 39 1 56 1;
#X connect 39 2 59 1;
#X connect 39 3 42 1;
#X connect 39 4 57 1;
#X connect 39 5 58 1;
#X connect 40 0 38 0;
#X connect 40 1 38 1;
#X connect 40 2 38 2;
#X connect 41 0 6 0;
#X connect 41 1 6 1;
#X connect 41 2 6 2;
#X connect 42 0 46 0;
#X connect 43 0 44 0;
#X connect 44 0 45 0;
#X connect 45 0 34 0;
#X connect 46 0 69 0;
#X connect 52 0 13 0;
#X connect 53 0 34 0;
#X connect 55 0 46 0;
#X connect 56 0 46 0;
#X connect 57 0 46 0;
#X connect 58 0 46 0;
#X connect 59 0 46 0;
#X connect 62 0 63 0;
#X connect 63 0 23 0;
#X connect 70 0 41 0;
#X connect 71 0 41 1;
#X coords 0 -1 1 1 300 200 1 100 100;
#X restore 1049 811 pd yellotron;
#X obj 1062 776 makenote 100 200;
#X floatatom 1059 750 5 0 0 0 - - -;
#X obj 1179 1031 hsl 160 15 500 5000 0 0 empty empty empty -2 -8 0
10 -228856 -1 -1 0 1;
#X obj 1244 1053 hsl 128 15 0 1 0 0 empty empty empty -2 -8 0 10 -228856
-1 -1 0 1;
#X text 1256 1053 Q/resonance (0-1);
#X text 1186 1030 cutoff/center frequency;
#X obj 1072 1095 + 1;
#X obj 1112 1122 else/xselect~ 4 1000 1;
#X obj 1112 1095 else/svfilter~ 800 0.5;
#X obj 1241 1074 nbx 5 14 -1e+37 1e+37 0 0 empty empty empty 0 -8 0
10 -228856 -1 -1 0 256;
#X obj 1176 1054 nbx 5 14 -1e+37 1e+37 0 0 empty empty empty 0 -8 0
10 -228856 -1 -1 0 256;
#X floatatom 1055 1062 5 0 0 0 - - -;
#N canvas 1 477 334 374 bass 0;
#X obj 32 29 inlet;
#X obj 32 184 m-sub~;
#X floatatom 32 155 5 0 0 0 - - -;
#X obj 32 215 outlet~;
#X obj 65 56 inlet;
#X connect 0 0 2 0;
#X connect 1 0 3 0;
#X connect 2 0 1 0;
#X connect 4 0 1 1;
#X restore 476 338 pd bass;
#X floatatom 512 313 5 0 0 0 - - -;
#X msg 121 52 - -;
#X msg 289 172 - -;
#X msg 208 159 - - \$1 -;
#X obj 206 107 bng 15 250 50 0 empty empty empty 17 7 0 10 -262144
-1 -1;
#X obj 207 134 random 24;
#X obj 184 477 hsl 160 15 500 5000 0 0 empty empty empty -2 -8 0 10
-228856 -1 -1 0 1;
#X obj 249 499 hsl 128 15 0 1 0 0 empty empty empty -2 -8 0 10 -228856
-1 -1 0 1;
#X text 261 499 Q/resonance (0-1);
#X text 191 476 cutoff/center frequency;
#X obj 77 541 + 1;
#X obj 117 568 else/xselect~ 4 1000 1;
#X obj 117 541 else/svfilter~ 800 0.5;
#X obj 246 520 nbx 5 14 -1e+37 1e+37 0 0 empty empty empty 0 -8 0 10
-228856 -1 -1 0 256;
#X obj 181 500 nbx 5 14 -1e+37 1e+37 0 0 empty empty empty 0 -8 0 10
-228856 -1 -1 0 256;
#X floatatom 60 508 5 0 0 0 - - -;
#N canvas 311 306 646 445 reverb 0;
#X obj 30 270 else/plate.rev~;
#X obj 30 270 else/plate.rev~;
#X obj 29 36 inlet~;
#X obj 30 397 outlet~;
#X obj 29 298 +~, f 15;
#X connect 0 0 4 0;
#X connect 0 1 4 1;
#X connect 2 0 0 0;
#X connect 4 0 3 0;
#X restore 120 598 pd reverb;
#X text 417 410 todo list: 3M cables... RCA cables \, projector screen
rental. m-onz-audio : use else metronome and timing division. allow
syncing using ableton style clip launching integrate looping with tapeloop2~
create a switcher so that sequencers can choose differnt time subdivisions.
;
#X obj 1035 79 nbx 5 14 -1e+37 1e+37 0 0 empty empty empty 0 -8 0 10
-228856 -1 -1 0 256;
#X obj 1153 68 nbx 5 14 -1e+37 1e+37 0 0 empty empty empty 0 -8 0 10
-228856 -1 -1 0 256;
#X text 1214 68 decay time (ms);
#X obj 1212 90 nbx 5 14 -1e+37 1e+37 0 0 empty empty empty 0 -8 0 10
-228856 -1 -1 0 256;
#X obj 1094 43 else/dust~ 4;
#X obj 1035 110 else/pluck~ 50 2500 10000, f 30;
#X text 1007 80 Hz*;
#X text 1035 42 trigger;
#X obj 965 389 bng 18 250 50 0 empty empty empty 17 7 0 10 -228856
-1 -1;
#X text 960 411 stop;
#X obj 1000 458 bng 18 250 50 0 empty empty empty 17 7 0 10 -228856
-1 -1;
#X text 1026 454 start of pattern, f 8;
#X text 1076 419 Bar number and total number of tempos, f 20;
#X obj 965 358 route stop start bar dur;
#X text 1140 388 duration (also negative);
#X obj 875 446 else/impseq~;
#X obj 1070 388 else/display 8;
#X obj 1035 422 else/display 4;
#X msg 867 321 stop;
#X obj 874 357 else/pattern;
#X obj 85 320 nbx 5 14 -1e+37 1e+37 0 0 empty empty empty 0 -8 0 10
-228856 -1 -1 0 256;
#X obj 164 323 nbx 5 14 -1e+37 1e+37 0 0 empty empty empty 0 -8 0 10
-228856 -1 -1 0 256;
#X obj 29 347 else/ping.pong~ 200 0.7;
#X text 88 295 time;
#X text 162 299 feedback;
#X obj 1326 1109 nbx 5 14 -1e+37 1e+37 0 0 empty empty empty 0 -8 0
10 -228856 -1 -1 0 256;
#X obj 1405 1112 nbx 5 14 -1e+37 1e+37 0 0 empty empty empty 0 -8 0
10 -228856 -1 -1 0 256;
#X obj 1247 1147 else/ping.pong~ 200 0.7;
#X text 1329 1084 time;
#X text 1403 1088 feedback;
#X msg 1036 189 tempo 140;
#X obj 983 487 bng 15 250 50 0 empty empty empty 17 7 0 10 -262144
-1 -1;
#X obj 1049 498 unpack, f 22;
#X floatatom 1049 522 5 0 0 0 - - -;
#X floatatom 1177 521 5 0 0 0 - - -;
#X obj 776 290 tgl 15 0 empty empty empty 17 7 0 10 -262144 -1 -1 0
1;
#X msg 859 128 1/4 1/4 1/4 1/4;
#X obj 899 413 bng 15 250 50 0 empty empty empty 17 7 0 10 -262144
-1 -1;
#X msg 903 157 1/4 1/4 1/4 1/4 1/4 1/4 1/4 1/4;
#X msg 1059 255 swing 0;
#X obj 1158 319 metronome;
#X obj 442 519 hsl 128 15 40 400 0 0 empty empty empty -2 -8 0 10 -228856
-1 -1 0 1;
#X obj 439 541 nbx 5 14 -1e+37 1e+37 0 0 empty empty empty 0 -8 0 10
-262144 -1 -1 0 256;
#X floatatom 522 568 5 0 0 0 - - -;
#X obj 525 544 hsl 128 15 -2000 2000 0 0 empty empty empty -2 -8 0
10 -228856 -1 -1 0 1;
#X obj 349 571 else/comb.filt~ 200 1000;
#X text 542 544 decay time in ms;
#X text 473 520 frequency;
#X obj 217 390 drive~;
#X obj 293 351 nbx 5 14 -1e+37 1e+37 0 0 empty empty empty 0 -8 0 10
-228856 -1 -1 0 256;
#X obj 296 329 hsl 128 15 0 5 0 0 empty empty empty -2 -8 0 10 -228856
-1 -1 0 1;
#X obj 293 372 else/float2sig~ 50;
#X obj 547 290 print;
#X obj 545 246 bng 15 250 50 0 empty empty empty 17 7 0 10 -262144
-1 -1;
#X obj 547 268 js ./library/constrainedseq.js;
#X floatatom 666 247 5 0 0 0 - - -;
#X floatatom 722 244 5 0 0 0 - - -;
#X msg 580 210 60 65 70 80 84;
#X msg 601 228 55 58 62;
#X obj 481 291 sequencer;
#X obj 481 268 r pulse3;
#X msg 540 218 - -;
#X obj 556 342 else/display;
#X obj 451 1135 *~ 0.5;
#N canvas 1 351 715 508 OSC_out 0;
#X obj 148 178 oscformat /test;
#X obj 148 202 list prepend send;
#X floatatom 148 156 5 0 0 0 - - -;
#X obj 148 225 list trim;
#X obj 148 256 netsend -u -b;
#X msg 55 120 connect 192.168.1.246 9999;
#X obj 148 26 inlet;
#X obj 68 98 loadbang;
#X obj 262 208 list prepend send;
#X floatatom 262 162 5 0 0 0 - - -;
#X obj 262 231 list trim;
#X obj 262 184 oscformat /demo;
#X obj 273 34 inlet;
#X connect 0 0 1 0;
#X connect 1 0 3 0;
#X connect 2 0 0 0;
#X connect 3 0 4 0;
#X connect 5 0 4 0;
#X connect 6 0 2 0;
#X connect 7 0 5 0;
#X connect 8 0 10 0;
#X connect 9 0 11 0;
#X connect 10 0 4 0;
#X connect 11 0 8 0;
#X connect 12 0 9 0;
#X restore 765 44 pd OSC_out;
#X floatatom 766 22 5 0 0 0 - - -;
#X connect 2 0 3 0;
#X connect 2 0 0 0;
#X connect 2 0 0 1;
#X connect 5 0 20 0;
#X connect 6 0 21 0;
#X connect 7 0 8 0;
#X connect 8 0 10 0;
#X connect 10 0 9 0;
#X connect 11 0 17 1;
#X connect 12 0 17 2;
#X connect 13 0 17 0;
#X connect 14 0 17 3;
#X connect 15 0 7 1;
#X connect 15 0 25 0;
#X connect 16 0 35 0;
#X connect 17 0 15 0;
#X connect 18 0 10 1;
#X connect 19 0 9 1;
#X connect 22 0 11 0;
#X connect 22 1 12 0;
#X connect 22 2 14 0;
#X connect 22 4 18 0;
#X connect 22 5 19 0;
#X connect 23 0 7 1;
#X connect 24 0 7 1;
#X connect 26 0 7 1;
#X connect 27 0 7 1;
#X connect 28 0 2 0;
#X connect 29 0 28 0;
#X connect 30 0 33 0;
#X connect 30 1 33 1;
#X connect 32 0 31 0;
#X connect 34 0 191 0;
#X connect 34 2 5 0;
#X connect 34 3 4 0;
#X connect 34 4 6 0;
#X connect 35 0 22 0;
#X connect 39 0 56 0;
#X connect 40 0 39 1;
#X connect 41 0 39 0;
#X connect 42 0 40 0;
#X connect 44 0 45 0;
#X connect 45 0 43 0;
#X connect 45 0 80 1;
#X connect 46 0 45 2;
#X connect 47 0 45 3;
#X connect 48 0 122 0;
#X connect 48 0 150 0;
#X connect 49 0 52 0;
#X connect 50 0 10 1;
#X connect 51 0 45 1;
#X connect 52 0 48 0;
#X connect 53 0 54 0;
#X connect 54 0 50 0;
#X connect 55 0 2 0;
#X connect 56 0 2 0;
#X connect 58 0 9 0;
#X connect 59 0 9 0;
#X connect 60 0 76 0;
#X connect 61 0 52 0;
#X connect 61 0 45 1;
#X connect 62 0 52 1;
#X connect 62 0 82 1;
#X connect 62 0 92 1;
#X connect 63 0 66 1;
#X connect 64 0 66 0;
#X connect 65 0 66 2;
#X connect 68 0 67 0;
#X connect 69 0 68 0;
#X connect 70 0 29 0;
#X connect 71 0 72 0;
#X connect 73 0 68 1;
#X connect 74 0 62 0;
#X connect 74 0 61 0;
#X connect 75 0 74 0;
#X connect 76 0 32 0;
#X connect 77 0 74 1;
#X connect 78 0 45 1;
#X connect 79 0 176 0;
#X connect 80 0 82 0;
#X connect 81 0 80 0;
#X connect 82 0 83 0;
#X connect 83 0 79 0;
#X connect 85 0 86 0;
#X connect 86 0 84 0;
#X connect 86 0 90 1;
#X connect 87 0 86 2;
#X connect 88 0 86 3;
#X connect 89 0 86 1;
#X connect 90 0 92 0;
#X connect 91 0 90 0;
#X connect 92 0 98 0;
#X connect 93 0 74 1;
#X connect 94 0 95 0;
#X connect 95 0 73 0;
#X connect 96 0 105 0;
#X connect 97 0 96 0;
#X connect 97 1 96 1;
#X connect 98 0 97 0;
#X connect 99 0 107 0;
#X connect 100 0 106 0;
#X connect 103 0 104 0;
#X connect 104 0 155 0;
#X connect 105 0 104 0;
#X connect 105 1 104 1;
#X connect 105 2 104 2;
#X connect 105 3 104 3;
#X connect 106 0 105 2;
#X connect 107 0 105 1;
#X connect 108 0 103 0;
#X connect 109 0 2 0;
#X connect 110 0 109 1;
#X connect 111 0 74 1;
#X connect 112 0 80 1;
#X connect 113 0 74 1;
#X connect 114 0 115 0;
#X connect 115 0 113 0;
#X connect 116 0 124 0;
#X connect 117 0 123 0;
#X connect 120 0 121 0;
#X connect 121 0 126 0;
#X connect 122 0 121 0;
#X connect 122 1 121 1;
#X connect 122 2 121 2;
#X connect 122 3 121 3;
#X connect 123 0 122 2;
#X connect 124 0 122 1;
#X connect 125 0 120 0;
#X connect 128 0 133 0;
#X connect 129 0 133 2;
#X connect 131 0 133 3;
#X connect 132 0 133 1;
#X connect 141 0 136 0;
#X connect 141 1 138 0;
#X connect 141 1 159 0;
#X connect 141 2 145 0;
#X connect 141 2 160 0;
#X connect 141 3 144 0;
#X connect 143 0 2 0;
#X connect 146 0 147 0;
#X connect 147 0 143 0;
#X connect 147 0 165 0;
#X connect 147 1 141 0;
#X connect 148 0 150 1;
#X connect 149 0 150 2;
#X connect 150 0 2 0;
#X connect 153 0 155 1;
#X connect 154 0 155 2;
#X connect 155 0 55 0;
#X connect 158 0 147 0;
#X connect 160 0 161 0;
#X connect 160 1 162 0;
#X connect 163 0 147 0;
#X connect 164 0 147 1;
#X connect 166 0 147 1;
#X connect 167 0 147 0;
#X connect 169 0 170 0;
#X connect 170 0 173 1;
#X connect 171 0 173 2;
#X connect 172 0 171 0;
#X connect 176 0 2 0;
#X connect 177 0 179 0;
#X connect 178 0 177 0;
#X connect 179 0 176 1;
#X connect 181 0 182 0;
#X connect 182 0 180 0;
#X connect 182 0 187 1;
#X connect 182 0 190 0;
#X connect 183 0 182 2;
#X connect 184 0 182 3;
#X connect 185 0 182 1;
#X connect 186 0 182 1;
#X connect 187 0 109 0;
#X connect 188 0 187 0;
#X connect 189 0 187 1;
#X connect 191 0 2 0;
#X connect 193 0 192 0;
