#N canvas 1 139 1438 720 10;
#X declare -path ./sounds;
#X declare -path ./library;
#X declare -path pdjs;
#X declare -path else;
#X declare -path ./instruments/beatslicer;
#X declare -path ./instruments/fm;
#X declare -path ./instruments/sub;
#X declare -path ./instruments/poly;
#X declare -path ./instruments/acid;
#X declare -path ./instruments/dx7;
#X obj 71 889 dac~;
#X text 42 889 fake;
#X obj 94 740 *~ 0.8;
#N canvas 281 187 630 372 spectrolog 0;
#N canvas 556 61 872 789 FFT_Analyse 0;
#X obj 101 102 inlet~;
#X obj 101 332 *~;
#X obj 132 331 *~;
#X obj 101 356 +~;
#X obj 102 377 powtodb~;
#N canvas 0 22 346 535 init_input_window 0;
#X obj 73 217 / 10;
#X obj 55 278 line 0 0.1;
#X msg 119 246 0;
#X obj 54 176 t f f b;
#X obj 54 239 pack;
#X obj 55 301 t f f;
#X obj 54 152 - 1;
#X obj 74 114 t f f;
#X obj 55 359 * 3.14159;
#X obj 55 381 sin;
#X msg 55 401 \$1 \$1;
#X obj 55 423 *;
#X text 119 334 0...0.99;
#X text 128 359 0...pi;
#X text 79 423 hanning;
#X msg 55 88 4096;
#X obj 100 88 f 4096;
#X obj 99 60 bng 15 250 50 0 empty empty empty 0 -6 0 8 -262144 -1
-1;
#X obj 99 39 loadbang;
#X obj 74 333 / 4096;
#X obj 55 448 tabwrite \$0-window;
#X text 86 381 half-sine;
#X connect 0 0 4 1;
#X connect 1 0 5 0;
#X connect 2 0 1 0;
#X connect 3 0 4 0;
#X connect 3 1 0 0;
#X connect 3 2 2 0;
#X connect 4 0 1 0;
#X connect 5 0 19 0;
#X connect 5 1 20 1;
#X connect 6 0 3 0;
#X connect 7 0 6 0;
#X connect 7 1 19 1;
#X connect 8 0 9 0;
#X connect 9 0 10 0;
#X connect 10 0 11 0;
#X connect 11 0 20 0;
#X connect 15 0 7 0;
#X connect 16 0 7 0;
#X connect 17 0 16 0;
#X connect 18 0 17 0;
#X connect 19 0 8 0;
#X restore 161 276 pd init_input_window;
#N canvas 0 22 450 300 (subpatch) 0;
#X array \$0-lin_scope 2048 float 0;
#X coords 0 100 2047 0 200 140 1;
#X restore 110 621 graph;
#N canvas 0 22 822 328 init_norm 0;
#X obj 43 230 outlet;
#X obj 43 187 - 100;
#X floatatom 43 208 9 0 0 0 - - -;
#X text 108 169 leistung - techn. dB;
#X msg 43 69 4096;
#X obj 80 68 f 4096;
#X obj 80 47 bng 15 250 50 0 empty empty empty 0 -6 0 8 -262144 -1
-1;
#X obj 80 26 loadbang;
#X obj 43 167 rmstodb;
#X obj 43 110 / 4;
#X text 74 103 faktor 2 wegen hanning;
#X text 74 114 weiterer faktor 2 \, weil wir nur die;
#X text 73 124 erste haelfte des konjungiert komplexen spektrum sehen
;
#X text 108 135 bzw. bearbeiten \, somit nur die haelfte der spektralen
energie;
#X connect 1 0 2 0;
#X connect 2 0 0 0;
#X connect 4 0 9 0;
#X connect 5 0 9 0;
#X connect 6 0 5 0;
#X connect 7 0 6 0;
#X connect 8 0 1 0;
#X connect 9 0 8 0;
#X restore 153 421 pd init_norm;
#X obj 100 231 *~;
#X obj 102 443 -~ 60.206;
#X obj 113 517 *~ 0.98;
#X obj 100 539 +~;
#X obj 101 471 *~ 0.02;
#X msg 314 481 1 \$1;
#X obj 314 502 -;
#X obj 314 458 clip 0 1;
#X obj 314 437 / 100;
#X floatatom 314 413 5 0.5 100 0 - - -;
#X obj 333 366 loadbang;
#X obj 100 277 fft~;
#X obj 463 557 line 0 0.1;
#X obj 463 602 / 2;
#X obj 463 622 mtof;
#X msg 463 536 6 \, 273 26.7;
#X obj 463 580 t f f;
#X obj 494 602 - 6;
#X obj 463 642 / 44100;
#X obj 463 663 * 4096;
#X msg 656 633 6;
#X obj 656 653 / 2;
#X obj 656 673 mtof;
#X floatatom 656 693 9 0 0 0 - - -;
#X text 723 694 Hz;
#X obj 754 654 / 2;
#X obj 754 673 mtof;
#X floatatom 754 693 9 0 0 0 - - -;
#X text 822 693 Hz;
#X msg 754 634 273;
#X obj 656 612 t b b;
#X obj 463 498 tgl 15 0 empty empty empty 0 -6 0 8 -262144 -1 -1 1
1;
#X obj 463 458 loadbang;
#X msg 463 478 1;
#X obj 656 592 loadbang;
#X obj 468 245 loadbang;
#X obj 703 102 inlet;
#X obj 130 253 table \$0-window 4096;
#X obj 137 214 tabreceive~ \$0-window;
#X text 353 403 temporal lowpass;
#X text 355 415 parameter between 0 .. 100 %;
#X text 23 23 spectrum~;
#X text 120 23 draws the power of a spectrum in a logarithmic scale
;
#X text 118 36 (by Thomas Musil);
#X obj 113 496 tabreceive~ \$0-lin_scope;
#X obj 100 564 tabsend~ \$0-lin_scope;
#X obj 463 685 tabread4 \$0-lin_scope;
#X obj 468 267 f \$0;
#X text 553 536 transformation to log scale;
#X msg 333 385 100;
#X obj 314 341 max 0.5;
#X obj 314 319 min 100;
#X obj 440 107 inlet;
#X text 96 81 audio sig;
#X text 700 81 ON/OFF;
#X text 427 86 (0 .. 100);
#X text 408 72 temporal lowpass;
#X obj 533 244 bng 15 250 50 0 empty empty empty 0 -6 0 8 -262144 -1
-1;
#X obj 463 735 tabwrite \$0-s;
#X msg 468 296 \; \$1-s xticks 0 12 2;
#X msg 491 330 \; \$1-s yticks 0 5 2;
#X obj 462 516 metro 100;
#X obj 704 166 switch~ 4096 2;
#X obj 463 711 clip 0 100;
#X obj 773 101 loadbang;
#X msg 773 123 1;
#X connect 0 0 8 0;
#X connect 1 0 3 0;
#X connect 2 0 3 1;
#X connect 3 0 4 0;
#X connect 4 0 9 0;
#X connect 7 0 9 1;
#X connect 8 0 19 0;
#X connect 9 0 12 0;
#X connect 10 0 11 1;
#X connect 11 0 53 0;
#X connect 12 0 11 0;
#X connect 13 0 14 0;
#X connect 14 0 10 1;
#X connect 15 0 13 0;
#X connect 15 0 12 1;
#X connect 16 0 15 0;
#X connect 17 0 16 0;
#X connect 18 0 57 0;
#X connect 19 0 1 0;
#X connect 19 0 1 1;
#X connect 19 1 2 0;
#X connect 19 1 2 1;
#X connect 20 0 24 0;
#X connect 21 0 22 0;
#X connect 22 0 26 0;
#X connect 23 0 20 0;
#X connect 24 0 21 0;
#X connect 24 1 25 0;
#X connect 25 0 66 1;
#X connect 26 0 27 0;
#X connect 27 0 54 0;
#X connect 28 0 29 0;
#X connect 29 0 30 0;
#X connect 30 0 31 0;
#X connect 33 0 34 0;
#X connect 34 0 35 0;
#X connect 37 0 33 0;
#X connect 38 0 28 0;
#X connect 38 1 37 0;
#X connect 39 0 69 0;
#X connect 40 0 41 0;
#X connect 41 0 39 0;
#X connect 42 0 38 0;
#X connect 43 0 55 0;
#X connect 44 0 70 0;
#X connect 46 0 8 1;
#X connect 52 0 10 0;
#X connect 54 0 71 0;
#X connect 55 0 67 0;
#X connect 55 0 68 0;
#X connect 57 0 17 0;
#X connect 58 0 17 0;
#X connect 59 0 58 0;
#X connect 60 0 59 0;
#X connect 65 0 55 0;
#X connect 69 0 23 0;
#X connect 71 0 66 0;
#X connect 72 0 73 0;
#X connect 73 0 70 0;
#X restore 17 320 pd FFT_Analyse;
#X obj 63 299 inlet;
#X obj 17 299 inlet~;
#X obj 110 299 inlet;
#N canvas 0 22 450 300 (subpatch) 0;
#X array \$0-s 268 float 0;
#X coords 0 100 267 0 267 140 1;
#X restore 23 27 graph;
#X obj 297 42 cnv 15 1 1 empty empty -10 0 0 0 10 -262144 -1 0;
#X obj 297 154 cnv 15 1 1 empty empty -90 0 0 0 10 -262144 -1 0;
#X obj 297 98 cnv 15 1 1 empty empty -50 0 0 0 10 -262144 -1 0;
#X obj 297 70 cnv 15 1 1 empty empty -30 0 0 0 10 -262144 -1 0;
#X obj 297 126 cnv 15 1 1 empty empty -70 0 0 0 10 -262144 -1 0;
#X obj 18 171 cnv 15 1 1 empty empty 10 0 5 0 10 -262144 -1 0;
#X obj 66 171 cnv 15 1 1 empty empty 40 0 5 0 10 -262144 -1 0;
#X obj 115 171 cnv 15 1 1 empty empty 160 0 5 0 10 -262144 -1 0;
#X obj 162 171 cnv 15 1 1 empty empty 640 0 5 0 10 -262144 -1 0;
#X obj 210 171 cnv 15 1 1 empty empty 2k56 0 5 0 10 -262144 -1 0;
#X obj 258 171 cnv 15 1 1 empty empty 10k2 0 5 0 10 -262144 -1 0;
#X obj 138 184 cnv 15 1 1 empty empty 320 0 5 0 10 -262144 -1 0;
#X obj 282 184 cnv 15 1 1 empty empty 20k5 0 5 0 10 -262144 -1 0;
#X obj 42 181 cnv 15 1 1 empty empty 20 0 9 0 10 -262144 -1 0;
#X obj 90 184 cnv 15 1 1 empty empty 80 0 5 0 10 -262144 -1 0;
#X obj 186 184 cnv 15 1 1 empty empty 1k28 0 5 0 10 -262144 -1 0;
#X obj 234 184 cnv 15 1 1 empty empty 5k12 0 5 0 10 -262144 -1 0;
#X obj 46 168 cnv 15 1 1 empty empty | 0 7 0 10 -262144 -1 0;
#X obj 94 168 cnv 15 1 1 empty empty | 0 7 0 10 -262144 -1 0;
#X obj 142 168 cnv 15 1 1 empty empty | 0 7 0 10 -262144 -1 0;
#X obj 190 168 cnv 15 1 1 empty empty | 0 7 0 10 -262144 -1 0;
#X obj 238 168 cnv 15 1 1 empty empty | 0 7 0 10 -262144 -1 0;
#X obj 286 168 cnv 15 1 1 empty empty | 0 7 0 10 -262144 -1 0;
#X connect 1 0 0 1;
#X connect 2 0 0 0;
#X connect 3 0 0 2;
#X coords 0 -1 1 1 330 210 1 0 0;
#X restore 128 519 pd spectrolog;
#X obj 868 993 bng 15 250 50 0 empty empty empty 17 7 0 10 -262144
-1 -1;
#X obj 734 993 bng 15 250 50 0 empty empty empty 17 7 0 10 -262144
-1 -1;
#X obj 1002 995 bng 15 250 50 0 empty empty empty 17 7 0 10 -262144
-1 -1;
#X obj 782 199 sequencer;
#X floatatom 780 224 5 0 0 0 - - -;
#N canvas 0 640 334 374 bass 0;
#X obj 32 29 inlet;
#X obj 32 184 m-sub~;
#X floatatom 32 155 5 0 0 0 - - -;
#X obj 32 215 outlet~;
#X obj 65 56 inlet;
#X connect 0 0 2 0;
#X connect 1 0 3 0;
#X connect 2 0 1 0;
#X connect 4 0 1 1;
#X restore 796 316 pd bass;
#X obj 775 264 +;
#X floatatom 851 95 5 0 0 0 - - -;
#X floatatom 919 95 5 0 0 0 - - -;
#X obj 738 69 bng 15 250 50 0 empty empty empty 17 7 0 10 -262144 -1
-1;
#X floatatom 983 94 5 0 0 0 - - -;
#X obj 776 166 else/display 0 7;
#X obj 853 21 loadbang;
#X obj 774 138 js ./library/randseq.js, f 33;
#X floatatom 811 261 5 0 0 0 - - -;
#X floatatom 835 293 5 0 0 0 - - -;
#X obj 869 1014 s pulse3;
#X obj 1001 1016 s pulse2;
#X obj 854 69 unpack 0 0 0 0 0 0;
#X msg 1072 149 2 - - - 6 - - - - 2 - 4 - - - -;
#X msg 1072 176 - - - - - 0 - - 0 - - - - 0 - 3;
#X obj 871 212 print;
#X msg 1064 202 4 - 0 - 6 5 0 5 4 4 3 5 0 - - 1;
#X msg 1084 110 - - - -;
#N canvas 1 453 635 406 drums 0;
#X obj 52 272 drumkit~, f 43;
#X floatatom 52 251 5 0 0 0 - - -;
#X floatatom 88 251 5 0 0 0 - - -;
#X floatatom 124 250 5 0 0 0 - - -;
#X floatatom 160 250 5 0 0 0 - - -;
#X floatatom 196 250 5 0 0 0 - - -;
#X floatatom 232 250 5 0 0 0 - - -;
#X floatatom 270 250 5 0 0 0 - - -;
#X floatatom 306 250 5 0 0 0 - - -;
#X obj 67 39 r kick;
#X obj 115 39 r snare;
#X obj 279 40 r hat;
#X obj 168 39 r clap;
#X obj 427 39 r ride;
#X obj 320 39 r perc1;
#X obj 374 40 r perc2;
#X obj 474 38 r crash;
#X obj 213 40 r rimshot;
#N canvas 0 96 829 296 drumseq 0;
#X obj 32 124 sequencer;
#X obj 98 125 sequencer;
#X obj 186 127 sequencer;
#X obj 185 104 r pulse3;
#X obj 278 129 sequencer;
#X obj 31 101 r pulse3;
#X obj 97 102 r pulse3;
#X obj 278 106 r pulse3;
#X obj 31 195 s kick;
#X obj 97 195 s rimshot;
#X obj 185 201 s hat;
#X obj 281 201 s snare;
#X obj 370 196 s clap;
#X obj 434 197 s ride;
#X obj 521 201 s perc1;
#X obj 617 206 s perc2;
#X obj 683 199 s crash;
#X obj 370 125 sequencer;
#X obj 436 126 sequencer;
#X obj 524 128 sequencer;
#X obj 523 105 r pulse3;
#X obj 616 130 sequencer;
#X obj 369 102 r pulse3;
#X obj 435 103 r pulse3;
#X obj 616 107 r pulse3;
#X obj 681 127 sequencer;
#X obj 681 104 r pulse3;
#X obj 79 58 r kick-seq;
#X obj 154 56 r rimshot-seq;
#X obj 197 79 r hat-seq;
#X obj 301 71 r snare-seq;
#X obj 371 42 r clap-seq;
#X obj 457 61 r ride-seq;
#X obj 543 61 r perc1-seq;
#X obj 620 33 r perc2-seq;
#X obj 724 76 r crash-seq;
#X connect 0 0 8 0;
#X connect 1 0 9 0;
#X connect 2 0 10 0;
#X connect 3 0 2 0;
#X connect 4 0 11 0;
#X connect 5 0 0 0;
#X connect 6 0 1 0;
#X connect 7 0 4 0;
#X connect 17 0 12 0;
#X connect 18 0 13 0;
#X connect 19 0 14 0;
#X connect 20 0 19 0;
#X connect 21 0 15 0;
#X connect 22 0 17 0;
#X connect 23 0 18 0;
#X connect 24 0 21 0;
#X connect 25 0 16 0;
#X connect 26 0 25 0;
#X connect 27 0 0 1;
#X connect 28 0 1 1;
#X connect 29 0 2 1;
#X connect 30 0 4 1;
#X connect 31 0 17 1;
#X connect 32 0 18 1;
#X connect 33 0 19 1;
#X connect 34 0 21 1;
#X connect 35 0 25 1;
#X restore 104 334 pd drumseq;
#X floatatom 347 250 5 0 0 0 - - -;
#X obj 126 225 i;
#X obj 125 200 b;
#X floatatom 126 135 5 0 0 0 - - -;
#X obj 161 220 i;
#X obj 160 195 b;
#X floatatom 168 135 5 0 0 0 - - -;
#X obj 89 220 i;
#X obj 88 195 b;
#X floatatom 72 138 5 0 0 0 - - -;
#X obj 54 222 i;
#X obj 53 197 b;
#X floatatom 22 134 5 0 0 0 - - -;
#X obj 233 221 i;
#X obj 232 196 b;
#X floatatom 274 133 5 0 0 0 - - -;
#X obj 272 223 i;
#X obj 271 198 b;
#X floatatom 319 132 5 0 0 0 - - -;
#X obj 309 222 i;
#X obj 308 197 b;
#X floatatom 370 131 5 0 0 0 - - -;
#X obj 348 223 i;
#X obj 347 198 b;
#X floatatom 415 133 5 0 0 0 - - -;
#N canvas 0 96 629 300 random-kit 0;
#X obj 57 20 inlet;
#X obj 19 143 random 100;
#X obj 86 143 random 100;
#X obj 155 141 random 100;
#X obj 222 141 random 100;
#X obj 289 139 random 100;
#X obj 356 139 random 100;
#X obj 425 137 random 100;
#X obj 492 137 random 100;
#X obj 55 43 b;
#X obj 560 136 random 100;
#X obj 15 215 outlet;
#X obj 63 214 outlet;
#X obj 111 215 outlet;
#X obj 159 214 outlet;
#X obj 203 212 outlet;
#X obj 251 211 outlet;
#X obj 299 212 outlet;
#X obj 347 211 outlet;
#X obj 405 214 outlet;
#X connect 0 0 9 0;
#X connect 1 0 11 0;
#X connect 2 0 12 0;
#X connect 3 0 13 0;
#X connect 4 0 14 0;
#X connect 5 0 15 0;
#X connect 6 0 16 0;
#X connect 7 0 17 0;
#X connect 8 0 18 0;
#X connect 9 0 1 0;
#X connect 9 0 2 0;
#X connect 9 0 3 0;
#X connect 9 0 4 0;
#X connect 9 0 5 0;
#X connect 9 0 6 0;
#X connect 9 0 7 0;
#X connect 9 0 8 0;
#X connect 9 0 10 0;
#X connect 10 0 19 0;
#X restore 25 109 pd random-kit;
#X f 66;
#X obj 196 224 i;
#X obj 195 199 b;
#X floatatom 222 136 5 0 0 0 - - -;
#X obj 10 16 inlet;
#X obj 52 334 outlet~;
#X connect 0 0 49 0;
#X connect 1 0 0 0;
#X connect 2 0 0 1;
#X connect 3 0 0 2;
#X connect 4 0 0 3;
#X connect 5 0 0 4;
#X connect 6 0 0 5;
#X connect 7 0 0 6;
#X connect 8 0 0 7;
#X connect 9 0 30 0;
#X connect 10 0 27 0;
#X connect 11 0 46 0;
#X connect 12 0 21 0;
#X connect 13 0 39 0;
#X connect 14 0 33 0;
#X connect 15 0 36 0;
#X connect 16 0 42 0;
#X connect 17 0 24 0;
#X connect 19 0 0 8;
#X connect 20 0 3 0;
#X connect 21 0 20 0;
#X connect 22 0 20 1;
#X connect 23 0 4 0;
#X connect 24 0 23 0;
#X connect 25 0 23 1;
#X connect 26 0 2 0;
#X connect 27 0 26 0;
#X connect 28 0 26 1;
#X connect 29 0 1 0;
#X connect 30 0 29 0;
#X connect 31 0 29 1;
#X connect 32 0 6 0;
#X connect 33 0 32 0;
#X connect 34 0 32 1;
#X connect 35 0 7 0;
#X connect 36 0 35 0;
#X connect 37 0 35 1;
#X connect 38 0 8 0;
#X connect 39 0 38 0;
#X connect 40 0 38 1;
#X connect 41 0 19 0;
#X connect 42 0 41 0;
#X connect 43 0 41 1;
#X connect 44 0 31 0;
#X connect 44 1 28 0;
#X connect 44 2 22 0;
#X connect 44 3 25 0;
#X connect 44 4 47 0;
#X connect 44 5 34 0;
#X connect 44 6 37 0;
#X connect 44 7 40 0;
#X connect 44 8 43 0;
#X connect 45 0 5 0;
#X connect 46 0 45 0;
#X connect 47 0 45 1;
#X connect 48 0 44 0;
#X restore 162 821 pd drums;
#X obj 163 801 bng 15 250 50 0 empty empty empty 17 7 0 10 -262144
-1 -1;
#N canvas 64 455 1020 625 chords 0;
#X obj 88 424 makenote 100 200;
#X floatatom 85 398 5 0 0 0 - - -;
#X obj 100 355 makenote 100 200;
#X floatatom 97 329 5 0 0 0 - - -;
#X msg 383 62 50 53 57;
#X msg 380 31 38 50 53 57;
#X msg 673 335 41 44 48;
#X msg 803 336 44 47 51;
#X msg 738 334 49 52 56;
#X msg 479 41 47 48 52;
#X msg 482 69 45 48 52 55 59 62;
#X msg 493 94 47 48 52 59;
#X msg 509 196 37 42 45 52 59;
#X msg 501 146 40 45 48 55 59 62;
#X obj 93 201 unpack 0 0 0 0 0 0 0 0 0 0, f 45;
#X obj 165 324 makenote 100 200;
#X floatatom 162 298 5 0 0 0 - - -;
#X obj 258 381 makenote 100 200;
#X floatatom 255 355 5 0 0 0 - - -;
#X obj 322 351 makenote 100 200;
#X floatatom 319 325 5 0 0 0 - - -;
#N canvas 0 96 450 300 dbsp 0;
#X obj 54 91 inlet;
#X obj 181 99 inlet;
#X obj 54 210 outlet;
#X obj 181 218 outlet;
#X obj 54 147 spigot 1;
#X obj 167 151 spigot 1;
#X connect 0 0 4 0;
#X connect 1 0 5 0;
#X connect 4 0 2 0;
#X connect 5 0 3 0;
#X restore 112 456 pd dbsp;
#X obj 92 520 outlet;
#X obj 146 517 outlet;
#X obj 673 258 sequencer;
#X obj 673 286 sel 0 1 2;
#X msg 715 134 0 - - 0 - 0 - 0 - 1 - 2 - 2 - 2;
#X msg 754 223 - - - -;
#X obj 813 597 outlet;
#X obj 603 415 unpack 0 0 0;
#X floatatom 599 495 5 0 0 0 - - -;
#X floatatom 634 492 5 0 0 0 - - -;
#X floatatom 675 490 5 0 0 0 - - -;
#X obj 605 549 i;
#X obj 640 545 i;
#X obj 682 545 i;
#X obj 502 449 random 3;
#X obj 504 425 b;
#X obj 465 494 sel 0 1 2;
#X obj 600 584 + 24;
#X obj 639 580 + 24;
#X obj 677 578 + 24;
#X floatatom 740 532 5 0 0 0 - - -;
#X obj 50 276 +;
#X obj 95 276 +;
#X obj 166 260 +;
#X obj 211 260 +;
#X obj 273 272 +;
#X floatatom 78 128 5 0 0 0 - - -;
#X obj 661 222 r pulse3;
#X connect 0 0 21 0;
#X connect 0 1 21 1;
#X connect 1 0 0 0;
#X connect 2 0 21 0;
#X connect 2 1 21 1;
#X connect 3 0 2 0;
#X connect 4 0 14 0;
#X connect 5 0 14 0;
#X connect 6 0 14 0;
#X connect 6 0 29 0;
#X connect 7 0 14 0;
#X connect 7 0 29 0;
#X connect 8 0 14 0;
#X connect 8 0 29 0;
#X connect 9 0 14 0;
#X connect 10 0 14 0;
#X connect 11 0 14 0;
#X connect 12 0 14 0;
#X connect 13 0 14 0;
#X connect 14 0 43 0;
#X connect 14 1 44 0;
#X connect 14 2 45 0;
#X connect 14 3 46 0;
#X connect 14 4 47 0;
#X connect 15 0 21 0;
#X connect 15 1 21 1;
#X connect 16 0 15 0;
#X connect 17 0 21 0;
#X connect 17 1 21 1;
#X connect 18 0 17 0;
#X connect 19 0 21 0;
#X connect 19 1 21 1;
#X connect 20 0 19 0;
#X connect 21 0 22 0;
#X connect 21 1 23 0;
#X connect 24 0 25 0;
#X connect 24 0 48 0;
#X connect 26 0 24 1;
#X connect 27 0 24 1;
#X connect 29 0 30 0;
#X connect 29 0 37 0;
#X connect 29 1 31 0;
#X connect 29 2 32 0;
#X connect 30 0 33 1;
#X connect 31 0 34 1;
#X connect 32 0 35 1;
#X connect 33 0 39 0;
#X connect 34 0 40 0;
#X connect 35 0 41 0;
#X connect 36 0 38 0;
#X connect 37 0 36 0;
#X connect 38 0 33 0;
#X connect 38 1 34 0;
#X connect 38 2 35 0;
#X connect 39 0 28 0;
#X connect 40 0 28 0;
#X connect 41 0 28 0;
#X connect 42 0 41 1;
#X connect 42 0 40 1;
#X connect 42 0 39 1;
#X connect 43 0 1 0;
#X connect 44 0 3 0;
#X connect 45 0 16 0;
#X connect 46 0 18 0;
#X connect 47 0 20 0;
#X connect 48 0 43 1;
#X connect 48 0 44 1;
#X connect 48 0 45 1;
#X connect 48 0 46 1;
#X connect 48 0 47 1;
#X connect 49 0 24 0;
#X restore 149 745 pd chords;
#X f 12;
#X obj 466 186 s decay;
#X floatatom 469 161 5 0 0 0 - - -;
#N canvas 1462 96 409 934 dx7 0;
#X obj 170 48 makenote 100 200;
#X obj 9 146 m-dx7;
#X obj 13 121 pack f f;
#N canvas 607 171 450 300 chord 0;
#X msg 10 86 60;
#X obj 9 109 makenote 127 500;
#X obj 112 108 makenote 127 500;
#X msg 215 85 70;
#X msg 113 85 65;
#X obj 10 61 t b b b, f 8;
#X obj 10 39 bng 15 250 50 0 empty empty empty 17 7 0 10 -262144 -1
-1;
#X obj 215 107 makenote 127 500;
#X obj 9 13 inlet;
#X obj 8 210 outlet;
#X obj 54 210 outlet;
#X connect 0 0 1 0;
#X connect 1 0 9 0;
#X connect 1 1 10 0;
#X connect 2 0 9 0;
#X connect 2 1 10 0;
#X connect 3 0 7 0;
#X connect 4 0 2 0;
#X connect 5 0 0 0;
#X connect 5 1 4 0;
#X connect 5 2 3 0;
#X connect 6 0 5 0;
#X connect 7 0 9 0;
#X connect 7 1 10 0;
#X connect 8 0 6 0;
#X restore 172 105 pd chord;
#X obj 172 83 bng 15 250 50 0 empty empty empty 17 7 0 10 -262144 -1
-1;
#X obj 13 13 inlet;
#X obj 58 13 inlet;
#X obj 8 853 outlet~;
#X obj 8 830 *~ 0.93;
#X connect 0 0 2 0;
#X connect 0 1 2 1;
#X connect 1 0 8 0;
#X connect 2 0 1 0;
#X connect 3 0 2 0;
#X connect 3 1 2 1;
#X connect 4 0 3 0;
#X connect 5 0 2 0;
#X connect 6 0 2 1;
#X connect 8 0 7 0;
#X restore 149 771 pd dx7;
#N canvas 0 96 1211 674 beatslicere 0;
#N canvas 1 67 450 250 (subpatch) 0;
#X array \$0-sample-L 132300 float 2;
#X coords 0 1 132300 -1 448 100 1 0 0;
#X restore 178 124 graph;
#N canvas 1 67 450 250 (subpatch) 0;
#X array \$0-sample-R 132300 float 2;
#X coords 0 1 132300 -1 448 100 1 0 0;
#X restore 178 224 graph;
#X obj 179 334 hradio 14 1 0 32 empty empty empty 0 -8 0 10 -262144
-1 -1 17;
#N canvas 605 396 441 345 read-file 0;
#X obj 35 51 openpanel;
#X obj 35 241 soundfiler;
#X text 116 241 Read sample into array;
#X obj 68 125 symbol \$0-sample-L;
#X obj 35 179 pack s s s;
#X obj 102 149 symbol \$0-sample-R;
#X obj 35 86 t a b b;
#X msg 35 210 read -resize \$1 \$2 \$3;
#X obj 35 265 outlet sample-size;
#X obj 35 25 inlet open;
#X connect 0 0 6 0;
#X connect 1 0 8 0;
#X connect 3 0 4 1;
#X connect 4 0 7 0;
#X connect 5 0 4 2;
#X connect 6 0 4 0;
#X connect 6 1 3 0;
#X connect 6 2 5 0;
#X connect 7 0 1 0;
#X connect 9 0 0 0;
#X restore 672 249 pd read-file;
#X obj 115 126 bng 30 250 50 0 empty empty Open_file 35 7 0 10 -262144
-1 -1;
#X floatatom 681 458 10 0 0 0 - - -;
#X obj 760 438 f 0;
#X obj 792 438 + 1;
#X floatatom 760 486 5 0 0 0 - - -;
#X obj 114 170 tgl 30 0 empty empty Play 35 7 0 10 -262144 -1 -1 0
1;
#X obj 761 248 metro 200;
#X obj 843 239 expr ($f1 / 32) / 44.1;
#N canvas 339 338 487 403 send-message-to-step 0;
#X obj 88 329 send;
#X obj 113 232 pack f \$0;
#X msg 113 261 symbol \$2-step-\$1;
#X obj 31 264 pack s f;
#X obj 84 233 f;
#X obj 30 165 t b b f;
#X obj 31 234 symbol;
#X obj 31 288 list trim;
#X obj 30 39 r \$0-step-to-message;
#X obj 339 39 r \$0-message-value;
#X obj 190 39 r \$0-message-type;
#X connect 1 0 2 0;
#X connect 2 0 0 1;
#X connect 3 0 7 0;
#X connect 4 0 3 1;
#X connect 5 0 6 0;
#X connect 5 1 4 0;
#X connect 5 2 1 0;
#X connect 6 0 3 0;
#X connect 7 0 0 0;
#X connect 8 0 5 0;
#X connect 9 0 4 1;
#X connect 10 0 6 1;
#X restore 681 573 pd send-message-to-step;
#X obj 694 69 t f b b;
#X msg 717 98 symbol step;
#X obj 760 462 mod 32;
#N canvas 162 96 538 674 sample-player 0;
#X obj 85 489 tabread4~ \$0-sample-L;
#X obj 153 508 tabread4~ \$0-sample-R;
#X obj 84 437 line~;
#X obj 84 461 *~ 1;
#X obj 151 240 f;
#X obj 84 30 bng 15 250 50 0 empty \$0-trigger Trigger 17 7 0 10 -262144
-1 -1;
#X msg 84 358 \$1 \, \$2 \$3;
#X obj 84 323 pack f f f;
#X obj 84 50 t b b;
#X obj 84 83 t b b;
#X obj 84 263 f;
#X obj 117 263 f;
#X obj 102 133 t f f;
#X obj 102 160 expr $f1;
#X obj 135 191 expr (float(1) / 32) + $f1;
#X obj 162 69 r \$0-start-pos;
#X obj 151 269 expr ($f1 / 32) / 44.1 * $f2;
#X obj 344 240 r \$0-pitch;
#X msg 174 358 \$2 \, \$1 \$3;
#X obj 84 397 spigot 1;
#X obj 154 397 spigot 0;
#X obj 282 335 r \$0-reverse;
#X obj 282 359 == 0;
#X obj 171 530 r \$0-on-off;
#X obj 154 603 *~;
#X obj 84 604 *~;
#X obj 171 576 line~;
#X obj 167 427 r \$0-file-size;
#X obj 178 216 r \$0-file-size;
#X obj 84 628 outlet~;
#X obj 154 628 outlet~;
#X msg 171 552 \$1;
#X obj 162 93 expr int($f1 * 32) / 32;
#X connect 0 0 25 0;
#X connect 1 0 24 0;
#X connect 2 0 3 0;
#X connect 3 0 0 0;
#X connect 3 0 1 0;
#X connect 4 0 16 0;
#X connect 5 0 8 0;
#X connect 6 0 19 0;
#X connect 7 0 6 0;
#X connect 7 0 18 0;
#X connect 8 0 9 0;
#X connect 8 1 4 0;
#X connect 9 0 10 0;
#X connect 9 1 11 0;
#X connect 10 0 7 0;
#X connect 11 0 7 1;
#X connect 12 0 13 0;
#X connect 12 1 14 0;
#X connect 13 0 10 1;
#X connect 14 0 11 1;
#X connect 15 0 32 0;
#X connect 16 0 7 2;
#X connect 17 0 16 1;
#X connect 18 0 20 0;
#X connect 19 0 2 0;
#X connect 20 0 2 0;
#X connect 21 0 22 0;
#X connect 21 0 20 1;
#X connect 22 0 19 1;
#X connect 23 0 31 0;
#X connect 24 0 30 0;
#X connect 25 0 29 0;
#X connect 26 0 24 1;
#X connect 26 0 25 1;
#X connect 27 0 3 1;
#X connect 28 0 4 1;
#X connect 31 0 26 0;
#X connect 32 0 12 0;
#X restore 754 626 pd sample-player;
#X obj 713 508 s \$0-file-size;
#X obj 825 208 r \$0-file-size;
#X msg 740 128 0;
#N canvas 416 367 460 592 control-all 0;
#X obj 137 443 until;
#X msg 137 386 32;
#X obj 137 497 f 0;
#X obj 172 497 + 1;
#X msg 155 468 0;
#X obj 137 410 t f b;
#X msg 223 351 symbol pitch;
#X obj 100 36 vsl 14 80 0.1 1 0 0 empty empty empty -56 30 0 10 -262144
-1 -1 0 1;
#X obj 197 238 t b b f;
#X obj 100 119 tgl 14 0 empty empty empty -68 7 0 10 -262144 -1 -1
0 1;
#X obj 263 237 t b b f;
#X msg 240 390 symbol on-off;
#X msg 230 370 symbol reverse;
#X msg 213 331 symbol start-pos;
#X obj 216 438 t a;
#X obj 295 290 t f;
#X obj 100 20 tgl 14 0 empty empty empty -62 7 0 10 -262144 -1 -1 1
1;
#X obj 323 237 t b b f;
#X obj 137 292 t b;
#X obj 100 135 vsl 14 80 0 1 0 0 empty empty empty -80 30 0 10 -262144
-1 -1 0 1;
#X obj 137 238 t b b f;
#X obj 137 551 s \$0-step-to-message;
#X obj 216 521 s \$0-message-type;
#X obj 295 491 s \$0-message-value;
#X connect 0 0 2 0;
#X connect 1 0 5 0;
#X connect 2 0 3 0;
#X connect 2 0 21 0;
#X connect 3 0 2 1;
#X connect 4 0 2 1;
#X connect 5 0 0 0;
#X connect 5 1 4 0;
#X connect 6 0 14 0;
#X connect 7 0 8 0;
#X connect 8 0 18 0;
#X connect 8 1 6 0;
#X connect 8 2 15 0;
#X connect 9 0 10 0;
#X connect 10 0 18 0;
#X connect 10 1 12 0;
#X connect 10 2 15 0;
#X connect 11 0 14 0;
#X connect 12 0 14 0;
#X connect 13 0 14 0;
#X connect 14 0 22 0;
#X connect 15 0 23 0;
#X connect 16 0 17 0;
#X connect 17 0 18 0;
#X connect 17 1 11 0;
#X connect 17 2 15 0;
#X connect 18 0 1 0;
#X connect 19 0 20 0;
#X connect 20 0 18 0;
#X connect 20 1 13 0;
#X connect 20 2 15 0;
#X coords 0 -1 1 1 14 200 2 100 20;
#X restore 155 358 pd control-all;
#X obj 694 211 s \$0-step-to-message;
#X obj 717 181 s \$0-message-type;
#X obj 740 155 s \$0-message-value;
#X obj 131 358 bng 14 250 50 0 \$0-randomize-on-off empty empty 17
7 0 10 -262144 -1 -1;
#X obj 131 382 bng 14 250 50 0 \$0-randomize-pitch empty empty 17 7
0 10 -262144 -1 -1;
#X obj 131 457 bng 14 250 50 0 \$0-randomize-reverse empty empty 17
7 0 10 -262144 -1 -1;
#X obj 131 481 bng 14 250 50 0 \$0-randomize-start-pos empty empty
17 7 0 10 -262144 -1 -1;
#N canvas 356 93 827 648 randomize 0;
#X obj 66 23 r \$0-randomize-start-pos;
#X obj 66 345 until;
#X msg 66 288 32;
#X obj 66 399 f 0;
#X obj 101 399 + 1;
#X msg 84 370 0;
#X obj 66 312 t f b;
#X msg 464 234 symbol pitch;
#X msg 624 234 symbol on-off;
#X msg 294 234 symbol reverse;
#X msg 112 234 symbol start-pos;
#X obj 66 542 s \$0-step-to-message;
#X obj 225 489 s \$0-message-type;
#X obj 155 516 s \$0-message-value;
#X msg 89 171 80;
#X obj 66 423 t f b;
#X obj 155 463 random;
#X obj 155 487 /;
#X obj 89 209 t f;
#X obj 248 23 r \$0-randomize-reverse;
#X obj 66 47 t b b b;
#X obj 225 461 t a;
#X obj 66 111 t b;
#X obj 248 47 t b b b;
#X obj 418 47 t b b b;
#X obj 418 23 r \$0-randomize-pitch;
#X obj 578 47 t b b b;
#X obj 578 23 r \$0-randomize-on-off;
#X obj 138 430 bng 15 250 50 0 empty empty empty 17 7 0 10 -262144
-1 -1;
#X obj 190 336 t b b;
#X msg 222 359 2;
#X msg 190 360 1;
#X obj 271 169 t b;
#X connect 0 0 20 0;
#X connect 1 0 3 0;
#X connect 2 0 6 0;
#X connect 3 0 4 0;
#X connect 3 0 15 0;
#X connect 4 0 3 1;
#X connect 5 0 3 1;
#X connect 6 0 1 0;
#X connect 6 1 5 0;
#X connect 7 0 21 0;
#X connect 8 0 21 0;
#X connect 9 0 21 0;
#X connect 10 0 21 0;
#X connect 14 0 18 0;
#X connect 15 0 11 0;
#X connect 15 1 16 0;
#X connect 16 0 17 0;
#X connect 17 0 13 0;
#X connect 18 0 17 1;
#X connect 18 0 16 1;
#X connect 19 0 23 0;
#X connect 20 0 22 0;
#X connect 20 1 14 0;
#X connect 20 2 10 0;
#X connect 21 0 12 0;
#X connect 22 0 2 0;
#X connect 23 0 22 0;
#X connect 23 1 32 0;
#X connect 23 2 9 0;
#X connect 24 0 22 0;
#X connect 24 1 14 0;
#X connect 24 2 7 0;
#X connect 25 0 24 0;
#X connect 26 0 22 0;
#X connect 26 1 32 0;
#X connect 26 2 8 0;
#X connect 27 0 26 0;
#X connect 28 0 16 0;
#X connect 29 0 31 0;
#X connect 29 1 30 0;
#X connect 30 0 16 1;
#X connect 31 0 17 1;
#X connect 32 0 29 0;
#X restore 681 592 pd randomize;
#N canvas 266 144 937 597 init 0;
#X obj 66 345 until;
#X msg 66 288 32;
#X obj 66 399 f 0;
#X obj 101 399 + 1;
#X msg 84 370 0;
#X obj 66 312 t f b;
#X msg 464 234 symbol pitch;
#X msg 624 234 symbol on-off;
#X msg 294 234 symbol reverse;
#X msg 112 234 symbol start-pos;
#X obj 66 542 s \$0-step-to-message;
#X obj 225 489 s \$0-message-type;
#X obj 155 516 s \$0-message-value;
#X obj 89 209 t f;
#X obj 66 47 t b b b;
#X obj 225 391 t a;
#X obj 66 111 t b;
#X obj 248 47 t b b b;
#X obj 418 47 t b b b;
#X obj 578 47 t b b b;
#X obj 66 23 r \$0-init-start-pos;
#X obj 248 23 r \$0-init-reverse;
#X obj 418 23 r \$0-init-pitch;
#X obj 578 23 r \$0-init-on-off;
#X msg 271 138 0;
#X msg 441 138 1;
#X msg 601 138 1;
#X obj 203 420 sel start-pos;
#X obj 155 479 spigot;
#X msg 203 444 1;
#X msg 291 446 0;
#X obj 66 423 t f f;
#X text 306 421 <-- Special case for start-pos;
#X obj 98 448 expr $f1 / 32;
#X connect 0 0 2 0;
#X connect 1 0 5 0;
#X connect 2 0 3 0;
#X connect 2 0 31 0;
#X connect 3 0 2 1;
#X connect 4 0 2 1;
#X connect 5 0 0 0;
#X connect 5 1 4 0;
#X connect 6 0 15 0;
#X connect 7 0 15 0;
#X connect 8 0 15 0;
#X connect 9 0 15 0;
#X connect 13 0 12 0;
#X connect 14 0 16 0;
#X connect 14 2 9 0;
#X connect 15 0 11 0;
#X connect 15 0 27 0;
#X connect 16 0 1 0;
#X connect 17 0 16 0;
#X connect 17 1 24 0;
#X connect 17 2 8 0;
#X connect 18 0 16 0;
#X connect 18 1 25 0;
#X connect 18 2 6 0;
#X connect 19 0 16 0;
#X connect 19 1 26 0;
#X connect 19 2 7 0;
#X connect 20 0 14 0;
#X connect 21 0 17 0;
#X connect 22 0 18 0;
#X connect 23 0 19 0;
#X connect 24 0 13 0;
#X connect 25 0 13 0;
#X connect 26 0 13 0;
#X connect 27 0 29 0;
#X connect 27 1 30 0;
#X connect 28 0 12 0;
#X connect 29 0 28 1;
#X connect 30 0 28 1;
#X connect 31 0 10 0;
#X connect 31 1 33 0;
#X connect 33 0 28 0;
#X restore 681 611 pd init;
#X obj 111 358 bng 14 250 50 0 \$0-init-on-off empty empty 17 7 0 10
-262144 -1 -1;
#X obj 111 382 bng 14 250 50 0 \$0-init-pitch empty empty 17 7 0 10
-262144 -1 -1;
#X obj 111 457 bng 14 250 50 0 \$0-init-reverse empty empty 17 7 0
10 -262144 -1 -1;
#X obj 111 481 bng 14 250 50 0 \$0-init-start-pos empty empty 17 7
0 10 -262144 -1 -1;
#X obj 662 19 t f f;
#X obj 662 43 s \$0-trigger;
#X obj 681 529 s \$0-init;
#X obj 681 486 t b f;
#X obj 681 436 f;
#X obj 184 68 loadbang;
#X obj 754 709 outlet~;
#X obj 108 69 inlet;
#X obj 146 69 inlet;
#X obj 892 118 cnv 15 100 60 empty empty empty 20 12 0 14 -233017 -66577
0;
#X obj 994 549 outlet;
#X obj 754 653 +~, f 16;
#X obj 239 68 inlet;
#N canvas 158 371 1009 370 controls 0;
#X obj 100 100 step \$0 0;
#X obj 114 100 step \$0 1;
#X obj 128 100 step \$0 2;
#X obj 142 100 step \$0 3;
#X obj 156 100 step \$0 4;
#X obj 170 100 step \$0 5;
#X obj 184 100 step \$0 6;
#X obj 198 100 step \$0 7;
#X obj 212 100 step \$0 8;
#X obj 226 100 step \$0 9;
#X obj 240 100 step \$0 10;
#X obj 254 100 step \$0 11;
#X obj 268 100 step \$0 12;
#X obj 282 100 step \$0 13;
#X obj 296 100 step \$0 14;
#X obj 310 100 step \$0 15;
#X obj 324 100 step \$0 16;
#X obj 338 100 step \$0 17;
#X obj 352 100 step \$0 18;
#X obj 366 100 step \$0 19;
#X obj 380 100 step \$0 20;
#X obj 394 100 step \$0 21;
#X obj 408 100 step \$0 22;
#X obj 422 100 step \$0 23;
#X obj 436 100 step \$0 24;
#X obj 450 100 step \$0 25;
#X obj 464 100 step \$0 26;
#X obj 478 100 step \$0 27;
#X obj 492 100 step \$0 28;
#X obj 506 100 step \$0 29;
#X obj 520 100 step \$0 30;
#X obj 534 100 step \$0 31;
#X coords 0 -1 1 1 448 200 2 100 100;
#X restore 179 358 pd controls;
#X obj 843 262 / 2;
#X obj 755 280 f 0;
#X obj 787 280 + 1;
#X obj 928 495 sel 1;
#X obj 928 518 b;
#X obj 933 549 outlet;
#X obj 754 309 mod 2;
#X obj 754 332 sel 1;
#X obj 754 355 b;
#X obj 1043 552 outlet;
#X obj 1100 419 mod 2;
#X obj 1100 442 sel 1;
#X obj 1100 465 b;
#X obj 1096 549 outlet;
#X obj 754 676 *~ 0.77;
#X connect 2 0 34 0;
#X connect 3 0 38 0;
#X connect 4 0 3 0;
#X connect 5 0 37 0;
#X connect 6 0 7 0;
#X connect 6 0 15 0;
#X connect 7 0 6 1;
#X connect 8 0 2 0;
#X connect 9 0 10 0;
#X connect 9 0 51 0;
#X connect 10 0 44 0;
#X connect 10 0 49 0;
#X connect 11 0 48 0;
#X connect 13 0 21 0;
#X connect 13 1 14 0;
#X connect 13 2 19 0;
#X connect 14 0 22 0;
#X connect 15 0 8 0;
#X connect 15 0 58 0;
#X connect 16 0 45 0;
#X connect 16 1 45 1;
#X connect 18 0 11 0;
#X connect 19 0 23 0;
#X connect 34 0 35 0;
#X connect 34 1 13 0;
#X connect 37 0 36 0;
#X connect 37 1 17 0;
#X connect 38 0 5 0;
#X connect 39 0 30 0;
#X connect 39 0 31 0;
#X connect 39 0 32 0;
#X connect 39 0 33 0;
#X connect 41 0 4 0;
#X connect 42 0 9 0;
#X connect 45 0 62 0;
#X connect 46 0 2 0;
#X connect 48 0 10 1;
#X connect 49 0 50 0;
#X connect 49 0 54 0;
#X connect 50 0 49 1;
#X connect 51 0 52 0;
#X connect 52 0 53 0;
#X connect 54 0 55 0;
#X connect 55 0 56 0;
#X connect 56 0 6 0;
#X connect 56 0 57 0;
#X connect 58 0 59 0;
#X connect 59 0 60 0;
#X connect 60 0 61 0;
#X connect 62 0 40 0;
#X coords 0 -1 1 1 540 470 1 100 100;
#X restore 469 519 pd beatslicere;
#N canvas 0 558 715 508 OSC_out 0;
#X obj 148 178 oscformat /test;
#X obj 148 202 list prepend send;
#X floatatom 148 156 5 0 0 0 - - -;
#X obj 148 225 list trim;
#X obj 148 256 netsend -u -b;
#X msg 55 120 connect 192.168.1.246 9999;
#X obj 148 26 inlet;
#X obj 68 98 loadbang;
#X obj 262 208 list prepend send;
#X floatatom 262 162 5 0 0 0 - - -;
#X obj 262 231 list trim;
#X obj 262 184 oscformat /demo;
#X obj 273 34 inlet;
#X connect 0 0 1 0;
#X connect 1 0 3 0;
#X connect 2 0 0 0;
#X connect 3 0 4 0;
#X connect 5 0 4 0;
#X connect 6 0 2 0;
#X connect 7 0 5 0;
#X connect 8 0 10 0;
#X connect 9 0 11 0;
#X connect 10 0 4 0;
#X connect 11 0 8 0;
#X connect 12 0 9 0;
#X restore 1031 633 pd OSC_out;
#X floatatom 1032 611 5 0 0 0 - - -;
#X obj 1031 588 r kick;
#X obj 1079 588 r snare;
#X obj 1243 589 r hat;
#X obj 1132 588 r clap;
#X obj 1391 588 r ride;
#X obj 1284 588 r perc1;
#X obj 1338 589 r perc2;
#X obj 1437 588 r crash;
#X obj 1177 589 r rimshot;
#X msg 853 47 7 71 16 7 76 726;
#X msg 628 191 65;
#X obj 869 327 pipe 300;
#X floatatom 921 311 5 0 0 0 - - -;
#X obj 954 339 pipe 300;
#X floatatom 1006 323 5 0 0 0 - - -;
#N canvas 989 157 450 300 drum_patterns 1;
#N canvas 0 96 957 480 dnb-patterns 0;
#X obj 127 354 s kick-seq;
#X obj 198 354 s rimshot-seq;
#X obj 285 354 s hat-seq;
#X obj 348 356 s snare-seq;
#X obj 421 357 s clap-seq;
#X obj 490 357 s ride-seq;
#X obj 560 356 s perc1-seq;
#X obj 636 353 s perc2-seq;
#X obj 711 352 s crash-seq;
#X obj 190 57 bng 15 250 50 0 empty empty empty 17 7 0 10 -262144 -1
-1;
#X msg 133 109 1 - - - - - - - - - 1 - - - - -;
#X msg 463 106 1 - - - 1 - - - 1 - - - 1 - - -;
#X msg 686 149 1 - - - - - - - - - - - - - - -;
#X msg 488 71 2 - 2 - 2 - 2 - 2 - 2 - 2 - 2 -;
#X obj 191 19 inlet;
#X obj 239 17 inlet;
#X msg 236 293 - - - -;
#X msg 343 108 - - - - 2 - - -;
#X msg 380 145 - - - - 1 - 1 - - - - - 4 - - -;
#X msg 561 197 - - - - 1 - 5 -;
#X msg 631 246 - - - - 1 - 1 12 - - - - 2 - - -;
#X obj 239 37 b;
#X obj 128 50 b;
#X obj 282 18 inlet;
#X obj 280 247 b;
#X msg 303 268 - - - -;
#X connect 9 0 10 0;
#X connect 9 0 17 0;
#X connect 9 0 11 0;
#X connect 9 0 18 0;
#X connect 9 0 13 0;
#X connect 9 0 19 0;
#X connect 9 0 20 0;
#X connect 9 0 12 0;
#X connect 10 0 0 0;
#X connect 11 0 2 0;
#X connect 12 0 8 0;
#X connect 13 0 5 0;
#X connect 14 0 22 0;
#X connect 15 0 21 0;
#X connect 16 0 5 0;
#X connect 16 0 6 0;
#X connect 16 0 7 0;
#X connect 16 0 8 0;
#X connect 16 0 3 0;
#X connect 16 0 2 0;
#X connect 16 0 1 0;
#X connect 16 0 0 0;
#X connect 16 0 4 0;
#X connect 17 0 1 0;
#X connect 17 0 3 0;
#X connect 18 0 4 0;
#X connect 19 0 6 0;
#X connect 20 0 7 0;
#X connect 21 0 16 0;
#X connect 22 0 9 0;
#X connect 23 0 24 0;
#X connect 24 0 25 0;
#X connect 25 0 5 0;
#X connect 25 0 6 0;
#X connect 25 0 7 0;
#X connect 25 0 8 0;
#X restore 27 48 pd dnb-patterns;
#X obj 72 27 bng 15 250 50 0 empty empty empty 17 7 0 10 -262144 -1
-1;
#X obj 26 29 bng 15 250 50 0 empty empty empty 17 7 0 10 -262144 -1
-1;
#X obj 113 28 bng 15 250 50 0 empty empty empty 17 7 0 10 -262144 -1
-1;
#X obj 68 127 bng 15 250 50 0 empty empty empty 17 7 0 10 -262144 -1
-1;
#X obj 14 131 bng 15 250 50 0 empty empty empty 17 7 0 10 -262144 -1
-1;
#X obj 109 128 bng 15 250 50 0 empty empty empty 17 7 0 10 -262144
-1 -1;
#N canvas 0 96 957 480 dubstep-patterns 0;
#X obj 127 354 s kick-seq;
#X obj 198 354 s rimshot-seq;
#X obj 285 354 s hat-seq;
#X obj 348 356 s snare-seq;
#X obj 421 357 s clap-seq;
#X obj 490 357 s ride-seq;
#X obj 560 356 s perc1-seq;
#X obj 636 353 s perc2-seq;
#X obj 711 352 s crash-seq;
#X obj 190 57 bng 15 250 50 0 empty empty empty 17 7 0 10 -262144 -1
-1;
#X msg 707 152 1 - - - - - - - - - - - - - - -;
#X obj 191 19 inlet;
#X obj 239 17 inlet;
#X msg 257 303 - - - -;
#X obj 239 37 b;
#X obj 165 43 b;
#X obj 282 18 inlet;
#X obj 280 247 b;
#X msg 335 274 - - - -;
#X msg 630 23 - - - - - - - - 1 - - - - - - -;
#X msg 389 25 140;
#X msg 424 24 1 - - - - - - - - - - - - - - -;
#X msg 133 109 4 - - - - - - - - - - - - - - -;
#X msg 561 197 - - - - 9;
#X msg 499 66 2 - 2 - 2 - 2 - 2 - 2 - 2 - 2 -;
#X msg 350 116 - - - 9 - 11 - - 7 - - -12- - - -;
#X msg 321 145 - - - - - - - - 3 - - - - - - -;
#X msg 364 196 - - - - - - - - 1 - - - - - - -;
#X msg 467 138 2 - 2 - 2 - 2 - 2 - 2 - 2 - 2 -;
#X msg 631 246 - - - - - 9;
#X connect 9 0 22 0;
#X connect 9 0 28 0;
#X connect 9 0 27 0;
#X connect 9 0 23 0;
#X connect 9 0 29 0;
#X connect 9 0 10 0;
#X connect 9 0 24 0;
#X connect 9 0 26 0;
#X connect 10 0 8 0;
#X connect 11 0 15 0;
#X connect 12 0 14 0;
#X connect 13 0 5 0;
#X connect 13 0 6 0;
#X connect 13 0 7 0;
#X connect 13 0 8 0;
#X connect 13 0 3 0;
#X connect 13 0 2 0;
#X connect 13 0 1 0;
#X connect 13 0 0 0;
#X connect 13 0 4 0;
#X connect 14 0 13 0;
#X connect 15 0 9 0;
#X connect 16 0 17 0;
#X connect 17 0 18 0;
#X connect 18 0 5 0;
#X connect 18 0 6 0;
#X connect 18 0 7 0;
#X connect 18 0 8 0;
#X connect 22 0 0 0;
#X connect 23 0 6 0;
#X connect 24 0 5 0;
#X connect 25 0 1 0;
#X connect 25 0 3 0;
#X connect 26 0 1 0;
#X connect 26 0 3 0;
#X connect 27 0 4 0;
#X connect 28 0 2 0;
#X connect 29 0 7 0;
#X restore 15 150 pd dubstep-patterns;
#X obj 71 187 bng 15 250 50 0 empty empty empty 17 7 0 10 -262144 -1
-1;
#X obj 23 189 bng 15 250 50 0 empty empty empty 17 7 0 10 -262144 -1
-1;
#X obj 118 186 bng 15 250 50 0 empty empty empty 17 7 0 10 -262144
-1 -1;
#N canvas 0 96 957 480 house-patterns 0;
#X obj 127 354 s kick-seq;
#X obj 198 354 s rimshot-seq;
#X obj 285 354 s hat-seq;
#X obj 348 356 s snare-seq;
#X obj 421 357 s clap-seq;
#X obj 490 357 s ride-seq;
#X obj 560 356 s perc1-seq;
#X obj 636 353 s perc2-seq;
#X obj 711 352 s crash-seq;
#X obj 190 57 bng 15 250 50 0 empty empty empty 17 7 0 10 -262144 -1
-1;
#X obj 191 19 inlet;
#X obj 239 17 inlet;
#X msg 213 289 - - - -;
#X obj 239 37 b;
#X obj 165 43 b;
#X obj 282 18 inlet;
#X obj 280 247 b;
#X msg 431 264 - - - -;
#X msg 630 23 - - - - - - - - 1 - - - - - - -;
#X msg 389 25 140;
#X msg 424 24 1 - - - - - - - - - - - - - - -;
#X msg 716 213 - - - - 9;
#X msg 133 109 1 - - - 1 - - - 1 - - - 1 - - -;
#X msg 344 103 - - - - 1 - - -;
#X msg 662 146 8 - - - - - - - - - - - - - - -;
#X msg 562 257 2 - - -;
#X msg 631 246 - - 5 -;
#X msg 515 67 2 - - - 2 - - -;
#X msg 364 196 - - - - - - - - 3 - - - - - - -;
#X msg 347 163 - - - - - - - - 1 - - - - - - -;
#X msg 542 103 - - 3 -;
#X connect 9 0 22 0;
#X connect 9 0 30 0;
#X connect 9 0 21 0;
#X connect 9 0 26 0;
#X connect 9 0 24 0;
#X connect 9 0 25 0;
#X connect 9 0 23 0;
#X connect 10 0 14 0;
#X connect 11 0 13 0;
#X connect 12 0 5 0;
#X connect 12 0 6 0;
#X connect 12 0 7 0;
#X connect 12 0 8 0;
#X connect 12 0 3 0;
#X connect 12 0 2 0;
#X connect 12 0 1 0;
#X connect 12 0 0 0;
#X connect 12 0 4 0;
#X connect 13 0 12 0;
#X connect 14 0 9 0;
#X connect 15 0 16 0;
#X connect 16 0 17 0;
#X connect 17 0 5 0;
#X connect 17 0 6 0;
#X connect 17 0 7 0;
#X connect 17 0 8 0;
#X connect 22 0 0 0;
#X connect 23 0 1 0;
#X connect 23 0 3 0;
#X connect 25 0 6 0;
#X connect 26 0 7 0;
#X connect 27 0 5 0;
#X connect 28 0 4 0;
#X connect 29 0 1 0;
#X connect 29 0 3 0;
#X connect 30 0 2 0;
#X restore 24 208 pd house-patterns;
#X obj 68 79 bng 15 250 50 0 empty empty empty 17 7 0 10 -262144 -1
-1;
#X obj 20 81 bng 15 250 50 0 empty empty empty 17 7 0 10 -262144 -1
-1;
#X obj 115 78 bng 15 250 50 0 empty empty empty 17 7 0 10 -262144 -1
-1;
#N canvas 0 96 957 480 138Trek-patterns 0;
#X obj 127 354 s kick-seq;
#X obj 198 354 s rimshot-seq;
#X obj 285 354 s hat-seq;
#X obj 348 356 s snare-seq;
#X obj 421 357 s clap-seq;
#X obj 490 357 s ride-seq;
#X obj 560 356 s perc1-seq;
#X obj 636 353 s perc2-seq;
#X obj 711 352 s crash-seq;
#X obj 190 57 bng 15 250 50 0 empty empty empty 17 7 0 10 -262144 -1
-1;
#X obj 191 19 inlet;
#X obj 239 17 inlet;
#X msg 213 289 - - - -;
#X obj 239 37 b;
#X obj 165 43 b;
#X obj 282 18 inlet;
#X obj 280 247 b;
#X msg 431 264 - - - -;
#X msg 630 23 - - - - - - - - 1 - - - - - - -;
#X msg 389 25 140;
#X msg 424 24 1 - - - - - - - - - - - - - - -;
#X msg 716 213 - - - - 9;
#X msg 344 103 - - - - 1 - - -;
#X msg 662 146 8 - - - - - - - - - - - - - - -;
#X msg 562 257 2 - - -;
#X msg 631 246 - - 5 -;
#X msg 515 67 2 - - - 2 - - -;
#X msg 364 196 - - - - - - - - 3 - - - - - - -;
#X msg 347 163 - - - - - - - - 1 - - - - - - -;
#X msg 54 147 1 - - - 1 - - - - 1 - 1 - - - -;
#X msg 542 103 - - 3 -;
#X connect 9 0 29 0;
#X connect 9 0 30 0;
#X connect 9 0 21 0;
#X connect 9 0 25 0;
#X connect 9 0 23 0;
#X connect 9 0 24 0;
#X connect 9 0 22 0;
#X connect 10 0 14 0;
#X connect 11 0 13 0;
#X connect 12 0 5 0;
#X connect 12 0 6 0;
#X connect 12 0 7 0;
#X connect 12 0 8 0;
#X connect 12 0 3 0;
#X connect 12 0 2 0;
#X connect 12 0 1 0;
#X connect 12 0 0 0;
#X connect 12 0 4 0;
#X connect 13 0 12 0;
#X connect 14 0 9 0;
#X connect 15 0 16 0;
#X connect 16 0 17 0;
#X connect 17 0 5 0;
#X connect 17 0 6 0;
#X connect 17 0 7 0;
#X connect 17 0 8 0;
#X connect 22 0 1 0;
#X connect 22 0 3 0;
#X connect 24 0 6 0;
#X connect 25 0 7 0;
#X connect 26 0 5 0;
#X connect 27 0 4 0;
#X connect 28 0 1 0;
#X connect 28 0 3 0;
#X connect 29 0 0 0;
#X connect 30 0 2 0;
#X restore 21 100 pd 138Trek-patterns;
#X connect 1 0 0 1;
#X connect 2 0 0 0;
#X connect 3 0 0 2;
#X connect 4 0 7 1;
#X connect 5 0 7 0;
#X connect 6 0 7 2;
#X connect 8 0 11 1;
#X connect 9 0 11 0;
#X connect 10 0 11 2;
#X connect 12 0 15 1;
#X connect 13 0 15 0;
#X connect 14 0 15 2;
#X restore 358 770 pd drum_patterns;
#N canvas 32 612 450 300 imports 0;
#X obj 3 168 declare -path ./sounds;
#X obj 4 145 declare -path ./library;
#X obj 6 214 declare -path pdjs;
#X obj 6 190 declare -path else;
#X obj 5 9 declare -path ./instruments/beatslicer;
#X obj 4 123 declare -path ./instruments/fm;
#X obj 5 77 declare -path ./instruments/sub;
#X obj 5 55 declare -path ./instruments/poly;
#X obj 5 32 declare -path ./instruments/acid;
#X obj 5 101 declare -path ./instruments/dx7;
#X restore 359 744 pd imports;
#N canvas 0 96 734 653 fx 0;
#X obj 215 146 hsl 128 15 10 44100 1 0 empty empty empty -2 -8 0 10
-228856 -1 -1 0 1;
#X obj 212 170 nbx 8 14 -1e+37 1e+37 0 0 empty empty empty 0 -8 0 10
-228856 -1 -1 0 256;
#X obj 119 194 else/downsample~;
#X obj 120 90 else/tremolo~ 5 0.75;
#X floatatom 178 38 5 0 0 0 - - -;
#X floatatom 237 66 5 0 0 0 - - -;
#X obj 178 64 / 100;
#X obj 175 262 nbx 5 14 -1e+37 1e+37 0 0 empty empty empty 0 -8 0 10
-228856 -1 -1 0 256;
#X obj 234 263 nbx 5 14 -1e+37 1e+37 0 0 empty empty empty 0 -8 0 10
-228856 -1 -1 0 256;
#X obj 293 263 nbx 5 14 -1e+37 1e+37 0 0 empty empty empty 0 -8 0 10
-228856 -1 -1 0 256;
#X obj 116 296 else/flanger~ 0.1 20 -0.6 -tri;
#X text 180 242 rate;
#X text 236 242 depth;
#X text 296 242 coefficient;
#X obj 204 354 hsl 160 15 500 5000 0 0 empty empty empty -2 -8 0 10
-228856 -1 -1 0 1;
#X obj 97 352 vradio 15 1 0 4 empty empty empty 0 -8 0 10 -228856 -1
-1 3;
#X text 47 351 lowpass;
#X text 41 367 highpass;
#X text 41 382 bandpass;
#X obj 269 376 hsl 128 15 0 1 0 0 empty empty empty -2 -8 0 10 -228856
-1 -1 0 1;
#X text 281 376 Q/resonance (0-1);
#X text 211 353 cutoff/center frequency;
#X obj 97 418 + 1;
#X obj 137 445 else/xselect~ 4 1000 1;
#X obj 137 418 else/svfilter~ 800 0.5;
#X obj 266 397 nbx 5 14 -1e+37 1e+37 0 0 empty empty empty 0 -8 0 10
-228856 -1 -1 0 256;
#X obj 201 377 nbx 5 14 -1e+37 1e+37 0 0 empty empty empty 0 -8 0 10
-228856 -1 -1 0 256;
#X text 41 397 bandstop;
#X connect 0 0 1 0;
#X connect 1 0 2 1;
#X connect 4 0 6 0;
#X connect 5 0 3 2;
#X connect 6 0 3 1;
#X connect 7 0 10 1;
#X connect 8 0 10 2;
#X connect 9 0 10 3;
#X connect 14 0 26 0;
#X connect 15 0 22 0;
#X connect 19 0 25 0;
#X connect 22 0 23 0;
#X connect 24 0 23 0;
#X connect 24 1 23 1;
#X connect 24 2 23 2;
#X connect 24 3 23 3;
#X connect 25 0 24 2;
#X connect 26 0 24 1;
#X restore 359 794 pd fx;
#N canvas 0 96 543 547 misc~ 0;
#X msg 146 157 symbol misc;
#X floatatom 95 177 5 0 0 0 - - -;
#X msg 152 130 symbol more;
#X msg 184 185 symbol misc2;
#X obj 273 335 nbx 6 14 -1e+37 1e+37 0 0 empty empty empty 0 -8 0 10
-228856 -1 -1 100 256;
#X obj 356 335 nbx 6 14 -1e+37 1e+37 0 0 empty empty empty 0 -8 0 10
-228856 -1 -1 0 256;
#X text 275 317 speed (%);
#X text 355 316 transposition;
#X obj 218 336 nbx 4 14 -1e+37 1e+37 0 0 empty empty empty 0 -8 0 10
-228856 -1 -1 0 256;
#X text 205 317 size (ms);
#X msg 89 245 39;
#X obj 215 289 unpack 0 0 0, f 21;
#X msg 216 265 0 100 0;
#X obj 215 240 loadbang;
#X obj 37 26 inlet;
#X obj 255 28 inlet;
#X obj 244 68 sel 0 1 2;
#X obj 175 488 outlet~;
#X obj 435 444 playdir3~, f 19;
#X obj 545 422 nbx 6 14 -1e+37 1e+37 0 0 empty empty empty 0 -8 0 10
-228856 -1 -1 100 256;
#X obj 628 422 nbx 6 14 -1e+37 1e+37 0 0 empty empty empty 0 -8 0 10
-228856 -1 -1 0 256;
#X text 547 404 speed (%);
#X text 627 403 transposition;
#X obj 490 423 nbx 4 14 -1e+37 1e+37 0 0 empty empty empty 0 -8 0 10
-228856 -1 -1 0 256;
#X text 477 404 size (ms);
#X obj 487 376 unpack 0 0 0, f 21;
#X msg 488 352 0 100 0;
#X obj 487 327 loadbang;
#X obj 163 357 playdir2~, f 19;
#X connect 0 0 28 1;
#X connect 1 0 28 0;
#X connect 2 0 28 1;
#X connect 3 0 28 1;
#X connect 10 0 28 0;
#X connect 11 0 8 0;
#X connect 11 1 4 0;
#X connect 11 2 5 0;
#X connect 12 0 11 0;
#X connect 13 0 12 0;
#X connect 14 0 1 0;
#X connect 15 0 16 0;
#X connect 16 0 2 0;
#X connect 16 1 0 0;
#X connect 16 2 3 0;
#X connect 19 0 18 3;
#X connect 20 0 18 4;
#X connect 23 0 18 2;
#X connect 25 0 23 0;
#X connect 25 1 19 0;
#X connect 25 2 20 0;
#X connect 26 0 25 0;
#X connect 27 0 26 0;
#X connect 28 0 17 0;
#X restore 157 926 pd misc~;
#X floatatom 202 903 5 0 0 0 - - -;
#X floatatom 157 864 5 0 0 0 - - -;
#X obj 202 882 hradio 15 1 0 3 empty empty empty 0 -8 0 10 -262144
-1 -1 1;
#X obj 220 272 print;
#X obj 152 121 bng 15 250 50 0 empty empty empty 17 7 0 10 -262144
-1 -1;
#X obj 214 234 js ./library/constrainedseq.js;
#X floatatom 332 205 5 0 0 0 - - -;
#X floatatom 393 209 5 0 0 0 - - -;
#X obj 287 360 m-poly~;
#X msg 304 112 60 \, 65 \, 70 \, 80 \, 84;
#X floatatom 449 318 5 0 0 0 - - -;
#X msg 167 69 60 65 70 80 84;
#X obj 270 310 + 12;
#N canvas 0 96 734 653 fx1 0;
#X obj 215 146 hsl 128 15 10 44100 1 0 empty empty empty -2 -8 0 10
-228856 -1 -1 0 1;
#X obj 212 170 nbx 8 14 -1e+37 1e+37 0 0 empty empty empty 0 -8 0 10
-228856 -1 -1 0 256;
#X obj 119 194 else/downsample~;
#X obj 120 90 else/tremolo~ 5 0.75;
#X floatatom 178 38 5 0 0 0 - - -;
#X floatatom 237 66 5 0 0 0 - - -;
#X obj 178 64 / 100;
#X obj 175 262 nbx 5 14 -1e+37 1e+37 0 0 empty empty empty 0 -8 0 10
-228856 -1 -1 0 256;
#X obj 234 263 nbx 5 14 -1e+37 1e+37 0 0 empty empty empty 0 -8 0 10
-228856 -1 -1 0 256;
#X obj 293 263 nbx 5 14 -1e+37 1e+37 0 0 empty empty empty 0 -8 0 10
-228856 -1 -1 0 256;
#X obj 116 296 else/flanger~ 0.1 20 -0.6 -tri;
#X text 180 242 rate;
#X text 236 242 depth;
#X text 296 242 coefficient;
#X obj 204 354 hsl 160 15 500 5000 0 0 empty empty empty -2 -8 0 10
-228856 -1 -1 0 1;
#X obj 97 352 vradio 15 1 0 4 empty empty empty 0 -8 0 10 -228856 -1
-1 1;
#X text 47 351 lowpass;
#X text 41 367 highpass;
#X text 41 382 bandpass;
#X obj 269 376 hsl 128 15 0 1 0 0 empty empty empty -2 -8 0 10 -228856
-1 -1 0 1;
#X text 281 376 Q/resonance (0-1);
#X text 211 353 cutoff/center frequency;
#X obj 97 418 + 1;
#X obj 137 445 else/xselect~ 4 1000 1;
#X obj 137 418 else/svfilter~ 800 0.5;
#X obj 266 397 nbx 5 14 -1e+37 1e+37 0 0 empty empty empty 0 -8 0 10
-228856 -1 -1 0 256;
#X obj 201 377 nbx 5 14 -1e+37 1e+37 0 0 empty empty empty 0 -8 0 10
-228856 -1 -1 0 256;
#X text 41 397 bandstop;
#X obj 27 26 inlet~;
#X obj 55 569 outlet~;
#X connect 0 0 1 0;
#X connect 1 0 2 1;
#X connect 2 0 24 0;
#X connect 3 0 2 0;
#X connect 4 0 6 0;
#X connect 5 0 3 2;
#X connect 6 0 3 1;
#X connect 7 0 10 1;
#X connect 8 0 10 2;
#X connect 9 0 10 3;
#X connect 14 0 26 0;
#X connect 15 0 22 0;
#X connect 19 0 25 0;
#X connect 22 0 23 0;
#X connect 23 0 29 0;
#X connect 24 0 23 0;
#X connect 24 1 23 1;
#X connect 24 2 23 2;
#X connect 24 3 23 3;
#X connect 25 0 24 2;
#X connect 26 0 24 1;
#X connect 28 0 3 0;
#X restore 286 385 pd fx1;
#X obj 298 58 tgl 15 0 empty empty empty 17 7 0 10 -262144 -1 -1 1
1;
#X obj 451 273 random 22;
#X obj 451 296 - 11;
#N canvas 0 96 646 445 reverb 0;
#X obj 30 270 else/plate.rev~;
#X obj 30 270 else/plate.rev~;
#X obj 29 36 inlet~;
#X obj 30 397 outlet~;
#X obj 29 298 +~, f 15;
#X connect 0 0 4 0;
#X connect 0 1 4 1;
#X connect 2 0 0 0;
#X connect 4 0 3 0;
#X restore 105 414 pd reverb;
#N canvas 0 96 646 445 reverb 0;
#X obj 30 270 else/plate.rev~;
#X obj 30 270 else/plate.rev~;
#X obj 168 78 hsl 128 15 0 1000 0 0 empty \$0-predelayms empty -2 -8
0 10 -228856 -1 -1 0 1;
#X floatatom 165 102 5 0 0 0 - - -;
#X obj 228 105 hsl 128 15 0 1 0 0 empty \$0-cutoff empty -2 -8 0 10
-228856 -1 -1 0 1;
#X floatatom 225 131 5 0 0 0 - - -;
#X obj 302 131 hsl 128 15 0 1 0 0 empty \$0-damping empty -2 -8 0 10
-228856 -1 -1 0 1;
#X floatatom 299 156 5 0 0 0 - - -;
#X obj 367 163 hsl 128 15 0 1 0 0 empty \$0-fbgain empty -2 -8 0 10
-228856 -1 -1 0 1;
#X floatatom 364 186 5 0 0 0 - - -;
#X obj 445 192 hsl 128 15 0 1 0 0 empty \$0-drywet empty -2 -8 0 10
-228856 -1 -1 0 1;
#X floatatom 442 219 5 0 0 0 - - -;
#X text 411 191 dry;
#X text 411 191 dry;
#X text 411 191 dry;
#X text 335 130 damping;
#X text 411 191 dry;
#X text 191 77 pre delay;
#X text 265 104 cutoff;
#X msg 165 126 pre \$1;
#X msg 225 154 cutoff \$1;
#X msg 299 178 damp \$1;
#X text 404 163 room-size;
#X msg 364 212 size \$1;
#X msg 442 242 wet \$1;
#X msg 441 275 clear;
#X obj 241 300 s \$0-set;
#X obj 52 242 r \$0-set;
#X obj 29 36 inlet~;
#X obj 30 397 outlet~;
#X obj 29 298 +~, f 15;
#X connect 0 0 30 0;
#X connect 0 1 30 1;
#X connect 2 0 3 0;
#X connect 3 0 19 0;
#X connect 4 0 5 0;
#X connect 5 0 20 0;
#X connect 6 0 7 0;
#X connect 7 0 21 0;
#X connect 8 0 9 0;
#X connect 9 0 23 0;
#X connect 10 0 11 0;
#X connect 11 0 24 0;
#X connect 19 0 26 0;
#X connect 20 0 26 0;
#X connect 21 0 26 0;
#X connect 23 0 26 0;
#X connect 24 0 26 0;
#X connect 25 0 26 0;
#X connect 27 0 1 0;
#X connect 28 0 0 0;
#X connect 30 0 29 0;
#X restore 156 950 pd reverb;
#X obj 298 85 spigot 1;
#X obj 709 142 r pulse3;
#X obj 400 54 r pulse2;
#X obj 1135 835 random 100;
#X obj 1135 881 sel 1;
#X obj 1115 912 bng 15 250 50 0 empty empty empty 17 7 0 10 -262144
-1 -1;
#X obj 1135 858 > 90;
#X obj 1236 846 random 100;
#X obj 1236 892 sel 1;
#X obj 1216 923 bng 15 250 50 0 empty empty empty 17 7 0 10 -262144
-1 -1;
#X obj 1236 869 > 50;
#X connect 2 0 3 0;
#X connect 2 0 0 0;
#X connect 2 0 0 1;
#X connect 4 0 20 0;
#X connect 4 0 82 0;
#X connect 6 0 21 0;
#X connect 6 0 78 0;
#X connect 7 0 8 0;
#X connect 8 0 10 0;
#X connect 9 0 73 0;
#X connect 10 0 9 0;
#X connect 10 0 48 0;
#X connect 11 0 17 1;
#X connect 12 0 17 2;
#X connect 13 0 17 0;
#X connect 14 0 17 3;
#X connect 15 0 7 1;
#X connect 15 0 25 0;
#X connect 16 0 46 0;
#X connect 17 0 15 0;
#X connect 18 0 10 1;
#X connect 19 0 9 1;
#X connect 22 0 11 0;
#X connect 22 1 12 0;
#X connect 22 2 14 0;
#X connect 22 4 18 0;
#X connect 22 5 19 0;
#X connect 23 0 7 1;
#X connect 24 0 7 1;
#X connect 26 0 7 1;
#X connect 27 0 7 1;
#X connect 28 0 2 0;
#X connect 29 0 28 0;
#X connect 30 0 33 0;
#X connect 30 1 33 1;
#X connect 32 0 31 0;
#X connect 34 0 2 0;
#X connect 34 2 5 0;
#X connect 34 3 4 0;
#X connect 34 4 6 0;
#X connect 36 0 35 0;
#X connect 37 0 36 0;
#X connect 46 0 22 0;
#X connect 47 0 9 0;
#X connect 48 0 9 0;
#X connect 48 0 50 0;
#X connect 49 0 48 1;
#X connect 50 0 9 0;
#X connect 51 0 50 1;
#X connect 55 0 74 0;
#X connect 56 0 55 1;
#X connect 57 0 55 0;
#X connect 58 0 56 0;
#X connect 60 0 61 0;
#X connect 61 0 59 0;
#X connect 61 0 7 1;
#X connect 62 0 61 2;
#X connect 63 0 61 3;
#X connect 64 0 69 0;
#X connect 65 0 68 0;
#X connect 66 0 68 1;
#X connect 66 0 10 1;
#X connect 67 0 61 1;
#X connect 68 0 64 0;
#X connect 69 0 73 0;
#X connect 70 0 75 0;
#X connect 71 0 72 0;
#X connect 72 0 66 0;
#X connect 73 0 2 0;
#X connect 74 0 2 0;
#X connect 75 0 65 0;
#X connect 75 0 71 0;
#X connect 75 0 7 0;
#X connect 75 0 60 0;
#X connect 78 0 81 0;
#X connect 79 0 80 0;
#X connect 80 0 75 0;
#X connect 81 0 79 0;
#X connect 82 0 85 0;
#X connect 83 0 84 0;
#X connect 84 0 7 0;
#X connect 85 0 83 0;
