#N canvas 547 356 1440 720 10;
#X declare -path ./instruments2/wavetable;
#X declare -path ./instruments2/poly;
#X declare -path ./instruments2/kick;
#X declare -path ./instruments2/clap;
#X declare -path ./instruments2/acid;
#X declare -path ./instruments2/dx7;
#X declare -path ./instruments2/hoover;
#X declare -path ./instruments2/fm;
#X declare -path ./instruments2/plucked;
#X declare -path ./instruments2/piano;
#X declare -path ./instruments2/sub;
#X declare -path ./instruments2/fx;
#X declare -path ./instruments2/beatslicer;
#X declare -path ./instruments2/drums;
#X declare -path ./instruments2/yellotron;
#X declare -path pdjs;
#X declare -path else;
#X declare -path ./yellotron;
#X obj 150 807 dac~;
#X obj 9 40 m-grid;
#X floatatom 9 64 5 0 0 0 - - -;
#X obj 9 88 + 24;
#N canvas 991 106 511 509 imports 1;
#X obj 7 15 declare -path ./instruments2/wavetable;
#X obj 7 40 declare -path ./instruments2/poly;
#X obj 7 65 declare -path ./instruments2/kick;
#X obj 7 89 declare -path ./instruments2/clap;
#X obj 6 113 declare -path ./instruments2/acid;
#X obj 6 136 declare -path ./instruments2/dx7;
#X obj 6 159 declare -path ./instruments2/hoover;
#X obj 7 181 declare -path ./instruments2/fm;
#X obj 7 204 declare -path ./instruments2/plucked;
#X obj 6 227 declare -path ./instruments2/piano;
#X obj 7 250 declare -path ./instruments2/sub;
#X obj 7 274 declare -path ./instruments2/fx;
#X obj 7 297 declare -path ./instruments2/beatslicer;
#X obj 6 344 declare -path ./instruments2/drums;
#X obj 6 321 declare -path ./instruments2/yellotron;
#X obj 244 39 declare -path pdjs;
#X obj 244 15 declare -path else;
#X restore 7 8 pd imports;
#N canvas 281 187 630 372 spectrolog 0;
#N canvas 556 61 872 789 FFT_Analyse 0;
#X obj 101 102 inlet~;
#X obj 101 332 *~;
#X obj 132 331 *~;
#X obj 101 356 +~;
#X obj 102 377 powtodb~;
#N canvas 0 22 346 535 init_input_window 0;
#X obj 73 217 / 10;
#X obj 55 278 line 0 0.1;
#X msg 119 246 0;
#X obj 54 176 t f f b;
#X obj 54 239 pack;
#X obj 55 301 t f f;
#X obj 54 152 - 1;
#X obj 74 114 t f f;
#X obj 55 359 * 3.14159;
#X obj 55 381 sin;
#X msg 55 401 \$1 \$1;
#X obj 55 423 *;
#X text 119 334 0...0.99;
#X text 128 359 0...pi;
#X text 79 423 hanning;
#X msg 55 88 4096;
#X obj 100 88 f 4096;
#X obj 99 60 bng 15 250 50 0 empty empty empty 0 -6 0 8 -262144 -1
-1;
#X obj 99 39 loadbang;
#X obj 74 333 / 4096;
#X obj 55 448 tabwrite \$0-window;
#X text 86 381 half-sine;
#X connect 0 0 4 1;
#X connect 1 0 5 0;
#X connect 2 0 1 0;
#X connect 3 0 4 0;
#X connect 3 1 0 0;
#X connect 3 2 2 0;
#X connect 4 0 1 0;
#X connect 5 0 19 0;
#X connect 5 1 20 1;
#X connect 6 0 3 0;
#X connect 7 0 6 0;
#X connect 7 1 19 1;
#X connect 8 0 9 0;
#X connect 9 0 10 0;
#X connect 10 0 11 0;
#X connect 11 0 20 0;
#X connect 15 0 7 0;
#X connect 16 0 7 0;
#X connect 17 0 16 0;
#X connect 18 0 17 0;
#X connect 19 0 8 0;
#X restore 161 276 pd init_input_window;
#N canvas 0 22 450 300 (subpatch) 0;
#X array \$0-lin_scope 2048 float 0;
#X coords 0 100 2047 0 200 140 1;
#X restore 110 621 graph;
#N canvas 0 22 822 328 init_norm 0;
#X obj 43 230 outlet;
#X obj 43 187 - 100;
#X floatatom 43 208 9 0 0 0 - - -;
#X text 108 169 leistung - techn. dB;
#X msg 43 69 4096;
#X obj 80 68 f 4096;
#X obj 80 47 bng 15 250 50 0 empty empty empty 0 -6 0 8 -262144 -1
-1;
#X obj 80 26 loadbang;
#X obj 43 167 rmstodb;
#X obj 43 110 / 4;
#X text 74 103 faktor 2 wegen hanning;
#X text 74 114 weiterer faktor 2 \, weil wir nur die;
#X text 73 124 erste haelfte des konjungiert komplexen spektrum sehen
;
#X text 108 135 bzw. bearbeiten \, somit nur die haelfte der spektralen
energie;
#X connect 1 0 2 0;
#X connect 2 0 0 0;
#X connect 4 0 9 0;
#X connect 5 0 9 0;
#X connect 6 0 5 0;
#X connect 7 0 6 0;
#X connect 8 0 1 0;
#X connect 9 0 8 0;
#X restore 153 421 pd init_norm;
#X obj 100 231 *~;
#X obj 102 443 -~ 60.206;
#X obj 113 517 *~ 0.98;
#X obj 100 539 +~;
#X obj 101 471 *~ 0.02;
#X msg 314 481 1 \$1;
#X obj 314 502 -;
#X obj 314 458 clip 0 1;
#X obj 314 437 / 100;
#X floatatom 314 413 5 0.5 100 0 - - -;
#X obj 333 366 loadbang;
#X obj 100 277 fft~;
#X obj 463 557 line 0 0.1;
#X obj 463 602 / 2;
#X obj 463 622 mtof;
#X msg 463 536 6 \, 273 26.7;
#X obj 463 580 t f f;
#X obj 494 602 - 6;
#X obj 463 642 / 44100;
#X obj 463 663 * 4096;
#X msg 656 633 6;
#X obj 656 653 / 2;
#X obj 656 673 mtof;
#X floatatom 656 693 9 0 0 0 - - -;
#X text 723 694 Hz;
#X obj 754 654 / 2;
#X obj 754 673 mtof;
#X floatatom 754 693 9 0 0 0 - - -;
#X text 822 693 Hz;
#X msg 754 634 273;
#X obj 656 612 t b b;
#X obj 463 498 tgl 15 0 empty empty empty 0 -6 0 8 -262144 -1 -1 1
1;
#X obj 463 458 loadbang;
#X msg 463 478 1;
#X obj 656 592 loadbang;
#X obj 468 245 loadbang;
#X obj 703 102 inlet;
#X obj 130 253 table \$0-window 4096;
#X obj 137 214 tabreceive~ \$0-window;
#X text 353 403 temporal lowpass;
#X text 355 415 parameter between 0 .. 100 %;
#X text 23 23 spectrum~;
#X text 120 23 draws the power of a spectrum in a logarithmic scale
;
#X text 118 36 (by Thomas Musil);
#X obj 113 496 tabreceive~ \$0-lin_scope;
#X obj 100 564 tabsend~ \$0-lin_scope;
#X obj 463 685 tabread4 \$0-lin_scope;
#X obj 468 267 f \$0;
#X text 553 536 transformation to log scale;
#X msg 333 385 100;
#X obj 314 341 max 0.5;
#X obj 314 319 min 100;
#X obj 440 107 inlet;
#X text 96 81 audio sig;
#X text 700 81 ON/OFF;
#X text 427 86 (0 .. 100);
#X text 408 72 temporal lowpass;
#X obj 533 244 bng 15 250 50 0 empty empty empty 0 -6 0 8 -262144 -1
-1;
#X obj 463 735 tabwrite \$0-s;
#X msg 468 296 \; \$1-s xticks 0 12 2;
#X msg 491 330 \; \$1-s yticks 0 5 2;
#X obj 462 516 metro 100;
#X obj 704 166 switch~ 4096 2;
#X obj 463 711 clip 0 100;
#X obj 773 101 loadbang;
#X msg 773 123 1;
#X connect 0 0 8 0;
#X connect 1 0 3 0;
#X connect 2 0 3 1;
#X connect 3 0 4 0;
#X connect 4 0 9 0;
#X connect 7 0 9 1;
#X connect 8 0 19 0;
#X connect 9 0 12 0;
#X connect 10 0 11 1;
#X connect 11 0 53 0;
#X connect 12 0 11 0;
#X connect 13 0 14 0;
#X connect 14 0 10 1;
#X connect 15 0 13 0;
#X connect 15 0 12 1;
#X connect 16 0 15 0;
#X connect 17 0 16 0;
#X connect 18 0 57 0;
#X connect 19 0 1 0;
#X connect 19 0 1 1;
#X connect 19 1 2 0;
#X connect 19 1 2 1;
#X connect 20 0 24 0;
#X connect 21 0 22 0;
#X connect 22 0 26 0;
#X connect 23 0 20 0;
#X connect 24 0 21 0;
#X connect 24 1 25 0;
#X connect 25 0 66 1;
#X connect 26 0 27 0;
#X connect 27 0 54 0;
#X connect 28 0 29 0;
#X connect 29 0 30 0;
#X connect 30 0 31 0;
#X connect 33 0 34 0;
#X connect 34 0 35 0;
#X connect 37 0 33 0;
#X connect 38 0 28 0;
#X connect 38 1 37 0;
#X connect 39 0 69 0;
#X connect 40 0 41 0;
#X connect 41 0 39 0;
#X connect 42 0 38 0;
#X connect 43 0 55 0;
#X connect 44 0 70 0;
#X connect 46 0 8 1;
#X connect 52 0 10 0;
#X connect 54 0 71 0;
#X connect 55 0 67 0;
#X connect 55 0 68 0;
#X connect 57 0 17 0;
#X connect 58 0 17 0;
#X connect 59 0 58 0;
#X connect 60 0 59 0;
#X connect 65 0 55 0;
#X connect 69 0 23 0;
#X connect 71 0 66 0;
#X connect 72 0 73 0;
#X connect 73 0 70 0;
#X restore 17 320 pd FFT_Analyse;
#X obj 63 299 inlet;
#X obj 17 299 inlet~;
#X obj 110 299 inlet;
#N canvas 0 22 450 300 (subpatch) 0;
#X array \$0-s 268 float 0;
#X coords 0 100 267 0 267 140 1;
#X restore 23 27 graph;
#X obj 297 42 cnv 15 1 1 empty empty -10 0 0 0 10 -262144 -1 0;
#X obj 297 154 cnv 15 1 1 empty empty -90 0 0 0 10 -262144 -1 0;
#X obj 297 98 cnv 15 1 1 empty empty -50 0 0 0 10 -262144 -1 0;
#X obj 297 70 cnv 15 1 1 empty empty -30 0 0 0 10 -262144 -1 0;
#X obj 297 126 cnv 15 1 1 empty empty -70 0 0 0 10 -262144 -1 0;
#X obj 18 171 cnv 15 1 1 empty empty 10 0 5 0 10 -262144 -1 0;
#X obj 66 171 cnv 15 1 1 empty empty 40 0 5 0 10 -262144 -1 0;
#X obj 115 171 cnv 15 1 1 empty empty 160 0 5 0 10 -262144 -1 0;
#X obj 162 171 cnv 15 1 1 empty empty 640 0 5 0 10 -262144 -1 0;
#X obj 210 171 cnv 15 1 1 empty empty 2k56 0 5 0 10 -262144 -1 0;
#X obj 258 171 cnv 15 1 1 empty empty 10k2 0 5 0 10 -262144 -1 0;
#X obj 138 184 cnv 15 1 1 empty empty 320 0 5 0 10 -262144 -1 0;
#X obj 282 184 cnv 15 1 1 empty empty 20k5 0 5 0 10 -262144 -1 0;
#X obj 42 181 cnv 15 1 1 empty empty 20 0 9 0 10 -262144 -1 0;
#X obj 90 184 cnv 15 1 1 empty empty 80 0 5 0 10 -262144 -1 0;
#X obj 186 184 cnv 15 1 1 empty empty 1k28 0 5 0 10 -262144 -1 0;
#X obj 234 184 cnv 15 1 1 empty empty 5k12 0 5 0 10 -262144 -1 0;
#X obj 46 168 cnv 15 1 1 empty empty | 0 7 0 10 -262144 -1 0;
#X obj 94 168 cnv 15 1 1 empty empty | 0 7 0 10 -262144 -1 0;
#X obj 142 168 cnv 15 1 1 empty empty | 0 7 0 10 -262144 -1 0;
#X obj 190 168 cnv 15 1 1 empty empty | 0 7 0 10 -262144 -1 0;
#X obj 238 168 cnv 15 1 1 empty empty | 0 7 0 10 -262144 -1 0;
#X obj 286 168 cnv 15 1 1 empty empty | 0 7 0 10 -262144 -1 0;
#X connect 1 0 0 1;
#X connect 2 0 0 0;
#X connect 3 0 0 2;
#X coords 0 -1 1 1 330 210 1 0 0;
#X restore 128 1159 pd spectrolog;
#N canvas 1025 207 603 509 instruments 1;
#X obj 10 39 m-sub~;
#X floatatom 10 14 5 0 0 0 - - -;
#X obj 58 38 m-kick;
#X obj 57 18 bng 15 250 50 0 empty empty empty 17 7 0 10 -262144 -1
-1;
#X obj 197 40 m-hoover~;
#X obj 157 40 m-fm;
#X obj 109 39 m-blip;
#X obj 107 19 bng 15 250 50 0 empty empty empty 17 7 0 10 -262144 -1
-1;
#X floatatom 197 16 5 0 0 0 - - -;
#X floatatom 157 17 5 0 0 0 - - -;
#X obj 57 94 m-acid;
#X obj 172 102 m-plucked~;
#X floatatom 230 79 5 0 0 0 - - -;
#X obj 10 75 bng 15 250 50 0 empty empty empty 17 7 0 10 -262144 -1
-1;
#X obj 9 96 snare~;
#X obj 108 77 bng 15 250 50 0 empty empty empty 17 7 0 10 -262144 -1
-1;
#X obj 106 99 cymbal~;
#X obj 145 81 bng 15 250 50 0 empty empty empty 17 7 0 10 -262144 -1
-1;
#X floatatom 174 78 5 0 0 0 - - -;
#X floatatom 57 70 5 0 0 0 - - -;
#X obj 303 54 m-clap;
#X obj 303 77 *~ 2;
#X obj 303 100 clip~ -0.9 0.9;
#X obj 303 31 bng 15 250 50 0 empty empty empty 17 7 0 10 -262144 -1
-1;
#X obj 357 51 s decay;
#X floatatom 359 27 5 0 0 0 - - -;
#X obj 13 147 m-murky;
#X obj 64 148 m-noiseburst;
#X obj 11 127 bng 15 250 50 0 empty empty empty 17 7 0 10 -262144 -1
-1;
#X obj 64 129 bng 15 250 50 0 empty empty empty 17 7 0 10 -262144 -1
-1;
#X obj 161 138 m-poly~;
#X obj 18 211 s filterScale;
#X floatatom 17 189 5 0 0 0 - - -;
#X floatatom 18 237 5 0 0 0 - - -;
#X obj 18 262 s filterOffset;
#X floatatom 18 397 5 0 0 0 - - -;
#X obj 19 420 s decayTime;
#X floatatom 18 288 5 0 0 0 - - -;
#X obj 18 313 s filterTime;
#X floatatom 18 339 5 0 0 0 - - -;
#X obj 19 362 s filterResonance;
#X obj 295 163 hihat~;
#X obj 295 138 bng 15 250 50 0 empty empty empty 17 7 0 10 -262144
-1 -1;
#X obj 234 138 bng 15 250 50 0 empty empty empty 17 7 0 10 -262144
-1 -1;
#X obj 234 163 hihat2~;
#X obj 271 136 bng 15 250 50 0 empty empty empty 17 7 0 10 -262144
-1 -1;
#N canvas 0 187 652 636 beatslicer 0;
#N canvas 1 96 1286 674 beatslicer 0;
#N canvas 1 67 450 250 (subpatch) 0;
#X array \$0-sample-L 264600 float 2;
#X coords 0 1 264600 -1 448 100 1 0 0;
#X restore 178 124 graph;
#N canvas 1 67 450 250 (subpatch) 0;
#X array \$0-sample-R 264600 float 2;
#X coords 0 1 264600 -1 448 100 1 0 0;
#X restore 178 224 graph;
#X obj 179 334 hradio 14 1 0 32 empty empty empty 0 -8 0 10 -262144
-1 -1 30;
#N canvas 1023 650 662 345 read-file 0;
#X obj 35 51 openpanel;
#X obj 35 241 soundfiler;
#X text 116 241 Read sample into array;
#X obj 68 125 symbol \$0-sample-L;
#X obj 35 179 pack s s s;
#X obj 102 149 symbol \$0-sample-R;
#X obj 35 86 t a b b;
#X msg 35 210 read -resize \$1 \$2 \$3;
#X obj 35 265 outlet sample-size;
#X obj 35 25 inlet open;
#X msg 107 94 /home/monz/m-onz-patch/audio/sounds/breaks/\$1.wav;
#X floatatom 108 26 5 0 0 0 - - -;
#X obj 109 49 % 19;
#X obj 109 72 + 1;
#X obj 150 25 inlet;
#X connect 0 0 6 0;
#X connect 1 0 8 0;
#X connect 3 0 4 1;
#X connect 4 0 7 0;
#X connect 5 0 4 2;
#X connect 6 0 4 0;
#X connect 6 1 3 0;
#X connect 6 2 5 0;
#X connect 7 0 1 0;
#X connect 9 0 0 0;
#X connect 10 0 6 0;
#X connect 11 0 12 0;
#X connect 12 0 13 0;
#X connect 13 0 10 0;
#X connect 14 0 11 0;
#X restore 672 249 pd read-file;
#X obj 115 126 bng 30 250 50 0 empty empty Open_file 35 7 0 10 -262144
-1 -1;
#X floatatom 672 295 10 0 0 0 - - -;
#X obj 761 266 f 0;
#X obj 793 266 + 1;
#X floatatom 761 314 5 0 0 0 - - -;
#X obj 114 170 tgl 30 0 empty empty Play 35 7 0 10 -262144 -1 -1 0
1;
#X obj 757 237 metro 200;
#X obj 825 236 expr ($f1 / 32) / 44.1;
#N canvas 339 338 487 403 send-message-to-step 0;
#X obj 88 329 send;
#X obj 113 232 pack f \$0;
#X msg 113 261 symbol \$2-step-\$1;
#X obj 31 264 pack s f;
#X obj 84 233 f;
#X obj 30 165 t b b f;
#X obj 31 234 symbol;
#X obj 31 288 list trim;
#X obj 30 39 r \$0-step-to-message;
#X obj 339 39 r \$0-message-value;
#X obj 190 39 r \$0-message-type;
#X connect 1 0 2 0;
#X connect 2 0 0 1;
#X connect 3 0 7 0;
#X connect 4 0 3 1;
#X connect 5 0 6 0;
#X connect 5 1 4 0;
#X connect 5 2 1 0;
#X connect 6 0 3 0;
#X connect 7 0 0 0;
#X connect 8 0 5 0;
#X connect 9 0 4 1;
#X connect 10 0 6 1;
#X restore 672 410 pd send-message-to-step;
#X obj 694 69 t f b b;
#X msg 717 98 symbol step;
#X obj 761 290 mod 32;
#N canvas 172 67 538 674 sample-player 0;
#X obj 85 489 tabread4~ \$0-sample-L;
#X obj 153 508 tabread4~ \$0-sample-R;
#X obj 84 437 line~;
#X obj 84 461 *~ 1;
#X obj 151 240 f;
#X obj 84 30 bng 15 250 50 0 empty \$0-trigger Trigger 17 7 0 10 -262144
-1 -1;
#X msg 84 358 \$1 \, \$2 \$3;
#X obj 84 323 pack f f f;
#X obj 84 50 t b b;
#X obj 84 83 t b b;
#X obj 84 263 f;
#X obj 117 263 f;
#X obj 102 133 t f f;
#X obj 102 160 expr $f1;
#X obj 135 191 expr (float(1) / 32) + $f1;
#X obj 162 69 r \$0-start-pos;
#X obj 151 269 expr ($f1 / 32) / 44.1 * $f2;
#X obj 344 240 r \$0-pitch;
#X msg 174 358 \$2 \, \$1 \$3;
#X obj 84 397 spigot 1;
#X obj 154 397 spigot 0;
#X obj 282 335 r \$0-reverse;
#X obj 282 359 == 0;
#X obj 171 530 r \$0-on-off;
#X obj 154 603 *~;
#X obj 84 604 *~;
#X obj 171 576 line~;
#X obj 167 427 r \$0-file-size;
#X obj 178 216 r \$0-file-size;
#X obj 84 628 outlet~;
#X obj 154 628 outlet~;
#X msg 171 552 \$1;
#X obj 162 93 expr int($f1 * 32) / 32;
#X connect 0 0 25 0;
#X connect 1 0 24 0;
#X connect 2 0 3 0;
#X connect 3 0 0 0;
#X connect 3 0 1 0;
#X connect 4 0 16 0;
#X connect 5 0 8 0;
#X connect 6 0 19 0;
#X connect 7 0 6 0;
#X connect 7 0 18 0;
#X connect 8 0 9 0;
#X connect 8 1 4 0;
#X connect 9 0 10 0;
#X connect 9 1 11 0;
#X connect 10 0 7 0;
#X connect 11 0 7 1;
#X connect 12 0 13 0;
#X connect 12 1 14 0;
#X connect 13 0 10 1;
#X connect 14 0 11 1;
#X connect 15 0 32 0;
#X connect 16 0 7 2;
#X connect 17 0 16 1;
#X connect 18 0 20 0;
#X connect 19 0 2 0;
#X connect 20 0 2 0;
#X connect 21 0 22 0;
#X connect 21 0 20 1;
#X connect 22 0 19 1;
#X connect 23 0 31 0;
#X connect 24 0 30 0;
#X connect 25 0 29 0;
#X connect 26 0 24 1;
#X connect 26 0 25 1;
#X connect 27 0 3 1;
#X connect 28 0 4 1;
#X connect 31 0 26 0;
#X connect 32 0 12 0;
#X restore 745 463 pd sample-player;
#X obj 704 345 s \$0-file-size;
#X obj 825 208 r \$0-file-size;
#X msg 740 128 0;
#N canvas 416 367 460 592 control-all 0;
#X obj 137 443 until;
#X msg 137 386 32;
#X obj 137 497 f 0;
#X obj 172 497 + 1;
#X msg 155 468 0;
#X obj 137 410 t f b;
#X msg 223 351 symbol pitch;
#X obj 100 36 vsl 14 80 0.1 1 0 0 empty empty empty -56 30 0 10 -262144
-1 -1 0 1;
#X obj 197 238 t b b f;
#X obj 100 119 tgl 14 0 empty empty empty -68 7 0 10 -262144 -1 -1
0 1;
#X obj 263 237 t b b f;
#X msg 240 390 symbol on-off;
#X msg 230 370 symbol reverse;
#X msg 213 331 symbol start-pos;
#X obj 216 438 t a;
#X obj 295 290 t f;
#X obj 100 20 tgl 14 0 empty empty empty -62 7 0 10 -262144 -1 -1 0
1;
#X obj 323 237 t b b f;
#X obj 137 292 t b;
#X obj 100 135 vsl 14 80 0 1 0 0 empty empty empty -80 30 0 10 -262144
-1 -1 0 1;
#X obj 137 238 t b b f;
#X obj 137 551 s \$0-step-to-message;
#X obj 216 521 s \$0-message-type;
#X obj 295 491 s \$0-message-value;
#X connect 0 0 2 0;
#X connect 1 0 5 0;
#X connect 2 0 3 0;
#X connect 2 0 21 0;
#X connect 3 0 2 1;
#X connect 4 0 2 1;
#X connect 5 0 0 0;
#X connect 5 1 4 0;
#X connect 6 0 14 0;
#X connect 7 0 8 0;
#X connect 8 0 18 0;
#X connect 8 1 6 0;
#X connect 8 2 15 0;
#X connect 9 0 10 0;
#X connect 10 0 18 0;
#X connect 10 1 12 0;
#X connect 10 2 15 0;
#X connect 11 0 14 0;
#X connect 12 0 14 0;
#X connect 13 0 14 0;
#X connect 14 0 22 0;
#X connect 15 0 23 0;
#X connect 16 0 17 0;
#X connect 17 0 18 0;
#X connect 17 1 11 0;
#X connect 17 2 15 0;
#X connect 18 0 1 0;
#X connect 19 0 20 0;
#X connect 20 0 18 0;
#X connect 20 1 13 0;
#X connect 20 2 15 0;
#X coords 0 -1 1 1 14 200 2 100 20;
#X restore 155 358 pd control-all;
#X obj 694 211 s \$0-step-to-message;
#X obj 717 181 s \$0-message-type;
#X obj 740 155 s \$0-message-value;
#X obj 131 358 bng 14 250 50 0 \$0-randomize-on-off empty empty 17
7 0 10 -262144 -1 -1;
#X obj 131 382 bng 14 250 50 0 \$0-randomize-pitch empty empty 17 7
0 10 -262144 -1 -1;
#X obj 131 457 bng 14 250 50 0 \$0-randomize-reverse empty empty 17
7 0 10 -262144 -1 -1;
#X obj 131 481 bng 14 250 50 0 \$0-randomize-start-pos empty empty
17 7 0 10 -262144 -1 -1;
#N canvas 356 93 827 648 randomize 0;
#X obj 66 23 r \$0-randomize-start-pos;
#X obj 66 345 until;
#X msg 66 288 32;
#X obj 66 399 f 0;
#X obj 101 399 + 1;
#X msg 84 370 0;
#X obj 66 312 t f b;
#X msg 464 234 symbol pitch;
#X msg 624 234 symbol on-off;
#X msg 294 234 symbol reverse;
#X msg 112 234 symbol start-pos;
#X obj 66 542 s \$0-step-to-message;
#X obj 225 489 s \$0-message-type;
#X obj 155 516 s \$0-message-value;
#X msg 89 171 80;
#X obj 66 423 t f b;
#X obj 155 463 random;
#X obj 155 487 /;
#X obj 89 209 t f;
#X obj 248 23 r \$0-randomize-reverse;
#X obj 66 47 t b b b;
#X obj 225 461 t a;
#X obj 66 111 t b;
#X obj 248 47 t b b b;
#X obj 418 47 t b b b;
#X obj 418 23 r \$0-randomize-pitch;
#X obj 578 47 t b b b;
#X obj 578 23 r \$0-randomize-on-off;
#X obj 138 430 bng 15 250 50 0 empty empty empty 17 7 0 10 -262144
-1 -1;
#X obj 190 336 t b b;
#X msg 222 359 2;
#X msg 190 360 1;
#X obj 271 169 t b;
#X connect 0 0 20 0;
#X connect 1 0 3 0;
#X connect 2 0 6 0;
#X connect 3 0 4 0;
#X connect 3 0 15 0;
#X connect 4 0 3 1;
#X connect 5 0 3 1;
#X connect 6 0 1 0;
#X connect 6 1 5 0;
#X connect 7 0 21 0;
#X connect 8 0 21 0;
#X connect 9 0 21 0;
#X connect 10 0 21 0;
#X connect 14 0 18 0;
#X connect 15 0 11 0;
#X connect 15 1 16 0;
#X connect 16 0 17 0;
#X connect 17 0 13 0;
#X connect 18 0 17 1;
#X connect 18 0 16 1;
#X connect 19 0 23 0;
#X connect 20 0 22 0;
#X connect 20 1 14 0;
#X connect 20 2 10 0;
#X connect 21 0 12 0;
#X connect 22 0 2 0;
#X connect 23 0 22 0;
#X connect 23 1 32 0;
#X connect 23 2 9 0;
#X connect 24 0 22 0;
#X connect 24 1 14 0;
#X connect 24 2 7 0;
#X connect 25 0 24 0;
#X connect 26 0 22 0;
#X connect 26 1 32 0;
#X connect 26 2 8 0;
#X connect 27 0 26 0;
#X connect 28 0 16 0;
#X connect 29 0 31 0;
#X connect 29 1 30 0;
#X connect 30 0 16 1;
#X connect 31 0 17 1;
#X connect 32 0 29 0;
#X restore 672 429 pd randomize;
#N canvas 266 144 937 597 init 0;
#X obj 66 345 until;
#X msg 66 288 32;
#X obj 66 399 f 0;
#X obj 101 399 + 1;
#X msg 84 370 0;
#X obj 66 312 t f b;
#X msg 464 234 symbol pitch;
#X msg 624 234 symbol on-off;
#X msg 294 234 symbol reverse;
#X msg 112 234 symbol start-pos;
#X obj 66 542 s \$0-step-to-message;
#X obj 225 489 s \$0-message-type;
#X obj 155 516 s \$0-message-value;
#X obj 89 209 t f;
#X obj 66 47 t b b b;
#X obj 225 391 t a;
#X obj 66 111 t b;
#X obj 248 47 t b b b;
#X obj 418 47 t b b b;
#X obj 578 47 t b b b;
#X obj 66 23 r \$0-init-start-pos;
#X obj 248 23 r \$0-init-reverse;
#X obj 418 23 r \$0-init-pitch;
#X obj 578 23 r \$0-init-on-off;
#X msg 271 138 0;
#X msg 441 138 1;
#X msg 601 138 1;
#X obj 203 420 sel start-pos;
#X obj 155 479 spigot;
#X msg 203 444 1;
#X msg 291 446 0;
#X obj 66 423 t f f;
#X text 306 421 <-- Special case for start-pos;
#X obj 98 448 expr $f1 / 32;
#X connect 0 0 2 0;
#X connect 1 0 5 0;
#X connect 2 0 3 0;
#X connect 2 0 31 0;
#X connect 3 0 2 1;
#X connect 4 0 2 1;
#X connect 5 0 0 0;
#X connect 5 1 4 0;
#X connect 6 0 15 0;
#X connect 7 0 15 0;
#X connect 8 0 15 0;
#X connect 9 0 15 0;
#X connect 13 0 12 0;
#X connect 14 0 16 0;
#X connect 14 2 9 0;
#X connect 15 0 11 0;
#X connect 15 0 27 0;
#X connect 16 0 1 0;
#X connect 17 0 16 0;
#X connect 17 1 24 0;
#X connect 17 2 8 0;
#X connect 18 0 16 0;
#X connect 18 1 25 0;
#X connect 18 2 6 0;
#X connect 19 0 16 0;
#X connect 19 1 26 0;
#X connect 19 2 7 0;
#X connect 20 0 14 0;
#X connect 21 0 17 0;
#X connect 22 0 18 0;
#X connect 23 0 19 0;
#X connect 24 0 13 0;
#X connect 25 0 13 0;
#X connect 26 0 13 0;
#X connect 27 0 29 0;
#X connect 27 1 30 0;
#X connect 28 0 12 0;
#X connect 29 0 28 1;
#X connect 30 0 28 1;
#X connect 31 0 10 0;
#X connect 31 1 33 0;
#X connect 33 0 28 0;
#X restore 672 448 pd init;
#X obj 111 358 bng 14 250 50 0 \$0-init-on-off empty empty 17 7 0 10
-262144 -1 -1;
#X obj 111 382 bng 14 250 50 0 \$0-init-pitch empty empty 17 7 0 10
-262144 -1 -1;
#X obj 111 457 bng 14 250 50 0 \$0-init-reverse empty empty 17 7 0
10 -262144 -1 -1;
#X obj 111 481 bng 14 250 50 0 \$0-init-start-pos empty empty 17 7
0 10 -262144 -1 -1;
#X obj 662 19 t f f;
#X obj 662 43 s \$0-trigger;
#X obj 672 366 s \$0-init;
#X obj 672 323 t b f;
#X obj 672 273 f;
#X obj 184 68 loadbang;
#X obj 745 546 outlet~;
#X obj 108 69 inlet;
#X obj 146 69 inlet;
#X obj 892 118 cnv 15 100 60 empty empty empty 20 12 0 14 -233017 -66577
0;
#X obj 907 545 outlet;
#X obj 746 513 +~, f 16;
#X obj 239 68 inlet;
#X obj 854 544 outlet;
#N canvas 158 371 1009 370 controls 0;
#X obj 100 100 step \$0 0;
#X obj 114 100 step \$0 1;
#X obj 128 100 step \$0 2;
#X obj 142 100 step \$0 3;
#X obj 156 100 step \$0 4;
#X obj 170 100 step \$0 5;
#X obj 184 100 step \$0 6;
#X obj 198 100 step \$0 7;
#X obj 212 100 step \$0 8;
#X obj 226 100 step \$0 9;
#X obj 240 100 step \$0 10;
#X obj 254 100 step \$0 11;
#X obj 268 100 step \$0 12;
#X obj 282 100 step \$0 13;
#X obj 296 100 step \$0 14;
#X obj 310 100 step \$0 15;
#X obj 324 100 step \$0 16;
#X obj 338 100 step \$0 17;
#X obj 352 100 step \$0 18;
#X obj 366 100 step \$0 19;
#X obj 380 100 step \$0 20;
#X obj 394 100 step \$0 21;
#X obj 408 100 step \$0 22;
#X obj 422 100 step \$0 23;
#X obj 436 100 step \$0 24;
#X obj 450 100 step \$0 25;
#X obj 464 100 step \$0 26;
#X obj 478 100 step \$0 27;
#X obj 492 100 step \$0 28;
#X obj 506 100 step \$0 29;
#X obj 520 100 step \$0 30;
#X obj 534 100 step \$0 31;
#X coords 0 -1 1 1 448 200 2 100 100;
#X restore 179 358 pd controls;
#X obj 956 507 sel 0;
#X obj 954 531 bng 15 250 50 0 empty empty empty 17 7 0 10 -262144
-1 -1;
#X obj 960 554 outlet;
#X floatatom 816 318 5 0 0 0 - - -;
#X obj 852 345 sel 0;
#X obj 856 375 bng 15 250 50 0 empty empty empty 17 7 0 10 -262144
-1 -1;
#X obj 816 294 mod 8;
#X obj 1018 553 outlet;
#X floatatom 884 313 5 0 0 0 - - -;
#X obj 920 340 sel 0;
#X obj 924 370 bng 15 250 50 0 empty empty empty 17 7 0 10 -262144
-1 -1;
#X obj 884 289 mod 4;
#X obj 1059 554 outlet;
#X obj 1108 554 outlet;
#X obj 1110 67 inlet;
#X connect 2 0 34 0;
#X connect 3 0 38 0;
#X connect 4 0 3 0;
#X connect 5 0 37 0;
#X connect 6 0 7 0;
#X connect 6 0 15 0;
#X connect 6 0 55 0;
#X connect 6 0 60 0;
#X connect 7 0 6 1;
#X connect 8 0 2 0;
#X connect 8 0 49 0;
#X connect 9 0 10 0;
#X connect 10 0 6 0;
#X connect 10 0 44 0;
#X connect 11 0 10 1;
#X connect 11 0 47 0;
#X connect 11 0 62 0;
#X connect 13 0 21 0;
#X connect 13 1 14 0;
#X connect 13 2 19 0;
#X connect 14 0 22 0;
#X connect 15 0 8 0;
#X connect 16 0 45 0;
#X connect 16 1 45 1;
#X connect 18 0 11 0;
#X connect 19 0 23 0;
#X connect 34 0 35 0;
#X connect 34 1 13 0;
#X connect 37 0 36 0;
#X connect 37 1 17 0;
#X connect 38 0 5 0;
#X connect 39 0 30 0;
#X connect 39 0 31 0;
#X connect 39 0 32 0;
#X connect 39 0 33 0;
#X connect 41 0 4 0;
#X connect 42 0 9 0;
#X connect 45 0 40 0;
#X connect 46 0 2 0;
#X connect 49 0 50 0;
#X connect 50 0 51 0;
#X connect 52 0 53 0;
#X connect 53 0 54 0;
#X connect 54 0 56 0;
#X connect 55 0 52 0;
#X connect 57 0 58 0;
#X connect 58 0 59 0;
#X connect 59 0 61 0;
#X connect 60 0 57 0;
#X connect 63 0 3 1;
#X coords 0 -1 1 1 540 470 1 100 100;
#X restore 52 93 pd beatslicer;
#X msg 399 66 6;
#X obj 496 567 bng 15 250 50 0 empty empty empty 17 7 0 10 -262144
-1 -1;
#X obj 408 570 bng 15 250 50 0 empty empty empty 17 7 0 10 -262144
-1 -1;
#X obj 318 567 bng 15 250 50 0 empty empty empty 17 7 0 10 -262144
-1 -1;
#X obj 227 567 bng 15 250 50 0 empty empty empty 17 7 0 10 -262144
-1 -1;
#X obj 53 590 outlet~;
#X obj 252 596 outlet;
#X obj 53 567 *~ 0.9;
#X obj 245 54 inlet;
#X obj 560 46 inlet;
#X obj 309 596 outlet;
#X obj 371 599 outlet;
#X obj 569 591 outlet;
#X connect 0 0 8 0;
#X connect 0 2 5 0;
#X connect 0 3 4 0;
#X connect 0 4 3 0;
#X connect 0 5 2 0;
#X connect 0 6 13 0;
#X connect 1 0 0 2;
#X connect 2 0 11 0;
#X connect 3 0 12 0;
#X connect 5 0 7 0;
#X connect 8 0 6 0;
#X connect 9 0 0 1;
#X connect 10 0 0 3;
#X restore 161 228 pd beatslicer;
#X obj 161 200 tgl 15 0 empty empty empty 17 7 0 10 -262144 -1 -1 0
1;
#X floatatom 233 206 5 0 0 0 - - -;
#X obj 213 360 tapeloop2~, f 24;
#X obj 248 340 tgl 15 0 empty empty empty 17 7 0 10 -262144 -1 -1 0
1;
#X obj 283 340 tgl 15 0 empty empty empty 17 7 0 10 -262144 -1 -1 0
1;
#X floatatom 318 338 5 0 0 0 - - -;
#X obj 353 341 bng 15 250 50 0 empty empty empty 17 7 0 10 -262144
-1 -1;
#N canvas 0 96 450 300 autoplay 0;
#X obj 14 159 del;
#X obj 14 117 sel 1;
#X obj 14 138 bng 15 250 50 0 empty empty empty 17 7 0 10 -262144 -1
-1;
#X msg 14 182 0;
#X msg 42 182 1;
#X obj 14 19 inlet;
#X obj 14 74 spigot;
#X obj 47 45 inlet;
#X obj 14 229 outlet;
#X obj 59 229 outlet;
#X obj 86 45 inlet;
#X connect 0 0 3 0;
#X connect 0 0 4 0;
#X connect 1 0 2 0;
#X connect 2 0 0 0;
#X connect 3 0 8 0;
#X connect 4 0 9 0;
#X connect 5 0 6 0;
#X connect 6 0 1 0;
#X connect 7 0 6 1;
#X connect 10 0 0 1;
#X restore 214 383 pd autoplay;
#X obj 287 386 tgl 15 0 empty empty empty 17 7 0 10 -262144 -1 -1 1
1;
#X msg 214 431 0;
#X obj 214 408 sel 1;
#X floatatom 315 255 11 0 0 0 - - -;
#X obj 306 384 loadbang;
#X obj 331 290 * 32;
#X obj 267 245 sel 2;
#X obj 318 313 r m-metro-measure;
#X connect 1 0 0 0;
#X connect 3 0 2 0;
#X connect 7 0 6 0;
#X connect 8 0 4 0;
#X connect 9 0 5 0;
#X connect 12 0 11 1;
#X connect 13 0 14 0;
#X connect 15 0 16 0;
#X connect 17 0 16 1;
#X connect 18 0 11 0;
#X connect 19 0 10 0;
#X connect 20 0 21 0;
#X connect 21 0 22 0;
#X connect 23 0 20 0;
#X connect 25 0 24 0;
#X connect 28 0 26 0;
#X connect 29 0 27 0;
#X connect 32 0 31 0;
#X connect 33 0 34 0;
#X connect 35 0 36 0;
#X connect 37 0 38 0;
#X connect 39 0 40 0;
#X connect 42 0 41 0;
#X connect 43 0 44 0;
#X connect 45 0 44 1;
#X connect 47 0 46 0;
#X connect 48 0 46 1;
#X connect 50 0 49 1;
#X connect 50 0 54 0;
#X connect 50 0 57 0;
#X connect 51 0 49 2;
#X connect 52 0 49 3;
#X connect 52 0 54 2;
#X connect 53 0 49 4;
#X connect 53 0 56 0;
#X connect 54 0 50 0;
#X connect 54 1 51 0;
#X connect 55 0 54 1;
#X connect 56 0 51 0;
#X connect 57 0 56 0;
#X connect 58 0 60 0;
#X connect 59 0 55 0;
#X connect 60 0 52 0;
#X connect 61 0 50 0;
#X connect 62 0 52 0;
#X restore 76 8 pd instruments;
#N canvas 677 96 909 604 algodrums 0;
#X obj 156 249 s algo-drummer-randomise;
#X obj 309 248 s algo-drummer-randMax;
#X obj 453 249 s algo-drummer-restAmount;
#X obj 611 249 s algo-drummer-limit;
#X floatatom 309 225 5 0 0 0 - - -;
#X floatatom 455 226 5 0 0 0 - - -;
#X floatatom 611 227 5 0 0 0 - - -;
#X obj 157 225 bng 15 250 50 0 empty empty empty 17 7 0 10 -262144
-1 -1;
#X obj 308 200 unpack 0 0 0, f 51;
#X msg 304 174 22 50 16;
#X obj 306 149 loadbang;
#N canvas 0 96 450 300 rand-params 0;
#X obj 16 221 outlet;
#X obj 139 221 outlet;
#X obj 254 245 outlet;
#X obj 157 49 inlet;
#X obj 157 125 b;
#X obj 264 158 random 3;
#X obj 264 181 sel 0 1 2;
#X msg 286 208 16;
#X msg 325 211 32;
#X msg 250 211 64;
#X obj 136 187 + 80;
#X obj 136 164 random 20;
#X obj 16 192 random 50;
#X connect 3 0 4 0;
#X connect 4 0 5 0;
#X connect 4 0 11 0;
#X connect 4 0 12 0;
#X connect 5 0 6 0;
#X connect 6 0 9 0;
#X connect 6 1 7 0;
#X connect 6 2 8 0;
#X connect 7 0 2 0;
#X connect 8 0 2 0;
#X connect 9 0 2 0;
#X connect 10 0 1 0;
#X connect 11 0 10 0;
#X connect 12 0 0 0;
#X restore 394 168 pd rand-params;
#X obj 386 124 bng 15 250 50 0 empty empty empty 17 7 0 10 -262144
-1 -1;
#X obj 386 144 del 2;
#X floatatom 142 382 5 0 0 0 - - -;
#X floatatom 207 383 5 0 0 0 - - -;
#X obj 72 292 bng 15 250 50 0 empty empty empty 17 7 0 10 -262144 -1
-1;
#X floatatom 271 383 5 0 0 0 - - -;
#X obj 283 405 else/display 0 7;
#X obj 74 404 js randseq.js, f 33;
#X msg 142 464 0 0 0 0 0 0 0 0 0;
#X obj 72 379 del 3;
#X obj 142 358 unpack 0 0 0, f 22;
#X obj 139 312 loadbang;
#X obj 26 30 inlet;
#X obj 24 565 outlet~;
#X msg 140 335 2 0 9;
#X obj 90 28 inlet;
#X obj 151 26 inlet;
#X obj 146 115 sel 1;
#X msg 148 487 1 1 1 1 1 0 0 0 0;
#X msg 154 513 1 0 1 0 1 0 0 0 0;
#X obj 342 468 random 3;
#X obj 342 491 sel 0 1 2;
#X connect 4 0 1 0;
#X connect 5 0 2 0;
#X connect 6 0 3 0;
#X connect 7 0 0 0;
#X connect 8 0 4 0;
#X connect 8 1 5 0;
#X connect 8 2 6 0;
#X connect 9 0 8 0;
#X connect 10 0 9 0;
#X connect 11 0 4 0;
#X connect 11 1 5 0;
#X connect 11 2 6 0;
#X connect 12 0 11 0;
#X connect 12 0 13 0;
#X connect 13 0 7 0;
#X connect 14 0 19 1;
#X connect 15 0 19 2;
#X connect 16 0 21 0;
#X connect 17 0 19 3;
#X connect 19 0 18 0;
#X connect 21 0 19 0;
#X connect 22 0 14 0;
#X connect 22 1 15 0;
#X connect 22 2 17 0;
#X connect 23 0 26 0;
#X connect 26 0 22 0;
#X connect 27 0 12 0;
#X connect 27 0 32 0;
#X connect 28 0 29 0;
#X connect 29 0 30 0;
#X connect 29 1 20 0;
#X connect 32 0 33 0;
#X connect 33 0 30 0;
#X connect 33 1 31 0;
#X connect 33 2 16 0;
#X restore 47 164 pd algodrums;
#X obj 331 515 bng 15 250 50 0 empty empty empty 17 7 0 10 -262144
-1 -1;
#X obj 107 137 tgl 15 0 empty empty empty 17 7 0 10 -262144 -1 -1 0
1;
#X obj 81 119 bng 15 250 50 0 empty empty empty 17 7 0 10 -262144 -1
-1;
#N canvas 0 96 450 300 cymbals 0;
#X obj 18 17 inlet;
#X obj 18 40 b;
#X obj 20 67 random 5;
#X obj 22 150 hihat~;
#X obj 22 125 bng 15 250 50 0 empty empty empty 17 7 0 10 -262144 -1
-1;
#X obj 72 124 bng 15 250 50 0 empty empty empty 17 7 0 10 -262144 -1
-1;
#X obj 72 149 hihat2~;
#X obj 109 122 bng 15 250 50 0 empty empty empty 17 7 0 10 -262144
-1 -1;
#X obj 138 125 bng 15 250 50 0 empty empty empty 17 7 0 10 -262144
-1 -1;
#X obj 136 147 cymbal~;
#X obj 175 129 bng 15 250 50 0 empty empty empty 17 7 0 10 -262144
-1 -1;
#X obj 37 222 outlet~;
#X obj 23 89 sel 0 1 2 3 4, f 31;
#X connect 0 0 1 0;
#X connect 1 0 2 0;
#X connect 2 0 12 0;
#X connect 3 0 11 0;
#X connect 4 0 3 0;
#X connect 5 0 6 0;
#X connect 6 0 11 0;
#X connect 7 0 6 1;
#X connect 8 0 9 0;
#X connect 9 0 11 0;
#X connect 10 0 9 1;
#X connect 12 0 4 0;
#X connect 12 1 5 0;
#X connect 12 2 7 0;
#X connect 12 3 8 0;
#X connect 12 4 10 0;
#X restore 333 537 pd cymbals;
#X floatatom 302 695 5 0 0 0 - - -;
#X obj 303 717 s decay;
#X floatatom 292 314 5 0 0 0 - - -;
#X obj 289 294 hradio 15 1 0 9 empty empty empty 0 -8 0 10 -262144
-1 -1 0;
#N canvas 753 337 303 460 transport 0;
#X floatatom 125 102 5 0 0 0 BPM - -;
#X obj 130 52 loadbang;
#X obj 53 315 bng 15 250 50 0 empty empty empty 17 7 0 10 -262144 -1
-1;
#X obj 74 316 bng 15 250 50 0 empty empty empty 17 7 0 10 -262144 -1
-1;
#X msg 129 77 130;
#X obj 97 318 bng 15 250 50 0 empty empty empty 17 7 0 10 -262144 -1
-1;
#X floatatom 92 197 5 0 0 0 - - -;
#X obj 40 124 m-metro;
#X obj 135 122 swap 60000;
#X obj 135 147 /;
#X floatatom 135 172 5 0 0 0 - - -;
#X obj 91 222 sel 1;
#X obj 94 245 bng 15 250 50 0 empty empty empty 17 7 0 10 -262144 -1
-1;
#X obj 134 213 s m-metro-measure;
#X obj 97 268 s m-metro-bar;
#X obj 134 191 * 32;
#X obj 39 408 outlet;
#X obj 89 406 outlet;
#X obj 136 406 outlet;
#X obj 181 405 outlet;
#X obj 47 44 inlet;
#X obj 223 42 inlet;
#X obj 228 405 outlet;
#X obj 258 40 inlet;
#X connect 0 0 7 1;
#X connect 0 0 8 0;
#X connect 1 0 4 0;
#X connect 2 0 17 0;
#X connect 3 0 18 0;
#X connect 4 0 0 0;
#X connect 5 0 19 0;
#X connect 6 0 11 0;
#X connect 6 0 22 0;
#X connect 7 0 16 0;
#X connect 7 1 2 0;
#X connect 7 2 3 0;
#X connect 7 3 5 0;
#X connect 7 4 6 0;
#X connect 8 0 9 0;
#X connect 8 1 9 1;
#X connect 9 0 10 0;
#X connect 10 0 15 0;
#X connect 11 0 12 0;
#X connect 12 0 14 0;
#X connect 15 0 13 0;
#X connect 20 0 7 0;
#X connect 21 0 0 0;
#X connect 23 0 7 2;
#X restore 303 387 pd transport;
#X floatatom 373 358 5 0 0 0 - - -;
#X msg 332 336 0;
#X obj 343 413 bng 15 250 50 0 empty empty empty 17 7 0 10 -262144
-1 -1;
#X obj 362 413 bng 15 250 50 0 empty empty empty 17 7 0 10 -262144
-1 -1;
#X obj 380 413 bng 15 250 50 0 empty empty empty 17 7 0 10 -262144
-1 -1;
#X msg 301 335 0;
#X obj 346 436 s pulse;
#X floatatom 291 416 5 0 0 0 - - -;
#X obj 332 489 spigot;
#X obj 361 469 tgl 15 0 empty empty empty 17 7 0 10 -262144 -1 -1 0
1;
#N canvas 477 302 673 666 fx_vox 0;
#N canvas 0 96 1140 458 misc 0;
#X floatatom 46 235 5 0 0 0 - - -;
#X floatatom 554 241 5 0 0 0 - - -;
#X obj 46 290 playdir2~;
#X obj 554 296 playdir2~;
#X floatatom 417 105 5 0 0 0 - - -;
#X obj 417 160 playdir2~;
#X msg 473 111 20;
#X obj 464 81 loadbang;
#X msg 96 265 257;
#X obj 299 411 outlet~;
#X obj 169 31 inlet;
#X obj 211 30 inlet;
#X obj 254 31 inlet;
#X obj 301 388 *~ 0.9;
#X msg 615 249 56;
#X obj 310 27 inlet;
#X floatatom 726 185 5 0 0 0 - - -;
#X obj 726 240 playdir2~;
#X msg 787 193 69;
#X msg 577 275 symbol /home/m-onz/m-onz-patch/audio/sounds/misc/;
#X msg 749 219 symbol /home/m-onz/m-onz-patch/audio/sounds/fx/;
#X msg 440 139 symbol /home/m-onz/m-onz-patch/audio/sounds/misc2/;
#X msg 110 290 symbol /home/m-onz/m-onz-patch/audio/sounds/more/;
#X connect 0 0 2 0;
#X connect 1 0 3 0;
#X connect 2 0 13 0;
#X connect 3 0 13 0;
#X connect 4 0 5 0;
#X connect 5 0 13 0;
#X connect 6 0 5 2;
#X connect 7 0 6 0;
#X connect 7 0 21 0;
#X connect 7 0 19 0;
#X connect 7 0 14 0;
#X connect 7 0 8 0;
#X connect 7 0 22 0;
#X connect 7 0 18 0;
#X connect 8 0 2 2;
#X connect 10 0 0 0;
#X connect 11 0 4 0;
#X connect 12 0 1 0;
#X connect 13 0 9 0;
#X connect 14 0 3 2;
#X connect 15 0 16 0;
#X connect 16 0 17 0;
#X connect 17 0 13 0;
#X connect 18 0 17 2;
#X connect 19 0 3 1;
#X connect 20 0 17 1;
#X connect 21 0 5 1;
#X connect 22 0 2 1;
#X restore 129 278 pd misc;
#X floatatom 129 190 5 0 0 0 - - -;
#X floatatom 148 213 5 0 0 0 - - -;
#X floatatom 169 230 5 0 0 0 - - -;
#N canvas 530 142 344 249 sfx1 0;
#X obj 12 68 m-murky;
#X obj 63 69 m-noiseburst;
#X obj 10 48 bng 15 250 50 0 empty empty empty 17 7 0 10 -262144 -1
-1;
#X obj 63 50 bng 15 250 50 0 empty empty empty 17 7 0 10 -262144 -1
-1;
#X obj 146 69 m-blip;
#X obj 144 49 bng 15 250 50 0 empty empty empty 17 7 0 10 -262144 -1
-1;
#X obj 61 151 outlet~;
#X obj 61 126 *~ 0.9;
#X obj 11 23 inlet;
#X obj 65 25 inlet;
#X obj 145 24 inlet;
#X connect 0 0 7 0;
#X connect 1 0 7 0;
#X connect 2 0 0 0;
#X connect 3 0 1 0;
#X connect 4 0 7 0;
#X connect 5 0 4 0;
#X connect 7 0 6 0;
#X connect 8 0 2 0;
#X connect 9 0 3 0;
#X connect 10 0 5 0;
#X restore 211 278 pd sfx1;
#X obj 211 255 bng 15 250 50 0 empty empty empty 17 7 0 10 -262144
-1 -1;
#X obj 230 255 bng 15 250 50 0 empty empty empty 17 7 0 10 -262144
-1 -1;
#X obj 250 255 bng 15 250 50 0 empty empty empty 17 7 0 10 -262144
-1 -1;
#X obj 80 111 sel 0 1 2 3 4 5 6 7 8 9 10 11 12 13 14;
#X obj 201 468 freeverb~/freeverb~;
#X msg 203 431 wet \$1;
#X msg 251 431 dry \$1;
#X obj 218 368 hsl 128 15 0 1 0 0 empty empty empty -2 -8 0 10 -262144
-1 -1 2667 1;
#N canvas 1 80 450 300 inv 0;
#X obj 154 69 inlet;
#X obj 154 179 outlet;
#X msg 154 124 1;
#X obj 154 97 t b f;
#X obj 154 151 -;
#X connect 0 0 3 0;
#X connect 2 0 4 0;
#X connect 3 0 2 0;
#X connect 3 1 4 1;
#X connect 4 0 1 0;
#X restore 251 404 pd inv;
#X floatatom 309 429 5 0 0 0 - - -;
#X floatatom 210 405 5 0 0 0 - - -;
#X obj 79 81 random 14;
#X obj 81 57 bng 15 250 50 0 empty empty empty 17 7 0 10 -262144 -1
-1;
#X obj 164 537 outlet~;
#X obj 301 313 inlet;
#X obj 80 22 r m-change;
#X obj 36 257 random 600;
#X obj 17 300 random 600;
#X obj 36 338 random 600;
#X obj 165 514 *~ 0.44;
#X obj 153 335 *~ 0.3;
#X obj 31 155 b;
#X obj 30 207 sel 0 1 2;
#X floatatom 181 249 5 0 0 0 - - -;
#X obj 60 385 random 600;
#X obj 30 184 random 11;
#X connect 0 0 25 0;
#X connect 1 0 0 0;
#X connect 2 0 0 1;
#X connect 3 0 0 2;
#X connect 4 0 25 0;
#X connect 5 0 4 0;
#X connect 6 0 4 1;
#X connect 7 0 4 2;
#X connect 8 0 26 0;
#X connect 8 1 26 0;
#X connect 8 2 26 0;
#X connect 8 3 5 0;
#X connect 8 4 6 0;
#X connect 8 5 7 0;
#X connect 8 6 6 0;
#X connect 8 7 5 0;
#X connect 8 8 6 0;
#X connect 8 9 5 0;
#X connect 8 10 6 0;
#X connect 8 11 5 0;
#X connect 8 12 6 0;
#X connect 8 13 5 0;
#X connect 8 14 6 0;
#X connect 9 0 24 0;
#X connect 9 1 24 0;
#X connect 10 0 9 0;
#X connect 11 0 9 0;
#X connect 12 0 10 0;
#X connect 12 0 13 0;
#X connect 12 0 15 0;
#X connect 13 0 11 0;
#X connect 13 0 14 0;
#X connect 16 0 8 0;
#X connect 17 0 16 0;
#X connect 19 0 12 0;
#X connect 20 0 17 0;
#X connect 21 0 1 0;
#X connect 22 0 2 0;
#X connect 23 0 3 0;
#X connect 24 0 18 0;
#X connect 25 0 9 0;
#X connect 25 0 9 1;
#X connect 26 0 30 0;
#X connect 27 0 22 0;
#X connect 27 1 21 0;
#X connect 27 2 23 0;
#X connect 27 3 29 0;
#X connect 28 0 0 3;
#X connect 29 0 28 0;
#X connect 30 0 27 0;
#X restore 141 217 pd fx_vox;
#X obj 144 195 hsl 128 15 0 1 0 0 empty empty empty -2 -8 0 10 -262144
-1 -1 2667 1;
#X obj 286 438 changed;
#X obj 285 461 b;
#X obj 290 244 random 5;
#X obj 290 267 + 1;
#X obj 290 222 bng 15 250 50 0 empty empty empty 17 7 0 10 -262144
-1 -1;
#X msg 142 170 0.21;
#X obj 143 145 loadbang;
#X obj 209 1055 writesf~ 2;
#X msg 230 1001 start;
#X msg 232 1027 stop;
#X obj 165 779 *~ 0.7;
#N canvas 345 173 1440 720 drumkit 0;
#X floatatom 277 469 5 0 0 0 - - -;
#X floatatom 341 627 5 0 0 0 - - -;
#X floatatom 158 209 5 0 0 0 - - -;
#X floatatom 120 344 5 0 0 0 - - -;
#X floatatom 574 204 5 0 0 0 - - -;
#X floatatom 697 677 5 0 0 0 - - -;
#X floatatom 721 252 5 0 0 0 - - -;
#X floatatom 649 395 5 0 0 0 - - -;
#X obj 819 241 loadbang;
#X obj 332 917 outlet~;
#X obj 332 893 *~ 0.7;
#X obj 648 444 playdir2~;
#X obj 750 588 playdir2~;
#X obj 721 307 playdir2~;
#X obj 697 732 playdir2~;
#X obj 580 233 playdir2~;
#X obj 122 370 playdir2~;
#X obj 341 682 playdir2~;
#X obj 277 522 playdir2~;
#X obj 158 264 playdir2~;
#X msg 206 381 4;
#X obj 163 49 inlet;
#X obj 206 49 inlet;
#X obj 248 48 inlet;
#X obj 291 48 inlet;
#X obj 334 47 inlet;
#X obj 377 47 inlet;
#X obj 419 46 inlet;
#X obj 462 46 inlet;
#X obj 505 47 inlet;
#X obj 332 708 *~ 0.44;
#X obj 575 257 *~ 0.44;
#X obj 693 756 *~ 0.33;
#X obj 717 338 *~ 0.29;
#X obj 744 616 *~ 0.29;
#X obj 647 468 *~ 0.29;
#X obj 271 549 *~ 0.33;
#X msg 769 736 17;
#X msg 414 685 61;
#X msg 824 596 55;
#X msg 789 311 25;
#X msg 346 525 49;
#X msg 237 272 41;
#X msg 632 206 13;
#X msg 712 448 11;
#X msg 606 171 symbol /home/m-onz/m-onzAV/audio/sounds/claps/;
#X msg 181 243 symbol /home/m-onz/m-onzAV/audio/sounds/kicks/;
#X msg 148 403 symbol /home/m-onz/m-onzAV/audio/sounds/rimshots/;
#X msg 824 303 symbol /home/m-onz/m-onzAV/audio/sounds/perc/;
#X msg 850 419 symbol /home/m-onz/m-onzAV/audio/sounds/rides/;
#X msg 778 566 symbol /home/m-onz/m-onzAV/audio/sounds/perc2/;
#X msg 720 711 symbol /home/m-onz/m-onzAV/audio/sounds/crashes/;
#X msg 364 661 symbol /home/m-onz/m-onzAV/audio/sounds/snares/;
#X msg 305 485 symbol /home/m-onz/m-onzAV/audio/sounds/hats/;
#X connect 0 0 18 0;
#X connect 1 0 17 0;
#X connect 2 0 19 0;
#X connect 3 0 16 0;
#X connect 4 0 15 0;
#X connect 5 0 14 0;
#X connect 6 0 13 0;
#X connect 7 0 11 0;
#X connect 8 0 46 0;
#X connect 8 0 53 0;
#X connect 8 0 52 0;
#X connect 8 0 47 0;
#X connect 8 0 45 0;
#X connect 8 0 51 0;
#X connect 8 0 48 0;
#X connect 8 0 50 0;
#X connect 8 0 49 0;
#X connect 8 0 44 0;
#X connect 8 0 39 0;
#X connect 8 0 40 0;
#X connect 8 0 20 0;
#X connect 8 0 38 0;
#X connect 8 0 41 0;
#X connect 8 0 42 0;
#X connect 8 0 43 0;
#X connect 8 0 37 0;
#X connect 10 0 9 0;
#X connect 11 0 35 0;
#X connect 12 0 34 0;
#X connect 13 0 33 0;
#X connect 14 0 32 0;
#X connect 15 0 31 0;
#X connect 16 0 10 0;
#X connect 17 0 30 0;
#X connect 18 0 36 0;
#X connect 19 0 10 0;
#X connect 20 0 16 2;
#X connect 21 0 2 0;
#X connect 22 0 3 0;
#X connect 23 0 0 0;
#X connect 24 0 1 0;
#X connect 25 0 4 0;
#X connect 26 0 7 0;
#X connect 27 0 6 0;
#X connect 28 0 12 0;
#X connect 29 0 5 0;
#X connect 30 0 10 0;
#X connect 31 0 10 0;
#X connect 32 0 10 0;
#X connect 33 0 10 0;
#X connect 34 0 10 0;
#X connect 35 0 10 0;
#X connect 36 0 10 0;
#X connect 37 0 14 2;
#X connect 38 0 17 2;
#X connect 39 0 12 2;
#X connect 40 0 13 2;
#X connect 41 0 18 2;
#X connect 42 0 19 2;
#X connect 43 0 15 2;
#X connect 44 0 11 2;
#X connect 45 0 15 1;
#X connect 46 0 19 1;
#X connect 47 0 16 1;
#X connect 48 0 13 1;
#X connect 49 0 11 1;
#X connect 50 0 12 1;
#X connect 51 0 14 1;
#X connect 52 0 17 1;
#X connect 53 0 18 1;
#X restore 412 1109 pd drumkit;
#X f 67;
#X floatatom 406 962 5 0 0 0 - - -;
#X floatatom 459 995 5 0 0 0 - - -;
#X floatatom 507 999 5 0 0 0 - - -;
#X floatatom 556 1000 5 0 0 0 - - -;
#X floatatom 609 999 5 0 0 0 - - -;
#X floatatom 658 1000 5 0 0 0 - - -;
#X floatatom 707 999 5 0 0 0 - - -;
#X floatatom 757 999 5 0 0 0 - - -;
#X floatatom 811 998 5 0 0 0 - - -;
#X obj 594 701 sequencer;
#X obj 660 702 sequencer;
#X obj 430 439 s pulse3;
#X obj 748 704 sequencer;
#X obj 747 681 r pulse3;
#X obj 840 706 sequencer;
#X obj 400 471 s pulse2;
#X obj 407 196 s m-change;
#X obj 409 171 r m-metro-bar;
#X floatatom 1392 681 5 0 0 0 - - -;
#X floatatom 1538 683 5 0 0 0 - - -;
#X obj 1536 580 bng 15 250 50 0 empty empty empty 17 7 0 10 -262144
-1 -1;
#X floatatom 1700 683 5 0 0 0 - - -;
#X obj 1700 707 s algo-drummer-limit;
#X obj 1537 705 s algo-drummer-restAmount;
#X obj 1393 705 s algo-drummer-randMax;
#X obj 1535 605 s algo-drummer-randomise;
#N canvas 959 171 621 479 pattern 0;
#X floatatom 177 119 5 0 0 0 - - -;
#X floatatom 242 159 5 0 0 0 - - -;
#X obj 110 84 bng 15 250 50 0 empty empty empty 17 7 0 10 -262144 -1
-1;
#X floatatom 308 195 5 0 0 0 - - -;
#X obj 112 218 js randseq.js, f 33;
#X obj 61 293 sequencer;
#X obj 104 62 r algo-drummer-randomise;
#X obj 176 96 r algo-drummer-randMax;
#X obj 242 135 r algo-drummer-restAmount;
#X obj 310 171 r algo-drummer-limit;
#X obj 60 317 outlet;
#X obj 129 319 outlet;
#X obj 60 270 r pulse3;
#X connect 0 0 4 1;
#X connect 1 0 4 2;
#X connect 2 0 4 0;
#X connect 3 0 4 3;
#X connect 4 0 5 1;
#X connect 4 0 11 0;
#X connect 5 0 10 0;
#X connect 6 0 2 0;
#X connect 7 0 0 0;
#X connect 8 0 1 0;
#X connect 9 0 3 0;
#X connect 12 0 5 0;
#X restore 1002 443 pd pattern;
#X obj 1090 440 else/display 0 7;
#X obj 593 678 r pulse3;
#X obj 659 679 r pulse3;
#X msg 809 525 - - - -;
#X obj 1535 557 r m-metro-bar;
#X msg 1393 655 3;
#X msg 1536 660 98;
#X obj 1388 632 loadbang;
#X obj 1523 627 random 11;
#X msg 1698 659 32;
#X obj 840 683 r pulse3;
#X obj 593 772 s kick;
#X obj 406 938 r kick;
#X obj 459 950 r rimshot;
#X obj 659 772 s rimshot;
#X obj 507 974 r hat;
#X obj 747 778 s hat;
#X obj 556 977 r snare;
#X obj 608 974 r clap;
#X obj 658 971 r ride;
#X obj 707 975 r perc1;
#X obj 757 977 r perc2;
#X obj 811 972 r crash;
#X obj 373 332 r tempo;
#X obj 843 778 s snare;
#X obj 932 773 s clap;
#X obj 996 774 s ride;
#X obj 1083 778 s perc1;
#X obj 1179 783 s perc2;
#X obj 1245 776 s crash;
#X obj 932 702 sequencer;
#X obj 998 703 sequencer;
#X obj 1086 705 sequencer;
#X obj 1085 682 r pulse3;
#X obj 1178 707 sequencer;
#X obj 931 679 r pulse3;
#X obj 997 680 r pulse3;
#X obj 1178 684 r pulse3;
#X obj 1243 704 sequencer;
#X obj 1243 681 r pulse3;
#X obj 641 635 r kick-seq;
#X obj 716 633 r rimshot-seq;
#X obj 759 656 r hat-seq;
#X obj 863 648 r snare-seq;
#X obj 933 619 r clap-seq;
#X obj 1019 638 r ride-seq;
#X obj 1105 638 r perc1-seq;
#X msg 996 537 - - - -;
#X msg 1193 568 - - - -;
#X obj 1182 610 r perc2-seq;
#X obj 1286 653 r crash-seq;
#N canvas 0 96 957 480 dnb-patterns 1;
#X obj 127 354 s kick-seq;
#X obj 198 354 s rimshot-seq;
#X obj 285 354 s hat-seq;
#X obj 348 356 s snare-seq;
#X obj 421 357 s clap-seq;
#X obj 490 357 s ride-seq;
#X obj 560 356 s perc1-seq;
#X obj 636 353 s perc2-seq;
#X obj 711 352 s crash-seq;
#X obj 36 355 s tempo;
#X obj 190 57 bng 15 250 50 0 empty empty empty 17 7 0 10 -262144 -1
-1;
#X msg 36 324 170;
#X msg 133 109 1 - - - - - - - - - 1 - - - - -;
#X msg 463 106 1 - - - 1 - - - 1 - - - 1 - - -;
#X msg 686 149 1 - - - - - - - - - - - - - - -;
#X msg 488 71 2 - 2 - 2 - 2 - 2 - 2 - 2 - 2 -;
#X obj 191 19 inlet;
#X obj 239 17 inlet;
#X msg 236 293 - - - -;
#X msg 343 108 - - - - 2 - - -;
#X msg 380 145 - - - - 1 - 1 - - - - - 4 - - -;
#X msg 561 197 - - - - 1 - 5 -;
#X msg 631 246 - - - - 1 - 1 12 - - - - 2 - - -;
#X obj 239 37 b;
#X obj 128 50 b;
#X obj 282 18 inlet;
#X obj 280 247 b;
#X msg 303 268 - - - -;
#X connect 10 0 11 0;
#X connect 10 0 12 0;
#X connect 10 0 19 0;
#X connect 10 0 13 0;
#X connect 10 0 20 0;
#X connect 10 0 15 0;
#X connect 10 0 21 0;
#X connect 10 0 22 0;
#X connect 10 0 14 0;
#X connect 11 0 9 0;
#X connect 12 0 0 0;
#X connect 13 0 2 0;
#X connect 14 0 8 0;
#X connect 15 0 5 0;
#X connect 16 0 24 0;
#X connect 17 0 23 0;
#X connect 18 0 5 0;
#X connect 18 0 6 0;
#X connect 18 0 7 0;
#X connect 18 0 8 0;
#X connect 18 0 3 0;
#X connect 18 0 2 0;
#X connect 18 0 1 0;
#X connect 18 0 0 0;
#X connect 18 0 4 0;
#X connect 19 0 1 0;
#X connect 19 0 3 0;
#X connect 20 0 4 0;
#X connect 21 0 6 0;
#X connect 22 0 7 0;
#X connect 23 0 18 0;
#X connect 24 0 10 0;
#X connect 25 0 26 0;
#X connect 26 0 27 0;
#X connect 27 0 5 0;
#X connect 27 0 6 0;
#X connect 27 0 7 0;
#X connect 27 0 8 0;
#X restore 353 68 pd dnb-patterns;
#X obj 398 47 bng 15 250 50 0 empty empty empty 17 7 0 10 -262144 -1
-1;
#X obj 352 49 bng 15 250 50 0 empty empty empty 17 7 0 10 -262144 -1
-1;
#X obj 439 48 bng 15 250 50 0 empty empty empty 17 7 0 10 -262144 -1
-1;
#X obj 531 46 bng 15 250 50 0 empty empty empty 17 7 0 10 -262144 -1
-1;
#X obj 477 50 bng 15 250 50 0 empty empty empty 17 7 0 10 -262144 -1
-1;
#X obj 572 47 bng 15 250 50 0 empty empty empty 17 7 0 10 -262144 -1
-1;
#N canvas 0 96 957 480 dubstep-patterns 0;
#X obj 127 354 s kick-seq;
#X obj 198 354 s rimshot-seq;
#X obj 285 354 s hat-seq;
#X obj 348 356 s snare-seq;
#X obj 421 357 s clap-seq;
#X obj 490 357 s ride-seq;
#X obj 560 356 s perc1-seq;
#X obj 636 353 s perc2-seq;
#X obj 711 352 s crash-seq;
#X obj 36 355 s tempo;
#X obj 190 57 bng 15 250 50 0 empty empty empty 17 7 0 10 -262144 -1
-1;
#X msg 707 152 1 - - - - - - - - - - - - - - -;
#X obj 191 19 inlet;
#X obj 239 17 inlet;
#X msg 257 303 - - - -;
#X obj 239 37 b;
#X obj 165 43 b;
#X obj 282 18 inlet;
#X obj 280 247 b;
#X msg 335 274 - - - -;
#X msg 630 23 - - - - - - - - 1 - - - - - - -;
#X msg 389 25 140;
#X msg 424 24 1 - - - - - - - - - - - - - - -;
#X msg 36 324 140;
#X msg 133 109 4 - - - - - - - - - - - - - - -;
#X msg 561 197 - - - - 9;
#X msg 499 66 2 - 2 - 2 - 2 - 2 - 2 - 2 - 2 -;
#X msg 350 116 - - - 9 - 11 - - 7 - - -12- - - -;
#X msg 321 145 - - - - - - - - 3 - - - - - - -;
#X msg 364 196 - - - - - - - - 1 - - - - - - -;
#X msg 467 138 2 - 2 - 2 - 2 - 2 - 2 - 2 - 2 -;
#X msg 631 246 - - - - - 9;
#X connect 10 0 23 0;
#X connect 10 0 24 0;
#X connect 10 0 30 0;
#X connect 10 0 29 0;
#X connect 10 0 25 0;
#X connect 10 0 31 0;
#X connect 10 0 11 0;
#X connect 10 0 26 0;
#X connect 10 0 28 0;
#X connect 11 0 8 0;
#X connect 12 0 16 0;
#X connect 13 0 15 0;
#X connect 14 0 5 0;
#X connect 14 0 6 0;
#X connect 14 0 7 0;
#X connect 14 0 8 0;
#X connect 14 0 3 0;
#X connect 14 0 2 0;
#X connect 14 0 1 0;
#X connect 14 0 0 0;
#X connect 14 0 4 0;
#X connect 15 0 14 0;
#X connect 16 0 10 0;
#X connect 17 0 18 0;
#X connect 18 0 19 0;
#X connect 19 0 5 0;
#X connect 19 0 6 0;
#X connect 19 0 7 0;
#X connect 19 0 8 0;
#X connect 23 0 9 0;
#X connect 24 0 0 0;
#X connect 25 0 6 0;
#X connect 26 0 5 0;
#X connect 27 0 1 0;
#X connect 27 0 3 0;
#X connect 28 0 1 0;
#X connect 28 0 3 0;
#X connect 29 0 4 0;
#X connect 30 0 2 0;
#X connect 31 0 7 0;
#X restore 478 69 pd dubstep-patterns;
#X msg 185 666 2900;
#X msg 302 672 100;
#X obj 168 633 loadbang;
#X obj 649 50 bng 15 250 50 0 empty empty empty 17 7 0 10 -262144 -1
-1;
#X obj 601 52 bng 15 250 50 0 empty empty empty 17 7 0 10 -262144 -1
-1;
#X obj 696 49 bng 15 250 50 0 empty empty empty 17 7 0 10 -262144 -1
-1;
#N canvas 0 96 957 480 house-patterns 0;
#X obj 127 354 s kick-seq;
#X obj 198 354 s rimshot-seq;
#X obj 285 354 s hat-seq;
#X obj 348 356 s snare-seq;
#X obj 421 357 s clap-seq;
#X obj 490 357 s ride-seq;
#X obj 560 356 s perc1-seq;
#X obj 636 353 s perc2-seq;
#X obj 711 352 s crash-seq;
#X obj 36 355 s tempo;
#X obj 190 57 bng 15 250 50 0 empty empty empty 17 7 0 10 -262144 -1
-1;
#X obj 191 19 inlet;
#X obj 239 17 inlet;
#X msg 213 289 - - - -;
#X obj 239 37 b;
#X obj 165 43 b;
#X obj 282 18 inlet;
#X obj 280 247 b;
#X msg 431 264 - - - -;
#X msg 630 23 - - - - - - - - 1 - - - - - - -;
#X msg 389 25 140;
#X msg 424 24 1 - - - - - - - - - - - - - - -;
#X msg 716 213 - - - - 9;
#X msg 133 109 1 - - - 1 - - - 1 - - - 1 - - -;
#X msg 344 103 - - - - 1 - - -;
#X msg 36 324 130;
#X msg 662 146 8 - - - - - - - - - - - - - - -;
#X msg 562 257 2 - - -;
#X msg 631 246 - - 5 -;
#X msg 515 67 2 - - - 2 - - -;
#X msg 364 196 - - - - - - - - 3 - - - - - - -;
#X msg 347 163 - - - - - - - - 1 - - - - - - -;
#X msg 542 103 - - 3 -;
#X connect 10 0 25 0;
#X connect 10 0 23 0;
#X connect 10 0 32 0;
#X connect 10 0 22 0;
#X connect 10 0 28 0;
#X connect 10 0 26 0;
#X connect 10 0 27 0;
#X connect 10 0 24 0;
#X connect 11 0 15 0;
#X connect 12 0 14 0;
#X connect 13 0 5 0;
#X connect 13 0 6 0;
#X connect 13 0 7 0;
#X connect 13 0 8 0;
#X connect 13 0 3 0;
#X connect 13 0 2 0;
#X connect 13 0 1 0;
#X connect 13 0 0 0;
#X connect 13 0 4 0;
#X connect 14 0 13 0;
#X connect 15 0 10 0;
#X connect 16 0 17 0;
#X connect 17 0 18 0;
#X connect 18 0 5 0;
#X connect 18 0 6 0;
#X connect 18 0 7 0;
#X connect 18 0 8 0;
#X connect 23 0 0 0;
#X connect 24 0 1 0;
#X connect 24 0 3 0;
#X connect 25 0 9 0;
#X connect 27 0 6 0;
#X connect 28 0 7 0;
#X connect 29 0 5 0;
#X connect 30 0 4 0;
#X connect 31 0 1 0;
#X connect 31 0 3 0;
#X connect 32 0 2 0;
#X restore 602 71 pd house-patterns;
#X text 777 40 house;
#X text 771 55 techno;
#X text 771 70 tribal;
#X text 759 84 hardcore;
#X text 771 99 trance;
#X text 741 114 progressive;
#X text 753 129 hip house;
#X text 753 144 acid jazz;
#X text 747 159 acid house;
#X text 747 174 deep house;
#X text 818 40 mid tempo funky groove that started in Chicago;
#X text 818 174 or garage. more soulful \, more vox;
#X text 817 99 ambient;
#X text 776 189 gabba;
#X text 819 189 fast;
#X obj 508 1047 i;
#X obj 507 1022 b;
#X floatatom 528 899 5 0 0 0 - - -;
#X obj 555 1047 i;
#X obj 554 1022 b;
#X floatatom 573 907 5 0 0 0 - - -;
#X obj 458 1042 i;
#X obj 457 1017 b;
#X floatatom 474 907 5 0 0 0 - - -;
#X obj 419 1043 i;
#X obj 418 1018 b;
#X floatatom 435 908 5 0 0 0 - - -;
#X obj 664 1059 i;
#X obj 663 1034 b;
#X floatatom 682 919 5 0 0 0 - - -;
#X obj 709 1058 i;
#X obj 708 1033 b;
#X floatatom 727 918 5 0 0 0 - - -;
#X obj 760 1057 i;
#X obj 759 1032 b;
#X floatatom 778 917 5 0 0 0 - - -;
#X obj 805 1059 i;
#X obj 804 1034 b;
#X floatatom 823 919 5 0 0 0 - - -;
#X obj 580 447 sequencer;
#X floatatom 578 472 5 0 0 0 - - -;
#N canvas 0 96 450 300 bass 0;
#X obj 32 29 inlet;
#X obj 39 110 m-sub~;
#X floatatom 30 81 5 0 0 0 - - -;
#X floatatom 68 81 5 0 0 0 - - -;
#X obj 91 199 m-fm;
#X floatatom 90 175 5 0 0 0 - - -;
#X obj 60 249 outlet~;
#X obj 101 33 loadbang;
#X msg 101 56 4000;
#X floatatom 225 92 5 0 0 0 - - -;
#X obj 225 115 + 32;
#X connect 0 0 2 0;
#X connect 0 0 5 0;
#X connect 1 0 6 0;
#X connect 2 0 1 0;
#X connect 3 0 1 1;
#X connect 4 0 6 0;
#X connect 5 0 4 0;
#X connect 7 0 8 0;
#X connect 8 0 3 0;
#X connect 9 0 10 0;
#X connect 10 0 5 0;
#X restore 492 536 pd bass;
#X floatatom 626 489 5 0 0 0 - - -;
#X obj 573 512 +;
#X msg 631 354 1 - - 2 - - 7 - 1 - 0 - 0 - - - 0 - - - 3 - - - 0 -
- - 0 - - -, f 76;
#X msg 623 304 1 1 1 1 - - - - 2 2 2 2 - - - -;
#X msg 574 260 - - - -;
#X obj 621 137 bng 15 250 50 0 empty empty empty 17 7 0 10 -262144
-1 -1;
#X obj 573 139 bng 15 250 50 0 empty empty empty 17 7 0 10 -262144
-1 -1;
#X obj 668 136 bng 15 250 50 0 empty empty empty 17 7 0 10 -262144
-1 -1;
#N canvas 0 96 957 480 138Trek-patterns 0;
#X obj 127 354 s kick-seq;
#X obj 198 354 s rimshot-seq;
#X obj 285 354 s hat-seq;
#X obj 348 356 s snare-seq;
#X obj 421 357 s clap-seq;
#X obj 490 357 s ride-seq;
#X obj 560 356 s perc1-seq;
#X obj 636 353 s perc2-seq;
#X obj 711 352 s crash-seq;
#X obj 36 355 s tempo;
#X obj 190 57 bng 15 250 50 0 empty empty empty 17 7 0 10 -262144 -1
-1;
#X obj 191 19 inlet;
#X obj 239 17 inlet;
#X msg 213 289 - - - -;
#X obj 239 37 b;
#X obj 165 43 b;
#X obj 282 18 inlet;
#X obj 280 247 b;
#X msg 431 264 - - - -;
#X msg 630 23 - - - - - - - - 1 - - - - - - -;
#X msg 389 25 140;
#X msg 424 24 1 - - - - - - - - - - - - - - -;
#X msg 716 213 - - - - 9;
#X msg 344 103 - - - - 1 - - -;
#X msg 662 146 8 - - - - - - - - - - - - - - -;
#X msg 562 257 2 - - -;
#X msg 631 246 - - 5 -;
#X msg 515 67 2 - - - 2 - - -;
#X msg 364 196 - - - - - - - - 3 - - - - - - -;
#X msg 347 163 - - - - - - - - 1 - - - - - - -;
#X msg 54 147 1 - - - 1 - - - - 1 - 1 - - - -;
#X msg 36 324 140;
#X msg 542 103 - - 3 -;
#X connect 10 0 31 0;
#X connect 10 0 30 0;
#X connect 10 0 32 0;
#X connect 10 0 22 0;
#X connect 10 0 26 0;
#X connect 10 0 24 0;
#X connect 10 0 25 0;
#X connect 10 0 23 0;
#X connect 11 0 15 0;
#X connect 12 0 14 0;
#X connect 13 0 5 0;
#X connect 13 0 6 0;
#X connect 13 0 7 0;
#X connect 13 0 8 0;
#X connect 13 0 3 0;
#X connect 13 0 2 0;
#X connect 13 0 1 0;
#X connect 13 0 0 0;
#X connect 13 0 4 0;
#X connect 14 0 13 0;
#X connect 15 0 10 0;
#X connect 16 0 17 0;
#X connect 17 0 18 0;
#X connect 18 0 5 0;
#X connect 18 0 6 0;
#X connect 18 0 7 0;
#X connect 18 0 8 0;
#X connect 23 0 1 0;
#X connect 23 0 3 0;
#X connect 25 0 6 0;
#X connect 26 0 7 0;
#X connect 27 0 5 0;
#X connect 28 0 4 0;
#X connect 29 0 1 0;
#X connect 29 0 3 0;
#X connect 30 0 0 0;
#X connect 31 0 9 0;
#X connect 32 0 2 0;
#X restore 574 158 pd 138Trek-patterns;
#X msg 649 250 4 - - - 6 - - 18 - 3 - - 6 - - -;
#X obj 648 439 loadbang;
#X msg 648 462 37;
#X obj 931 258 i 0;
#X obj 961 257 + 1;
#X floatatom 928 285 5 0 0 0 - - -;
#X floatatom 962 307 5 0 0 0 - - -;
#X obj 933 230 r m-metro-bar;
#X obj 254 327 sel 0;
#X msg 250 354 0;
#X obj 1014 263 sel 0;
#X obj 1002 330 bng 15 250 50 0 empty empty empty 17 7 0 10 -262144
-1 -1;
#X obj 928 307 % 8;
#X floatatom 1253 202 5 0 0 0 - - -;
#X floatatom 1320 204 5 0 0 0 - - -;
#X obj 1151 153 bng 15 250 50 0 empty empty empty 17 7 0 10 -262144
-1 -1;
#X floatatom 1384 203 5 0 0 0 - - -;
#X obj 1189 250 else/display 0 7;
#X obj 1187 225 js randseq.js, f 33;
#X obj 1128 314 sequencer;
#X obj 1149 285 random 80;
#X obj 1255 178 unpack 0 0 0;
#X obj 1254 130 loadbang;
#X obj 1128 343 + 37;
#X obj 943 384 random 4;
#X obj 943 407 sel 0 1 2 4;
#X msg 1254 156 20 71 16;
#N canvas 0 96 629 300 random-kit 0;
#X obj 57 20 inlet;
#X obj 19 143 random 100;
#X obj 86 143 random 100;
#X obj 155 141 random 100;
#X obj 222 141 random 100;
#X obj 289 139 random 100;
#X obj 356 139 random 100;
#X obj 425 137 random 100;
#X obj 492 137 random 100;
#X obj 55 43 b;
#X obj 560 136 random 100;
#X obj 15 215 outlet;
#X obj 63 214 outlet;
#X obj 111 215 outlet;
#X obj 159 214 outlet;
#X obj 203 212 outlet;
#X obj 251 211 outlet;
#X obj 299 212 outlet;
#X obj 347 211 outlet;
#X obj 405 214 outlet;
#X connect 0 0 9 0;
#X connect 1 0 11 0;
#X connect 2 0 12 0;
#X connect 3 0 13 0;
#X connect 4 0 14 0;
#X connect 5 0 15 0;
#X connect 6 0 16 0;
#X connect 7 0 17 0;
#X connect 8 0 18 0;
#X connect 9 0 1 0;
#X connect 9 0 2 0;
#X connect 9 0 3 0;
#X connect 9 0 4 0;
#X connect 9 0 5 0;
#X connect 9 0 6 0;
#X connect 9 0 7 0;
#X connect 9 0 8 0;
#X connect 9 0 10 0;
#X connect 10 0 19 0;
#X restore 410 850 pd random-kit;
#X f 72;
#X obj 611 1047 i;
#X obj 610 1022 b;
#X floatatom 629 907 5 0 0 0 - - -;
#X obj 447 632 m-poly~;
#X floatatom 445 579 5 0 0 0 - - -;
#X obj 22 694 makenote 100 200;
#X floatatom 19 668 5 0 0 0 - - -;
#X obj 34 625 makenote 100 200;
#X floatatom 31 599 5 0 0 0 - - -;
#X obj 84 572 makenote 100 200;
#X floatatom 81 546 5 0 0 0 - - -;
#X msg 36 371 50 53 57;
#X msg 33 340 38 50 53 57;
#X msg 47 405 41 44 48;
#X msg 71 435 44 47 51;
#X msg 72 462 49 52 56;
#X msg 170 323 47 48 52;
#X msg 173 351 45 48 52 55 59 62;
#X msg 184 376 47 48 52 59;
#X msg 187 404 37 42 45 52 59;
#X msg 192 428 40 45 48 55 59 62;
#X obj 22 511 unpack 0 0 0 0 0 0 0 0 0 0, f 45;
#X obj 209 590 makenote 100 200;
#X floatatom 206 564 5 0 0 0 - - -;
#X obj 261 646 makenote 100 200;
#X floatatom 258 620 5 0 0 0 - - -;
#X obj 332 615 makenote 100 200;
#X floatatom 329 589 5 0 0 0 - - -;
#N canvas 0 96 612 459 yellotron 0;
#N canvas 237 96 1068 584 yellotron 0;
#N canvas 417 264 450 403 armoire 0;
#X obj 20 36 table tab_43;
#X obj 20 55 table tab_44;
#X obj 20 74 table tab_45;
#X obj 20 93 table tab_46;
#X obj 20 112 table tab_47;
#X obj 20 131 table tab_48;
#X obj 20 150 table tab_49;
#X obj 20 169 table tab_50;
#X obj 20 188 table tab_51;
#X obj 20 207 table tab_52;
#X obj 20 226 table tab_53;
#X obj 20 245 table tab_54;
#X obj 20 264 table tab_55;
#X obj 105 36 table tab_56;
#X obj 105 55 table tab_57;
#X obj 105 74 table tab_58;
#X obj 105 93 table tab_59;
#X obj 105 112 table tab_60;
#X obj 105 131 table tab_61;
#X obj 105 150 table tab_62;
#X obj 105 169 table tab_63;
#X obj 105 188 table tab_64;
#X obj 105 207 table tab_65;
#X obj 105 226 table tab_66;
#X obj 105 245 table tab_67;
#X obj 105 264 table tab_68;
#X obj 190 36 table tab_69;
#X obj 190 55 table tab_70;
#X obj 190 74 table tab_71;
#X obj 190 93 table tab_72;
#X obj 190 112 table tab_73;
#X obj 190 131 table tab_74;
#X obj 190 150 table tab_75;
#X obj 190 169 table tab_76;
#X obj 190 188 table tab_77;
#X restore 1057 493 pd armoire;
#N canvas 65 200 763 567 armement 0;
#X obj 198 507 soundfiler;
#X obj 244 339 until;
#X obj 245 413 textfile;
#X msg 311 389 rewind;
#X msg 244 362 bang;
#X obj 244 277 pipe 1;
#X msg 280 360 read notemap.txt cr;
#X obj 198 448 unpack s f;
#X obj 198 468 pack s s f;
#X obj 181 246 symbol;
#X obj 244 256 t s b;
#X obj 244 295 t b b;
#X msg 198 488 read -resize ./\$2/\$1 tab_\$3;
#X msg 244 319 35;
#X obj 181 18 inlet;
#X symbolatom 106 133 10 0 0 0 - - -;
#X obj 214 49 sel 0 1 2 3 4 5 6 7 8 9;
#X msg 271 200 Cello;
#X msg 207 86 MKIIFlute;
#X msg 295 243 CombinedChoir;
#X msg 248 155 MKIIViolin;
#X msg 283 222 StringSection;
#X msg 330 124 Woodwind;
#X msg 345 151 GC3Brass;
#X msg 220 109 M300A;
#X msg 232 133 M300B;
#X msg 260 178 MKIIBrass;
#X text 430 44 Here we load the choosen instrument into;
#X text 431 57 the bank of tables.;
#X text 431 73 The sound samples for each note have to;
#X text 430 87 be in folders located in the same folder;
#X text 431 102 as yellotron.pd.;
#X text 431 117 The samples (named C \, C# \, B...) are mapped;
#X text 431 130 to midi notes (60 \, 61 \, 62...) as per the information
;
#X text 431 144 contained in notemap.txt .;
#X text 104 115 Instrument;
#X connect 1 0 4 0;
#X connect 2 0 7 0;
#X connect 3 0 2 0;
#X connect 4 0 2 0;
#X connect 5 0 11 0;
#X connect 6 0 2 0;
#X connect 7 0 8 0;
#X connect 7 1 8 2;
#X connect 8 0 12 0;
#X connect 9 0 8 1;
#X connect 9 0 10 0;
#X connect 9 0 15 0;
#X connect 10 0 5 0;
#X connect 10 1 6 0;
#X connect 11 0 13 0;
#X connect 11 1 3 0;
#X connect 12 0 0 0;
#X connect 13 0 1 0;
#X connect 14 0 16 0;
#X connect 16 0 18 0;
#X connect 16 1 24 0;
#X connect 16 2 25 0;
#X connect 16 3 20 0;
#X connect 16 4 26 0;
#X connect 16 5 17 0;
#X connect 16 6 21 0;
#X connect 16 7 19 0;
#X connect 16 8 22 0;
#X connect 16 9 23 0;
#X connect 17 0 9 0;
#X connect 18 0 9 0;
#X connect 19 0 9 0;
#X connect 20 0 9 0;
#X connect 21 0 9 0;
#X connect 22 0 9 0;
#X connect 23 0 9 0;
#X connect 24 0 9 0;
#X connect 25 0 9 0;
#X connect 26 0 9 0;
#X coords 0 -1 1 1 85 60 2 100 100;
#X restore 110 234 pd armement;
#X obj 568 416 keyup;
#X obj 472 419 key;
#N canvas 319 350 450 345 convert 0;
#X obj 147 81 inlet;
#X obj 33 183 sel 113 122 115 101 100 102 116 103;
#X msg 18 229 0;
#X msg 32 262 1;
#X msg 55 232 2;
#X msg 72 264 3;
#X msg 96 232 4;
#X msg 117 261 5;
#X msg 140 231 6;
#X msg 163 259 7;
#X obj 176 134 sel 121 104 117 106 107 111 108 112 109;
#X msg 219 235 8;
#X msg 236 260 9;
#X msg 262 235 10;
#X msg 279 260 11;
#X msg 304 235 12;
#X msg 321 260 13;
#X msg 348 234 14;
#X msg 365 259 15;
#X msg 390 234 16;
#X obj 160 309 outlet;
#X text 27 15 This was desgined to play on an AZERTY keyboard \, with
the letter "q" mapped to the note C.;
#X text 27 42 For another keyboard layout you'll have to change the
numbers in the [sel] objects.;
#X connect 0 0 1 0;
#X connect 0 0 10 0;
#X connect 1 0 2 0;
#X connect 1 1 3 0;
#X connect 1 2 4 0;
#X connect 1 3 5 0;
#X connect 1 4 6 0;
#X connect 1 5 7 0;
#X connect 1 6 8 0;
#X connect 1 7 9 0;
#X connect 2 0 20 0;
#X connect 3 0 20 0;
#X connect 4 0 20 0;
#X connect 5 0 20 0;
#X connect 6 0 20 0;
#X connect 7 0 20 0;
#X connect 8 0 20 0;
#X connect 9 0 20 0;
#X connect 10 0 11 0;
#X connect 10 1 12 0;
#X connect 10 2 13 0;
#X connect 10 3 14 0;
#X connect 10 4 15 0;
#X connect 10 5 16 0;
#X connect 10 6 17 0;
#X connect 10 7 18 0;
#X connect 10 8 19 0;
#X connect 11 0 20 0;
#X connect 12 0 20 0;
#X connect 13 0 20 0;
#X connect 14 0 20 0;
#X connect 15 0 20 0;
#X connect 16 0 20 0;
#X connect 17 0 20 0;
#X connect 18 0 20 0;
#X connect 19 0 20 0;
#X restore 466 443 pd convert keys;
#N canvas 320 390 450 300 convert 0;
#X obj 147 21 inlet;
#X obj 33 123 sel 113 122 115 101 100 102 116 103;
#X msg 18 169 0;
#X msg 32 202 1;
#X msg 55 172 2;
#X msg 72 204 3;
#X msg 96 172 4;
#X msg 117 201 5;
#X msg 140 171 6;
#X msg 163 199 7;
#X obj 176 74 sel 121 104 117 106 107 111 108 112 109;
#X msg 219 175 8;
#X msg 236 200 9;
#X msg 262 175 10;
#X msg 279 200 11;
#X msg 304 175 12;
#X msg 321 200 13;
#X msg 348 174 14;
#X msg 365 199 15;
#X msg 390 174 16;
#X obj 160 249 outlet;
#X connect 0 0 1 0;
#X connect 0 0 10 0;
#X connect 1 0 2 0;
#X connect 1 1 3 0;
#X connect 1 2 4 0;
#X connect 1 3 5 0;
#X connect 1 4 6 0;
#X connect 1 5 7 0;
#X connect 1 6 8 0;
#X connect 1 7 9 0;
#X connect 2 0 20 0;
#X connect 3 0 20 0;
#X connect 4 0 20 0;
#X connect 5 0 20 0;
#X connect 6 0 20 0;
#X connect 7 0 20 0;
#X connect 8 0 20 0;
#X connect 9 0 20 0;
#X connect 10 0 11 0;
#X connect 10 1 12 0;
#X connect 10 2 13 0;
#X connect 10 3 14 0;
#X connect 10 4 15 0;
#X connect 10 5 16 0;
#X connect 10 6 17 0;
#X connect 10 7 18 0;
#X connect 10 8 19 0;
#X connect 11 0 20 0;
#X connect 12 0 20 0;
#X connect 13 0 20 0;
#X connect 14 0 20 0;
#X connect 15 0 20 0;
#X connect 16 0 20 0;
#X connect 17 0 20 0;
#X connect 18 0 20 0;
#X connect 19 0 20 0;
#X restore 562 443 pd convert keys;
#X obj 276 589 pack 0 0 0;
#X obj 466 507 t f b;
#X msg 493 528 50;
#X obj 514 507 t f b;
#X msg 541 528 0;
#X obj 274 611 route 1 2 3 4 5 6;
#X obj 868 447 s release;
#X obj 114 162 hsl 128 15 10 1000 0 0 empty empty empty -2 -8 0 10
-262144 -1 -1 2437 1;
#X floatatom 916 428 5 0 0 0 - - -;
#X obj 868 472 hradio 15 1 0 2 empty empty empty 0 -8 0 10 -262144
-1 -1 0;
#X obj 868 492 * 12;
#X obj 466 485 + 48;
#X obj 562 483 + 48;
#X obj 868 514 + 48;
#X obj 830 180 loadbang;
#X obj 868 534 s octave;
#X obj 583 462 r octave;
#X obj 271 143 vradio 15 1 0 10 empty empty empty 0 -8 0 10 -262144
-1 -1 2;
#X text 292 143 MkII Flute;
#X text 292 157 M300A;
#X text 292 172 M300B;
#X text 292 187 MkII Violin;
#X text 292 203 MkII Brass;
#X text 292 218 Cello;
#X text 292 232 String Section;
#X text 292 248 Combined Choir;
#X text 292 263 Woodwind;
#X text 292 278 GC3 Brass;
#X obj 114 200 hsl 128 15 0 0.125 0 0 empty empty empty -2 -8 0 10
-262144 -1 -1 6350 1;
#X obj 867 632 s pitch;
#X obj 867 607 - 0.0625;
#X obj 331 498 notein;
#X obj 466 589 pack 0 0 0;
#X obj 464 611 route 1 2 3 4 5 6;
#X obj 466 564 poly 6;
#X obj 278 499 poly 6;
#X obj 556 699 yelloscillator;
#X obj 811 531 bendin;
#X obj 811 551 / 16383;
#X obj 811 570 / 8;
#X obj 306 757 *~ 0.3;
#X text 1039 445 This is where all the notes;
#X text 1040 460 for the instrument are stored;
#X text 1040 474 in tables.;
#X text 656 698 The audio happens here (inidivual notes are played
;
#X text 655 713 and then summed together before being sent to the audio
output (dac).;
#X obj 868 382 r set-release;
#X obj 867 566 r set-pitch;
#X floatatom 807 658 5 0 0 0 - - -;
#X obj 266 699 yelloscillator;
#X obj 365 699 yelloscillator;
#X obj 316 725 yelloscillator;
#X obj 409 725 yelloscillator;
#X obj 463 699 yelloscillator;
#X text 961 819 Pierre Massat \, Guitar Extended \, 2014;
#X text 268 120 Choose an instrument.;
#X obj 935 87 loadbang;
#X msg 934 112 2;
#X obj 37 38 cnv 15 100 60 empty empty empty 20 12 0 14 -233017 -66577
0;
#X text 109 142 Release;
#X text 110 181 Pitch;
#X text 107 125 Yellotron..........................;
#X msg 830 201 \; set-release 200 \; set-pitch 0.0625;
#X obj 306 780 outlet~;
#X obj 276 8 inlet;
#X obj 310 33 inlet;
#X obj 355 58 declare -path ./yellotron;
#X connect 4 0 17 0;
#X connect 5 0 18 0;
#X connect 6 0 11 0;
#X connect 7 0 40 0;
#X connect 7 1 8 0;
#X connect 8 0 40 1;
#X connect 9 0 40 0;
#X connect 9 1 10 0;
#X connect 10 0 40 1;
#X connect 11 0 55 0;
#X connect 11 1 56 0;
#X connect 11 2 57 0;
#X connect 11 3 58 0;
#X connect 11 4 59 0;
#X connect 11 5 42 0;
#X connect 13 0 14 0;
#X connect 13 0 12 0;
#X connect 15 0 16 0;
#X connect 16 0 19 0;
#X connect 17 0 7 0;
#X connect 18 0 9 0;
#X connect 19 0 21 0;
#X connect 20 0 68 0;
#X connect 22 0 18 1;
#X connect 22 0 17 1;
#X connect 23 0 1 0;
#X connect 34 0 36 0;
#X connect 36 0 35 0;
#X connect 36 0 54 0;
#X connect 38 0 39 0;
#X connect 39 0 55 1;
#X connect 39 1 56 1;
#X connect 39 2 59 1;
#X connect 39 3 42 1;
#X connect 39 4 57 1;
#X connect 39 5 58 1;
#X connect 40 0 38 0;
#X connect 40 1 38 1;
#X connect 40 2 38 2;
#X connect 41 0 6 0;
#X connect 41 1 6 1;
#X connect 41 2 6 2;
#X connect 42 0 46 0;
#X connect 43 0 44 0;
#X connect 44 0 45 0;
#X connect 45 0 34 0;
#X connect 46 0 69 0;
#X connect 52 0 13 0;
#X connect 53 0 34 0;
#X connect 55 0 46 0;
#X connect 56 0 46 0;
#X connect 57 0 46 0;
#X connect 58 0 46 0;
#X connect 59 0 46 0;
#X connect 62 0 63 0;
#X connect 63 0 23 0;
#X connect 70 0 41 0;
#X connect 71 0 41 1;
#X coords 0 -1 1 1 300 200 1 100 100;
#X restore 19 75 pd yellotron;
#X obj 22 44 inlet;
#X obj 309 38 inlet;
#X obj 42 298 outlet~;
#X connect 0 0 3 0;
#X connect 1 0 0 0;
#X connect 2 0 0 1;
#X restore 262 784 pd yellotron;
#N canvas 0 96 409 934 dx7 0;
#X obj 170 48 makenote 100 200;
#X obj 9 146 m-dx7;
#X obj 13 121 pack f f;
#X obj 8 830 *~ 0.33;
#N canvas 607 171 450 300 chord 0;
#X msg 10 86 60;
#X obj 9 109 makenote 127 500;
#X obj 112 108 makenote 127 500;
#X msg 215 85 70;
#X msg 113 85 65;
#X obj 10 61 t b b b, f 8;
#X obj 10 39 bng 15 250 50 0 empty empty empty 17 7 0 10 -262144 -1
-1;
#X obj 215 107 makenote 127 500;
#X obj 9 13 inlet;
#X obj 8 210 outlet;
#X obj 54 210 outlet;
#X connect 0 0 1 0;
#X connect 1 0 9 0;
#X connect 1 1 10 0;
#X connect 2 0 9 0;
#X connect 2 1 10 0;
#X connect 3 0 7 0;
#X connect 4 0 2 0;
#X connect 5 0 0 0;
#X connect 5 1 4 0;
#X connect 5 2 3 0;
#X connect 6 0 5 0;
#X connect 7 0 9 0;
#X connect 7 1 10 0;
#X connect 8 0 6 0;
#X restore 172 105 pd chord;
#X obj 172 83 bng 15 250 50 0 empty empty empty 17 7 0 10 -262144 -1
-1;
#X obj 13 13 inlet;
#X obj 58 13 inlet;
#X obj 8 853 outlet~;
#X connect 0 0 2 0;
#X connect 0 1 2 1;
#X connect 1 0 3 0;
#X connect 2 0 1 0;
#X connect 3 0 8 0;
#X connect 4 0 2 0;
#X connect 4 1 2 1;
#X connect 5 0 4 0;
#X connect 6 0 2 0;
#X connect 7 0 2 1;
#X restore 50 777 pd dx7;
#N canvas 0 96 450 300 dbsp 0;
#X obj 54 91 inlet;
#X obj 181 99 inlet;
#X obj 54 210 outlet;
#X obj 181 218 outlet;
#X obj 54 147 spigot 1;
#X obj 167 151 spigot 1;
#X connect 0 0 4 0;
#X connect 1 0 5 0;
#X connect 4 0 2 0;
#X connect 5 0 3 0;
#X restore 46 726 pd dbsp;
#X msg 200 975 open ./m-onz-NEW4.wav;
#X obj 1227 289 print;
#X msg 1176 46 - - - - 8 - 43 - - - - 24 - - - - - 28 - - - - - - -
- - - 35 - 1 -, f 69;
#X connect 1 0 2 0;
#X connect 2 0 3 0;
#X connect 7 0 39 0;
#X connect 8 0 11 0;
#X connect 9 0 7 2;
#X connect 10 0 7 1;
#X connect 11 0 39 0;
#X connect 12 0 13 0;
#X connect 14 0 16 0;
#X connect 14 0 22 0;
#X connect 14 0 193 0;
#X connect 15 0 14 0;
#X connect 16 0 24 0;
#X connect 16 1 19 0;
#X connect 16 2 20 0;
#X connect 16 3 21 0;
#X connect 17 0 16 1;
#X connect 18 0 15 0;
#X connect 19 0 23 0;
#X connect 20 0 56 0;
#X connect 21 0 25 0;
#X connect 21 0 52 0;
#X connect 21 0 173 0;
#X connect 24 0 29 0;
#X connect 25 0 8 0;
#X connect 26 0 25 1;
#X connect 27 0 39 0;
#X connect 28 0 27 0;
#X connect 29 0 30 0;
#X connect 31 0 32 0;
#X connect 32 0 15 0;
#X connect 33 0 31 0;
#X connect 34 0 28 0;
#X connect 35 0 34 0;
#X connect 37 0 36 0;
#X connect 38 0 36 0;
#X connect 39 0 5 0;
#X connect 39 0 0 0;
#X connect 39 0 0 1;
#X connect 39 0 36 0;
#X connect 39 0 36 1;
#X connect 40 0 39 0;
#X connect 41 0 159 0;
#X connect 42 0 156 0;
#X connect 43 0 150 0;
#X connect 44 0 153 0;
#X connect 45 0 214 0;
#X connect 46 0 162 0;
#X connect 47 0 165 0;
#X connect 48 0 168 0;
#X connect 49 0 171 0;
#X connect 50 0 79 0;
#X connect 51 0 82 0;
#X connect 53 0 84 0;
#X connect 54 0 53 0;
#X connect 55 0 92 0;
#X connect 58 0 57 0;
#X connect 59 0 65 0;
#X connect 60 0 64 0;
#X connect 61 0 66 0;
#X connect 61 0 76 0;
#X connect 62 0 63 0;
#X connect 67 1 68 0;
#X connect 69 0 50 0;
#X connect 70 0 51 0;
#X connect 71 0 50 1;
#X connect 71 0 51 1;
#X connect 71 0 53 1;
#X connect 71 0 55 1;
#X connect 72 0 61 0;
#X connect 74 0 60 0;
#X connect 75 0 73 0;
#X connect 75 0 74 0;
#X connect 75 0 77 0;
#X connect 77 0 62 0;
#X connect 78 0 55 0;
#X connect 80 0 41 0;
#X connect 81 0 42 0;
#X connect 83 0 43 0;
#X connect 85 0 44 0;
#X connect 86 0 45 0;
#X connect 87 0 46 0;
#X connect 88 0 47 0;
#X connect 89 0 48 0;
#X connect 90 0 49 0;
#X connect 91 0 17 0;
#X connect 98 0 93 0;
#X connect 99 0 94 0;
#X connect 100 0 95 0;
#X connect 101 0 100 0;
#X connect 102 0 96 0;
#X connect 103 0 98 0;
#X connect 104 0 99 0;
#X connect 105 0 102 0;
#X connect 106 0 97 0;
#X connect 107 0 106 0;
#X connect 108 0 50 1;
#X connect 109 0 51 1;
#X connect 110 0 53 1;
#X connect 111 0 55 1;
#X connect 112 0 98 1;
#X connect 113 0 99 1;
#X connect 114 0 100 1;
#X connect 115 0 55 1;
#X connect 115 0 98 1;
#X connect 115 0 99 1;
#X connect 115 0 100 1;
#X connect 116 0 102 1;
#X connect 116 0 106 1;
#X connect 117 0 102 1;
#X connect 118 0 106 1;
#X connect 120 0 119 1;
#X connect 121 0 119 0;
#X connect 122 0 119 2;
#X connect 123 0 126 1;
#X connect 124 0 126 0;
#X connect 125 0 126 2;
#X connect 128 0 12 0;
#X connect 129 0 127 0;
#X connect 129 0 128 0;
#X connect 130 0 133 1;
#X connect 131 0 133 0;
#X connect 132 0 133 2;
#X connect 149 0 40 2;
#X connect 150 0 149 0;
#X connect 151 0 149 1;
#X connect 152 0 40 3;
#X connect 153 0 152 0;
#X connect 154 0 152 1;
#X connect 155 0 40 1;
#X connect 156 0 155 0;
#X connect 157 0 155 1;
#X connect 158 0 40 0;
#X connect 159 0 158 0;
#X connect 160 0 158 1;
#X connect 161 0 40 5;
#X connect 162 0 161 0;
#X connect 163 0 161 1;
#X connect 164 0 40 6;
#X connect 165 0 164 0;
#X connect 166 0 164 1;
#X connect 167 0 40 7;
#X connect 168 0 167 0;
#X connect 169 0 167 1;
#X connect 170 0 40 8;
#X connect 171 0 170 0;
#X connect 172 0 170 1;
#X connect 173 0 174 0;
#X connect 174 0 177 0;
#X connect 175 0 39 0;
#X connect 176 0 177 1;
#X connect 177 0 175 0;
#X connect 178 0 173 1;
#X connect 179 0 173 1;
#X connect 180 0 173 1;
#X connect 181 0 184 1;
#X connect 182 0 184 0;
#X connect 182 0 185 0;
#X connect 183 0 184 2;
#X connect 185 0 173 1;
#X connect 186 0 187 0;
#X connect 187 0 176 0;
#X connect 188 0 189 0;
#X connect 188 0 190 0;
#X connect 189 0 188 1;
#X connect 190 0 197 0;
#X connect 191 0 195 0;
#X connect 192 0 188 0;
#X connect 193 0 194 0;
#X connect 194 0 188 1;
#X connect 196 0 209 0;
#X connect 196 0 212 0;
#X connect 197 0 191 0;
#X connect 198 0 203 1;
#X connect 199 0 203 2;
#X connect 200 0 203 0;
#X connect 200 0 205 0;
#X connect 201 0 203 3;
#X connect 202 0 204 1;
#X connect 202 0 173 1;
#X connect 202 0 245 0;
#X connect 203 0 202 0;
#X connect 204 0 208 0;
#X connect 205 0 208 1;
#X connect 206 0 198 0;
#X connect 206 1 199 0;
#X connect 206 2 201 0;
#X connect 207 0 211 0;
#X connect 209 0 210 0;
#X connect 211 0 206 0;
#X connect 212 0 160 0;
#X connect 212 1 157 0;
#X connect 212 2 151 0;
#X connect 212 3 154 0;
#X connect 212 4 215 0;
#X connect 212 5 163 0;
#X connect 212 6 166 0;
#X connect 212 7 169 0;
#X connect 212 8 172 0;
#X connect 213 0 40 4;
#X connect 214 0 213 0;
#X connect 215 0 213 1;
#X connect 216 0 39 0;
#X connect 217 0 216 0;
#X connect 218 0 243 0;
#X connect 218 1 243 1;
#X connect 219 0 218 0;
#X connect 220 0 243 0;
#X connect 220 1 243 1;
#X connect 221 0 220 0;
#X connect 222 0 243 0;
#X connect 222 1 243 1;
#X connect 223 0 222 0;
#X connect 224 0 234 0;
#X connect 225 0 234 0;
#X connect 226 0 234 0;
#X connect 227 0 234 0;
#X connect 228 0 234 0;
#X connect 229 0 234 0;
#X connect 230 0 234 0;
#X connect 231 0 234 0;
#X connect 232 0 234 0;
#X connect 233 0 234 0;
#X connect 234 0 219 0;
#X connect 234 1 221 0;
#X connect 234 2 223 0;
#X connect 234 3 236 0;
#X connect 234 4 238 0;
#X connect 234 5 240 0;
#X connect 235 0 243 0;
#X connect 235 1 243 1;
#X connect 236 0 235 0;
#X connect 237 0 243 0;
#X connect 237 1 243 1;
#X connect 238 0 237 0;
#X connect 239 0 243 0;
#X connect 239 1 243 1;
#X connect 240 0 239 0;
#X connect 241 0 39 0;
#X connect 243 0 241 0;
#X connect 243 1 241 1;
#X connect 244 0 36 0;
#X connect 246 0 204 1;
