#N canvas 254 133 867 385 10;
#X floatatom 56 48 5 0 0 0 - - -;
#X text 91 49 MIDI pitch;
#X obj 56 162 clone filterSynth.cl 32;
#X msg 56 102 next \$1;
#X obj 268 70 s filterScale;
#X floatatom 267 48 5 0 0 0 - - -;
#X floatatom 268 96 5 0 0 0 - - -;
#X obj 268 121 s filterOffset;
#X floatatom 272 276 5 0 0 0 - - -;
#X obj 273 299 s decayTime;
#X floatatom 268 147 5 0 0 0 - - -;
#X obj 268 172 s filterTime;
#X floatatom 268 198 5 0 0 0 - - -;
#X obj 269 221 s filterResonance;
#X obj 56 22 inlet;
#X obj 50 316 outlet~;
#X obj 52 289 *~ 0.9;
#X connect 0 0 3 0;
#X connect 2 0 16 0;
#X connect 3 0 2 0;
#X connect 5 0 4 0;
#X connect 6 0 7 0;
#X connect 8 0 9 0;
#X connect 10 0 11 0;
#X connect 12 0 13 0;
#X connect 14 0 0 0;
#X connect 16 0 15 0;
