#N canvas 35 251 602 456 12;
#X obj 11 9 loadbang;
#X obj 11 37 t b b, f 10;
#X msg 78 63 \; pd dsp 1;
#X obj 11 146 t f b, f 22;
#X obj 11 229 t b b;
#X msg 11 324 \; pd quit;
#X msg 43 255 stop;
#X msg 162 172 open test.wav \, start;
#X obj 162 387 writesf~ 2, f 14;
#X obj 205 329 *~ 0.2;
#X obj 257 329 *~ 0.2;
#X obj 11 199 delay;
#X text 105 12 pd -batch ./offline.pd;
#X msg 11 119 330000;
#X obj 378 212 nbx 5 14 -1e+37 1e+37 0 0 empty empty empty 0 -8 0 10
-228856 -1 -1 0 256;
#X obj 457 215 nbx 5 14 -1e+37 1e+37 0 0 empty empty empty 0 -8 0 10
-228856 -1 -1 0 256;
#X obj 299 250 else/ping.pong~ 200 0.7;
#X text 381 187 time;
#X text 455 191 feedback;
#X connect 0 0 1 0;
#X connect 1 0 13 0;
#X connect 1 1 2 0;
#X connect 3 0 11 0;
#X connect 3 1 7 0;
#X connect 4 0 5 0;
#X connect 4 1 6 0;
#X connect 6 0 8 0;
#X connect 7 0 8 0;
#X connect 9 0 8 0;
#X connect 10 0 8 1;
#X connect 11 0 4 0;
#X connect 13 0 3 0;
#X connect 14 0 16 1;
#X connect 15 0 16 2;
