#N canvas 1046 209 371 456 12;
#X obj 11 9 loadbang;
#X obj 11 37 t b b, f 10;
#X msg 78 63 \; pd dsp 1;
#X obj 11 146 t f b, f 22;
#X obj 11 229 t b b;
#X msg 11 324 \; pd quit;
#X msg 43 255 stop;
#X msg 162 172 open test.wav \, start;
#X obj 162 387 writesf~ 2, f 14;
#X obj 205 329 *~ 0.2;
#X obj 257 329 *~ 0.2;
#X obj 205 258 osc~ 440;
#X obj 272 257 osc~ 450;
#X obj 11 199 delay;
#X msg 11 119 30000;
#X text 99 33 pd -batch ./offline.pd;
#X connect 0 0 1 0;
#X connect 1 0 14 0;
#X connect 1 1 2 0;
#X connect 3 0 13 0;
#X connect 3 1 7 0;
#X connect 4 0 5 0;
#X connect 4 1 6 0;
#X connect 6 0 8 0;
#X connect 7 0 8 0;
#X connect 9 0 8 0;
#X connect 10 0 8 1;
#X connect 11 0 9 0;
#X connect 12 0 10 0;
#X connect 13 0 4 0;
#X connect 14 0 3 0;
