#N canvas 461 112 619 701 12;
#X declare -path ./sounds;
#X declare -path ./library;
#X declare -path pdjs;
#X declare -path else;
#X declare -path ./instruments/beatslicer;
#X declare -path ./instruments/fm;
#X declare -path ./instruments/sub;
#X declare -path ./instruments/poly;
#X declare -path ./instruments/acid;
#X declare -path ./instruments/dx7;
#X declare -path ./instruments/fmbass;
#X declare -path ./instruments/yellotron;
#X obj 41 35 loadbang;
#X obj 41 63 t b b, f 10;
#X msg 108 89 \; pd dsp 1;
#X obj 41 270 t f b, f 22;
#X obj 41 353 t b b;
#X msg 41 448 \; pd quit;
#X msg 73 379 stop;
#X msg 192 296 open test.wav \, start;
#X obj 192 588 writesf~ 2, f 14;
#X obj 41 323 delay;
#X text 135 38 pd -batch ./offline.pd;
#X obj 233 415 else/play.file~ 1 ./sounds/breaks/77.wav 1 1;
#N canvas 62 461 450 300 imports 0;
#X obj 3 218 declare -path ./sounds;
#X obj 4 195 declare -path ./library;
#X obj 6 264 declare -path pdjs;
#X obj 6 240 declare -path else;
#X obj 5 9 declare -path ./instruments/beatslicer;
#X obj 4 173 declare -path ./instruments/fm;
#X obj 5 127 declare -path ./instruments/sub;
#X obj 5 105 declare -path ./instruments/poly;
#X obj 5 62 declare -path ./instruments/acid;
#X obj 5 151 declare -path ./instruments/dx7;
#X obj 4 84 declare -path ./instruments/fmbass;
#X obj 4 35 declare -path ./instruments/yellotron;
#X restore 219 66 pd imports;
#X obj 40 163 soundfiler;
#X obj 118 162 print;
#X floatatom 41 216 5 0 0 0 - - -;
#X obj 40 190 else/samps2ms;
#X msg 40 137 read -resize ./sounds/breaks/77.wav;
#X obj 198 560 *~ 0.8;
#X obj 286 560 *~ 0.8;
#X obj 233 442 offlineEffect2;
#X connect 0 0 1 0;
#X connect 1 0 17 0;
#X connect 1 1 2 0;
#X connect 3 0 9 0;
#X connect 3 1 7 0;
#X connect 4 0 5 0;
#X connect 4 1 6 0;
#X connect 6 0 8 0;
#X connect 7 0 8 0;
#X connect 9 0 4 0;
#X connect 11 0 20 0;
#X connect 13 0 16 0;
#X connect 13 1 14 0;
#X connect 15 0 3 0;
#X connect 16 0 15 0;
#X connect 17 0 13 0;
#X connect 18 0 8 0;
#X connect 19 0 8 1;
#X connect 20 0 18 0;
#X connect 20 0 19 0;
