#N canvas 355 375 450 300 12;
#X obj 22 17 inlet~;
#X obj 21 254 outlet~;
#X obj 21 222 else/ping.pong~ 0 0.7;
#X obj 91 147 tgl 15 0 empty empty empty 17 7 0 10 -262144 -1 -1 1
1;
#X obj 91 17 loadbang;
#X obj 92 165 metro 70;
#X obj 92 193 random 22;
#X connect 0 0 2 0;
#X connect 2 0 1 0;
#X connect 3 0 5 0;
#X connect 4 0 3 0;
#X connect 5 0 6 0;
#X connect 6 0 2 1;
