#N canvas 40 80 943 594 10;
#X obj 117 118 hsl 128 15 0 32 0 0 empty ratio1 ratio -2 -8 0 10 -262144
-1 -1 1984 1;
#X floatatom 114 137 5 0 0 0 - - -;
#X msg 279 307 ratio \$1;
#X obj 116 169 hsl 128 15 0 1 0 0 empty level1 level -2 -8 0 10 -262144
-1 -1 12700 1;
#X floatatom 113 188 5 0 0 0 - - -;
#X msg 309 376 level \$1;
#X obj 280 418 route list;
#X obj 118 208 hsl 128 15 5 5000 0 0 empty empty empty -2 -8 0 10 -262144
-1 -1 0 1;
#X obj 156 326 pack f f f f;
#X text 102 206 a;
#X obj 117 228 hsl 128 15 5 5000 0 0 empty empty empty -2 -8 0 10 -262144
-1 -1 0 1;
#X obj 116 248 hsl 128 15 0 100 0 0 empty empty empty -2 -8 0 10 -262144
-1 -1 38 1;
#X obj 116 267 hsl 128 15 5 5000 0 0 empty empty empty -2 -8 0 10 -262144
-1 -1 36 1;
#X text 101 265 r;
#X text 101 245 s;
#X text 101 226 d;
#X obj 156 300 t b;
#X msg 156 345 env \$1 \$2 \$3 \$4;
#X obj 280 436 outlet;
#X obj 280 399 list prepend all toOscs \$1;
#X obj 294 32 inlet;
#X obj 294 53 route \$1;
#X obj 355 54 route allOscs;
#X obj 368 165 unpack f f f f;
#X obj 497 118 loadbang;
#X obj 497 139 float \$1;
#X floatatom 234 142 2 0 0 0 - - -;
#X text 207 141 osc;
#X obj 56 89 i;
#X obj 56 110 sel 0;
#X msg 56 131 0.5;
#X obj 520 38 loadbang;
#X msg 520 59 5 250 50 1000;
#X obj 142 26 loadbang;
#X msg 142 47 1;
#X obj 294 74 route ratio level env get_env;
#N canvas 0 23 450 300 store_env 0;
#X obj 82 172 f 5;
#X obj 124 169 f 200;
#X obj 28 36 inlet;
#X obj 239 177 f 1000;
#X obj 168 173 f 0.5;
#X obj 83 255 pack f f f f;
#X obj 83 276 outlet;
#X obj 203 73 inlet;
#X obj 174 106 t b b b b;
#X obj 28 57 unpack f f f f;
#X connect 0 0 5 0;
#X connect 1 0 5 1;
#X connect 2 0 9 0;
#X connect 3 0 5 3;
#X connect 4 0 5 2;
#X connect 5 0 6 0;
#X connect 7 0 8 0;
#X connect 8 0 0 0;
#X connect 8 1 1 0;
#X connect 8 2 4 0;
#X connect 8 3 3 0;
#X connect 9 0 0 1;
#X connect 9 1 1 1;
#X connect 9 2 4 1;
#X connect 9 3 3 1;
#X restore 414 325 pd store_env;
#X connect 0 0 28 0;
#X connect 1 0 2 0;
#X connect 2 0 19 0;
#X connect 3 0 4 0;
#X connect 4 0 5 0;
#X connect 5 0 19 0;
#X connect 6 0 18 0;
#X connect 7 0 8 0;
#X connect 8 0 17 0;
#X connect 8 0 36 0;
#X connect 10 0 8 1;
#X connect 10 0 16 0;
#X connect 11 0 8 2;
#X connect 11 0 16 0;
#X connect 12 0 8 3;
#X connect 12 0 16 0;
#X connect 16 0 8 0;
#X connect 17 0 19 0;
#X connect 19 0 6 0;
#X connect 20 0 21 0;
#X connect 20 0 22 0;
#X connect 21 0 35 0;
#X connect 22 0 35 0;
#X connect 23 0 7 0;
#X connect 23 1 10 0;
#X connect 23 2 11 0;
#X connect 23 3 12 0;
#X connect 24 0 25 0;
#X connect 25 0 26 0;
#X connect 28 0 29 0;
#X connect 29 0 30 0;
#X connect 29 1 1 0;
#X connect 30 0 1 0;
#X connect 31 0 32 0;
#X connect 32 0 23 0;
#X connect 33 0 34 0;
#X connect 34 0 0 0;
#X connect 34 0 3 0;
#X connect 35 0 0 0;
#X connect 35 1 3 0;
#X connect 35 2 23 0;
#X connect 35 3 36 1;
#X connect 36 0 17 0;
#X coords 0 -1 1 1 150 200 2 100 100;
