#N canvas 971 326 945 616 10;
#X obj 39 393 cos~;
#X obj 39 360 +~;
#X obj 39 317 phasor~;
#X obj 45 536 outlet~;
#X obj 41 242 inlet~;
#X obj 39 427 *~;
#X obj 264 407 adsr 1 5 200 50 300;
#X obj 94 113 unpack f f;
#X obj 104 2 inlet;
#X obj 358 346 unpack f f f f, f 25;
#X obj 388 300 loadbang;
#X msg 389 321 5 250 0.25 1000;
#N canvas 422 312 786 500 freq 0;
#X obj 44 133 * 1;
#X obj 43 172 sig~ 220;
#X obj 38 279 outlet~;
#X obj 46 68 inlet;
#X obj 113 65 inlet;
#X obj 46 96 mtof;
#X connect 0 0 1 0;
#X connect 1 0 2 0;
#X connect 3 0 5 0;
#X connect 4 0 0 1;
#X connect 5 0 0 0;
#X restore 91 264 pd freq;
#N canvas 0 23 450 300 ratio 0;
#X obj 37 37 inlet;
#X obj 38 80 sel 0;
#X obj 38 59 i;
#X msg 38 101 0.5;
#X obj 38 122 outlet;
#X connect 0 0 2 0;
#X connect 1 0 3 0;
#X connect 1 1 4 0;
#X connect 2 0 1 0;
#X connect 3 0 4 0;
#X restore 129 209 pd ratio;
#X obj 256 349 t f f;
#X obj 248 382 > 0;
#X obj 282 380 / 128;
#X obj 38 483 *~;
#X obj 110 442 pack f 20;
#X obj 110 463 line~;
#X obj 200 472 loadbang;
#X msg 200 493 1;
#X obj 104 23 route allOscs;
#X obj 24 31 route \$1;
#X obj 105 76 route ratio env level;
#X connect 0 0 5 0;
#X connect 1 0 0 0;
#X connect 2 0 1 0;
#X connect 4 0 1 1;
#X connect 5 0 17 0;
#X connect 6 0 5 1;
#X connect 7 0 12 0;
#X connect 7 1 14 0;
#X connect 8 0 22 0;
#X connect 8 0 23 0;
#X connect 9 0 6 2;
#X connect 9 1 6 3;
#X connect 9 2 6 4;
#X connect 9 3 6 5;
#X connect 10 0 11 0;
#X connect 11 0 9 0;
#X connect 12 0 2 0;
#X connect 13 0 12 1;
#X connect 14 0 15 0;
#X connect 14 1 16 0;
#X connect 15 0 6 0;
#X connect 16 0 6 1;
#X connect 17 0 3 0;
#X connect 18 0 19 0;
#X connect 19 0 17 1;
#X connect 20 0 21 0;
#X connect 21 0 18 0;
#X connect 22 0 24 0;
#X connect 23 0 24 0;
#X connect 24 0 13 0;
#X connect 24 1 9 0;
#X connect 24 2 18 0;
#X connect 24 3 7 0;
#X coords 0 616 1 615 180 150 0;
