#N canvas 422 147 788 600 10;
#X obj 184 323 nbx 5 14 -1e+37 1e+37 0 0 empty empty empty 0 -8 0 10
-228856 -1 -1 577 256;
#X obj 248 324 nbx 5 14 -1e+37 1e+37 0 0 empty empty empty 0 -8 0 10
-228856 -1 -1 111 256;
#X obj 313 305 nbx 5 14 -1e+37 1e+37 0 0 empty empty empty 0 -8 0 10
-228856 -1 -1 0 256;
#X obj 316 283 hsl 128 15 -1 1 0 0 empty empty empty -2 -8 0 10 -228856
-1 -1 6350 1;
#X obj 313 323 else/float2sig~ 10;
#X obj 227 355 else/pmosc~;
#X text 184 303 carrier;
#X text 255 303 mod;
#X text 370 305 index;
#X floatatom 94 290 5 0 0 0 - - -;
#X obj 141 420 nbx 5 14 -1e+37 1e+37 0 0 empty empty empty 0 -8 0 10
-228856 -1 -1 27.5 256;
#X obj 205 421 nbx 5 14 -1e+37 1e+37 0 0 empty empty empty 0 -8 0 10
-228856 -1 -1 173 256;
#X obj 270 402 nbx 5 14 -1e+37 1e+37 0 0 empty empty empty 0 -8 0 10
-228856 -1 -1 2 256;
#X obj 273 380 hsl 128 15 -1 1 0 0 empty empty empty -2 -8 0 10 -228856
-1 -1 12700 1;
#X obj 270 420 else/float2sig~ 10;
#X obj 184 452 else/pmosc~;
#X text 141 400 carrier;
#X text 212 400 mod;
#X text 327 402 index;
#X obj 61 440 mtof;
#X floatatom 62 419 5 0 0 0 - - -;
#X obj 157 472 *~;
#X obj 277 178 hsl 128 15 1 44100 1 0 empty empty empty -2 -8 0 10
-228856 -1 -1 0 1;
#X obj 274 207 nbx 8 14 -1e+37 1e+37 0 0 empty empty empty 0 -8 0 10
-228856 -1 -1 1 256;
#X text 290 177 frequency in Hz;
#X obj 274 233 else/rampnoise~ 400;
#X obj 119 156 hsl 128 15 1 44100 1 0 empty empty empty -2 -8 0 10
-228856 -1 -1 0 1;
#X obj 116 185 nbx 8 14 -1e+37 1e+37 0 0 empty empty empty 0 -8 0 10
-228856 -1 -1 0 256;
#X text 132 155 frequency in Hz;
#X obj 116 211 else/rampnoise~ 400;
#X obj 159 497 *~;
#X obj 161 54 bng 15 250 50 0 empty empty empty 17 7 0 10 -228856 -1
-1;
#X floatatom 256 73 5 0 0 0 - - -;
#X obj 171 101 else/decay~ 784;
#X obj 93 270 random 2000;
#X floatatom 200 277 5 0 0 0 - - -;
#X obj 199 257 random 200;
#X obj 62 398 random 100;
#X floatatom 96 354 5 0 0 0 - - -;
#X obj 95 334 random 200;
#X obj 278 152 random 3;
#X obj 117 132 random 3;
#X obj 308 97 random 2000;
#X obj 316 255 random 10;
#X obj 328 353 random 10;
#X obj 158 543 outlet~;
#X obj 160 30 inlet;
#X obj 159 520 *~ 0.5;
#X connect 0 0 5 0;
#X connect 1 0 5 1;
#X connect 2 0 4 0;
#X connect 3 0 2 0;
#X connect 4 0 5 2;
#X connect 5 0 21 0;
#X connect 9 0 0 0;
#X connect 10 0 15 0;
#X connect 11 0 15 1;
#X connect 12 0 14 0;
#X connect 13 0 12 0;
#X connect 14 0 15 3;
#X connect 15 0 21 1;
#X connect 19 0 10 0;
#X connect 20 0 19 0;
#X connect 21 0 30 0;
#X connect 22 0 23 0;
#X connect 23 0 25 0;
#X connect 25 0 5 2;
#X connect 26 0 27 0;
#X connect 27 0 29 0;
#X connect 29 0 15 2;
#X connect 30 0 47 0;
#X connect 31 0 33 0;
#X connect 31 0 34 0;
#X connect 31 0 36 0;
#X connect 31 0 37 0;
#X connect 31 0 39 0;
#X connect 31 0 40 0;
#X connect 31 0 41 0;
#X connect 31 0 42 0;
#X connect 31 0 43 0;
#X connect 31 0 44 0;
#X connect 32 0 33 1;
#X connect 33 0 30 1;
#X connect 34 0 9 0;
#X connect 35 0 1 0;
#X connect 36 0 35 0;
#X connect 37 0 20 0;
#X connect 38 0 11 0;
#X connect 39 0 38 0;
#X connect 40 0 22 0;
#X connect 41 0 26 0;
#X connect 42 0 32 0;
#X connect 43 0 3 0;
#X connect 44 0 13 0;
#X connect 46 0 31 0;
#X connect 47 0 45 0;
