#N canvas 116 142 799 600 10;
#X declare -path else;
#X obj 193 93 bng 15 250 50 0 empty empty empty 17 7 0 10 -228856 -1
-1;
#X obj 175 250 *~;
#X obj 193 211 else/decay~ 250;
#X obj 175 135 noise~;
#X obj 225 359 hsl 160 15 500 5000 0 0 empty empty empty -2 -8 0 10
-228856 -1 -1 15900 1;
#X obj 118 357 vradio 15 1 0 4 empty empty empty 0 -8 0 10 -228856
-1 -1 1;
#X text 68 356 lowpass;
#X text 62 372 highpass;
#X text 62 387 bandpass;
#X obj 290 381 hsl 128 15 0 1 0 0 empty empty empty -2 -8 0 10 -228856
-1 -1 3194 1;
#X text 302 381 Q/resonance (0-1);
#X text 232 358 cutoff/center frequency;
#X obj 118 423 + 1;
#X obj 158 450 else/xselect~ 4 1000 1;
#X obj 158 423 else/svfilter~ 800 0.5;
#X obj 287 402 nbx 5 14 -1e+37 1e+37 0 0 empty empty empty 0 -8 0 10
-228856 -1 -1 0.251507 256;
#X obj 222 382 nbx 5 14 -1e+37 1e+37 0 0 empty empty empty 0 -8 0 10
-228856 -1 -1 13519.1 256;
#X text 62 402 bandstop;
#X obj 333 291 nbx 5 14 -1e+37 1e+37 0 0 empty empty empty 0 -8 0 10
-228856 -1 -1 851 256;
#X obj 256 269 nbx 5 14 0 100 0 0 empty empty empty 0 -8 0 10 -228856
-1 -1 58 256;
#X text 312 269 Delay time (ms);
#X text 392 292 Decay time (ms);
#X obj 256 289 sig~ 10;
#X obj 180 313 else/allpass.rev~ 100 1000;
#X obj 28 99 loadbang;
#X msg 28 134 1 100 600 1462;
#X obj 28 157 unpack 0 0 0 0;
#X obj 512 104 hsl 128 15 0.1 1 1 0 empty empty empty -2 -8 0 10 -228856
-1 -1 0 1;
#X obj 509 130 nbx 4 14 -1e+37 1e+37 0 0 empty empty empty 0 -8 0 10
-228856 -1 -1 0 256;
#X text 536 104 rate in Hz;
#X msg 570 129 0;
#X obj 518 181 vsl 22 80 0 127 0 0 dsfsdgs sddfjhgj empty 0 -9 0 10
-228856 -1 -1 2347 1;
#X text 598 127 <= phase reset;
#X obj 518 154 else/lfo 0.25 -tri;
#X obj 509 279 / 150;
#X obj 342 187 hsl 128 15 -1 1 0 0 empty empty empty -2 -8 0 10 -228856
-1 -1 10642 1;
#X obj 339 135 else/drunkard~;
#X obj 339 162 else/s2f~;
#X obj 339 103 else/impulse~ 50;
#X obj 339 207 * 20000;
#X obj 234 153 random 100;
#X obj 243 173 random 2000;
#X obj 529 529 declare -path else;
#X obj 158 509 outlet~;
#X obj 192 38 inlet;
#X obj 158 473 *~ 0.5;
#X connect 0 0 2 0;
#X connect 0 0 40 0;
#X connect 0 0 41 0;
#X connect 1 0 23 0;
#X connect 2 0 1 1;
#X connect 3 0 1 0;
#X connect 4 0 16 0;
#X connect 5 0 12 0;
#X connect 9 0 15 0;
#X connect 12 0 13 0;
#X connect 13 0 45 0;
#X connect 14 0 13 0;
#X connect 14 1 13 1;
#X connect 14 2 13 2;
#X connect 14 3 13 3;
#X connect 15 0 14 2;
#X connect 16 0 14 1;
#X connect 18 0 23 2;
#X connect 19 0 22 0;
#X connect 22 0 23 1;
#X connect 23 0 14 0;
#X connect 24 0 25 0;
#X connect 25 0 26 0;
#X connect 26 0 5 0;
#X connect 26 1 19 0;
#X connect 26 2 18 0;
#X connect 26 3 4 0;
#X connect 27 0 28 0;
#X connect 28 0 33 0;
#X connect 30 0 33 1;
#X connect 31 0 34 0;
#X connect 33 0 31 0;
#X connect 34 0 9 0;
#X connect 35 0 39 0;
#X connect 36 0 37 0;
#X connect 37 0 35 0;
#X connect 38 0 36 0;
#X connect 39 0 4 0;
#X connect 40 0 19 0;
#X connect 41 0 18 0;
#X connect 44 0 0 0;
#X connect 45 0 43 0;
