#N canvas 1113 100 533 380 10;
#X declare -path else;
#X obj 33 125 noise~;
#X obj 162 196 *~;
#X obj 177 57 bng 15 250 50 0 empty empty empty 17 7 0 10 -228856 -1
-1;
#X obj 33 156 else/lowpass~ 0 5;
#X text 96 57 noise burst;
#X obj 82 119 else/rand.f 500 3000, f 12;
#X obj 177 147 else/decay~ 200;
#X obj 385 19 declare -path else;
#X obj 162 271 outlet~;
#X obj 168 25 inlet;
#X obj 162 219 *~ 0.5;
#X connect 0 0 3 0;
#X connect 1 0 10 0;
#X connect 2 0 5 0;
#X connect 2 0 6 0;
#X connect 3 0 1 0;
#X connect 5 0 3 1;
#X connect 6 0 1 1;
#X connect 9 0 2 0;
#X connect 10 0 8 0;
